<?xml version="1.0" encoding="utf-8"?>
<!-- Generator: Adobe Illustrator 25.2.3, SVG Export Plug-In . SVG Version: 6.00 Build 0)  -->
<svg version="1.1" xmlns="http://www.w3.org/2000/svg" xmlns:xlink="http://www.w3.org/1999/xlink" x="0px" y="0px"
	 viewBox="0 0 260.9 129.5" style="enable-background:new 0 0 260.9 129.5;" xml:space="preserve">
<style type="text/css">
	.st0{clip-path:url(#SVGID_2_);}
	.st1{fill:url(#SVGID_3_);}
	.st2{fill:#FFFFFF;}
	.st3{fill:none;}
</style>
<g id="Logo">
	<g>
		<g>
			<path d="M35.7,31.1h7.7l3.1,1.4l1.7,2l0.7,2.5l0.1,2.4l-0.8,4l-1.1,2.6l-1.9,2.5l-2.4,2l-3.7,1.3h-7.9L35.7,31.1z M39.3,48.8
				l2.3-0.9l1.5-1.3l1.1-1.6l1-2l0.6-2.9l-0.1-2l-0.5-1.7l-1-1.2l-1.9-0.9h-4l-3.1,14.5H39.3z"/>
			<path d="M60.2,50.4l-0.4,0.4l-2.9,1.3H55l-1.8-0.6l-1.3-1l-1.2-2.4l0.2-1.8l1-2.2l2.4-1.9l3.1-0.8h2l1.7,0.6l0.3,0.2l0.3-1.4
				l-0.1-0.6l-0.8-0.7l-1.2-0.3h-1.9l-1,0.4l-0.9,0.5l-1,0.8L53,38.8l1.3-1.1l1.5-0.8l2.2-0.6h2.7l1.8,0.5l2,1.7l0.5,1.9l-1.8,8.3
				l0.8,1.8l-3,1.8L60.2,50.4z M56.8,49l2-0.7l1.2-1.1l0.4-0.6l0.2-0.8l-0.4-0.5L59.7,45l-1.3-0.4h-1.1L55.6,45l-1.1,0.8l-0.4,0.8
				L54,47.3l0.5,1.1l0.5,0.3L56,49H56.8z"/>
			<path d="M70.5,51.3L69.2,49l1.9-9h-2.6l0.7-3.1h2.6l1.1-5.4h3.2L75,36.9h3.8L78.2,40h-3.8l-1.7,8l0.4,0.7l0.7,0.4h0.6l2.4-0.6
				l0.2,3l-3,0.7h-1.5L70.5,51.3z"/>
			<path d="M89.4,50.4L89,50.8l-2.9,1.3h-1.9l-1.8-0.6l-1.3-1L80,48.2l0.2-1.8l1-2.2l2.4-1.9l3.1-0.8h2l1.7,0.6l0.3,0.2l0.3-1.4
				l-0.1-0.6l-0.8-0.7l-1.2-0.3h-1.9l-1,0.4l-0.9,0.5l-1,0.8l-1.7-2.3l1.3-1.1l1.5-0.8l2.2-0.6h2.7l1.8,0.5l2,1.7l0.5,1.9l-1.8,8.3
				l0.8,1.8l-3,1.8L89.4,50.4z M86,49l2-0.7l1.2-1.1l0.4-0.6l0.2-0.8l-0.4-0.5L88.9,45l-1.3-0.4h-1.1L84.8,45l-1.1,0.8l-0.4,0.8
				l-0.1,0.7l0.5,1.1l0.5,0.3l1.1,0.4H86z"/>
			<path d="M110.3,31.1h7.7l3.1,1.4l1.7,2l0.7,2.5l0.1,2.4l-0.8,4l-1.1,2.6l-1.9,2.5l-2.4,2l-3.7,1.3h-7.9L110.3,31.1z M113.9,48.8
				l2.3-0.9l1.5-1.3l1.1-1.6l1-2l0.6-2.9l-0.1-2l-0.5-1.7l-1-1.2l-1.9-0.9h-4l-3.1,14.5H113.9z"/>
			<path d="M127.4,50.7l-1.2-2.4v-2.5l0.6-3.4l1.1-2.6l2-2.2l3.2-1.5h3.1l2.6,1.5l1.2,2.4v2.4l-0.7,3.5l-1,2.5l-2,2.3l-3.3,1.4h-3.2
				L127.4,50.7z M133.1,49.1l1.7-0.8l0.8-1l0.8-1.8l0.6-2.7v-1.7l-0.5-1.1l-1.3-0.7h-2l-1.5,0.7l-1,1l-0.7,1.7l-0.6,2.6l-0.1,1.9
				l0.5,1l1.3,0.8H133.1z"/>
			<path d="M145.4,36.5h3.2l-0.2,0.9l2.3-1.2h2.6l2.5,0.8l1.4,2.5l-2.6,12.3h-3.2l2.4-11.3l-0.4-0.8l-1.3-0.5h-1.6l-2.1,1.2l-0.9,1
				l-2.2,10.4h-3.2L145.4,36.5z"/>
			<path d="M168.9,50.4l-0.4,0.4l-2.9,1.3h-1.9l-1.8-0.6l-1.3-1l-1.2-2.4l0.2-1.8l1-2.2l2.4-1.9l3.1-0.8h2l1.7,0.6l0.3,0.2l0.3-1.4
				l-0.1-0.6l-0.8-0.7l-1.2-0.3h-1.9l-1,0.4l-0.9,0.5l-1,0.8l-1.7-2.3l1.3-1.1l1.5-0.8l2.2-0.6h2.7l1.8,0.5l2,1.7l0.5,1.9l-1.8,8.3
				l0.8,1.8l-3,1.8L168.9,50.4z M165.5,49l2-0.7l1.2-1.1l0.4-0.6l0.2-0.8l-0.4-0.5l-0.6-0.3l-1.3-0.4H166l-1.7,0.4l-1.1,0.8
				l-0.4,0.8l-0.1,0.7l0.5,1.1l0.5,0.3l1.1,0.4H165.5z"/>
			<path d="M179.2,51.3l-1.3-2.3l1.9-9h-2.6l0.7-3.1h2.6l1.1-5.4h3.2l-1.1,5.4h3.8l-0.7,3.1H183l-1.7,8l0.4,0.7l0.7,0.4h0.6l2.4-0.6
				l0.2,3l-3,0.7h-1.5L179.2,51.3z"/>
			<path d="M192.6,36.5h3.2l-3.3,15.4h-3.2L192.6,36.5z M193.5,29.9h4.2l-0.9,4.2h-4.2L193.5,29.9z"/>
			<path d="M199.9,50.7l-1.2-2.4v-2.5l0.6-3.4l1.1-2.6l2-2.2l3.2-1.5h3.1l2.6,1.5l1.2,2.4v2.4l-0.7,3.5l-1,2.5l-2,2.3l-3.3,1.4h-3.2
				L199.9,50.7z M205.5,49.1l1.7-0.8l0.8-1l0.8-1.8l0.6-2.7v-1.7l-0.5-1.1l-1.3-0.7h-2l-1.5,0.7l-1,1l-0.7,1.7l-0.6,2.6l-0.1,1.9
				l0.5,1l1.3,0.8H205.5z"/>
			<path d="M217.9,36.5h3.2l-0.2,0.9l2.3-1.2h2.6l2.5,0.8l1.4,2.5l-2.6,12.3h-3.2l2.4-11.3l-0.4-0.8l-1.3-0.5h-1.6l-2.1,1.2l-0.9,1
				l-2.2,10.4h-3.2L217.9,36.5z"/>
		</g>
		<g>
			<path d="M36,66.2h3.3l-3.7,17.7h9L43.8,87H31.6L36,66.2z"/>
			<path d="M56.1,85.5l-0.4,0.4l-2.9,1.3h-1.9l-1.8-0.6l-1.3-1l-1.2-2.4l0.2-1.8l1-2.2l2.4-1.9l3.1-0.8h2l1.7,0.6l0.3,0.2l0.3-1.4
				l-0.1-0.6l-0.8-0.7l-1.2-0.3h-1.9l-1,0.4l-0.9,0.5l-1,0.8l-1.7-2.3l1.3-1.1l1.5-0.8l2.2-0.6h2.7l1.8,0.5l2,1.7l0.5,1.9l-1.8,8.3
				l0.8,1.8l-3,1.8L56.1,85.5z M52.7,84.1l2-0.7l1.2-1.1l0.4-0.6l0.2-0.8l-0.4-0.5l-0.6-0.3l-1.3-0.4h-1.1l-1.7,0.4l-1.1,0.8
				L50,81.7l-0.1,0.7l0.5,1.1l0.5,0.3l1.1,0.4H52.7z"/>
			<path d="M67.3,86.6L67,86.3L66.9,87h-3.2l4.7-22h3.2L70,72.4l2-1.1h2.7l2.7,1.5l1.4,2.6l0.2,2.1l-0.7,3.4l-1,2.2l-2.4,2.6
				l-3.4,1.5h-2.7L67.3,86.6z M71.5,84.2l1.6-0.8c0.5-0.6,1-1.1,1.6-1.7c0.2-0.4,0.3-0.7,0.5-1.1l0.6-2.6l-0.1-1.1l-0.8-1.7
				l-1.5-0.8h-1.6L70,75.6l-1,1.1l-1.3,6l0.3,0.6l0.8,0.6l0.9,0.4H71.5z"/>
		</g>
		<g>
			<g>
				<defs>
					<path id="SVGID_1_" d="M184.1,71.9l-65.4,0v0l-5.2,0c-8.5,0.2-15.3,7.2-15.3,15.7c0,8.6,6.8,15.5,15.3,15.7l5.2,0v0l48.4,0h0.2
						l0,0l16.8,0c8.5-0.2,15.3-7.2,15.3-15.7C199.4,79.1,192.6,72.2,184.1,71.9z"/>
				</defs>
				<clipPath id="SVGID_2_">
					<use xlink:href="#SVGID_1_"  style="overflow:visible;"/>
				</clipPath>
				<g class="st0">
					
						<radialGradient id="SVGID_3_" cx="1422.9407" cy="-2789.0188" r="43.8183" fx="1394.7915" fy="-2789.0762" gradientTransform="matrix(-1 0 0 -1 1581.0684 -2701.3535)" gradientUnits="userSpaceOnUse">
						<stop  offset="0.3408" style="stop-color:#FFFFFF"/>
						<stop  offset="0.4237" style="stop-color:#CFCFCF"/>
						<stop  offset="0.542" style="stop-color:#919191"/>
						<stop  offset="0.6554" style="stop-color:#5D5D5D"/>
						<stop  offset="0.7609" style="stop-color:#353535"/>
						<stop  offset="0.8567" style="stop-color:#181818"/>
						<stop  offset="0.9395" style="stop-color:#060606"/>
						<stop  offset="1" style="stop-color:#000000"/>
					</radialGradient>
					<path class="st1" d="M98.2,87.7c0,8.6,6.8,15.5,15.3,15.7v0l104.5,0l0-31.5l-104.5,0v0C105,72.2,98.2,79.1,98.2,87.7z"/>
					
						<rect x="183.8" y="63.9" transform="matrix(-1 7.973719e-07 -7.973719e-07 -1 421.4243 177.8001)" class="st2" width="53.7" height="50"/>
				</g>
			</g>
			<circle cx="183.8" cy="87.7" r="15.7"/>
		</g>
	</g>
</g>
<g id="Schutzraum">
	<rect class="st3" width="260.9" height="129.5"/>
</g>
</svg>
