<?xml version="1.0" encoding="UTF-8"?>
<svg id="Ebene_2" data-name="Ebene 2" xmlns="http://www.w3.org/2000/svg" viewBox="0 0 39.69 39.69">
  <defs>
    <style>
      .cls-1 {
        fill: none;
      }

      .cls-2 {
        fill: #00111c;
      }
    </style>
  </defs>
  <g id="Icon">
    <g>
      <rect class="cls-1" width="39.69" height="39.69"/>
      <g>
        <path class="cls-2" d="M34.1,31.35l-2.63-17.78c-.08-.57-.39-1.07-.85-1.42-.47-.34-1.04-.49-1.6-.4l-5.55,.84-1.24-8.15c-.05-.32-.35-.53-.66-.49l-10.52,1.56s0,0-.01,0c-.03,0-.07,.01-.1,.03,0,0,0,0,0,0-.03,.01-.06,.03-.09,.04,0,0-.02,.01-.03,.02-.02,.01-.04,.03-.06,.04,0,0-.02,.01-.02,.02-.02,.02-.04,.04-.06,.07,0,0,0,0,0,0,0,0,0,0,0,0l-4.87,6.62s0,0,0,0c-.02,.03-.04,.06-.05,.09,0,0,0,.02-.01,.03,0,.02-.02,.05-.02,.07,0,.01,0,.02,0,.03,0,.03-.01,.06-.01,.09,0,0,0,0,0,.01,0,.04,0,.07,0,.1,0,0,0,0,0,.01l2.44,15.94c.04,.29,.29,.5,.58,.5,.03,0,.06,0,.09,0l6.88-1.03,.86,5.8c.08,.57,.39,1.07,.85,1.42,.38,.28,.82,.43,1.28,.43,.11,0,.22,0,.32-.02l13.3-2c1.18-.18,2-1.28,1.82-2.46ZM10.75,7.57l.58,3.77-3.77,.58,3.2-4.35Zm-1.57,20.41l-2.26-14.78,5.17-.79c.32-.05,.54-.35,.49-.67l-.79-5.17,9.37-1.39,1.16,7.57-6.59,.99c-1.18,.18-2,1.28-1.82,2.46l1.6,10.82-6.31,.95Zm22.92,4.68l-13.3,2c-.26,.04-.52-.03-.74-.18-.21-.16-.35-.39-.39-.65l-.86-5.81h0l-.16-1.07-1.61-10.91c-.08-.54,.3-1.05,.84-1.13l6.59-.99h0l1.1-.17,5.6-.84c.26-.04,.52,.03,.74,.18,.21,.16,.35,.39,.39,.65l2.63,17.78c.08,.54-.3,1.05-.84,1.13Z"/>
        <path class="cls-2" d="M26.46,30.53s0,0,0-.01c0,0,0-.01,0-.02-.2-.32-.52-.55-.88-.65-.01,0-.02,0-.04,0-.19-.04-.37-.05-.56-.02-.18,.03-.35,.09-.52,.19,0,0-.01,0-.02,.01-.32,.2-.56,.53-.65,.9,0,0,0,.02,0,.03-.04,.18-.05,.37-.02,.55,.03,.18,.09,.36,.19,.52,0,0,0,.02,.01,.02,.2,.32,.53,.56,.9,.65,0,0,.02,0,.02,0,.11,.02,.21,.04,.32,.04,.08,0,.15,0,.23-.02,.19-.03,.37-.09,.53-.19,0,0,0,0,0,0,0,0,0,0,0,0,.32-.2,.55-.52,.65-.88,0-.01,0-.02,0-.03,.04-.18,.05-.37,.02-.56-.03-.18-.09-.36-.19-.51Zm-.97,.8s0,0,0,.01c-.02,.07-.07,.14-.13,.18,0,0,0,0,0,0-.03,.02-.07,.03-.1,.04-.04,0-.08,0-.11,0,0,0,0,0-.01,0-.07-.02-.13-.06-.17-.12,0,0,0-.01,0-.02-.02-.03-.03-.07-.04-.1,0-.04,0-.08,0-.11,0,0,0,0,0-.01,.02-.07,.06-.13,.12-.17,0,0,0,0,0,0,.03-.02,.07-.03,.11-.04,.03,0,.07,0,.1,0,0,0,0,0,.01,0,.07,.02,.13,.06,.17,.12,0,0,0,.01,0,.02,.02,.03,.03,.07,.04,.1,0,.04,0,.07,0,.11Z"/>
        <path class="cls-2" d="M24.4,15.12c-.05-.32-.35-.54-.66-.49l-2.15,.32c-.32,.05-.54,.34-.49,.66,.04,.29,.29,.5,.58,.5,.03,0,.06,0,.09,0l2.15-.32c.32-.05,.54-.34,.49-.66Z"/>
      </g>
    </g>
  </g>
</svg>