<?xml version="1.0" encoding="UTF-8"?>
<svg id="Ebene_2" data-name="Ebene 2" xmlns="http://www.w3.org/2000/svg" viewBox="0 0 39.69 39.69">
  <defs>
    <style>
      .cls-1 {
        fill: none;
      }

      .cls-2 {
        fill: #1d1d1b;
      }
    </style>
  </defs>
  <g id="Icon">
    <g>
      <rect class="cls-1" width="39.69" height="39.69"/>
      <g>
        <path class="cls-2" d="M11.75,16.61c-.26,0-.5-.19-.54-.46-.04-.3,.16-.57,.46-.62l13.12-1.94c.3-.04,.57,.16,.62,.46,.04,.3-.16,.57-.46,.62l-13.12,1.94s-.05,0-.08,0Z"/>
        <path class="cls-2" d="M12.28,20.63c-.26,0-.5-.19-.54-.46-.04-.3,.16-.57,.46-.62l12.55-1.86c.3-.05,.57,.16,.62,.46,.04,.3-.16,.57-.46,.62l-12.55,1.86s-.05,0-.08,0Z"/>
        <path class="cls-2" d="M12.81,24.87c-.26,0-.5-.19-.54-.46-.04-.3,.16-.57,.46-.62l7.28-1.08c.3-.05,.57,.16,.62,.46,.04,.3-.16,.57-.46,.62l-7.28,1.08s-.05,0-.08,0Z"/>
        <path class="cls-2" d="M33.92,17.09l-2.06-2.12c-.1-.1-.24-.16-.38-.16-.15,0-.28,.05-.39,.15l-2.2,2.14-.94-6.32c-.02-.14-.1-.27-.21-.36l-5.66-4.2c-.12-.09-.26-.12-.4-.1l-13.78,2.03c-.3,.04-.5,.32-.46,.62l3.6,24.35c.02,.14,.1,.27,.21,.36,.09,.07,.21,.11,.32,.11,.03,0,.05,0,.08,0l18.72-2.76c.3-.04,.5-.32,.46-.61l-.87-5.99s0-.04-.01-.07l-.31-2.11,4.29-4.17c.21-.21,.22-.55,.01-.77Zm-7.83-6.54l-3.17,.47-.47-3.16,3.64,2.7Zm2.81,13.97s0,.04,.01,.05l.76,5.24-17.64,2.61-3.44-23.27,12.69-1.87,.66,4.44c.02,.14,.1,.27,.21,.36,.09,.07,.21,.11,.32,.11,.03,0,.05,0,.08,0l4.42-.65,.97,6.51-8.1,7.87s-.01,0-.02,.01c-.06,.06-.1,.13-.13,.2l-.63,1.63-.71,1.75c-.08,.2-.04,.43,.11,.58,.1,.11,.25,.16,.39,.16,.06,0,.13-.01,.19-.03l1.77-.66h0s1.63-.61,1.63-.61c.07-.03,.14-.06,.2-.12,0,0,0,0,.01-.01l6.02-5.85,.23,1.57Zm-9.09,4.24l.25-.61,.33-.86,.89,.92-1.48,.55Zm2.46-1.1l-1.31-1.34,10.5-10.21,1.31,1.34-10.5,10.21Z"/>
      </g>
    </g>
  </g>
</svg>