<?xml version="1.0" encoding="UTF-8" standalone="no"?>
<!DOCTYPE svg PUBLIC "-//W3C//DTD SVG 1.1//EN" "http://www.w3.org/Graphics/SVG/1.1/DTD/svg11.dtd">
<svg width="100%" height="100%" viewBox="0 0 1088 540" version="1.1" xmlns="http://www.w3.org/2000/svg" xmlns:xlink="http://www.w3.org/1999/xlink" xml:space="preserve" xmlns:serif="http://www.serif.com/" style="fill-rule:evenodd;clip-rule:evenodd;stroke-linejoin:round;stroke-miterlimit:2;">
    <g id="Logo" transform="matrix(4.16667,0,0,4.16667,0,0)">
        <g transform="matrix(1,0,0,1,39.2523,34.2417)">
            <path d="M0,14.534L2.311,13.628L3.831,12.37L4.972,10.732L5.966,8.715L6.58,5.819L6.492,3.802L5.995,2.105L5.001,0.878L3.071,0L-0.965,0L-4.036,14.534L0,14.534ZM-3.567,-3.129L4.124,-3.129L7.224,-1.696L8.919,0.351L9.65,2.895L9.738,5.322L8.949,9.3L7.837,11.873L5.966,14.388L3.539,16.377L-0.117,17.663L-7.983,17.663L-3.567,-3.129Z" style="fill:white;fill-rule:nonzero;"/>
        </g>
        <g transform="matrix(1,0,0,1,56.8289,39.5054)">
            <path d="M0,9.533L2.047,8.803L3.275,7.75L3.655,7.106L3.831,6.288L3.451,5.79L2.866,5.469L1.608,5.059L0.468,5.059L-1.229,5.498L-2.311,6.345L-2.69,7.106L-2.837,7.808L-2.34,8.861L-1.872,9.153L-0.819,9.533L0,9.533ZM3.392,10.879L2.982,11.317L0.117,12.634L-1.813,12.634L-3.568,12.019L-4.884,11.054L-6.054,8.656L-5.849,6.873L-4.854,4.679L-2.486,2.749L0.585,1.96L2.632,1.96L4.299,2.602L4.562,2.807L4.854,1.433L4.737,0.848L3.889,0.176L2.661,-0.146L0.79,-0.146L-0.234,0.205L-1.141,0.731L-2.135,1.52L-3.86,-0.731L-2.515,-1.813L-1.053,-2.661L1.169,-3.246L3.889,-3.246L5.673,-2.749L7.662,-1.082L8.159,0.848L6.375,9.182L7.223,11.025L4.27,12.779L3.392,10.879Z" style="fill:white;fill-rule:nonzero;"/>
        </g>
        <g transform="matrix(1,0,0,1,70.5443,32.37)">
            <path d="M0,18.891L-1.316,16.581L0.585,7.603L-2.047,7.603L-1.374,4.503L1.258,4.503L2.398,-0.878L5.644,-0.878L4.504,4.503L8.334,4.503L7.662,7.603L3.831,7.603L2.135,15.616L2.515,16.318L3.217,16.668L3.831,16.668L6.229,16.055L6.463,19.096L3.422,19.769L1.959,19.769L0,18.891Z" style="fill:white;fill-rule:nonzero;"/>
        </g>
        <g transform="matrix(1,0,0,1,86.0438,39.5054)">
            <path d="M0,9.533L2.047,8.803L3.275,7.75L3.656,7.106L3.831,6.288L3.451,5.79L2.866,5.469L1.608,5.059L0.468,5.059L-1.228,5.498L-2.31,6.345L-2.69,7.106L-2.836,7.808L-2.339,8.861L-1.872,9.153L-0.819,9.533L0,9.533ZM3.393,10.879L2.983,11.317L0.117,12.634L-1.813,12.634L-3.568,12.019L-4.884,11.054L-6.053,8.656L-5.849,6.873L-4.854,4.679L-2.485,2.749L0.585,1.96L2.632,1.96L4.299,2.602L4.562,2.807L4.854,1.433L4.738,0.848L3.89,0.176L2.661,-0.146L0.79,-0.146L-0.234,0.205L-1.141,0.731L-2.135,1.52L-3.86,-0.731L-2.515,-1.813L-1.053,-2.661L1.17,-3.246L3.89,-3.246L5.673,-2.749L7.662,-1.082L8.159,0.848L6.375,9.182L7.223,11.025L4.27,12.779L3.393,10.879Z" style="fill:white;fill-rule:nonzero;"/>
        </g>
        <g transform="matrix(1,0,0,1,113.885,34.2417)">
            <path d="M0,14.534L2.311,13.628L3.831,12.37L4.972,10.732L5.966,8.715L6.58,5.819L6.492,3.802L5.995,2.105L5.001,0.878L3.07,0L-0.965,0L-4.036,14.534L0,14.534ZM-3.567,-3.129L4.124,-3.129L7.223,-1.696L8.919,0.351L9.65,2.895L9.738,5.322L8.949,9.3L7.837,11.873L5.966,14.388L3.539,16.377L-0.117,17.663L-7.983,17.663L-3.567,-3.129Z" style="fill:white;fill-rule:nonzero;"/>
        </g>
        <g transform="matrix(1,0,0,1,133.07,39.3297)">
            <path d="M0,9.738L1.696,8.978L2.544,7.984L3.304,6.2L3.86,3.509L3.86,1.813L3.392,0.76L2.105,0.03L0.088,0.03L-1.433,0.76L-2.398,1.784L-3.129,3.509L-3.685,6.141L-3.772,8.013L-3.246,8.978L-1.93,9.738L0,9.738ZM-5.673,11.376L-6.872,9.008L-6.872,6.55L-6.258,3.159L-5.176,0.585L-3.129,-1.608L0.088,-3.071L3.188,-3.071L5.819,-1.608L7.047,0.76L7.047,3.159L6.316,6.609L5.351,9.124L3.304,11.434L0,12.809L-3.158,12.809L-5.673,11.376Z" style="fill:white;fill-rule:nonzero;"/>
        </g>
        <g transform="matrix(1,0,0,1,145.44,51.6705)">
            <path d="M0,-15.177L3.246,-15.177L3.041,-14.241L5.322,-15.411L7.896,-15.411L10.352,-14.563L11.785,-12.077L9.183,0.234L5.937,0.234L8.334,-11.054L7.954,-11.843L6.697,-12.311L5.147,-12.311L3.07,-11.113L2.164,-10.118L-0.029,0.234L-3.275,0.234L0,-15.177Z" style="fill:white;fill-rule:nonzero;"/>
        </g>
        <g transform="matrix(1,0,0,1,165.503,39.5054)">
            <path d="M0,9.533L2.047,8.803L3.275,7.75L3.655,7.106L3.831,6.288L3.45,5.79L2.865,5.469L1.608,5.059L0.468,5.059L-1.229,5.498L-2.311,6.345L-2.691,7.106L-2.837,7.808L-2.34,8.861L-1.872,9.153L-0.819,9.533L0,9.533ZM3.392,10.879L2.982,11.317L0.117,12.634L-1.813,12.634L-3.568,12.019L-4.884,11.054L-6.054,8.656L-5.849,6.873L-4.854,4.679L-2.486,2.749L0.585,1.96L2.632,1.96L4.299,2.602L4.562,2.807L4.854,1.433L4.737,0.848L3.889,0.176L2.661,-0.146L0.789,-0.146L-0.234,0.205L-1.141,0.731L-2.135,1.52L-3.86,-0.731L-2.515,-1.813L-1.053,-2.661L1.169,-3.246L3.889,-3.246L5.673,-2.749L7.662,-1.082L8.159,0.848L6.375,9.182L7.223,11.025L4.27,12.779L3.392,10.879Z" style="fill:white;fill-rule:nonzero;"/>
        </g>
        <g transform="matrix(1,0,0,1,179.218,32.37)">
            <path d="M0,18.891L-1.316,16.581L0.585,7.603L-2.047,7.603L-1.375,4.503L1.257,4.503L2.398,-0.878L5.644,-0.878L4.503,4.503L8.334,4.503L7.662,7.603L3.831,7.603L2.135,15.616L2.515,16.318L3.217,16.668L3.831,16.668L6.229,16.055L6.463,19.096L3.421,19.769L1.959,19.769L0,18.891Z" style="fill:white;fill-rule:nonzero;"/>
        </g>
        <g transform="matrix(1,0,0,1,193.46,51.9048)">
            <path d="M0,-22.05L4.241,-22.05L3.334,-17.81L-0.906,-17.81L0,-22.05ZM-0.848,-15.411L2.398,-15.411L-0.877,0L-4.123,0L-0.848,-15.411Z" style="fill:white;fill-rule:nonzero;"/>
        </g>
        <g transform="matrix(1,0,0,1,205.538,39.3297)">
            <path d="M0,9.738L1.696,8.978L2.544,7.984L3.304,6.2L3.86,3.509L3.86,1.813L3.392,0.76L2.105,0.03L0.088,0.03L-1.433,0.76L-2.398,1.784L-3.129,3.509L-3.685,6.141L-3.772,8.013L-3.246,8.978L-1.93,9.738L0,9.738ZM-5.673,11.376L-6.872,9.008L-6.872,6.55L-6.258,3.159L-5.176,0.585L-3.129,-1.608L0.088,-3.071L3.188,-3.071L5.819,-1.608L7.047,0.76L7.047,3.159L6.316,6.609L5.351,9.124L3.304,11.434L0,12.809L-3.158,12.809L-5.673,11.376Z" style="fill:white;fill-rule:nonzero;"/>
        </g>
        <g transform="matrix(1,0,0,1,217.909,51.6705)">
            <path d="M0,-15.177L3.246,-15.177L3.041,-14.241L5.322,-15.411L7.896,-15.411L10.352,-14.563L11.785,-12.077L9.183,0.234L5.937,0.234L8.334,-11.054L7.954,-11.843L6.697,-12.311L5.146,-12.311L3.07,-11.113L2.164,-10.118L-0.029,0.234L-3.275,0.234L0,-15.177Z" style="fill:white;fill-rule:nonzero;"/>
        </g>
        <g transform="matrix(1,0,0,1,35.9774,86.9983)">
            <path d="M0,-20.792L3.275,-20.792L-0.468,-3.129L8.51,-3.129L7.837,0L-4.416,0L0,-20.792Z" style="fill:white;fill-rule:nonzero;"/>
        </g>
        <g transform="matrix(1,0,0,1,52.7049,74.6001)">
            <path d="M0,9.533L2.047,8.802L3.275,7.749L3.655,7.105L3.831,6.287L3.451,5.79L2.866,5.468L1.608,5.058L0.468,5.058L-1.229,5.497L-2.31,6.345L-2.69,7.105L-2.836,7.807L-2.339,8.86L-1.872,9.152L-0.819,9.533L0,9.533ZM3.392,10.878L2.983,11.316L0.117,12.633L-1.813,12.633L-3.568,12.018L-4.884,11.054L-6.053,8.655L-5.849,6.872L-4.854,4.679L-2.486,2.749L0.585,1.959L2.632,1.959L4.299,2.602L4.562,2.806L4.854,1.432L4.737,0.847L3.89,0.175L2.661,-0.147L0.79,-0.147L-0.234,0.204L-1.141,0.73L-2.135,1.52L-3.86,-0.732L-2.515,-1.814L-1.053,-2.662L1.17,-3.246L3.89,-3.246L5.673,-2.749L7.662,-1.082L8.159,0.847L6.375,9.181L7.223,11.024L4.27,12.779L3.392,10.878Z" style="fill:white;fill-rule:nonzero;"/>
        </g>
        <g transform="matrix(1,0,0,1,71.5091,68.0194)">
            <path d="M0,16.143L1.638,15.324C2.164,14.768 2.661,14.212 3.217,13.657C3.392,13.277 3.539,12.926 3.743,12.545L4.299,9.943L4.211,8.89L3.392,7.194L1.93,6.434L0.351,6.434L-1.492,7.545L-2.457,8.598L-3.714,14.622L-3.393,15.206L-2.574,15.791L-1.667,16.143L0,16.143ZM-4.211,18.57L-4.503,18.278L-4.65,18.979L-7.896,18.979L-3.217,-3.07L0.029,-3.07L-1.55,4.416L0.438,3.334L3.129,3.334L5.849,4.826L7.252,7.428L7.486,9.563L6.784,12.926L5.79,15.12L3.392,17.751L-0.029,19.213L-2.69,19.213L-4.211,18.57Z" style="fill:white;fill-rule:nonzero;"/>
        </g>
        <g transform="matrix(-43.8183,0,0,43.8183,158.128,87.6894)">
            <path d="M0.899,-0.36L1.018,-0.36C1.212,-0.354 1.368,-0.196 1.368,-0C1.368,0.049 1.358,0.096 1.339,0.139C1.286,0.265 1.163,0.355 1.018,0.359L1.018,0.359C1.018,0.359 1.018,0.359 1.018,0.359L0.899,0.359L0.899,0.359L-0.209,0.359L-0.593,0.359C-0.787,0.354 -0.943,0.195 -0.943,-0C-0.943,-0.196 -0.787,-0.354 -0.593,-0.36L0.899,-0.36L0.899,-0.36Z" style="fill:url(#_Radial1);fill-rule:nonzero;"/>
        </g>
        <g transform="matrix(1,0,0,1,183.847,113.892)">
            <clipPath id="_clip2">
                <path d="M-65.096,-41.959L-70.318,-41.958C-78.82,-41.722 -85.643,-34.774 -85.643,-26.214C-85.643,-17.655 -78.82,-10.706 -70.318,-10.469L-65.096,-10.469L-65.096,-10.468L-16.731,-10.469L0.271,-10.469C8.774,-10.706 15.597,-17.655 15.597,-26.215C15.597,-34.774 8.773,-41.722 0.271,-41.959L-65.096,-41.96L-65.096,-41.959Z" clip-rule="nonzero"/>
            </clipPath>
            <g clip-path="url(#_clip2)">
                <rect x="0" y="-49.983" width="53.73" height="49.983" style="fill:white;"/>
            </g>
        </g>
        <g transform="matrix(0,1,1,0,183.783,71.9306)">
            <path d="M15.746,-15.746C7.05,-15.746 0.001,-8.696 0.001,-0C0.001,8.695 7.05,15.746 15.746,15.746C24.441,15.746 31.491,8.695 31.491,-0C31.491,-8.696 24.441,-15.746 15.746,-15.746" style="fill:white;fill-rule:nonzero;"/>
        </g>
    </g>
    <defs>
        <radialGradient id="_Radial1" cx="0" cy="0" r="1" gradientUnits="userSpaceOnUse" gradientTransform="matrix(2.31045,0,0,0.718718,-0.942901,-0.000272576)"><stop offset="0" style="stop-color:white;stop-opacity:0"/><stop offset="0.35" style="stop-color:white;stop-opacity:0.06"/><stop offset="0.63" style="stop-color:white;stop-opacity:0.35"/><stop offset="1" style="stop-color:white;stop-opacity:1"/></radialGradient>
    </defs>
</svg>
