<?xml version="1.0" encoding="utf-8"?>
<!-- Generator: Adobe Illustrator 26.5.0, SVG Export Plug-In . SVG Version: 6.00 Build 0)  -->
<svg version="1.1" xmlns="http://www.w3.org/2000/svg" xmlns:xlink="http://www.w3.org/1999/xlink" x="0px" y="0px"
	 viewBox="0 0 260.5 150.6" style="enable-background:new 0 0 260.5 150.6;" xml:space="preserve">
<style type="text/css">
	.st0{fill:#1E1E1C;}
	.st1{fill:none;}
</style>
<g id="Logo">
	<g>
		<path class="st0" d="M199.4,116.4c-1.8,0-3.3-0.3-4.7-0.9c-1.4-0.6-2.5-1.5-3.3-2.6c-0.8-1.2-1.2-2.6-1.2-4.2
			c0-1.7,0.4-3.1,1.2-4.2c0.8-1.1,1.9-2,3.3-2.5c1.4-0.6,3-0.8,4.8-0.8h7.5v-1.6c0-1.4-0.4-2.6-1.3-3.4c-0.9-0.9-2.2-1.3-4-1.3
			c-1.8,0-3.1,0.4-4,1.2c-0.9,0.8-1.5,1.9-1.8,3.2l-4.8-1.5c0.4-1.3,1-2.5,1.9-3.6c0.9-1.1,2-2,3.5-2.6c1.5-0.7,3.2-1,5.3-1
			c3.2,0,5.7,0.8,7.5,2.4c1.8,1.6,2.7,3.9,2.7,6.9v10.1c0,1,0.5,1.5,1.4,1.5h2.1v4.3h-3.8c-1.2,0-2.1-0.3-2.8-0.9
			c-0.7-0.6-1.1-1.4-1.1-2.4v-0.1H207c-0.3,0.5-0.7,1.1-1.2,1.7c-0.5,0.7-1.3,1.2-2.3,1.7C202.4,116.2,201.1,116.4,199.4,116.4z
			 M200.1,112.2c2.1,0,3.7-0.6,5-1.8c1.3-1.2,1.9-2.8,1.9-4.9V105h-7.2c-1.4,0-2.5,0.3-3.3,0.9c-0.8,0.6-1.2,1.4-1.2,2.6
			c0,1.1,0.4,2,1.3,2.7C197.4,111.8,198.6,112.2,200.1,112.2z"/>
		<path class="st0" d="M220.5,115.7V80.8h5.1v34.9H220.5z"/>
		<path class="st0" d="M174.2,116.3c-2.5,0-4.7-0.5-6.5-1.6c-1.9-1-3.3-2.5-4.4-4.4c-1-1.9-1.6-4.1-1.6-6.6V103
			c0-2.6,0.5-4.8,1.5-6.7c1-1.9,2.5-3.4,4.3-4.4c1.8-1,4-1.6,6.4-1.6c2.4,0,4.4,0.5,6.2,1.6c1.8,1,3.2,2.5,4.2,4.4
			c1,1.9,1.5,4,1.5,6.5v1.9H167c0.1,2.2,0.8,3.9,2.2,5.2c1.4,1.3,3.1,1.9,5.2,1.9c1.9,0,3.4-0.4,4.4-1.3c1-0.9,1.7-1.9,2.3-3
			l4.2,2.2c-0.5,0.9-1.1,1.9-2,2.9c-0.9,1-2,1.9-3.5,2.6C178.3,115.9,176.4,116.3,174.2,116.3z M167,100.8h13.6
			c-0.1-1.9-0.8-3.3-2-4.4c-1.2-1-2.8-1.6-4.7-1.6c-1.9,0-3.5,0.5-4.7,1.6C168,97.5,167.3,98.9,167,100.8z"/>
		<path class="st0" d="M151.9,88.4c-1.6-1.8-3.7-2.7-5.9-2.7c-2.2,0-4.6,0.7-7,2.1c-0.1-0.5-0.2-1-0.3-1.5c-1.8-6.7-5.6-8.5-8.5-8.9
			c-10-1.3-15.5,9.2-19.2,16.1c-0.7,1.3-1.3,2.5-1.9,3.4c-3,5-5.5,8.4-8.9,9.7c-3.7,1.5-8.9,0.6-16.3-2.6
			c-23.6-10.4-39.4-13.1-47.1-8c-3.4,2.3-4.3,5.6-4.3,7.3l2.3,0l2.3,0c0-0.1,0.1-2,2.3-3.4c3.6-2.3,13.8-4.2,42.4,8.4
			c17.4,7.6,23.9,3.2,31.1-9c0.6-1.1,1.3-2.3,2-3.7c3.2-6.1,7.6-14.5,14.4-13.6c2.9,0.4,4.2,3.7,4.8,6.5c0.2,0.8,0.3,1.6,0.4,2.4
			c-0.3,0.3-0.7,0.6-1,1c-3.5,3.6-6.3,8.2-7.3,12.3c-1.3,4.9-0.1,8.7,3.2,10.6c0.6,0.3,1.3,0.5,1.9,0.5c0.9,0,1.8-0.3,2.6-0.9
			c3.5-2.7,5.8-12.8,5.5-21.4c2.1-1.7,4.4-2.7,6.4-2.7c1,0,1.7,0.4,2.5,1.2c1.9,2.1,3.1,6.7,3.5,13.2c0.3,5.2-0.1,9.8-0.1,9.8
			l-0.1,1.1h4.7l0.1-0.7l0,0C156.7,113,158.1,95.1,151.9,88.4z M134.2,102.7c-0.8,4.5-2,7-2.7,7.8c-1.2-1.1-1-3.3-0.6-5
			c0.6-2.4,2-5.1,3.9-7.5C134.7,99.6,134.5,101.2,134.2,102.7z"/>
		<path class="st0" d="M34.9,69.7v-4.8h4.7V39.6h-4.7v-4.8h13.9c4.6,0,8.2,1.2,10.7,3.5c2.5,2.4,3.7,5.9,3.7,10.7v6.5
			c0,4.7-1.2,8.3-3.7,10.6c-2.5,2.3-6,3.5-10.7,3.5H34.9z M45,64.8h3.9c3,0,5.3-0.8,6.7-2.3c1.5-1.5,2.2-3.8,2.2-6.8v-6.9
			c0-3.1-0.7-5.3-2.2-6.8c-1.5-1.5-3.7-2.2-6.7-2.2H45V64.8z"/>
		<path class="st0" d="M72,41.8c-1,0-1.8-0.3-2.5-1c-0.7-0.6-1-1.5-1-2.5c0-1,0.3-1.9,1-2.5c0.7-0.6,1.5-1,2.5-1c1,0,1.9,0.3,2.5,1
			c0.7,0.6,1,1.5,1,2.5c0,1-0.3,1.9-1,2.5C73.9,41.5,73.1,41.8,72,41.8z M69.4,69.7V45.2h5.1v24.6H69.4z"/>
		<path class="st0" d="M81,57.6v-0.7c0-2.6,0.5-4.8,1.6-6.6c1-1.8,2.4-3.2,4.2-4.2c1.7-1,3.6-1.5,5.7-1.5c2.4,0,4.2,0.4,5.5,1.3
			c1.3,0.9,2.2,1.9,2.8,2.9h0.8v-3.5h5v29.6c0,1.5-0.4,2.7-1.3,3.6s-2.1,1.3-3.6,1.3H85v-4.5H100c1,0,1.4-0.5,1.4-1.5v-7.8h-0.8
			c-0.4,0.6-0.9,1.2-1.5,1.8c-0.7,0.6-1.5,1.1-2.6,1.5c-1.1,0.4-2.4,0.6-4.1,0.6c-2.1,0-4-0.5-5.7-1.5c-1.7-1-3.1-2.4-4.2-4.2
			C81.5,62.3,81,60.1,81,57.6z M93.8,65.4c2.2,0,4.1-0.7,5.5-2.1c1.4-1.4,2.2-3.4,2.2-5.9V57c0-2.6-0.7-4.5-2.1-5.9
			C97.9,49.7,96,49,93.8,49c-2.2,0-4,0.7-5.5,2.1c-1.4,1.4-2.2,3.3-2.2,5.9v0.4c0,2.5,0.7,4.4,2.2,5.9
			C89.8,64.7,91.6,65.4,93.8,65.4z"/>
		<path class="st0" d="M116.7,41.8c-1,0-1.8-0.3-2.5-1c-0.7-0.6-1-1.5-1-2.5c0-1,0.3-1.9,1-2.5c0.7-0.6,1.5-1,2.5-1
			c1,0,1.9,0.3,2.5,1c0.7,0.6,1,1.5,1,2.5c0,1-0.3,1.9-1,2.5C118.5,41.5,117.7,41.8,116.7,41.8z M114.1,69.7V45.2h5.1v24.6H114.1z"
			/>
		<path class="st0" d="M136,69.7c-1.5,0-2.7-0.4-3.6-1.3c-0.9-0.9-1.3-2.1-1.3-3.6V49.5h-6.8v-4.3h6.8v-8.1h5.1v8.1h7.3v4.3h-7.3
			v14.4c0,1,0.5,1.5,1.4,1.5h5.1v4.3H136z"/>
		<path class="st0" d="M157.2,70.4c-1.8,0-3.3-0.3-4.7-0.9c-1.4-0.6-2.5-1.5-3.3-2.6c-0.8-1.2-1.2-2.6-1.2-4.2
			c0-1.7,0.4-3.1,1.2-4.2c0.8-1.1,1.9-2,3.3-2.5c1.4-0.6,3-0.8,4.8-0.8h7.5v-1.6c0-1.4-0.4-2.6-1.3-3.4c-0.9-0.9-2.2-1.3-4-1.3
			c-1.8,0-3.1,0.4-4,1.2c-0.9,0.8-1.5,1.9-1.8,3.2l-4.8-1.5c0.4-1.3,1-2.5,1.9-3.6c0.9-1.1,2-2,3.5-2.6c1.5-0.7,3.2-1,5.3-1
			c3.2,0,5.7,0.8,7.5,2.4c1.8,1.6,2.7,3.9,2.7,6.9V64c0,1,0.5,1.5,1.4,1.5h2.1v4.3h-3.8c-1.2,0-2.1-0.3-2.8-0.9
			c-0.7-0.6-1.1-1.4-1.1-2.4v-0.1h-0.7c-0.3,0.5-0.7,1.1-1.2,1.7c-0.5,0.7-1.3,1.2-2.3,1.7C160.2,70.2,158.9,70.4,157.2,70.4z
			 M157.9,66.2c2.1,0,3.7-0.6,5-1.8c1.3-1.2,1.9-2.8,1.9-4.9v-0.5h-7.2c-1.4,0-2.5,0.3-3.3,0.9c-0.8,0.6-1.2,1.4-1.2,2.6
			c0,1.1,0.4,2,1.3,2.7C155.3,65.9,156.4,66.2,157.9,66.2z"/>
		<path class="st0" d="M178.3,69.7V34.9h5.1v34.9H178.3z"/>
	</g>
</g>
<g id="Schutzraum">
	<rect class="st1" width="260.5" height="150.6"/>
</g>
</svg>
