<?xml version="1.0" encoding="UTF-8" standalone="no"?><!DOCTYPE svg PUBLIC "-//W3C//DTD SVG 1.1//EN" "http://www.w3.org/Graphics/SVG/1.1/DTD/svg11.dtd"><svg width="100%" height="100%" viewBox="0 0 834 834" version="1.1" xmlns="http://www.w3.org/2000/svg" xmlns:xlink="http://www.w3.org/1999/xlink" xml:space="preserve" xmlns:serif="http://www.serif.com/" style="fill-rule:evenodd;clip-rule:evenodd;stroke-linejoin:round;stroke-miterlimit:2;"><g id="Logo"><g><path d="M203.474,589.664c-1.408,-4.523 -2.774,-9.055 -4.216,-13.586c-3.651,-11.48 -6.383,-23.282 -9.075,-35.076c20.17,1.58 37.491,-0.622 52.408,-6.67c34.492,-13.188 59.853,-47.679 90.287,-98.402c6.087,-9.13 12.173,-21.304 19.275,-34.492c37.535,-69.997 93.33,-176.515 194.775,-163.327c29.42,4.058 67.969,22.318 86.229,90.286l3.044,15.217c24.347,-14.202 48.694,-21.303 71.012,-21.303c22.318,-0 43.621,9.13 59.853,27.39c62.896,67.969 48.694,249.557 45.65,268.831l-1.014,7.102l-47.68,-0l1.015,-11.16c-0,0 4.058,-46.665 1.014,-99.416c-4.058,-65.94 -16.231,-112.605 -35.506,-133.909c-8.115,-8.115 -15.217,-12.173 -25.361,-12.173c-20.289,-0 -43.622,10.144 -64.925,27.39c3.043,87.243 -20.29,189.704 -55.796,217.094c-8.115,6.087 -17.245,9.13 -26.376,9.13c-6.086,0 -13.187,-2.029 -19.274,-5.072c-33.477,-19.275 -45.651,-57.824 -32.463,-107.533c10.145,-41.592 38.55,-88.257 74.056,-124.778c3.043,-4.058 7.101,-7.101 10.144,-10.145c-1.014,-8.115 -2.029,-16.231 -4.058,-24.347c-6.086,-28.404 -19.274,-61.881 -48.694,-65.939c-68.983,-9.13 -113.619,76.084 -146.082,137.966c-7.101,14.202 -14.202,26.376 -20.289,37.535c-47.948,81.245 -92.836,128.392 -167.953,129.387Zm384.033,-94.896c3.043,-15.216 5.072,-31.448 6.087,-47.679c-19.275,24.347 -33.478,51.737 -39.564,76.084c-4.058,17.246 -6.087,39.564 6.086,50.723c7.102,-8.115 19.275,-33.477 27.391,-79.128Z" style="fill:#1e1e1c;"/><path d="M17.104,596.598l0,-53.487l52.374,-0l-0,-281.924l-52.374,0l0,-53.487l154.891,-0c51.259,-0 91.375,13.372 119.233,39.001c27.858,26.744 41.23,65.745 41.23,119.233l-0,72.431c-0,52.373 -13.372,92.488 -41.23,118.118c-27.858,25.629 -66.86,39.001 -119.233,39.001l-154.891,0l0,1.114Zm112.547,-54.601l43.459,-0c33.429,-0 59.059,-8.915 74.659,-25.63c16.715,-16.715 24.515,-42.344 24.515,-75.774l0,-76.888c0,-34.544 -7.8,-59.059 -24.515,-75.774c-16.715,-16.715 -41.23,-24.515 -74.659,-24.515l-43.459,-0l0,278.581Z" style="fill:#1e1e1c;fill-rule:nonzero;"/></g></g><g id="Schutzraum"><rect x="-306.944" y="-1.667" width="1447.22" height="836.667" style="fill:none;"/></g></svg>