<svg width="707" height="732" xmlns="http://www.w3.org/2000/svg" xmlns:xlink="http://www.w3.org/1999/xlink" xml:space="preserve" overflow="hidden"><defs><clipPath id="clip0"><rect x="1750" y="1107" width="707" height="732"/></clipPath><clipPath id="clip1"><rect x="1953" y="1106" width="300" height="313"/></clipPath><clipPath id="clip2"><rect x="1953" y="1106" width="300" height="313"/></clipPath><clipPath id="clip3"><rect x="1953" y="1106" width="300" height="313"/></clipPath></defs><g clip-path="url(#clip0)" transform="translate(-1750 -1107)"><g clip-path="url(#clip1)"><g clip-path="url(#clip2)"><g clip-path="url(#clip3)"><path d="M247.073 123.046C247.073 136.887 235.853 148.107 222.013 148.107 208.172 148.107 196.952 136.887 196.952 123.046 196.952 109.205 208.172 97.9853 222.013 97.9853 235.853 97.9853 247.073 109.205 247.073 123.046Z" fill="#249579" transform="matrix(1.00046 0 0 1 1954 1108.4)"/><path d="M249.331 127.757C249.331 141.598 238.111 152.818 224.27 152.818 210.43 152.818 199.209 141.598 199.209 127.757 199.209 113.916 210.43 102.696 224.27 102.696 238.111 102.696 249.331 113.916 249.331 127.757Z" fill="#249579" transform="matrix(1.00046 0 0 1 1954 1108.4)"/><path d="M251.327 132.599C251.327 146.44 240.106 157.66 226.266 157.66 212.425 157.66 201.205 146.44 201.205 132.599 201.205 118.758 212.425 107.538 226.266 107.538 240.106 107.538 251.327 118.758 251.327 132.599Z" fill="#26957A" transform="matrix(1.00046 0 0 1 1954 1108.4)"/><path d="M253.028 137.572C253.028 151.395 241.822 162.6 228 162.6 214.177 162.6 202.972 151.395 202.972 137.572 202.972 123.749 214.177 112.544 228 112.544 241.822 112.544 253.028 123.749 253.028 137.572Z" fill="#26967A" transform="matrix(1.00046 0 0 1 1954 1108.4)"/><path d="M254.435 142.676C254.435 156.498 243.229 167.704 229.407 167.704 215.584 167.704 204.379 156.498 204.379 142.676 204.379 128.853 215.584 117.648 229.407 117.648 243.229 117.648 254.435 128.853 254.435 142.676Z" fill="#27967A" transform="matrix(1.00046 0 0 1 1954 1108.4)"/><path d="M255.58 147.91C255.58 161.733 244.374 172.938 230.552 172.938 216.729 172.938 205.524 161.733 205.524 147.91 205.524 134.088 216.729 122.882 230.552 122.882 244.374 122.882 255.58 134.088 255.58 147.91Z" fill="#28977B" transform="matrix(1.00046 0 0 1 1954 1108.4)"/><path d="M256.398 153.243C256.398 167.066 245.192 178.271 231.37 178.271 217.547 178.271 206.342 167.066 206.342 153.243 206.342 139.421 217.547 128.215 231.37 128.215 245.192 128.215 256.398 139.421 256.398 153.243Z" fill="#29977B" transform="matrix(1.00046 0 0 1 1954 1108.4)"/><path d="M256.921 158.674C256.921 172.497 245.716 183.702 231.893 183.702 218.07 183.702 206.865 172.497 206.865 158.674 206.865 144.851 218.07 133.646 231.893 133.646 245.716 133.646 256.921 144.851 256.921 158.674Z" fill="#29977B" transform="matrix(1.00046 0 0 1 1954 1108.4)"/><path d="M257.085 164.17C257.085 177.993 245.879 189.198 232.057 189.198 218.234 189.198 207.029 177.993 207.029 164.17 207.029 150.348 218.234 139.142 232.057 139.142 245.879 139.142 257.085 150.348 257.085 164.17Z" fill="#2A987C" transform="matrix(1.00046 0 0 1 1954 1108.4)"/><path d="M256.954 169.765C256.954 183.587 245.748 194.793 231.926 194.793 218.103 194.793 206.898 183.587 206.898 169.765 206.898 155.942 218.103 144.737 231.926 144.737 245.748 144.737 256.954 155.942 256.954 169.765Z" fill="#2B987C" transform="matrix(1.00046 0 0 1 1954 1108.4)"/><path d="M256.463 175.294C256.463 189.116 245.258 200.322 231.435 200.322 217.612 200.322 206.407 189.116 206.407 175.294 206.407 161.471 217.612 150.266 231.435 150.266 245.258 150.266 256.463 161.471 256.463 175.294Z" fill="#2B997D" transform="matrix(1.00046 0 0 1 1954 1108.4)"/><path d="M255.645 180.692C255.645 194.515 244.44 205.72 230.617 205.72 216.795 205.72 205.589 194.515 205.589 180.692 205.589 166.869 216.795 155.664 230.617 155.664 244.44 155.664 255.645 166.869 255.645 180.692Z" fill="#2C997D" transform="matrix(1.00046 0 0 1 1954 1108.4)"/><path d="M254.5 185.992C254.5 199.815 243.295 211.02 229.472 211.02 215.649 211.02 204.444 199.815 204.444 185.992 204.444 172.17 215.649 160.964 229.472 160.964 243.295 160.964 254.5 172.17 254.5 185.992Z" fill="#2D9A7D" transform="matrix(1.00046 0 0 1 1954 1108.4)"/><path d="M253.06 191.161C253.06 204.984 241.855 216.189 228.033 216.189 214.21 216.189 203.005 204.984 203.005 191.161 203.005 177.339 214.21 166.133 228.033 166.133 241.855 166.133 253.06 177.339 253.06 191.161Z" fill="#2D9A7E" transform="matrix(1.00046 0 0 1 1954 1108.4)"/><path d="M251.327 196.2C251.327 210.022 240.121 221.228 226.299 221.228 212.476 221.228 201.271 210.022 201.271 196.2 201.271 182.377 212.476 171.172 226.299 171.172 240.121 171.172 251.327 182.377 251.327 196.2Z" fill="#2E9A7E" transform="matrix(1.00046 0 0 1 1954 1108.4)"/><path d="M249.331 201.14C249.331 214.962 238.125 226.168 224.303 226.168 210.48 226.168 199.275 214.962 199.275 201.14 199.275 187.317 210.48 176.112 224.303 176.112 238.125 176.112 249.331 187.317 249.331 201.14Z" fill="#2F9B7E" transform="matrix(1.00046 0 0 1 1954 1108.4)"/><path d="M247.041 205.884C247.041 219.706 235.835 230.912 222.013 230.912 208.19 230.912 196.985 219.706 196.985 205.884 196.985 192.061 208.19 180.856 222.013 180.856 235.835 180.856 247.041 192.061 247.041 205.884Z" fill="#309B7F" transform="matrix(1.00046 0 0 1 1954 1108.4)"/><path d="M244.489 210.497C244.489 224.319 233.283 235.525 219.461 235.525 205.638 235.525 194.433 224.319 194.433 210.497 194.433 196.674 205.638 185.469 219.461 185.469 233.283 185.469 244.489 196.674 244.489 210.497Z" fill="#309C7F" transform="matrix(1.00046 0 0 1 1954 1108.4)"/><path d="M241.675 214.913C241.675 228.736 230.47 239.941 216.647 239.941 202.825 239.941 191.619 228.736 191.619 214.913 191.619 201.091 202.825 189.885 216.647 189.885 230.47 189.885 241.675 201.091 241.675 214.913Z" fill="#319C7F" transform="matrix(1.00046 0 0 1 1954 1108.4)"/><path d="M238.6 219.166C238.6 232.989 227.394 244.194 213.572 244.194 199.749 244.194 188.544 232.989 188.544 219.166 188.544 205.344 199.749 194.138 213.572 194.138 227.394 194.138 238.6 205.344 238.6 219.166Z" fill="#329C80" transform="matrix(1.00046 0 0 1 1954 1108.4)"/><path d="M235.296 223.223C235.296 237.046 224.09 248.251 210.268 248.251 196.445 248.251 185.24 237.046 185.24 223.223 185.24 209.401 196.445 198.195 210.268 198.195 224.09 198.195 235.296 209.401 235.296 223.223Z" fill="#339D80" transform="matrix(1.00046 0 0 1 1954 1108.4)"/><path d="M231.795 227.084C231.795 240.906 220.589 252.112 206.767 252.112 192.944 252.112 181.739 240.906 181.739 227.084 181.739 213.261 192.944 202.056 206.767 202.056 220.589 202.056 231.795 213.261 231.795 227.084Z" fill="#349D80" transform="matrix(1.00046 0 0 1 1954 1108.4)"/><path d="M228.065 230.715C228.065 244.538 216.86 255.743 203.037 255.743 189.215 255.743 178.009 244.538 178.009 230.715 178.009 216.893 189.215 205.687 203.037 205.687 216.86 205.687 228.065 216.893 228.065 230.715Z" fill="#349D80" transform="matrix(1.00046 0 0 1 1954 1108.4)"/><path d="M224.107 234.15C224.107 247.973 212.901 259.178 199.079 259.178 185.256 259.178 174.051 247.973 174.051 234.15 174.051 220.328 185.256 209.122 199.079 209.122 212.901 209.122 224.107 220.328 224.107 234.15Z" fill="#359E81" transform="matrix(1.00046 0 0 1 1954 1108.4)"/><path d="M219.984 237.357C219.984 251.179 208.779 262.385 194.956 262.385 181.134 262.385 169.928 251.179 169.928 237.357 169.928 223.534 181.134 212.329 194.956 212.329 208.779 212.329 219.984 223.534 219.984 237.357Z" fill="#359E81" transform="matrix(1.00046 0 0 1 1954 1108.4)"/><path d="M215.633 240.334C215.633 254.156 204.428 265.362 190.605 265.362 176.783 265.362 165.577 254.156 165.577 240.334 165.577 226.511 176.783 215.306 190.605 215.306 204.428 215.306 215.633 226.511 215.633 240.334Z" fill="#369E81" transform="matrix(1.00046 0 0 1 1954 1108.4)"/><path d="M211.151 243.017C211.151 256.839 199.946 268.045 186.123 268.045 172.3 268.045 161.095 256.839 161.095 243.017 161.095 229.194 172.3 217.989 186.123 217.989 199.946 217.989 211.151 229.194 211.151 243.017Z" fill="#379F82" transform="matrix(1.00046 0 0 1 1954 1108.4)"/><path d="M206.472 245.47C206.472 259.293 195.267 270.498 181.445 270.498 167.622 270.498 156.417 259.293 156.417 245.47 156.417 231.648 167.622 220.442 181.445 220.442 195.267 220.442 206.472 231.648 206.472 245.47Z" fill="#389F82" transform="matrix(1.00046 0 0 1 1954 1108.4)"/><path d="M201.663 247.662C201.663 261.485 190.458 272.69 176.635 272.69 162.813 272.69 151.607 261.485 151.607 247.662 151.607 233.84 162.813 222.634 176.635 222.634 190.458 222.634 201.663 233.84 201.663 247.662Z" fill="#39A083" transform="matrix(1.00046 0 0 1 1954 1108.4)"/><path d="M196.69 249.56C196.69 263.382 185.485 274.588 171.662 274.588 157.84 274.588 146.634 263.382 146.634 249.56 146.634 235.737 157.84 224.532 171.662 224.532 185.485 224.532 196.69 235.737 196.69 249.56Z" fill="#39A083" transform="matrix(1.00046 0 0 1 1954 1108.4)"/><path d="M191.587 251.163C191.587 264.985 180.381 276.191 166.559 276.191 152.736 276.191 141.531 264.986 141.531 251.163 141.531 237.34 152.736 226.135 166.559 226.135 180.381 226.135 191.587 237.34 191.587 251.163Z" fill="#3AA183" transform="matrix(1.00046 0 0 1 1954 1108.4)"/><path d="M186.352 252.504C186.352 266.327 175.147 277.532 161.324 277.532 147.501 277.532 136.296 266.327 136.296 252.504 136.296 238.682 147.501 227.476 161.324 227.476 175.147 227.476 186.352 238.682 186.352 252.504Z" fill="#3BA184" transform="matrix(1.00046 0 0 1 1954 1108.4)"/><path d="M181.019 253.486C181.019 267.308 169.814 278.514 155.991 278.514 142.169 278.514 130.963 267.308 130.963 253.486 130.963 239.663 142.169 228.458 155.991 228.458 169.814 228.458 181.019 239.663 181.019 253.486Z" fill="#3CA184" transform="matrix(1.00046 0 0 1 1954 1108.4)"/><path d="M175.588 254.173C175.588 267.995 164.383 279.201 150.56 279.201 136.738 279.201 125.532 267.995 125.532 254.173 125.532 240.35 136.738 229.145 150.56 229.145 164.383 229.145 175.588 240.35 175.588 254.173Z" fill="#3DA284" transform="matrix(1.00046 0 0 1 1954 1108.4)"/><path d="M170.027 254.533C170.027 268.355 158.821 279.561 144.999 279.561 131.176 279.561 119.971 268.355 119.971 254.533 119.971 240.71 131.176 229.505 144.999 229.505 158.821 229.505 170.027 240.71 170.027 254.533Z" fill="#3DA285" transform="matrix(1.00046 0 0 1 1954 1108.4)"/><path d="M164.399 254.533C164.399 268.355 153.194 279.561 139.371 279.561 125.549 279.561 114.343 268.355 114.343 254.533 114.343 240.71 125.549 229.505 139.371 229.505 153.194 229.505 164.399 240.71 164.399 254.533Z" fill="#3EA385" transform="matrix(1.00046 0 0 1 1954 1108.4)"/><path d="M158.87 254.206C158.87 268.028 147.665 279.233 133.842 279.233 120.02 279.233 108.814 268.028 108.814 254.206 108.814 240.383 120.02 229.178 133.842 229.178 147.665 229.178 158.87 240.383 158.87 254.206Z" fill="#3FA385" transform="matrix(1.00046 0 0 1 1954 1108.4)"/><path d="M153.407 253.551C153.407 267.374 142.201 278.579 128.379 278.579 114.556 278.579 103.351 267.374 103.351 253.551 103.351 239.729 114.556 228.523 128.379 228.523 142.201 228.523 153.407 239.729 153.407 253.551Z" fill="#40A386" transform="matrix(1.00046 0 0 1 1954 1108.4)"/><path d="M148.041 252.602C148.041 266.425 136.836 277.63 123.013 277.63 109.191 277.63 97.9853 266.425 97.9853 252.602 97.9853 238.78 109.191 227.574 123.013 227.574 136.836 227.574 148.041 238.78 148.041 252.602Z" fill="#41A486" transform="matrix(1.00046 0 0 1 1954 1108.4)"/><path d="M142.807 251.294C142.807 265.116 131.601 276.322 117.779 276.322 103.956 276.322 92.7507 265.116 92.7507 251.294 92.7507 237.471 103.956 226.266 117.779 226.266 131.601 226.266 142.807 237.471 142.807 251.294Z" fill="#41A487" transform="matrix(1.00046 0 0 1 1954 1108.4)"/><path d="M137.703 249.723C137.703 263.546 126.497 274.751 112.675 274.751 98.8523 274.751 87.6469 263.546 87.6469 249.723 87.6469 235.901 98.8523 224.695 112.675 224.695 126.497 224.695 137.703 235.901 137.703 249.723Z" fill="#42A587" transform="matrix(1.00046 0 0 1 1954 1108.4)"/><path d="M132.697 247.826C132.697 261.648 121.492 272.854 107.669 272.854 93.8467 272.854 82.6413 261.648 82.6413 247.826 82.6413 234.003 93.8467 222.798 107.669 222.798 121.492 222.798 132.697 234.003 132.697 247.826Z" fill="#43A587" transform="matrix(1.00046 0 0 1 1954 1108.4)"/><path d="M127.888 245.699C127.888 259.522 116.683 270.727 102.86 270.727 89.0374 270.727 77.832 259.522 77.832 245.699 77.832 231.877 89.0374 220.671 102.86 220.671 116.683 220.671 127.888 231.877 127.888 245.699Z" fill="#44A688" transform="matrix(1.00046 0 0 1 1954 1108.4)"/><path d="M123.21 243.246C123.21 257.068 112.004 268.274 98.1816 268.274 84.359 268.274 73.1536 257.068 73.1536 243.246 73.1536 229.423 84.359 218.218 98.1816 218.218 112.004 218.218 123.21 229.423 123.21 243.246Z" fill="#44A688" transform="matrix(1.00046 0 0 1 1954 1108.4)"/><path d="M118.695 240.563C118.695 254.385 107.489 265.591 93.6667 265.591 79.8442 265.591 68.6388 254.385 68.6388 240.563 68.6388 226.74 79.8442 215.535 93.6667 215.535 107.489 215.535 118.695 226.74 118.695 240.563Z" fill="#45A689" transform="matrix(1.00046 0 0 1 1954 1108.4)"/><path d="M114.376 237.618C114.376 251.459 103.156 262.679 89.3155 262.679 75.4748 262.679 64.2548 251.459 64.2548 237.618 64.2548 223.778 75.4748 212.558 89.3155 212.558 103.156 212.558 114.376 223.778 114.376 237.618Z" fill="#46A789" transform="matrix(1.00046 0 0 1 1954 1108.4)"/><path d="M110.221 234.445C110.221 248.286 99.0011 259.506 85.1605 259.506 71.3199 259.506 60.0998 248.286 60.0998 234.445 60.0998 220.604 71.3199 209.384 85.1605 209.384 99.0011 209.384 110.221 220.604 110.221 234.445Z" fill="#47A789" transform="matrix(1.00046 0 0 1 1954 1108.4)"/><path d="M106.328 231.108C106.328 244.948 95.1079 256.169 81.2673 256.169 67.4266 256.169 56.2066 244.948 56.2066 231.108 56.2066 217.267 67.4266 206.047 81.2673 206.047 95.1079 206.047 106.328 217.267 106.328 231.108Z" fill="#48A88A" transform="matrix(1.00046 0 0 1 1954 1108.4)"/><path d="M105.445 230.257C105.445 244.098 94.2245 255.318 80.3839 255.318 66.5433 255.318 55.3232 244.098 55.3232 230.257 55.3232 216.417 66.5433 205.197 80.3839 205.197 94.2245 205.197 105.445 216.417 105.445 230.257Z" fill="#48A88A" transform="matrix(1.00046 0 0 1 1954 1108.4)"/><path d="M104.627 229.505C104.627 243.345 93.4066 254.565 79.566 254.565 65.7254 254.565 54.5053 243.345 54.5053 229.505 54.5053 215.664 65.7254 204.444 79.566 204.444 93.4066 204.444 104.627 215.664 104.627 229.505Z" fill="#49A88A" transform="matrix(1.00046 0 0 1 1954 1108.4)"/><path d="M103.809 228.72C103.809 242.56 92.5887 253.78 78.7481 253.78 64.9075 253.78 53.6874 242.56 53.6874 228.72 53.6874 214.879 64.9075 203.659 78.7481 203.659 92.5887 203.659 103.809 214.879 103.809 228.72Z" fill="#4AA98B" transform="matrix(1.00046 0 0 1 1954 1108.4)"/><path d="M102.991 227.902C102.991 241.742 91.7708 252.962 77.9302 252.962 64.0896 252.962 52.8695 241.742 52.8695 227.902 52.8695 214.061 64.0896 202.841 77.9302 202.841 91.7708 202.841 102.991 214.061 102.991 227.902Z" fill="#4BA98B" transform="matrix(1.00046 0 0 1 1954 1108.4)"/><path d="M102.206 227.084C102.206 240.924 90.9856 252.144 77.145 252.144 63.3044 252.144 52.0843 240.924 52.0843 227.084 52.0843 213.243 63.3044 202.023 77.145 202.023 90.9856 202.023 102.206 213.243 102.206 227.084Z" fill="#4CAA8C" transform="matrix(1.00046 0 0 1 1954 1108.4)"/><path d="M101.42 226.266C101.42 240.106 90.2004 251.327 76.3598 251.327 62.5192 251.327 51.2991 240.106 51.2991 226.266 51.2991 212.425 62.5192 201.205 76.3598 201.205 90.2004 201.205 101.42 212.425 101.42 226.266Z" fill="#4DAA8C" transform="matrix(1.00046 0 0 1 1954 1108.4)"/><path d="M100.668 225.448C100.668 239.289 89.448 250.509 75.6073 250.509 61.7667 250.509 50.5467 239.289 50.5467 225.448 50.5467 211.607 61.7667 200.387 75.6073 200.387 89.448 200.387 100.668 211.607 100.668 225.448Z" fill="#4DAB8C" transform="matrix(1.00046 0 0 1 1954 1108.4)"/><path d="M99.8828 224.597C99.8828 238.438 88.6628 249.658 74.8222 249.658 60.9815 249.658 49.7615 238.438 49.7615 224.597 49.7615 210.757 60.9815 199.537 74.8222 199.537 88.6628 199.537 99.8828 210.757 99.8828 224.597Z" fill="#4EAB8D" transform="matrix(1.00046 0 0 1 1954 1108.4)"/><path d="M99.1303 223.779C99.1303 237.62 87.9103 248.84 74.0697 248.84 60.229 248.84 49.009 237.62 49.009 223.779 49.009 209.939 60.229 198.719 74.0697 198.719 87.9103 198.719 99.1303 209.939 99.1303 223.779Z" fill="#4FAB8D" transform="matrix(1.00046 0 0 1 1954 1108.4)"/><path d="M98.3779 222.896C98.3779 236.719 87.1725 247.924 73.3499 247.924 59.5274 247.924 48.322 236.719 48.322 222.896 48.322 209.073 59.5274 197.868 73.3499 197.868 87.1725 197.868 98.3779 209.073 98.3779 222.896Z" fill="#50AC8E" transform="matrix(1.00046 0 0 1 1954 1108.4)"/><path d="M97.6254 222.045C97.6254 235.868 86.42 247.073 72.5974 247.073 58.7749 247.073 47.5695 235.868 47.5695 222.045 47.5695 208.223 58.7749 197.017 72.5974 197.017 86.42 197.017 97.6254 208.223 97.6254 222.045Z" fill="#51AC8E" transform="matrix(1.00046 0 0 1 1954 1108.4)"/><path d="M96.9056 221.162C96.9056 234.985 85.7002 246.19 71.8777 246.19 58.0551 246.19 46.8497 234.985 46.8497 221.162 46.8497 207.34 58.0551 196.134 71.8777 196.134 85.7002 196.134 96.9056 207.34 96.9056 221.162Z" fill="#52AD8E" transform="matrix(1.00046 0 0 1 1954 1108.4)"/><path d="M96.2186 220.279C96.2186 234.101 85.0132 245.307 71.1906 245.307 57.3681 245.307 46.1627 234.101 46.1627 220.279 46.1627 206.456 57.3681 195.251 71.1906 195.251 85.0132 195.251 96.2186 206.456 96.2186 220.279Z" fill="#52AD8F" transform="matrix(1.00046 0 0 1 1954 1108.4)"/><path d="M95.4988 219.395C95.4988 233.218 84.2934 244.423 70.4709 244.423 56.6483 244.423 45.4429 233.218 45.4429 219.395 45.4429 205.573 56.6483 194.367 70.4709 194.367 84.2934 194.367 95.4988 205.573 95.4988 219.395Z" fill="#53AD8F" transform="matrix(1.00046 0 0 1 1954 1108.4)"/><path d="M94.8445 218.479C94.8445 232.302 83.6391 243.507 69.8166 243.507 55.994 243.507 44.7886 232.302 44.7886 218.479 44.7886 204.657 55.994 193.451 69.8166 193.451 83.6391 193.451 94.8445 204.657 94.8445 218.479Z" fill="#54AE90" transform="matrix(1.00046 0 0 1 1954 1108.4)"/><path d="M94.1575 217.563C94.1575 231.386 82.9521 242.591 69.1295 242.591 55.307 242.591 44.1016 231.386 44.1016 217.563 44.1016 203.741 55.307 192.535 69.1295 192.535 82.9521 192.535 94.1575 203.741 94.1575 217.563Z" fill="#55AE90" transform="matrix(1.00046 0 0 1 1954 1108.4)"/><path d="M93.5031 216.647C93.5031 230.47 82.2977 241.675 68.4752 241.675 54.6526 241.675 43.4472 230.47 43.4472 216.647 43.4472 202.825 54.6526 191.619 68.4752 191.619 82.2977 191.619 93.5031 202.825 93.5031 216.647Z" fill="#56AF91" transform="matrix(1.00046 0 0 1 1954 1108.4)"/><path d="M92.8488 215.731C92.8488 229.554 81.6434 240.759 67.8209 240.759 53.9983 240.759 42.7929 229.554 42.7929 215.731 42.7929 201.909 53.9983 190.703 67.8209 190.703 81.6434 190.703 92.8488 201.909 92.8488 215.731Z" fill="#56AF91" transform="matrix(1.00046 0 0 1 1954 1108.4)"/><path d="M92.1945 214.782C92.1945 228.605 80.9891 239.81 67.1665 239.81 53.344 239.81 42.1386 228.605 42.1386 214.782 42.1386 200.96 53.344 189.754 67.1665 189.754 80.9891 189.754 92.1945 200.96 92.1945 214.782Z" fill="#57B091" transform="matrix(1.00046 0 0 1 1954 1108.4)"/><path d="M91.5729 213.834C91.5729 227.656 80.3675 238.862 66.5449 238.862 52.7224 238.862 41.517 227.656 41.517 213.834 41.517 200.011 52.7224 188.806 66.5449 188.806 80.3675 188.806 91.5729 200.011 91.5729 213.834Z" fill="#58B092" transform="matrix(1.00046 0 0 1 1954 1108.4)"/><path d="M90.9513 212.885C90.9513 226.707 79.7459 237.913 65.9233 237.913 52.1008 237.913 40.8954 226.707 40.8954 212.885 40.8954 199.062 52.1008 187.857 65.9233 187.857 79.7459 187.857 90.9513 199.062 90.9513 212.885Z" fill="#59B092" transform="matrix(1.00046 0 0 1 1954 1108.4)"/><path d="M90.3297 211.936C90.3297 225.759 79.1243 236.964 65.3017 236.964 51.4791 236.964 40.2738 225.759 40.2738 211.936 40.2738 198.114 51.4792 186.908 65.3017 186.908 79.1243 186.908 90.3297 198.114 90.3297 211.936Z" fill="#5AB193" transform="matrix(1.00046 0 0 1 1954 1108.4)"/><path d="M89.7408 210.955C89.7408 224.777 78.5354 235.983 64.7128 235.983 50.8903 235.983 39.6849 224.777 39.6849 210.955 39.6849 197.132 50.8903 185.927 64.7128 185.927 78.5354 185.927 89.7408 197.132 89.7408 210.955Z" fill="#5AB193" transform="matrix(1.00046 0 0 1 1954 1108.4)"/><path d="M89.1846 209.973C89.1846 223.796 77.9792 235.001 64.1566 235.001 50.3341 235.001 39.1287 223.796 39.1287 209.973 39.1287 196.151 50.3341 184.945 64.1566 184.945 77.9792 184.945 89.1846 196.151 89.1846 209.973Z" fill="#5BB294" transform="matrix(1.00046 0 0 1 1954 1108.4)"/><path d="M88.5957 208.992C88.5957 222.814 77.3903 234.02 63.5677 234.02 49.7452 234.02 38.5398 222.814 38.5398 208.992 38.5398 195.169 49.7452 183.964 63.5677 183.964 77.3903 183.964 88.5957 195.169 88.5957 208.992Z" fill="#5CB294" transform="matrix(1.00046 0 0 1 1954 1108.4)"/><path d="M88.0395 207.977C88.0395 221.8 76.8341 233.005 63.0116 233.005 49.189 233.005 37.9836 221.8 37.9836 207.977 37.9836 194.155 49.189 182.949 63.0116 182.949 76.8341 182.949 88.0395 194.155 88.0395 207.977Z" fill="#5DB294" transform="matrix(1.00046 0 0 1 1954 1108.4)"/><path d="M87.4833 206.996C87.4833 220.819 76.2779 232.024 62.4554 232.024 48.6328 232.024 37.4274 220.819 37.4274 206.996 37.4274 193.173 48.6328 181.968 62.4554 181.968 76.2779 181.968 87.4833 193.173 87.4833 206.996Z" fill="#5EB395" transform="matrix(1.00046 0 0 1 1954 1108.4)"/><path d="M86.9599 205.982C86.9599 219.804 75.7545 231.01 61.9319 231.01 48.1094 231.01 36.904 219.804 36.904 205.982 36.904 192.159 48.1094 180.954 61.9319 180.954 75.7545 180.954 86.9599 192.159 86.9599 205.982Z" fill="#5EB395" transform="matrix(1.00046 0 0 1 1954 1108.4)"/><path d="M86.4364 204.968C86.4364 218.79 75.231 229.995 61.4085 229.995 47.5859 229.995 36.3805 218.79 36.3805 204.968 36.3805 191.145 47.5859 179.94 61.4085 179.94 75.231 179.94 86.4364 191.145 86.4364 204.968Z" fill="#5FB496" transform="matrix(1.00046 0 0 1 1954 1108.4)"/><path d="M85.9457 203.921C85.9457 217.743 74.7403 228.949 60.9177 228.949 47.0952 228.949 35.8898 217.743 35.8898 203.921 35.8898 190.098 47.0952 178.893 60.9177 178.893 74.7403 178.893 85.9457 190.098 85.9457 203.921Z" fill="#60B496" transform="matrix(1.00046 0 0 1 1954 1108.4)"/><path d="M85.4222 202.906C85.4222 216.729 74.2168 227.934 60.3943 227.934 46.5717 227.934 35.3663 216.729 35.3663 202.906 35.3663 189.084 46.5717 177.878 60.3943 177.878 74.2168 177.878 85.4222 189.084 85.4222 202.906Z" fill="#61B597" transform="matrix(1.00046 0 0 1 1954 1108.4)"/><path d="M84.9642 201.859C84.9642 215.682 73.7588 226.887 59.9362 226.887 46.1137 226.887 34.9083 215.682 34.9083 201.859 34.9083 188.037 46.1137 176.832 59.9362 176.832 73.7588 176.832 84.9642 188.037 84.9642 201.859Z" fill="#62B597" transform="matrix(1.00046 0 0 1 1954 1108.4)"/><path d="M84.4734 200.813C84.4734 214.635 73.2681 225.841 59.4455 225.841 45.6229 225.841 34.4175 214.635 34.4175 200.813 34.4175 186.99 45.6229 175.785 59.4455 175.785 73.2681 175.785 84.4734 186.99 84.4734 200.813Z" fill="#63B597" transform="matrix(1.00046 0 0 1 1954 1108.4)"/><path d="M84.0154 199.766C84.0154 213.588 72.81 224.794 58.9875 224.794 45.1649 224.794 33.9595 213.588 33.9595 199.766 33.9595 185.943 45.1649 174.738 58.9875 174.738 72.81 174.738 84.0154 185.943 84.0154 199.766Z" fill="#63B698" transform="matrix(1.00046 0 0 1 1954 1108.4)"/><path d="M83.5901 198.719C83.5901 212.541 72.3847 223.747 58.5622 223.747 44.7396 223.747 33.5342 212.541 33.5342 198.719 33.5342 184.896 44.7396 173.691 58.5622 173.691 72.3847 173.691 83.5901 184.896 83.5901 198.719Z" fill="#64B698" transform="matrix(1.00046 0 0 1 1954 1108.4)"/><path d="M83.1648 197.639C83.1648 211.462 71.9594 222.667 58.1368 222.667 44.3143 222.667 33.1089 211.462 33.1089 197.639 33.1089 183.817 44.3143 172.611 58.1368 172.611 71.9594 172.611 83.1648 183.817 83.1648 197.639Z" fill="#65B799" transform="matrix(1.00046 0 0 1 1954 1108.4)"/><path d="M82.7395 196.559C82.7395 210.382 71.5341 221.587 57.7115 221.587 43.889 221.587 32.6836 210.382 32.6836 196.559 32.6836 182.737 43.889 171.531 57.7115 171.531 71.5341 171.531 82.7395 182.737 82.7395 196.559Z" fill="#66B799" transform="matrix(1.00046 0 0 1 1954 1108.4)"/><path d="M82.3469 195.48C82.3469 209.302 71.1415 220.508 57.3189 220.508 43.4964 220.508 32.291 209.302 32.291 195.48 32.291 181.657 43.4964 170.452 57.3189 170.452 71.1415 170.452 82.3469 181.657 82.3469 195.48Z" fill="#67B79A" transform="matrix(1.00046 0 0 1 1954 1108.4)"/><path d="M81.9543 194.4C81.9543 208.223 70.7489 219.428 56.9263 219.428 43.1038 219.428 31.8984 208.223 31.8984 194.4 31.8984 180.578 43.1038 169.372 56.9263 169.372 70.7489 169.372 81.9543 180.578 81.9543 194.4Z" fill="#68B89A" transform="matrix(1.00046 0 0 1 1954 1108.4)"/><path d="M81.5617 193.321C81.5617 207.143 70.3563 218.348 56.5337 218.348 42.7112 218.348 31.5058 207.143 31.5058 193.321 31.5058 179.498 42.7112 168.293 56.5337 168.293 70.3563 168.293 81.5617 179.498 81.5617 193.321Z" fill="#68B89B" transform="matrix(1.00046 0 0 1 1954 1108.4)"/><path d="M81.2018 192.208C81.2018 206.031 69.9964 217.236 56.1739 217.236 42.3513 217.236 31.1459 206.031 31.1459 192.208 31.1459 178.386 42.3513 167.18 56.1739 167.18 69.9964 167.18 81.2018 178.386 81.2018 192.208Z" fill="#69B99B" transform="matrix(1.00046 0 0 1 1954 1108.4)"/><path d="M80.8419 191.096C80.8419 204.918 69.6365 216.124 55.814 216.124 41.9914 216.124 30.786 204.918 30.786 191.096 30.786 177.273 41.9914 166.068 55.814 166.068 69.6365 166.068 80.8419 177.273 80.8419 191.096Z" fill="#6AB99C" transform="matrix(1.00046 0 0 1 1954 1108.4)"/><path d="M80.5148 189.983C80.5148 203.806 69.3094 215.011 55.4868 215.011 41.6643 215.011 30.4589 203.806 30.4589 189.983 30.4589 176.161 41.6643 164.956 55.4868 164.956 69.3094 164.956 80.5148 176.161 80.5148 189.983Z" fill="#6BBA9C" transform="matrix(1.00046 0 0 1 1954 1108.4)"/><path d="M80.1876 188.871C80.1876 202.694 68.9822 213.899 55.1597 213.899 41.3371 213.899 30.1317 202.694 30.1317 188.871 30.1317 175.049 41.3371 163.843 55.1597 163.843 68.9822 163.843 80.1876 175.049 80.1876 188.871Z" fill="#6CBA9C" transform="matrix(1.00046 0 0 1 1954 1108.4)"/><path d="M79.8932 187.759C79.8932 201.581 68.6878 212.787 54.8652 212.787 41.0427 212.787 29.8373 201.581 29.8373 187.759 29.8373 173.936 41.0427 162.731 54.8652 162.731 68.6878 162.731 79.8932 173.936 79.8932 187.759Z" fill="#6DBA9D" transform="matrix(1.00046 0 0 1 1954 1108.4)"/><path d="M79.5987 186.614C79.5987 200.436 68.3933 211.642 54.5708 211.642 40.7482 211.642 29.5428 200.436 29.5428 186.614 29.5428 172.791 40.7482 161.586 54.5708 161.586 68.3933 161.586 79.5987 172.791 79.5987 186.614Z" fill="#6EBB9D" transform="matrix(1.00046 0 0 1 1954 1108.4)"/><path d="M79.3043 185.469C79.3043 199.291 68.0989 210.497 54.2763 210.497 40.4538 210.497 29.2484 199.291 29.2484 185.469 29.2484 171.646 40.4538 160.441 54.2763 160.441 68.0989 160.441 79.3043 171.646 79.3043 185.469Z" fill="#6EBB9E" transform="matrix(1.00046 0 0 1 1954 1108.4)"/><path d="M79.0425 184.324C79.0425 198.146 67.8371 209.352 54.0146 209.352 40.192 209.352 28.9866 198.146 28.9866 184.324 28.9866 170.501 40.192 159.296 54.0146 159.296 67.8371 159.296 79.0425 170.501 79.0425 184.324Z" fill="#6FBC9E" transform="matrix(1.00046 0 0 1 1954 1108.4)"/><path d="M78.8135 183.178C78.8135 197.001 67.6081 208.206 53.7856 208.206 39.963 208.206 28.7576 197.001 28.7576 183.178 28.7576 169.356 39.963 158.151 53.7856 158.151 67.6081 158.151 78.8135 169.356 78.8135 183.178Z" fill="#70BC9F" transform="matrix(1.00046 0 0 1 1954 1108.4)"/><path d="M78.5518 182.033C78.5518 195.856 67.3464 207.061 53.5238 207.061 39.7013 207.061 28.4959 195.856 28.4959 182.033 28.4959 168.211 39.7013 157.005 53.5238 157.005 67.3464 157.005 78.5518 168.211 78.5518 182.033Z" fill="#71BC9F" transform="matrix(1.00046 0 0 1 1954 1108.4)"/><path d="M78.3555 180.888C78.3555 194.711 67.1501 205.916 53.3275 205.916 39.505 205.916 28.2996 194.711 28.2996 180.888 28.2996 167.066 39.505 155.86 53.3275 155.86 67.1501 155.86 78.3555 167.066 78.3555 180.888Z" fill="#72BDA0" transform="matrix(1.00046 0 0 1 1954 1108.4)"/><path d="M78.1265 179.711C78.1265 193.533 66.9211 204.739 53.0985 204.739 39.276 204.739 28.0706 193.533 28.0706 179.711 28.0706 165.888 39.276 154.683 53.0985 154.683 66.9211 154.683 78.1265 165.888 78.1265 179.711Z" fill="#73BDA0" transform="matrix(1.00046 0 0 1 1954 1108.4)"/><path d="M77.9302 178.565C77.9302 192.388 66.7248 203.593 52.9022 203.593 39.0797 203.593 27.8743 192.388 27.8743 178.565 27.8743 164.743 39.0797 153.538 52.9022 153.538 66.7248 153.538 77.9302 164.743 77.9302 178.565Z" fill="#73BEA1" transform="matrix(1.00046 0 0 1 1954 1108.4)"/><path d="M77.7666 177.388C77.7666 191.21 66.5612 202.416 52.7387 202.416 38.9161 202.416 27.7107 191.21 27.7107 177.388 27.7107 163.565 38.9161 152.36 52.7387 152.36 66.5612 152.36 77.7666 163.565 77.7666 177.388Z" fill="#74BEA1" transform="matrix(1.00046 0 0 1 1954 1108.4)"/><path d="M77.603 176.21C77.603 190.032 66.3976 201.238 52.5751 201.238 38.7525 201.238 27.5471 190.032 27.5471 176.21 27.5471 162.387 38.7525 151.182 52.5751 151.182 66.3976 151.182 77.603 162.387 77.603 176.21Z" fill="#75BFA2" transform="matrix(1.00046 0 0 1 1954 1108.4)"/><path d="M77.4722 175.032C77.4722 188.855 66.2668 200.06 52.4442 200.06 38.6216 200.06 27.4163 188.855 27.4163 175.032 27.4163 161.21 38.6217 150.004 52.4442 150.004 66.2668 150.004 77.4722 161.21 77.4722 175.032Z" fill="#76BFA2" transform="matrix(1.00046 0 0 1 1954 1108.4)"/><path d="M77.3413 173.822C77.3413 187.644 66.1359 198.85 52.3133 198.85 38.4908 198.85 27.2854 187.644 27.2854 173.822 27.2854 159.999 38.4908 148.794 52.3133 148.794 66.1359 148.794 77.3413 159.999 77.3413 173.822Z" fill="#77BFA3" transform="matrix(1.00046 0 0 1 1954 1108.4)"/><path d="M77.2104 172.644C77.2104 186.466 66.005 197.672 52.1825 197.672 38.3599 197.672 27.1545 186.466 27.1545 172.644 27.1545 158.821 38.3599 147.616 52.1825 147.616 66.005 147.616 77.2104 158.821 77.2104 172.644Z" fill="#78C0A3" transform="matrix(1.00046 0 0 1 1954 1108.4)"/><path d="M77.1123 171.466C77.1123 185.289 65.9069 196.494 52.0843 196.494 38.2618 196.494 27.0564 185.289 27.0564 171.466 27.0564 157.643 38.2618 146.438 52.0843 146.438 65.9069 146.438 77.1123 157.643 77.1123 171.466Z" fill="#78C0A3" transform="matrix(1.00046 0 0 1 1954 1108.4)"/><path d="M77.0469 170.256C77.0469 184.078 65.8415 195.284 52.0189 195.284 38.1963 195.284 26.9909 184.078 26.9909 170.256 26.9909 156.433 38.1963 145.228 52.0189 145.228 65.8415 145.228 77.0469 156.433 77.0469 170.256Z" fill="#79C1A4" transform="matrix(1.00046 0 0 1 1954 1108.4)"/><path d="M76.9487 169.045C76.9487 182.868 65.7433 194.073 51.9207 194.073 38.0982 194.073 26.8928 182.868 26.8928 169.045 26.8928 155.222 38.0982 144.017 51.9207 144.017 65.7433 144.017 76.9487 155.222 76.9487 169.045Z" fill="#7AC1A4" transform="matrix(1.00046 0 0 1 1954 1108.4)"/><path d="M76.916 167.835C76.916 181.657 65.7106 192.863 51.888 192.863 38.0655 192.863 26.8601 181.657 26.8601 167.835 26.8601 154.012 38.0655 142.807 51.888 142.807 65.7106 142.807 76.916 154.012 76.916 167.835Z" fill="#7BC1A5" transform="matrix(1.00046 0 0 1 1954 1108.4)"/><path d="M76.8833 166.624C76.8833 180.447 65.6779 191.652 51.8553 191.652 38.0328 191.652 26.8274 180.447 26.8274 166.624 26.8274 152.801 38.0328 141.596 51.8553 141.596 65.6779 141.596 76.8833 152.801 76.8833 166.624Z" fill="#7CC2A5" transform="matrix(1.00046 0 0 1 1954 1108.4)"/><path d="M76.8506 165.414C76.8506 179.236 65.6452 190.442 51.8226 190.442 38 190.442 26.7946 179.236 26.7946 165.414 26.7946 151.591 38 140.386 51.8226 140.386 65.6452 140.386 76.8506 151.591 76.8506 165.414Z" fill="#7DC2A6" transform="matrix(1.00046 0 0 1 1954 1108.4)"/><path d="M76.8506 164.203C76.8506 178.026 65.6452 189.231 51.8226 189.231 38 189.231 26.7946 178.026 26.7946 164.203 26.7946 150.38 38 139.175 51.8226 139.175 65.6452 139.175 76.8506 150.38 76.8506 164.203Z" fill="#7EC3A6" transform="matrix(1.00046 0 0 1 1954 1108.4)"/><path d="M76.8506 162.96C76.8506 176.782 65.6452 187.988 51.8226 187.988 38 187.988 26.7946 176.782 26.7946 162.96 26.7946 149.137 38 137.932 51.8226 137.932 65.6452 137.932 76.8506 149.137 76.8506 162.96Z" fill="#7EC3A7" transform="matrix(1.00046 0 0 1 1954 1108.4)"/><path d="M76.8833 161.749C76.8833 175.572 65.6779 186.777 51.8553 186.777 38.0328 186.777 26.8274 175.572 26.8274 161.749 26.8274 147.927 38.0328 136.721 51.8553 136.721 65.6779 136.721 76.8833 147.927 76.8833 161.749Z" fill="#7FC4A7" transform="matrix(1.00046 0 0 1 1954 1108.4)"/><path d="M76.916 160.539C76.916 174.361 65.7106 185.567 51.888 185.567 38.0655 185.567 26.8601 174.361 26.8601 160.539 26.8601 146.716 38.0655 135.511 51.888 135.511 65.7106 135.511 76.916 146.716 76.916 160.539Z" fill="#80C4A8" transform="matrix(1.00046 0 0 1 1954 1108.4)"/><path d="M76.9814 159.328C76.9814 173.151 65.776 184.356 51.9535 184.356 38.1309 184.356 26.9255 173.151 26.9255 159.328 26.9255 145.506 38.1309 134.3 51.9535 134.3 65.776 134.3 76.9814 145.506 76.9814 159.328Z" fill="#81C4A8" transform="matrix(1.00046 0 0 1 1954 1108.4)"/><path d="M77.0796 158.151C77.0796 171.973 65.8742 183.178 52.0516 183.178 38.229 183.178 27.0237 171.973 27.0237 158.151 27.0237 144.328 38.2291 133.123 52.0516 133.123 65.8742 133.123 77.0796 144.328 77.0796 158.151Z" fill="#82C5A9" transform="matrix(1.00046 0 0 1 1954 1108.4)"/><path d="M77.145 156.94C77.145 170.763 65.9396 181.968 52.117 181.968 38.2945 181.968 27.0891 170.763 27.0891 156.94 27.0891 143.117 38.2945 131.912 52.117 131.912 65.9396 131.912 77.145 143.117 77.145 156.94Z" fill="#83C5A9" transform="matrix(1.00046 0 0 1 1954 1108.4)"/><path d="M77.2759 155.73C77.2759 169.552 66.0705 180.757 52.2479 180.757 38.4254 180.757 27.22 169.552 27.22 155.73 27.22 141.907 38.4254 130.702 52.2479 130.702 66.0705 130.702 77.2759 141.907 77.2759 155.73Z" fill="#84C6AA" transform="matrix(1.00046 0 0 1 1954 1108.4)"/><path d="M77.374 154.552C77.374 168.374 66.1686 179.58 52.3461 179.58 38.5235 179.58 27.3181 168.374 27.3181 154.552 27.3181 140.729 38.5235 129.524 52.3461 129.524 66.1686 129.524 77.374 140.729 77.374 154.552Z" fill="#84C6AA" transform="matrix(1.00046 0 0 1 1954 1108.4)"/><path d="M77.5376 153.374C77.5376 167.197 66.3322 178.402 52.5096 178.402 38.6871 178.402 27.4817 167.197 27.4817 153.374 27.4817 139.551 38.6871 128.346 52.5096 128.346 66.3322 128.346 77.5376 139.551 77.5376 153.374Z" fill="#85C6AB" transform="matrix(1.00046 0 0 1 1954 1108.4)"/><path d="M77.6685 152.196C77.6685 166.019 66.4631 177.224 52.6405 177.224 38.8179 177.224 27.6125 166.019 27.6125 152.196 27.6125 138.374 38.8179 127.168 52.6405 127.168 66.4631 127.168 77.6685 138.374 77.6685 152.196Z" fill="#86C7AB" transform="matrix(1.00046 0 0 1 1954 1108.4)"/><path d="M77.832 151.018C77.832 164.841 66.6266 176.046 52.8041 176.046 38.9815 176.046 27.7761 164.841 27.7761 151.018 27.7761 137.196 38.9815 125.99 52.8041 125.99 66.6266 125.99 77.832 137.196 77.832 151.018Z" fill="#87C7AC" transform="matrix(1.00046 0 0 1 1954 1108.4)"/><path d="M78.0283 149.841C78.0283 163.663 66.8229 174.869 53.0004 174.869 39.1778 174.869 27.9724 163.663 27.9724 149.841 27.9724 136.018 39.1778 124.813 53.0004 124.813 66.8229 124.813 78.0283 136.018 78.0283 149.841Z" fill="#88C8AC" transform="matrix(1.00046 0 0 1 1954 1108.4)"/><path d="M78.2246 148.696C78.2246 162.518 67.0192 173.723 53.1967 173.723 39.3741 173.723 28.1687 162.518 28.1687 148.696 28.1687 134.873 39.3741 123.668 53.1967 123.668 67.0192 123.668 78.2246 134.873 78.2246 148.696Z" fill="#89C8AD" transform="matrix(1.00046 0 0 1 1954 1108.4)"/><path d="M78.4209 147.518C78.4209 161.34 67.2155 172.546 53.393 172.546 39.5704 172.546 28.365 161.34 28.365 147.518 28.365 133.695 39.5704 122.49 53.393 122.49 67.2155 122.49 78.4209 133.695 78.4209 147.518Z" fill="#8AC9AD" transform="matrix(1.00046 0 0 1 1954 1108.4)"/><path d="M78.65 146.373C78.65 160.195 67.4446 171.401 53.622 171.401 39.7994 171.401 28.594 160.195 28.594 146.373 28.594 132.55 39.7994 121.345 53.622 121.345 67.4446 121.345 78.65 132.55 78.65 146.373Z" fill="#8AC9AE" transform="matrix(1.00046 0 0 1 1954 1108.4)"/><path d="M78.9117 145.228C78.9117 159.05 67.7063 170.256 53.8837 170.256 40.0612 170.256 28.8558 159.05 28.8558 145.228 28.8558 131.405 40.0612 120.2 53.8837 120.2 67.7063 120.2 78.9117 131.405 78.9117 145.228Z" fill="#8BC9AF" transform="matrix(1.00046 0 0 1 1954 1108.4)"/><path d="M79.1734 144.083C79.1734 157.905 67.968 169.11 54.1455 169.11 40.3229 169.11 29.1175 157.905 29.1175 144.083 29.1175 130.26 40.3229 119.055 54.1455 119.055 67.968 119.055 79.1734 130.26 79.1734 144.083Z" fill="#8CCAAF" transform="matrix(1.00046 0 0 1 1954 1108.4)"/><path d="M79.4351 142.937C79.4351 156.76 68.2297 167.965 54.4072 167.965 40.5846 167.965 29.3792 156.76 29.3792 142.937 29.3792 129.115 40.5846 117.909 54.4072 117.909 68.2297 117.909 79.4351 129.115 79.4351 142.937Z" fill="#8DCAB0" transform="matrix(1.00046 0 0 1 1954 1108.4)"/><path d="M79.7296 141.792C79.7296 155.615 68.5242 166.82 54.7016 166.82 40.8791 166.82 29.6737 155.615 29.6737 141.792 29.6737 127.97 40.8791 116.764 54.7016 116.764 68.5242 116.764 79.7296 127.97 79.7296 141.792Z" fill="#8ECBB0" transform="matrix(1.00046 0 0 1 1954 1108.4)"/><path d="M80.024 140.68C80.024 154.503 68.8186 165.708 54.9961 165.708 41.1735 165.708 29.9681 154.503 29.9681 140.68 29.9681 126.857 41.1735 115.652 54.9961 115.652 68.8186 115.652 80.024 126.857 80.024 140.68Z" fill="#8FCBB1" transform="matrix(1.00046 0 0 1 1954 1108.4)"/><path d="M80.3185 139.568C80.3185 153.39 69.1131 164.596 55.2905 164.596 41.468 164.596 30.2626 153.39 30.2626 139.568 30.2626 125.745 41.468 114.54 55.2905 114.54 69.1131 114.54 80.3185 125.745 80.3185 139.568Z" fill="#90CBB1" transform="matrix(1.00046 0 0 1 1954 1108.4)"/><path d="M80.6456 138.423C80.6456 152.245 69.4402 163.451 55.6177 163.451 41.7951 163.451 30.5897 152.245 30.5897 138.423 30.5897 124.6 41.7951 113.395 55.6177 113.395 69.4402 113.395 80.6456 124.6 80.6456 138.423Z" fill="#90CCB2" transform="matrix(1.00046 0 0 1 1954 1108.4)"/><path d="M81.0055 137.343C81.0055 151.166 69.8001 162.371 55.9776 162.371 42.155 162.371 30.9496 151.166 30.9496 137.343 30.9496 123.52 42.155 112.315 55.9776 112.315 69.8001 112.315 81.0055 123.52 81.0055 137.343Z" fill="#91CCB2" transform="matrix(1.00046 0 0 1 1954 1108.4)"/><path d="M81.3654 136.231C81.3654 150.053 70.16 161.259 56.3374 161.259 42.5149 161.259 31.3095 150.053 31.3095 136.231 31.3095 122.408 42.5149 111.203 56.3374 111.203 70.16 111.203 81.3654 122.408 81.3654 136.231Z" fill="#92CDB3" transform="matrix(1.00046 0 0 1 1954 1108.4)"/><path d="M81.7253 135.118C81.7253 148.941 70.5199 160.146 56.6973 160.146 42.8748 160.146 31.6694 148.941 31.6694 135.118 31.6694 121.296 42.8748 110.09 56.6973 110.09 70.5199 110.09 81.7253 121.296 81.7253 135.118Z" fill="#93CDB3" transform="matrix(1.00046 0 0 1 1954 1108.4)"/><path d="M82.1179 134.039C82.1179 147.861 70.9125 159.067 57.0899 159.067 43.2674 159.067 32.062 147.861 32.062 134.039 32.062 120.216 43.2674 109.011 57.0899 109.011 70.9125 109.011 82.1179 120.216 82.1179 134.039Z" fill="#94CEB4" transform="matrix(1.00046 0 0 1 1954 1108.4)"/><path d="M82.5105 132.959C82.5105 146.782 71.3051 157.987 57.4825 157.987 43.66 157.987 32.4546 146.782 32.4546 132.959 32.4546 119.136 43.66 107.931 57.4825 107.931 71.3051 107.931 82.5105 119.136 82.5105 132.959Z" fill="#95CEB4" transform="matrix(1.00046 0 0 1 1954 1108.4)"/><path d="M82.9031 131.879C82.9031 145.702 71.6977 156.907 57.8751 156.907 44.0526 156.907 32.8472 145.702 32.8472 131.879 32.8472 118.057 44.0526 106.851 57.8751 106.851 71.6977 106.851 82.9031 118.057 82.9031 131.879Z" fill="#96CEB5" transform="matrix(1.00046 0 0 1 1954 1108.4)"/><path d="M83.3284 130.8C83.3284 144.622 72.123 155.828 58.3004 155.828 44.4779 155.828 33.2725 144.622 33.2725 130.8 33.2725 116.977 44.4779 105.772 58.3004 105.772 72.123 105.772 83.3284 116.977 83.3284 130.8Z" fill="#96CFB5" transform="matrix(1.00046 0 0 1 1954 1108.4)"/><path d="M83.7864 129.753C83.7864 143.575 72.581 154.781 58.7585 154.781 44.9359 154.781 33.7305 143.575 33.7305 129.753 33.7305 115.93 44.9359 104.725 58.7585 104.725 72.581 104.725 83.7864 115.93 83.7864 129.753Z" fill="#97CFB6" transform="matrix(1.00046 0 0 1 1954 1108.4)"/><path d="M84.2117 128.673C84.2117 142.496 73.0063 153.701 59.1838 153.701 45.3612 153.701 34.1558 142.496 34.1558 128.673 34.1558 114.851 45.3612 103.645 59.1838 103.645 73.0063 103.645 84.2117 114.851 84.2117 128.673Z" fill="#98D0B7" transform="matrix(1.00046 0 0 1 1954 1108.4)"/><path d="M84.7025 127.626C84.7025 141.449 73.4971 152.654 59.6745 152.654 45.8519 152.654 34.6465 141.449 34.6465 127.626 34.6465 113.804 45.8519 102.598 59.6745 102.598 73.4971 102.598 84.7025 113.804 84.7025 127.626Z" fill="#99D0B7" transform="matrix(1.00046 0 0 1 1954 1108.4)"/><path d="M85.1605 126.579C85.1605 140.402 73.9551 151.607 60.1325 151.607 46.31 151.607 35.1046 140.402 35.1046 126.579 35.1046 112.757 46.31 101.551 60.1325 101.551 73.9551 101.551 85.1605 112.757 85.1605 126.579Z" fill="#9AD0B8" transform="matrix(1.00046 0 0 1 1954 1108.4)"/><path d="M85.6512 125.565C85.6512 139.388 74.4458 150.593 60.6233 150.593 46.8007 150.593 35.5953 139.388 35.5953 125.565 35.5953 111.743 46.8007 100.537 60.6233 100.537 74.4458 100.537 85.6512 111.743 85.6512 125.565Z" fill="#9BD1B8" transform="matrix(1.00046 0 0 1 1954 1108.4)"/><path d="M86.142 124.518C86.142 138.341 74.9366 149.546 61.114 149.546 47.2915 149.546 36.0861 138.341 36.0861 124.518 36.0861 110.696 47.2915 99.4902 61.114 99.4902 74.9366 99.4902 86.142 110.696 86.142 124.518Z" fill="#9CD1B9" transform="matrix(1.00046 0 0 1 1954 1108.4)"/><path d="M86.6654 123.504C86.6654 137.327 75.46 148.532 61.6375 148.532 47.8149 148.532 36.6095 137.327 36.6095 123.504 36.6095 109.681 47.8149 98.476 61.6375 98.476 75.46 98.476 86.6654 109.681 86.6654 123.504Z" fill="#9DD2B9" transform="matrix(1.00046 0 0 1 1954 1108.4)"/><path d="M87.1889 122.49C87.1889 136.312 75.9835 147.518 62.1609 147.518 48.3384 147.518 37.133 136.312 37.133 122.49 37.133 108.667 48.3384 97.4618 62.1609 97.4618 75.9835 97.4618 87.1889 108.667 87.1889 122.49Z" fill="#9DD2BA" transform="matrix(1.00046 0 0 1 1954 1108.4)"/><path d="M87.7451 121.476C87.7451 135.298 76.5397 146.504 62.7171 146.504 48.8946 146.504 37.6892 135.298 37.6892 121.476 37.6892 107.653 48.8946 96.4476 62.7171 96.4476 76.5397 96.4476 87.7451 107.653 87.7451 121.476Z" fill="#9ED3BA" transform="matrix(1.00046 0 0 1 1954 1108.4)"/><path d="M88.2685 120.494C88.2685 134.317 77.0631 145.522 63.2406 145.522 49.418 145.522 38.2126 134.317 38.2126 120.494 38.2126 106.672 49.418 95.4661 63.2406 95.4661 77.0631 95.4661 88.2685 106.672 88.2685 120.494Z" fill="#9FD3BB" transform="matrix(1.00046 0 0 1 1954 1108.4)"/><path d="M88.8574 119.48C88.8574 133.302 77.652 144.508 63.8295 144.508 50.0069 144.508 38.8015 133.302 38.8015 119.48 38.8015 105.657 50.0069 94.4519 63.8295 94.4519 77.652 94.4519 88.8574 105.657 88.8574 119.48Z" fill="#A0D3BB" transform="matrix(1.00046 0 0 1 1954 1108.4)"/><path d="M89.4136 118.498C89.4136 132.321 78.2082 143.526 64.3857 143.526 50.5631 143.526 39.3577 132.321 39.3577 118.498 39.3577 104.676 50.5631 93.4704 64.3857 93.4704 78.2082 93.4704 89.4136 104.676 89.4136 118.498Z" fill="#A1D4BC" transform="matrix(1.00046 0 0 1 1954 1108.4)"/><path d="M90.0025 117.55C90.0025 131.372 78.7971 142.578 64.9745 142.578 51.152 142.578 39.9466 131.372 39.9466 117.55 39.9466 103.727 51.152 92.5217 64.9745 92.5217 78.7971 92.5217 90.0025 103.727 90.0025 117.55Z" fill="#A2D4BD" transform="matrix(1.00046 0 0 1 1954 1108.4)"/><path d="M90.6241 116.568C90.6241 130.391 79.4187 141.596 65.5962 141.596 51.7736 141.596 40.5682 130.391 40.5682 116.568 40.5682 102.746 51.7736 91.5402 65.5962 91.5402 79.4187 91.5402 90.6241 102.746 90.6241 116.568Z" fill="#A3D5BD" transform="matrix(1.00046 0 0 1 1954 1108.4)"/><path d="M91.213 115.619C91.213 129.442 80.0076 140.647 66.185 140.647 52.3625 140.647 41.1571 129.442 41.1571 115.619 41.1571 101.797 52.3625 90.5914 66.185 90.5914 80.0076 90.5914 91.213 101.797 91.213 115.619Z" fill="#A4D5BE" transform="matrix(1.00046 0 0 1 1954 1108.4)"/><path d="M91.8346 114.671C91.8346 128.493 80.6292 139.699 66.8067 139.699 52.9841 139.699 41.7787 128.493 41.7787 114.671 41.7787 100.848 52.9841 89.6426 66.8067 89.6426 80.6292 89.6426 91.8346 100.848 91.8346 114.671Z" fill="#A5D6BE" transform="matrix(1.00046 0 0 1 1954 1108.4)"/><path d="M92.4889 113.722C92.4889 127.544 81.2835 138.75 67.461 138.75 53.6384 138.75 42.433 127.544 42.433 113.722 42.433 99.8992 53.6384 88.6938 67.461 88.6938 81.2835 88.6938 92.4889 99.8992 92.4889 113.722Z" fill="#A5D6BF" transform="matrix(1.00046 0 0 1 1954 1108.4)"/><path d="M93.1105 112.773C93.1105 126.596 81.9051 137.801 68.0826 137.801 54.26 137.801 43.0546 126.596 43.0546 112.773 43.0546 98.9505 54.26 87.7451 68.0826 87.7451 81.9051 87.7451 93.1105 98.9505 93.1105 112.773Z" fill="#A6D6BF" transform="matrix(1.00046 0 0 1 1954 1108.4)"/><path d="M93.7976 111.857C93.7976 125.68 82.5922 136.885 68.7696 136.885 54.9471 136.885 43.7417 125.68 43.7417 111.857 43.7417 98.0344 54.9471 86.829 68.7696 86.829 82.5922 86.829 93.7976 98.0344 93.7976 111.857Z" fill="#A7D7C0" transform="matrix(1.00046 0 0 1 1954 1108.4)"/><path d="M94.4519 110.941C94.4519 124.763 83.2465 135.969 69.424 135.969 55.6014 135.969 44.396 124.763 44.396 110.941 44.396 97.1184 55.6014 85.913 69.424 85.913 83.2465 85.913 94.4519 97.1184 94.4519 110.941Z" fill="#A8D7C1" transform="matrix(1.00046 0 0 1 1954 1108.4)"/><path d="M95.139 110.025C95.139 123.847 83.9336 135.053 70.111 135.053 56.2884 135.053 45.083 123.847 45.083 110.025 45.083 96.2023 56.2884 84.9969 70.111 84.9969 83.9336 84.9969 95.139 96.2023 95.139 110.025Z" fill="#A9D8C1" transform="matrix(1.00046 0 0 1 1954 1108.4)"/><path d="M95.826 109.142C95.826 122.964 84.6206 134.169 70.798 134.169 56.9755 134.169 45.7701 122.964 45.7701 109.142 45.7701 95.319 56.9755 84.1136 70.798 84.1136 84.6206 84.1136 95.826 95.319 95.826 109.142Z" fill="#AAD8C2" transform="matrix(1.00046 0 0 1 1954 1108.4)"/><path d="M96.513 108.258C96.513 122.081 85.3076 133.286 71.4851 133.286 57.6625 133.286 46.4571 122.081 46.4571 108.258 46.4571 94.4356 57.6625 83.2302 71.4851 83.2302 85.3076 83.2302 96.513 94.4356 96.513 108.258Z" fill="#ABD8C2" transform="matrix(1.00046 0 0 1 1954 1108.4)"/><path d="M97.2328 107.375C97.2328 121.197 86.0274 132.403 72.2048 132.403 58.3823 132.403 47.1769 121.197 47.1769 107.375 47.1769 93.5523 58.3823 82.3469 72.2048 82.3469 86.0274 82.3469 97.2328 93.5523 97.2328 107.375Z" fill="#ACD9C3" transform="matrix(1.00046 0 0 1 1954 1108.4)"/><path d="M97.9526 106.492C97.9526 120.314 86.7472 131.519 72.9246 131.519 59.102 131.519 47.8966 120.314 47.8966 106.492 47.8966 92.669 59.102 81.4636 72.9246 81.4636 86.7472 81.4636 97.9526 92.669 97.9526 106.492Z" fill="#ACD9C3" transform="matrix(1.00046 0 0 1 1954 1108.4)"/><path d="M98.705 105.641C98.705 119.463 87.4996 130.669 73.6771 130.669 59.8545 130.669 48.6491 119.463 48.6491 105.641 48.6491 91.8183 59.8545 80.6129 73.6771 80.6129 87.4996 80.6129 98.705 91.8183 98.705 105.641Z" fill="#ADDAC4" transform="matrix(1.00046 0 0 1 1954 1108.4)"/><path d="M99.4248 104.79C99.4248 118.613 88.2194 129.818 74.3968 129.818 60.5743 129.818 49.3689 118.613 49.3689 104.79 49.3689 90.9677 60.5743 79.7623 74.3968 79.7623 88.2194 79.7623 99.4248 90.9677 99.4248 104.79Z" fill="#AEDAC5" transform="matrix(1.00046 0 0 1 1954 1108.4)"/><path d="M100.177 103.94C100.177 117.762 88.9719 128.968 75.1493 128.968 61.3268 128.968 50.1214 117.762 50.1214 103.94 50.1214 90.1171 61.3268 78.9117 75.1493 78.9117 88.9719 78.9117 100.177 90.1171 100.177 103.94Z" fill="#AFDBC5" transform="matrix(1.00046 0 0 1 1954 1108.4)"/><path d="M100.962 103.089C100.962 116.912 89.7571 128.117 75.9345 128.117 62.1119 128.117 50.9065 116.912 50.9065 103.089 50.9065 89.2665 62.1119 78.0611 75.9345 78.0611 89.7571 78.0611 100.962 89.2665 100.962 103.089Z" fill="#B0DBC6" transform="matrix(1.00046 0 0 1 1954 1108.4)"/><path d="M101.748 102.271C101.748 116.094 90.5423 127.299 76.7197 127.299 62.8971 127.299 51.6917 116.094 51.6917 102.271 51.6917 88.4486 62.8971 77.2432 76.7197 77.2432 90.5423 77.2432 101.748 88.4486 101.748 102.271Z" fill="#B1DBC6" transform="matrix(1.00046 0 0 1 1954 1108.4)"/><path d="M102.533 101.453C102.533 115.276 91.3274 126.481 77.5049 126.481 63.6823 126.481 52.4769 115.276 52.4769 101.453 52.4769 87.6306 63.6823 76.4252 77.5049 76.4252 91.3274 76.4252 102.533 87.6306 102.533 101.453Z" fill="#B2DCC7" transform="matrix(1.00046 0 0 1 1954 1108.4)"/><path d="M103.318 100.668C103.318 114.491 92.1126 125.696 78.2901 125.696 64.4675 125.696 53.2621 114.491 53.2621 100.668 53.2621 86.8455 64.4675 75.6401 78.2901 75.6401 92.1126 75.6401 103.318 86.8455 103.318 100.668Z" fill="#B3DCC8" transform="matrix(1.00046 0 0 1 1954 1108.4)"/><path d="M104.136 99.8501C104.136 113.673 92.9305 124.878 79.108 124.878 65.2854 124.878 54.08 113.673 54.08 99.8501 54.08 86.0276 65.2854 74.8222 79.108 74.8222 92.9305 74.8222 104.136 86.0276 104.136 99.8501Z" fill="#B4DDC8" transform="matrix(1.00046 0 0 1 1954 1108.4)"/><path d="M104.954 99.0649C104.954 112.887 93.7485 124.093 79.9259 124.093 66.1033 124.093 54.8979 112.887 54.8979 99.0649 54.8979 85.2424 66.1033 74.037 79.9259 74.037 93.7485 74.037 104.954 85.2424 104.954 99.0649Z" fill="#B5DDC9" transform="matrix(1.00046 0 0 1 1954 1108.4)"/><path d="M105.772 98.3124C105.772 112.135 94.5664 123.34 80.7438 123.34 66.9212 123.34 55.7158 112.135 55.7158 98.3124 55.7158 84.4899 66.9212 73.2845 80.7438 73.2845 94.5664 73.2845 105.772 84.4899 105.772 98.3124Z" fill="#B5DDC9" transform="matrix(1.00046 0 0 1 1954 1108.4)"/><path d="M106.59 97.5272C106.59 111.35 95.3843 122.555 81.5617 122.555 67.7392 122.555 56.5338 111.35 56.5338 97.5272 56.5338 83.7047 67.7392 72.4993 81.5617 72.4993 95.3843 72.4993 106.59 83.7047 106.59 97.5272Z" fill="#B6DECA" transform="matrix(1.00046 0 0 1 1954 1108.4)"/><path d="M107.44 96.7748C107.44 110.597 96.2349 121.803 82.4123 121.803 68.5898 121.803 57.3844 110.597 57.3844 96.7748 57.3844 82.9522 68.5898 71.7468 82.4123 71.7468 96.2349 71.7468 107.44 82.9522 107.44 96.7748Z" fill="#B7DECB" transform="matrix(1.00046 0 0 1 1954 1108.4)"/><path d="M108.291 96.055C108.291 109.878 97.0855 121.083 83.2629 121.083 69.4404 121.083 58.235 109.878 58.235 96.055 58.235 82.2325 69.4404 71.0271 83.2629 71.0271 97.0855 71.0271 108.291 82.2325 108.291 96.055Z" fill="#B8DFCB" transform="matrix(1.00046 0 0 1 1954 1108.4)"/><path d="M109.174 95.3025C109.174 109.125 97.9688 120.33 84.1463 120.33 70.3237 120.33 59.1183 109.125 59.1183 95.3025 59.1183 81.48 70.3237 70.2746 84.1463 70.2746 97.9688 70.2746 109.174 81.48 109.174 95.3025Z" fill="#B9DFCC" transform="matrix(1.00046 0 0 1 1954 1108.4)"/><path d="M110.025 94.5828C110.025 108.405 98.8195 119.611 84.9969 119.611 71.1744 119.611 59.969 108.405 59.969 94.5828 59.969 80.7602 71.1744 69.5548 84.9969 69.5548 98.8195 69.5548 110.025 80.7602 110.025 94.5828Z" fill="#BAE0CC" transform="matrix(1.00046 0 0 1 1954 1108.4)"/><path d="M110.908 93.8957C110.908 107.718 99.7028 118.924 85.8803 118.924 72.0577 118.924 60.8523 107.718 60.8523 93.8958 60.8523 80.0732 72.0577 68.8678 85.8803 68.8678 99.7028 68.8678 110.908 80.0732 110.908 93.8957Z" fill="#BBE0CD" transform="matrix(1.00046 0 0 1 1954 1108.4)"/><path d="M111.824 93.176C111.824 106.999 100.619 118.204 86.7963 118.204 72.9738 118.204 61.7684 106.999 61.7684 93.176 61.7684 79.3534 72.9738 68.148 86.7963 68.148 100.619 68.148 111.824 79.3534 111.824 93.176Z" fill="#BCE0CE" transform="matrix(1.00046 0 0 1 1954 1108.4)"/><path d="M112.708 92.4889C112.708 106.312 101.502 117.517 87.6796 117.517 73.8571 117.517 62.6517 106.312 62.6517 92.4889 62.6517 78.6664 73.8571 67.461 87.6796 67.461 101.502 67.461 112.708 78.6664 112.708 92.4889Z" fill="#BDE1CE" transform="matrix(1.00046 0 0 1 1954 1108.4)"/><path d="M113.624 91.8019C113.624 105.624 102.418 116.83 88.5957 116.83 74.7731 116.83 63.5677 105.624 63.5677 91.8019 63.5677 77.9793 74.7731 66.7739 88.5957 66.7739 102.418 66.7739 113.624 77.9793 113.624 91.8019Z" fill="#BDE1CF" transform="matrix(1.00046 0 0 1 1954 1108.4)"/><path d="M114.54 91.1476C114.54 104.97 103.334 116.176 89.5118 116.176 75.6892 116.176 64.4838 104.97 64.4838 91.1476 64.4838 77.325 75.6892 66.1196 89.5118 66.1196 103.334 66.1196 114.54 77.325 114.54 91.1476Z" fill="#BEE2CF" transform="matrix(1.00046 0 0 1 1954 1108.4)"/><path d="M115.456 90.4932C115.456 104.316 104.25 115.521 90.4278 115.521 76.6053 115.521 65.3999 104.316 65.3999 90.4933 65.3999 76.6707 76.6053 65.4653 90.4278 65.4653 104.25 65.4653 115.456 76.6707 115.456 90.4932Z" fill="#BFE2D0" transform="matrix(1.00046 0 0 1 1954 1108.4)"/><path d="M116.405 89.8389C116.405 103.661 105.199 114.867 91.3766 114.867 77.554 114.867 66.3486 103.661 66.3486 89.8389 66.3486 76.0164 77.554 64.811 91.3766 64.811 105.199 64.811 116.405 76.0164 116.405 89.8389Z" fill="#C0E2D1" transform="matrix(1.00046 0 0 1 1954 1108.4)"/><path d="M117.353 89.2173C117.353 103.04 106.148 114.245 92.3254 114.245 78.5028 114.245 67.2974 103.04 67.2974 89.2173 67.2974 75.3948 78.5028 64.1894 92.3254 64.1894 106.148 64.1894 117.353 75.3948 117.353 89.2173Z" fill="#C1E3D1" transform="matrix(1.00046 0 0 1 1954 1108.4)"/><path d="M118.302 88.5957C118.302 102.418 107.097 113.624 93.2741 113.624 79.4516 113.624 68.2462 102.418 68.2462 88.5957 68.2462 74.7731 79.4516 63.5677 93.2741 63.5677 107.097 63.5677 118.302 74.7731 118.302 88.5957Z" fill="#C2E3D2" transform="matrix(1.00046 0 0 1 1954 1108.4)"/><path d="M119.251 87.9741C119.251 101.797 108.045 113.002 94.2229 113.002 80.4004 113.002 69.195 101.797 69.195 87.9741 69.195 74.1515 80.4004 62.9461 94.2229 62.9461 108.045 62.9461 119.251 74.1515 119.251 87.9741Z" fill="#C3E4D3" transform="matrix(1.00046 0 0 1 1954 1108.4)"/><path d="M120.232 87.3852C120.232 101.208 109.027 112.413 95.2044 112.413 81.3818 112.413 70.1764 101.208 70.1764 87.3852 70.1764 73.5626 81.3818 62.3572 95.2044 62.3572 109.027 62.3572 120.232 73.5626 120.232 87.3852Z" fill="#C4E4D3" transform="matrix(1.00046 0 0 1 1954 1108.4)"/><path d="M121.214 86.7963C121.214 100.619 110.008 111.824 96.1859 111.824 82.3633 111.824 71.1579 100.619 71.1579 86.7963 71.1579 72.9738 82.3633 61.7684 96.1859 61.7684 110.008 61.7684 121.214 72.9738 121.214 86.7963Z" fill="#C5E5D4" transform="matrix(1.00046 0 0 1 1954 1108.4)"/><path d="M122.195 86.2401C122.195 100.063 110.99 111.268 97.1674 111.268 83.3448 111.268 72.1394 100.063 72.1394 86.2401 72.1394 72.4176 83.3448 61.2122 97.1674 61.2122 110.99 61.2122 122.195 72.4176 122.195 86.2401Z" fill="#C6E5D4" transform="matrix(1.00046 0 0 1 1954 1108.4)"/><path d="M123.177 85.684C123.177 99.5065 111.971 110.712 98.1489 110.712 84.3263 110.712 73.1209 99.5065 73.1209 85.684 73.1209 71.8614 84.3263 60.656 98.1489 60.656 111.971 60.656 123.177 71.8614 123.177 85.684Z" fill="#C6E5D5" transform="matrix(1.00046 0 0 1 1954 1108.4)"/><path d="M124.191 85.1278C124.191 98.9503 112.986 110.156 99.1631 110.156 85.3405 110.156 74.1351 98.9503 74.1351 85.1278 74.1351 71.3052 85.3405 60.0998 99.1631 60.0998 112.986 60.0998 124.191 71.3052 124.191 85.1278Z" fill="#C7E6D6" transform="matrix(1.00046 0 0 1 1954 1108.4)"/><path d="M125.205 84.5716C125.205 98.3942 114 109.6 100.177 109.6 86.3547 109.6 75.1493 98.3942 75.1493 84.5716 75.1493 70.749 86.3547 59.5436 100.177 59.5436 114 59.5436 125.205 70.749 125.205 84.5716Z" fill="#C8E6D6" transform="matrix(1.00046 0 0 1 1954 1108.4)"/><path d="M126.219 84.0481C126.219 97.8707 115.014 109.076 101.191 109.076 87.3689 109.076 76.1635 97.8707 76.1635 84.0481 76.1635 70.2256 87.3689 59.0202 101.191 59.0202 115.014 59.0202 126.219 70.2256 126.219 84.0481Z" fill="#C9E7D7" transform="matrix(1.00046 0 0 1 1954 1108.4)"/><path d="M127.234 83.5574C127.234 97.38 116.028 108.585 102.206 108.585 88.3831 108.585 77.1777 97.38 77.1777 83.5574 77.1777 69.7348 88.3831 58.5294 102.206 58.5294 116.028 58.5294 127.234 69.7348 127.234 83.5574Z" fill="#CAE7D8" transform="matrix(1.00046 0 0 1 1954 1108.4)"/><path d="M128.248 83.0339C128.248 96.8565 117.042 108.062 103.22 108.062 89.3973 108.062 78.1919 96.8565 78.1919 83.0339 78.1919 69.2114 89.3973 58.006 103.22 58.006 117.042 58.006 128.248 69.2114 128.248 83.0339Z" fill="#CBE8D8" transform="matrix(1.00046 0 0 1 1954 1108.4)"/><path d="M129.295 82.5759C129.295 96.3985 118.089 107.604 104.267 107.604 90.4443 107.604 79.2388 96.3985 79.2388 82.5759 79.2388 68.7533 90.4443 57.5479 104.267 57.5479 118.089 57.5479 129.295 68.7533 129.295 82.5759Z" fill="#CCE8D9" transform="matrix(1.00046 0 0 1 1954 1108.4)"/><path d="M130.342 82.0852C130.342 95.9077 119.136 107.113 105.314 107.113 91.4912 107.113 80.2858 95.9077 80.2858 82.0852 80.2858 68.2626 91.4912 57.0572 105.314 57.0572 119.136 57.0572 130.342 68.2626 130.342 82.0852Z" fill="#CDE8DA" transform="matrix(1.00046 0 0 1 1954 1108.4)"/><path d="M131.389 81.6271C131.389 95.4497 120.183 106.655 106.361 106.655 92.5381 106.655 81.3327 95.4497 81.3327 81.6271 81.3327 67.8046 92.5381 56.5992 106.361 56.5992 120.183 56.5992 131.389 67.8046 131.389 81.6271Z" fill="#CEE9DA" transform="matrix(1.00046 0 0 1 1954 1108.4)"/><path d="M132.436 81.1691C132.436 94.9917 121.23 106.197 107.408 106.197 93.585 106.197 82.3796 94.9917 82.3796 81.1691 82.3796 67.3465 93.585 56.1411 107.408 56.1411 121.23 56.1411 132.436 67.3465 132.436 81.1691Z" fill="#CFE9DB" transform="matrix(1.00046 0 0 1 1954 1108.4)"/><path d="M133.515 80.7438C133.515 94.5664 122.31 105.772 108.487 105.772 94.6646 105.772 83.4592 94.5664 83.4592 80.7438 83.4592 66.9212 94.6646 55.7158 108.487 55.7158 122.31 55.7158 133.515 66.9212 133.515 80.7438Z" fill="#D0EADC" transform="matrix(1.00046 0 0 1 1954 1108.4)"/><path d="M134.595 80.3185C134.595 94.141 123.389 105.346 109.567 105.346 95.7443 105.346 84.5389 94.141 84.5389 80.3185 84.5389 66.4959 95.7443 55.2905 109.567 55.2905 123.389 55.2905 134.595 66.4959 134.595 80.3185Z" fill="#D0EADC" transform="matrix(1.00046 0 0 1 1954 1108.4)"/><path d="M135.674 79.9259C135.674 93.7484 124.469 104.954 110.646 104.954 96.8239 104.954 85.6185 93.7485 85.6185 79.9259 85.6185 66.1033 96.8239 54.8979 110.646 54.8979 124.469 54.8979 135.674 66.1033 135.674 79.9259Z" fill="#D1EADD" transform="matrix(1.00046 0 0 1 1954 1108.4)"/><path d="M136.754 79.5333C136.754 93.3559 125.549 104.561 111.726 104.561 97.9035 104.561 86.6982 93.3559 86.6982 79.5333 86.6982 65.7107 97.9035 54.5053 111.726 54.5053 125.549 54.5053 136.754 65.7107 136.754 79.5333Z" fill="#D2EBDD" transform="matrix(1.00046 0 0 1 1954 1108.4)"/><path d="M137.834 79.1407C137.834 92.9633 126.628 104.169 112.806 104.169 98.9832 104.169 87.7778 92.9633 87.7778 79.1407 87.7778 65.3181 98.9832 54.1127 112.806 54.1127 126.628 54.1127 137.834 65.3181 137.834 79.1407Z" fill="#D3EBDE" transform="matrix(1.00046 0 0 1 1954 1108.4)"/><path d="M138.946 78.7808C138.946 92.6034 127.741 103.809 113.918 103.809 100.096 103.809 88.8902 92.6034 88.8902 78.7808 88.8902 64.9583 100.096 53.7529 113.918 53.7529 127.741 53.7529 138.946 64.9583 138.946 78.7808Z" fill="#D4ECDF" transform="matrix(1.00046 0 0 1 1954 1108.4)"/><path d="M140.058 78.4209C140.058 92.2435 128.853 103.449 115.03 103.449 101.208 103.449 90.0025 92.2435 90.0025 78.4209 90.0025 64.5984 101.208 53.393 115.03 53.393 128.853 53.393 140.058 64.5984 140.058 78.4209Z" fill="#D5ECDF" transform="matrix(1.00046 0 0 1 1954 1108.4)"/><path d="M141.171 78.0938C141.171 91.9163 129.965 103.122 116.143 103.122 102.32 103.122 91.1149 91.9163 91.1149 78.0938 91.1149 64.2712 102.32 53.0658 116.143 53.0658 129.965 53.0658 141.171 64.2712 141.171 78.0938Z" fill="#D6EDE0" transform="matrix(1.00046 0 0 1 1954 1108.4)"/><path d="M142.283 77.7666C142.283 91.5892 131.078 102.795 117.255 102.795 103.433 102.795 92.2272 91.5892 92.2272 77.7666 92.2272 63.9441 103.433 52.7387 117.255 52.7387 131.078 52.7387 142.283 63.9441 142.283 77.7666Z" fill="#D7EDE1" transform="matrix(1.00046 0 0 1 1954 1108.4)"/><path d="M143.395 77.4395C143.395 91.262 132.19 102.467 118.368 102.467 104.545 102.467 93.3396 91.262 93.3396 77.4395 93.3396 63.6169 104.545 52.4115 118.368 52.4115 132.19 52.4115 143.395 63.6169 143.395 77.4395Z" fill="#D8EDE1" transform="matrix(1.00046 0 0 1 1954 1108.4)"/><path d="M144.508 77.145C144.508 90.9676 133.302 102.173 119.48 102.173 105.657 102.173 94.4519 90.9676 94.4519 77.145 94.4519 63.3224 105.657 52.117 119.48 52.117 133.302 52.117 144.508 63.3224 144.508 77.145Z" fill="#D9EEE2" transform="matrix(1.00046 0 0 1 1954 1108.4)"/><path d="M145.653 76.8833C145.653 90.7058 134.448 101.911 120.625 101.911 106.802 101.911 95.597 90.7058 95.597 76.8833 95.597 63.0607 106.802 51.8553 120.625 51.8553 134.448 51.8553 145.653 63.0607 145.653 76.8833Z" fill="#DAEEE3" transform="matrix(1.00046 0 0 1 1954 1108.4)"/><path d="M146.798 76.5888C146.798 90.4114 135.593 101.617 121.77 101.617 107.947 101.617 96.7421 90.4114 96.7421 76.5888 96.7421 62.7663 107.947 51.5609 121.77 51.5609 135.593 51.5609 146.798 62.7663 146.798 76.5888Z" fill="#DBEFE3" transform="matrix(1.00046 0 0 1 1954 1108.4)"/><path d="M147.943 76.3598C147.943 90.1824 136.738 101.388 122.915 101.388 109.093 101.388 97.8871 90.1824 97.8871 76.3598 97.8871 62.5373 109.093 51.3319 122.915 51.3319 136.738 51.3319 147.943 62.5373 147.943 76.3598Z" fill="#DCEFE4" transform="matrix(1.00046 0 0 1 1954 1108.4)"/><path d="M149.088 76.0981C149.088 89.9206 137.883 101.126 124.06 101.126 110.238 101.126 99.0322 89.9206 99.0322 76.0981 99.0322 62.2755 110.238 51.0701 124.06 51.0701 137.883 51.0701 149.088 62.2755 149.088 76.0981Z" fill="#DCEFE5" transform="matrix(1.00046 0 0 1 1954 1108.4)"/><path d="M150.233 75.8691C150.233 89.6916 139.028 100.897 125.205 100.897 111.383 100.897 100.177 89.6916 100.177 75.8691 100.177 62.0465 111.383 50.8411 125.205 50.8411 139.028 50.8411 150.233 62.0465 150.233 75.8691Z" fill="#DDF0E5" transform="matrix(1.00046 0 0 1 1954 1108.4)"/><path d="M151.411 75.6728C151.411 89.4953 140.206 100.701 126.383 100.701 112.56 100.701 101.355 89.4953 101.355 75.6728 101.355 61.8502 112.56 50.6448 126.383 50.6448 140.206 50.6448 151.411 61.8502 151.411 75.6728Z" fill="#DEF0E6" transform="matrix(1.00046 0 0 1 1954 1108.4)"/><path d="M152.589 75.4765C152.589 89.299 141.383 100.504 127.561 100.504 113.738 100.504 102.533 89.299 102.533 75.4765 102.533 61.6539 113.738 50.4485 127.561 50.4485 141.383 50.4485 152.589 61.6539 152.589 75.4765Z" fill="#DFF1E7" transform="matrix(1.00046 0 0 1 1954 1108.4)"/><path d="M153.734 75.3129C153.734 89.1355 142.528 100.341 128.706 100.341 114.883 100.341 103.678 89.1355 103.678 75.3129 103.678 61.4903 114.883 50.2849 128.706 50.2849 142.528 50.2849 153.734 61.4903 153.734 75.3129Z" fill="#E0F1E7" transform="matrix(1.00046 0 0 1 1954 1108.4)"/><path d="M154.912 75.1493C154.912 88.9719 143.706 100.177 129.884 100.177 116.061 100.177 104.856 88.9719 104.856 75.1493 104.856 61.3268 116.061 50.1213 129.884 50.1213 143.706 50.1213 154.912 61.3268 154.912 75.1493Z" fill="#E1F2E8" transform="matrix(1.00046 0 0 1 1954 1108.4)"/><path d="M156.089 74.9857C156.089 88.8083 144.884 100.014 131.061 100.014 117.239 100.014 106.033 88.8083 106.033 74.9857 106.033 61.1632 117.239 49.9578 131.061 49.9578 144.884 49.9578 156.089 61.1632 156.089 74.9857Z" fill="#E2F2E9" transform="matrix(1.00046 0 0 1 1954 1108.4)"/><path d="M157.3 74.8549C157.3 88.6774 146.095 99.8828 132.272 99.8828 118.449 99.8828 107.244 88.6774 107.244 74.8549 107.244 61.0323 118.449 49.8269 132.272 49.8269 146.095 49.8269 157.3 61.0323 157.3 74.8549Z" fill="#E3F2E9" transform="matrix(1.00046 0 0 1 1954 1108.4)"/><path d="M158.478 74.724C158.478 88.5466 147.272 99.752 133.45 99.752 119.627 99.752 108.422 88.5466 108.422 74.724 108.422 60.9014 119.627 49.696 133.45 49.696 147.272 49.696 158.478 60.9014 158.478 74.724Z" fill="#E4F3EA" transform="matrix(1.00046 0 0 1 1954 1108.4)"/><path d="M159.655 74.6258C159.655 88.4484 148.45 99.6538 134.628 99.6538 120.805 99.6538 109.6 88.4484 109.6 74.6258 109.6 60.8033 120.805 49.5979 134.628 49.5979 148.45 49.5979 159.655 60.8033 159.655 74.6258Z" fill="#E5F3EB" transform="matrix(1.00046 0 0 1 1954 1108.4)"/><path d="M160.866 74.5277C160.866 88.3503 149.661 99.5557 135.838 99.5557 122.015 99.5557 110.81 88.3503 110.81 74.5277 110.81 60.7051 122.015 49.4997 135.838 49.4997 149.661 49.4997 160.866 60.7051 160.866 74.5277Z" fill="#E6F4EC" transform="matrix(1.00046 0 0 1 1954 1108.4)"/><path d="M162.076 74.4623C162.076 88.2848 150.871 99.4902 137.049 99.4902 123.226 99.4902 112.021 88.2848 112.021 74.4623 112.021 60.6397 123.226 49.4343 137.049 49.4343 150.871 49.4343 162.076 60.6397 162.076 74.4623Z" fill="#E7F4EC" transform="matrix(1.00046 0 0 1 1954 1108.4)"/><path d="M163.287 74.3968C163.287 88.2194 152.082 99.4248 138.259 99.4248 124.436 99.4248 113.231 88.2194 113.231 74.3968 113.231 60.5743 124.436 49.3689 138.259 49.3689 152.082 49.3689 163.287 60.5743 163.287 74.3968Z" fill="#E8F5ED" transform="matrix(1.00046 0 0 1 1954 1108.4)"/><path d="M164.497 74.3641C164.497 88.1867 153.292 99.3921 139.47 99.3921 125.647 99.3921 114.442 88.1867 114.442 74.3641 114.442 60.5416 125.647 49.3362 139.47 49.3362 153.292 49.3362 164.497 60.5416 164.497 74.3641Z" fill="#E9F5EE" transform="matrix(1.00046 0 0 1 1954 1108.4)"/><path d="M165.708 74.3314C165.708 88.154 154.503 99.3594 140.68 99.3594 126.857 99.3594 115.652 88.154 115.652 74.3314 115.652 60.5088 126.857 49.3034 140.68 49.3034 154.503 49.3034 165.708 60.5088 165.708 74.3314Z" fill="#E9F5EE" transform="matrix(1.00046 0 0 1 1954 1108.4)"/><path d="M166.918 74.3314C166.918 88.154 155.713 99.3594 141.891 99.3594 128.068 99.3594 116.863 88.154 116.863 74.3314 116.863 60.5088 128.068 49.3034 141.891 49.3034 155.713 49.3034 166.918 60.5088 166.918 74.3314Z" fill="#EAF6EF" transform="matrix(1.00046 0 0 1 1954 1108.4)"/><path d="M168.129 74.3314C168.129 88.154 156.924 99.3594 143.101 99.3594 129.278 99.3594 118.073 88.154 118.073 74.3314 118.073 60.5088 129.278 49.3034 143.101 49.3034 156.924 49.3034 168.129 60.5088 168.129 74.3314Z" fill="#EBF6F0" transform="matrix(1.00046 0 0 1 1954 1108.4)"/><path d="M169.307 74.3641C169.307 88.1867 158.101 99.3921 144.279 99.3921 130.456 99.3921 119.251 88.1867 119.251 74.3641 119.251 60.5416 130.456 49.3362 144.279 49.3362 158.101 49.3362 169.307 60.5416 169.307 74.3641Z" fill="#ECF7F0" transform="matrix(1.00046 0 0 1 1954 1108.4)"/><path d="M170.485 74.3968C170.485 88.2194 159.279 99.4248 145.457 99.4248 131.634 99.4248 120.429 88.2194 120.429 74.3968 120.429 60.5743 131.634 49.3689 145.457 49.3689 159.279 49.3689 170.485 60.5743 170.485 74.3968Z" fill="#EDF7F1" transform="matrix(1.00046 0 0 1 1954 1108.4)"/><path d="M171.662 74.4623C171.662 88.2848 160.457 99.4902 146.634 99.4902 132.812 99.4902 121.606 88.2848 121.606 74.4623 121.606 60.6397 132.812 49.4343 146.634 49.4343 160.457 49.4343 171.662 60.6397 171.662 74.4623Z" fill="#EEF7F2" transform="matrix(1.00046 0 0 1 1954 1108.4)"/><path d="M172.84 74.5277C172.84 88.3503 161.635 99.5557 147.812 99.5557 133.99 99.5557 122.784 88.3503 122.784 74.5277 122.784 60.7051 133.99 49.4997 147.812 49.4997 161.635 49.4997 172.84 60.7051 172.84 74.5277Z" fill="#EFF8F3" transform="matrix(1.00046 0 0 1 1954 1108.4)"/><path d="M173.985 74.5931C173.985 88.4157 162.78 99.6211 148.957 99.6211 135.135 99.6211 123.929 88.4157 123.929 74.5931 123.929 60.7706 135.135 49.5652 148.957 49.5652 162.78 49.5652 173.985 60.7706 173.985 74.5931Z" fill="#F0F8F3" transform="matrix(1.00046 0 0 1 1954 1108.4)"/><path d="M175.163 74.6913C175.163 88.5138 163.958 99.7192 150.135 99.7192 136.312 99.7192 125.107 88.5138 125.107 74.6913 125.107 60.8687 136.312 49.6633 150.135 49.6633 163.958 49.6633 175.163 60.8687 175.163 74.6913Z" fill="#F1F9F4" transform="matrix(1.00046 0 0 1 1954 1108.4)"/><path d="M176.341 74.8222C176.341 88.6447 165.135 99.8501 151.313 99.8501 137.49 99.8501 126.285 88.6447 126.285 74.8222 126.285 60.9996 137.49 49.7942 151.313 49.7942 165.135 49.7942 176.341 60.9996 176.341 74.8222Z" fill="#F2F9F5" transform="matrix(1.00046 0 0 1 1954 1108.4)"/><path d="M177.486 74.953C177.486 88.7756 166.28 99.981 152.458 99.981 138.635 99.981 127.43 88.7756 127.43 74.953 127.43 61.1305 138.635 49.9251 152.458 49.9251 166.28 49.9251 177.486 61.1305 177.486 74.953Z" fill="#F3FAF5" transform="matrix(1.00046 0 0 1 1954 1108.4)"/><path d="M178.631 75.0839C178.631 88.9064 167.426 100.112 153.603 100.112 139.78 100.112 128.575 88.9064 128.575 75.0839 128.575 61.2613 139.78 50.0559 153.603 50.0559 167.426 50.0559 178.631 61.2613 178.631 75.0839Z" fill="#F4FAF6" transform="matrix(1.00046 0 0 1 1954 1108.4)"/><path d="M179.776 75.2475C179.776 89.07 168.571 100.275 154.748 100.275 140.925 100.275 129.72 89.07 129.72 75.2475 129.72 61.4249 140.925 50.2195 154.748 50.2195 168.571 50.2195 179.776 61.4249 179.776 75.2475Z" fill="#F5FAF7" transform="matrix(1.00046 0 0 1 1954 1108.4)"/><path d="M180.921 75.411C180.921 89.2336 169.716 100.439 155.893 100.439 142.071 100.439 130.865 89.2336 130.865 75.411 130.865 61.5885 142.071 50.3831 155.893 50.3831 169.716 50.3831 180.921 61.5885 180.921 75.411Z" fill="#F6FBF8" transform="matrix(1.00046 0 0 1 1954 1108.4)"/><path d="M182.099 75.6073C182.099 89.448 170.879 100.668 157.038 100.668 143.198 100.668 131.977 89.448 131.977 75.6073 131.977 61.7667 143.198 50.5467 157.038 50.5467 170.879 50.5467 182.099 61.7667 182.099 75.6073Z" fill="#F7FBF8" transform="matrix(1.00046 0 0 1 1954 1108.4)"/><path d="M183.211 75.8036C183.211 89.6443 171.991 100.864 158.151 100.864 144.31 100.864 133.09 89.6443 133.09 75.8036 133.09 61.963 144.31 50.743 158.151 50.743 171.991 50.743 183.211 61.963 183.211 75.8036Z" fill="#F7FCF9" transform="matrix(1.00046 0 0 1 1954 1108.4)"/><path d="M184.356 75.9999C184.356 89.8406 173.136 101.061 159.296 101.061 145.455 101.061 134.235 89.8406 134.235 75.9999 134.235 62.1593 145.455 50.9393 159.296 50.9393 173.136 50.9393 184.356 62.1593 184.356 75.9999Z" fill="#F8FCFA" transform="matrix(1.00046 0 0 1 1954 1108.4)"/><path d="M185.469 76.2289C185.469 90.0696 174.249 101.29 160.408 101.29 146.567 101.29 135.347 90.0696 135.347 76.2289 135.347 62.3883 146.567 51.1683 160.408 51.1683 174.249 51.1683 185.469 62.3883 185.469 76.2289Z" fill="#F9FCFB" transform="matrix(1.00046 0 0 1 1954 1108.4)"/><path d="M186.581 76.458C186.581 90.2986 175.361 101.519 161.52 101.519 147.68 101.519 136.46 90.2986 136.46 76.458 136.46 62.6173 147.68 51.3973 161.52 51.3973 175.361 51.3973 186.581 62.6173 186.581 76.458Z" fill="#FAFDFB" transform="matrix(1.00046 0 0 1 1954 1108.4)"/><path d="M187.693 76.7197C187.693 90.5603 176.473 101.78 162.633 101.78 148.792 101.78 137.572 90.5603 137.572 76.7197 137.572 62.8791 148.792 51.659 162.633 51.659 176.473 51.659 187.693 62.8791 187.693 76.7197Z" fill="#FBFDFC" transform="matrix(1.00046 0 0 1 1954 1108.4)"/><path d="M188.806 76.9814C188.806 90.8221 177.586 102.042 163.745 102.042 149.904 102.042 138.684 90.8221 138.684 76.9814 138.684 63.1408 149.904 51.9207 163.745 51.9207 177.586 51.9207 188.806 63.1408 188.806 76.9814Z" fill="#FCFEFD" transform="matrix(1.00046 0 0 1 1954 1108.4)"/><path d="M189.918 77.2759C189.918 91.1165 178.698 102.337 164.857 102.337 151.017 102.337 139.797 91.1165 139.797 77.2759 139.797 63.4352 151.017 52.2152 164.857 52.2152 178.698 52.2152 189.918 63.4352 189.918 77.2759Z" fill="#FDFEFE" transform="matrix(1.00046 0 0 1 1954 1108.4)"/><path d="M191.03 77.5703C191.03 91.4109 179.81 102.631 165.97 102.631 152.129 102.631 140.909 91.4109 140.909 77.5703 140.909 63.7297 152.129 52.5096 165.97 52.5096 179.81 52.5096 191.03 63.7297 191.03 77.5703Z" fill="#FEFFFE" transform="matrix(1.00046 0 0 1 1954 1108.4)"/><path d="M192.11 77.8648C192.11 91.7054 180.89 102.925 167.049 102.925 153.209 102.925 141.989 91.7054 141.989 77.8648 141.989 64.0241 153.209 52.8041 167.049 52.8041 180.89 52.8041 192.11 64.0241 192.11 77.8648Z" fill="#FFFFFF" transform="matrix(1.00046 0 0 1 1954 1108.4)"/><path d="M192.11 77.8648C192.11 91.7054 180.89 102.925 167.049 102.925 153.209 102.925 141.989 91.7054 141.989 77.8648 141.989 64.0241 153.209 52.8041 167.049 52.8041 180.89 52.8041 192.11 64.0241 192.11 77.8648Z" fill="#249579" transform="matrix(1.00046 0 0 1 1954 1108.4)"/></g></g></g><text font-family="Nirmala UI,Nirmala UI_MSFontService,sans-serif" font-weight="400" font-size="83" transform="matrix(1 0 0 1 1994.77 1572)">Daten<tspan font-size="83" x="-41.548" y="99">filtern &amp;</tspan><tspan font-size="83" x="-156.406" y="198">anonymisieren</tspan></text></g></svg>