<svg width="611" height="733" xmlns="http://www.w3.org/2000/svg" xmlns:xlink="http://www.w3.org/1999/xlink" xml:space="preserve" overflow="hidden"><defs><clipPath id="clip0"><rect x="881" y="1106" width="611" height="733"/></clipPath><clipPath id="clip1"><rect x="1037" y="1105" width="300" height="313"/></clipPath><clipPath id="clip2"><rect x="1037" y="1105" width="300" height="313"/></clipPath><clipPath id="clip3"><rect x="1037" y="1105" width="300" height="313"/></clipPath></defs><g clip-path="url(#clip0)" transform="translate(-881 -1106)"><g clip-path="url(#clip1)"><g clip-path="url(#clip2)"><g clip-path="url(#clip3)"><path d="M174.509 30.099C174.509 43.9396 163.289 55.1597 149.448 55.1597 135.607 55.1597 124.387 43.9396 124.387 30.099 124.387 16.2584 135.607 5.03831 149.448 5.03831 163.289 5.03831 174.509 16.2584 174.509 30.099Z" fill="#249579" transform="matrix(1.00046 0 0 1 1037 1107.4)"/><path d="M174.509 33.0434C174.509 46.8841 163.289 58.1041 149.448 58.1041 135.607 58.1041 124.387 46.8841 124.387 33.0434 124.387 19.2028 135.607 7.98277 149.448 7.98277 163.289 7.98277 174.509 19.2028 174.509 33.0434Z" fill="#249579" transform="matrix(1.00046 0 0 1 1037 1107.4)"/><path d="M174.476 35.9879C174.476 49.8105 163.271 61.0159 149.448 61.0159 135.625 61.0159 124.42 49.8105 124.42 35.9879 124.42 22.1654 135.625 10.96 149.448 10.96 163.271 10.96 174.476 22.1654 174.476 35.9879Z" fill="#26957A" transform="matrix(1.00046 0 0 1 1037 1107.4)"/><path d="M174.476 38.9324C174.476 52.7549 163.271 63.9603 149.448 63.9603 135.625 63.9603 124.42 52.7549 124.42 38.9324 124.42 25.1098 135.625 13.9044 149.448 13.9044 163.271 13.9044 174.476 25.1098 174.476 38.9324Z" fill="#26967A" transform="matrix(1.00046 0 0 1 1037 1107.4)"/><path d="M174.476 41.8768C174.476 55.6994 163.271 66.9048 149.448 66.9048 135.625 66.9048 124.42 55.6994 124.42 41.8769 124.42 28.0543 135.625 16.8489 149.448 16.8489 163.271 16.8489 174.476 28.0543 174.476 41.8768Z" fill="#27967A" transform="matrix(1.00046 0 0 1 1037 1107.4)"/><path d="M174.476 44.8213C174.476 58.6439 163.271 69.8493 149.448 69.8493 135.625 69.8493 124.42 58.6439 124.42 44.8213 124.42 30.9988 135.625 19.7934 149.448 19.7934 163.271 19.7934 174.476 30.9988 174.476 44.8213Z" fill="#28977B" transform="matrix(1.00046 0 0 1 1037 1107.4)"/><path d="M174.476 47.7985C174.476 61.6211 163.271 72.8265 149.448 72.8265 135.625 72.8265 124.42 61.6211 124.42 47.7985 124.42 33.9759 135.625 22.7705 149.448 22.7705 163.271 22.7705 174.476 33.9759 174.476 47.7985Z" fill="#29977B" transform="matrix(1.00046 0 0 1 1037 1107.4)"/><path d="M174.476 50.743C174.476 64.5655 163.271 75.7709 149.448 75.7709 135.625 75.7709 124.42 64.5655 124.42 50.743 124.42 36.9204 135.625 25.715 149.448 25.715 163.271 25.715 174.476 36.9204 174.476 50.743Z" fill="#29977B" transform="matrix(1.00046 0 0 1 1037 1107.4)"/><path d="M174.476 53.6874C174.476 67.51 163.271 78.7154 149.448 78.7154 135.625 78.7154 124.42 67.51 124.42 53.6874 124.42 39.8649 135.625 28.6595 149.448 28.6595 163.271 28.6595 174.476 39.8649 174.476 53.6874Z" fill="#2A987C" transform="matrix(1.00046 0 0 1 1037 1107.4)"/><path d="M174.476 56.6319C174.476 70.4544 163.271 81.6599 149.448 81.6599 135.625 81.6599 124.42 70.4544 124.42 56.6319 124.42 42.8093 135.625 31.6039 149.448 31.6039 163.271 31.6039 174.476 42.8093 174.476 56.6319Z" fill="#2B987C" transform="matrix(1.00046 0 0 1 1037 1107.4)"/><path d="M174.476 59.5764C174.476 73.3989 163.271 84.6043 149.448 84.6043 135.625 84.6043 124.42 73.3989 124.42 59.5764 124.42 45.7538 135.625 34.5484 149.448 34.5484 163.271 34.5484 174.476 45.7538 174.476 59.5764Z" fill="#2B997D" transform="matrix(1.00046 0 0 1 1037 1107.4)"/><path d="M174.476 62.5208C174.476 76.3434 163.271 87.5488 149.448 87.5488 135.625 87.5488 124.42 76.3434 124.42 62.5208 124.42 48.6983 135.625 37.4929 149.448 37.4929 163.271 37.4929 174.476 48.6983 174.476 62.5208Z" fill="#2C997D" transform="matrix(1.00046 0 0 1 1037 1107.4)"/><path d="M174.476 65.498C174.476 79.3206 163.271 90.526 149.448 90.526 135.625 90.526 124.42 79.3206 124.42 65.498 124.42 51.6754 135.625 40.47 149.448 40.47 163.271 40.47 174.476 51.6754 174.476 65.498Z" fill="#2D9A7D" transform="matrix(1.00046 0 0 1 1037 1107.4)"/><path d="M174.476 68.4425C174.476 82.265 163.271 93.4704 149.448 93.4704 135.625 93.4704 124.42 82.265 124.42 68.4425 124.42 54.6199 135.625 43.4145 149.448 43.4145 163.271 43.4145 174.476 54.6199 174.476 68.4425Z" fill="#2D9A7E" transform="matrix(1.00046 0 0 1 1037 1107.4)"/><path d="M174.476 71.3869C174.476 85.2095 163.271 96.4149 149.448 96.4149 135.625 96.4149 124.42 85.2095 124.42 71.3869 124.42 57.5644 135.625 46.359 149.448 46.359 163.271 46.359 174.476 57.5644 174.476 71.3869Z" fill="#2E9A7E" transform="matrix(1.00046 0 0 1 1037 1107.4)"/><path d="M174.476 74.3314C174.476 88.154 163.271 99.3594 149.448 99.3594 135.625 99.3594 124.42 88.154 124.42 74.3314 124.42 60.5088 135.625 49.3034 149.448 49.3034 163.271 49.3034 174.476 60.5088 174.476 74.3314Z" fill="#2F9B7E" transform="matrix(1.00046 0 0 1 1037 1107.4)"/><path d="M174.476 77.2759C174.476 91.0984 163.271 102.304 149.448 102.304 135.625 102.304 124.42 91.0984 124.42 77.2759 124.42 63.4533 135.625 52.2479 149.448 52.2479 163.271 52.2479 174.476 63.4533 174.476 77.2759Z" fill="#309B7F" transform="matrix(1.00046 0 0 1 1037 1107.4)"/><path d="M174.476 80.2203C174.476 94.0429 163.271 105.248 149.448 105.248 135.625 105.248 124.42 94.0429 124.42 80.2203 124.42 66.3978 135.625 55.1924 149.448 55.1924 163.271 55.1924 174.476 66.3978 174.476 80.2203Z" fill="#309C7F" transform="matrix(1.00046 0 0 1 1037 1107.4)"/><path d="M174.476 83.1975C174.476 97.0201 163.271 108.225 149.448 108.225 135.625 108.225 124.42 97.0201 124.42 83.1975 124.42 69.375 135.625 58.1696 149.448 58.1696 163.271 58.1696 174.476 69.375 174.476 83.1975Z" fill="#309C7F" transform="matrix(1.00046 0 0 1 1037 1107.4)"/><path d="M174.476 86.142C174.476 99.9645 163.271 111.17 149.448 111.17 135.625 111.17 124.42 99.9645 124.42 86.142 124.42 72.3194 135.625 61.114 149.448 61.114 163.271 61.114 174.476 72.3194 174.476 86.142Z" fill="#319C7F" transform="matrix(1.00046 0 0 1 1037 1107.4)"/><path d="M174.476 89.0864C174.476 102.909 163.271 114.114 149.448 114.114 135.625 114.114 124.42 102.909 124.42 89.0864 124.42 75.2639 135.625 64.0585 149.448 64.0585 163.271 64.0585 174.476 75.2639 174.476 89.0864Z" fill="#329C80" transform="matrix(1.00046 0 0 1 1037 1107.4)"/><path d="M174.476 92.0309C174.476 105.853 163.271 117.059 149.448 117.059 135.625 117.059 124.42 105.853 124.42 92.0309 124.42 78.2084 135.625 67.003 149.448 67.003 163.271 67.003 174.476 78.2084 174.476 92.0309Z" fill="#339D80" transform="matrix(1.00046 0 0 1 1037 1107.4)"/><path d="M174.476 94.9754C174.476 108.798 163.271 120.003 149.448 120.003 135.625 120.003 124.42 108.798 124.42 94.9754 124.42 81.1528 135.625 69.9474 149.448 69.9474 163.271 69.9474 174.476 81.1528 174.476 94.9754Z" fill="#349D80" transform="matrix(1.00046 0 0 1 1037 1107.4)"/><path d="M174.476 97.9198C174.476 111.742 163.271 122.948 149.448 122.948 135.625 122.948 124.42 111.742 124.42 97.9199 124.42 84.0973 135.625 72.8919 149.448 72.8919 163.271 72.8919 174.476 84.0973 174.476 97.9198Z" fill="#359E81" transform="matrix(1.00046 0 0 1 1037 1107.4)"/><path d="M174.476 100.864C174.476 114.687 163.271 125.892 149.448 125.892 135.625 125.892 124.42 114.687 124.42 100.864 124.42 87.0418 135.625 75.8363 149.448 75.8363 163.271 75.8363 174.476 87.0418 174.476 100.864Z" fill="#359E81" transform="matrix(1.00046 0 0 1 1037 1107.4)"/><path d="M174.476 103.841C174.476 117.664 163.271 128.869 149.448 128.869 135.625 128.869 124.42 117.664 124.42 103.841 124.42 90.0189 135.625 78.8135 149.448 78.8135 163.271 78.8135 174.476 90.0189 174.476 103.841Z" fill="#369E81" transform="matrix(1.00046 0 0 1 1037 1107.4)"/><path d="M174.476 106.786C174.476 120.609 163.271 131.814 149.448 131.814 135.625 131.814 124.42 120.609 124.42 106.786 124.42 92.9634 135.625 81.758 149.448 81.758 163.271 81.758 174.476 92.9634 174.476 106.786Z" fill="#379F82" transform="matrix(1.00046 0 0 1 1037 1107.4)"/><path d="M174.476 109.73C174.476 123.553 163.271 134.758 149.448 134.758 135.625 134.758 124.42 123.553 124.42 109.73 124.42 95.9079 135.625 84.7025 149.448 84.7025 163.271 84.7025 174.476 95.9079 174.476 109.73Z" fill="#389F82" transform="matrix(1.00046 0 0 1 1037 1107.4)"/><path d="M174.476 112.675C174.476 126.497 163.271 137.703 149.448 137.703 135.625 137.703 124.42 126.497 124.42 112.675 124.42 98.8523 135.625 87.6469 149.448 87.6469 163.271 87.6469 174.476 98.8523 174.476 112.675Z" fill="#39A083" transform="matrix(1.00046 0 0 1 1037 1107.4)"/><path d="M174.476 115.619C174.476 129.442 163.271 140.647 149.448 140.647 135.625 140.647 124.42 129.442 124.42 115.619 124.42 101.797 135.625 90.5914 149.448 90.5914 163.271 90.5914 174.476 101.797 174.476 115.619Z" fill="#39A083" transform="matrix(1.00046 0 0 1 1037 1107.4)"/><path d="M174.476 118.564C174.476 132.386 163.271 143.592 149.448 143.592 135.625 143.592 124.42 132.386 124.42 118.564 124.42 104.741 135.625 93.5359 149.448 93.5359 163.271 93.5359 174.476 104.741 174.476 118.564Z" fill="#3AA183" transform="matrix(1.00046 0 0 1 1037 1107.4)"/><path d="M174.476 121.541C174.476 135.364 163.271 146.569 149.448 146.569 135.625 146.569 124.42 135.364 124.42 121.541 124.42 107.718 135.625 96.5131 149.448 96.5131 163.271 96.5131 174.476 107.718 174.476 121.541Z" fill="#3BA184" transform="matrix(1.00046 0 0 1 1037 1107.4)"/><path d="M174.476 124.485C174.476 138.308 163.271 149.513 149.448 149.513 135.625 149.513 124.42 138.308 124.42 124.485 124.42 110.663 135.625 99.4575 149.448 99.4575 163.271 99.4575 174.476 110.663 174.476 124.485Z" fill="#3CA184" transform="matrix(1.00046 0 0 1 1037 1107.4)"/><path d="M174.476 127.43C174.476 141.253 163.271 152.458 149.448 152.458 135.625 152.458 124.42 141.253 124.42 127.43 124.42 113.607 135.625 102.402 149.448 102.402 163.271 102.402 174.476 113.607 174.476 127.43Z" fill="#3DA284" transform="matrix(1.00046 0 0 1 1037 1107.4)"/><path d="M174.476 130.374C174.476 144.197 163.271 155.402 149.448 155.402 135.625 155.402 124.42 144.197 124.42 130.374 124.42 116.552 135.625 105.346 149.448 105.346 163.271 105.346 174.476 116.552 174.476 130.374Z" fill="#3DA285" transform="matrix(1.00046 0 0 1 1037 1107.4)"/><path d="M174.476 133.319C174.476 147.141 163.271 158.347 149.448 158.347 135.625 158.347 124.42 147.141 124.42 133.319 124.42 119.496 135.625 108.291 149.448 108.291 163.271 108.291 174.476 119.496 174.476 133.319Z" fill="#3EA385" transform="matrix(1.00046 0 0 1 1037 1107.4)"/><path d="M174.476 136.263C174.476 150.086 163.271 161.291 149.448 161.291 135.625 161.291 124.42 150.086 124.42 136.263 124.42 122.441 135.625 111.235 149.448 111.235 163.271 111.235 174.476 122.441 174.476 136.263Z" fill="#3FA385" transform="matrix(1.00046 0 0 1 1037 1107.4)"/><path d="M174.476 139.241C174.476 153.063 163.271 164.268 149.448 164.268 135.625 164.268 124.42 153.063 124.42 139.241 124.42 125.418 135.625 114.213 149.448 114.213 163.271 114.213 174.476 125.418 174.476 139.241Z" fill="#40A386" transform="matrix(1.00046 0 0 1 1037 1107.4)"/><path d="M174.476 142.185C174.476 156.008 163.271 167.213 149.448 167.213 135.625 167.213 124.42 156.008 124.42 142.185 124.42 128.362 135.625 117.157 149.448 117.157 163.271 117.157 174.476 128.362 174.476 142.185Z" fill="#41A486" transform="matrix(1.00046 0 0 1 1037 1107.4)"/><path d="M174.476 145.129C174.476 158.952 163.271 170.157 149.448 170.157 135.625 170.157 124.42 158.952 124.42 145.129 124.42 131.307 135.625 120.101 149.448 120.101 163.271 120.101 174.476 131.307 174.476 145.129Z" fill="#41A487" transform="matrix(1.00046 0 0 1 1037 1107.4)"/><path d="M174.476 148.074C174.476 161.896 163.271 173.102 149.448 173.102 135.625 173.102 124.42 161.896 124.42 148.074 124.42 134.251 135.625 123.046 149.448 123.046 163.271 123.046 174.476 134.251 174.476 148.074Z" fill="#42A587" transform="matrix(1.00046 0 0 1 1037 1107.4)"/><path d="M174.509 151.018C174.509 164.859 163.289 176.079 149.448 176.079 135.607 176.079 124.387 164.859 124.387 151.018 124.387 137.178 135.607 125.958 149.448 125.958 163.289 125.958 174.509 137.178 174.509 151.018Z" fill="#43A587" transform="matrix(1.00046 0 0 1 1037 1107.4)"/><path d="M174.509 153.963C174.509 167.803 163.289 179.024 149.448 179.024 135.607 179.024 124.387 167.803 124.387 153.963 124.387 140.122 135.607 128.902 149.448 128.902 163.289 128.902 174.509 140.122 174.509 153.963Z" fill="#44A688" transform="matrix(1.00046 0 0 1 1037 1107.4)"/><path d="M174.509 154.552C174.509 168.392 163.289 179.612 149.448 179.612 135.607 179.612 124.387 168.392 124.387 154.552 124.387 140.711 135.607 129.491 149.448 129.491 163.289 129.491 174.509 140.711 174.509 154.552Z" fill="#44A688" transform="matrix(1.00046 0 0 1 1037 1107.4)"/><path d="M174.509 155.108C174.509 168.949 163.289 180.169 149.448 180.169 135.607 180.169 124.387 168.949 124.387 155.108 124.387 141.267 135.607 130.047 149.448 130.047 163.289 130.047 174.509 141.267 174.509 155.108Z" fill="#45A689" transform="matrix(1.00046 0 0 1 1037 1107.4)"/><path d="M174.509 155.664C174.509 169.505 163.289 180.725 149.448 180.725 135.607 180.725 124.387 169.505 124.387 155.664 124.387 141.823 135.607 130.603 149.448 130.603 163.289 130.603 174.509 141.823 174.509 155.664Z" fill="#46A789" transform="matrix(1.00046 0 0 1 1037 1107.4)"/><path d="M174.509 156.22C174.509 170.061 163.289 181.281 149.448 181.281 135.607 181.281 124.387 170.061 124.387 156.22 124.387 142.38 135.607 131.16 149.448 131.16 163.289 131.16 174.509 142.38 174.509 156.22Z" fill="#47A789" transform="matrix(1.00046 0 0 1 1037 1107.4)"/><path d="M174.509 156.809C174.509 170.65 163.289 181.87 149.448 181.87 135.607 181.87 124.387 170.65 124.387 156.809 124.387 142.969 135.607 131.748 149.448 131.748 163.289 131.748 174.509 142.969 174.509 156.809Z" fill="#48A88A" transform="matrix(1.00046 0 0 1 1037 1107.4)"/><path d="M174.509 157.365C174.509 171.206 163.289 182.426 149.448 182.426 135.607 182.426 124.387 171.206 124.387 157.365 124.387 143.525 135.607 132.305 149.448 132.305 163.289 132.305 174.509 143.525 174.509 157.365Z" fill="#48A88A" transform="matrix(1.00046 0 0 1 1037 1107.4)"/><path d="M174.509 157.922C174.509 171.762 163.289 182.982 149.448 182.982 135.607 182.982 124.387 171.762 124.387 157.922 124.387 144.081 135.607 132.861 149.448 132.861 163.289 132.861 174.509 144.081 174.509 157.922Z" fill="#49A88A" transform="matrix(1.00046 0 0 1 1037 1107.4)"/><path d="M174.509 158.478C174.509 172.318 163.289 183.538 149.448 183.538 135.607 183.538 124.387 172.318 124.387 158.478 124.387 144.637 135.607 133.417 149.448 133.417 163.289 133.417 174.509 144.637 174.509 158.478Z" fill="#4AA98B" transform="matrix(1.00046 0 0 1 1037 1107.4)"/><path d="M174.509 159.067C174.509 172.907 163.289 184.127 149.448 184.127 135.607 184.127 124.387 172.907 124.387 159.067 124.387 145.226 135.607 134.006 149.448 134.006 163.289 134.006 174.509 145.226 174.509 159.067Z" fill="#4BA98B" transform="matrix(1.00046 0 0 1 1037 1107.4)"/><path d="M174.476 159.623C174.476 173.445 163.271 184.651 149.448 184.651 135.625 184.651 124.42 173.445 124.42 159.623 124.42 145.8 135.625 134.595 149.448 134.595 163.271 134.595 174.476 145.8 174.476 159.623Z" fill="#4CAA8C" transform="matrix(1.00046 0 0 1 1037 1107.4)"/><path d="M174.476 160.179C174.476 174.001 163.271 185.207 149.448 185.207 135.625 185.207 124.42 174.001 124.42 160.179 124.42 146.356 135.625 135.151 149.448 135.151 163.271 135.151 174.476 146.356 174.476 160.179Z" fill="#4DAA8C" transform="matrix(1.00046 0 0 1 1037 1107.4)"/><path d="M174.476 160.768C174.476 174.59 163.271 185.796 149.448 185.796 135.625 185.796 124.42 174.59 124.42 160.768 124.42 146.945 135.625 135.74 149.448 135.74 163.271 135.74 174.476 146.945 174.476 160.768Z" fill="#4DAB8C" transform="matrix(1.00046 0 0 1 1037 1107.4)"/><path d="M174.476 161.324C174.476 175.147 163.271 186.352 149.448 186.352 135.625 186.352 124.42 175.147 124.42 161.324 124.42 147.501 135.625 136.296 149.448 136.296 163.271 136.296 174.476 147.501 174.476 161.324Z" fill="#4EAB8D" transform="matrix(1.00046 0 0 1 1037 1107.4)"/><path d="M174.476 161.88C174.476 175.703 163.271 186.908 149.448 186.908 135.625 186.908 124.42 175.703 124.42 161.88 124.42 148.058 135.625 136.852 149.448 136.852 163.271 136.852 174.476 148.058 174.476 161.88Z" fill="#4FAB8D" transform="matrix(1.00046 0 0 1 1037 1107.4)"/><path d="M174.476 162.436C174.476 176.259 163.271 187.464 149.448 187.464 135.625 187.464 124.42 176.259 124.42 162.436 124.42 148.614 135.625 137.408 149.448 137.408 163.271 137.408 174.476 148.614 174.476 162.436Z" fill="#50AC8E" transform="matrix(1.00046 0 0 1 1037 1107.4)"/><path d="M174.476 163.025C174.476 176.848 163.271 188.053 149.448 188.053 135.625 188.053 124.42 176.848 124.42 163.025 124.42 149.203 135.625 137.997 149.448 137.997 163.271 137.997 174.476 149.203 174.476 163.025Z" fill="#51AC8E" transform="matrix(1.00046 0 0 1 1037 1107.4)"/><path d="M174.476 163.581C174.476 177.404 163.271 188.609 149.448 188.609 135.625 188.609 124.42 177.404 124.42 163.581 124.42 149.759 135.625 138.553 149.448 138.553 163.271 138.553 174.476 149.759 174.476 163.581Z" fill="#52AD8E" transform="matrix(1.00046 0 0 1 1037 1107.4)"/><path d="M174.476 164.138C174.476 177.96 163.271 189.166 149.448 189.166 135.625 189.166 124.42 177.96 124.42 164.138 124.42 150.315 135.625 139.11 149.448 139.11 163.271 139.11 174.476 150.315 174.476 164.138Z" fill="#52AD8F" transform="matrix(1.00046 0 0 1 1037 1107.4)"/><path d="M174.476 164.694C174.476 178.516 163.271 189.722 149.448 189.722 135.625 189.722 124.42 178.516 124.42 164.694 124.42 150.871 135.625 139.666 149.448 139.666 163.271 139.666 174.476 150.871 174.476 164.694Z" fill="#53AD8F" transform="matrix(1.00046 0 0 1 1037 1107.4)"/><path d="M174.476 165.283C174.476 179.105 163.271 190.311 149.448 190.311 135.625 190.311 124.42 179.105 124.42 165.283 124.42 151.46 135.625 140.255 149.448 140.255 163.271 140.255 174.476 151.46 174.476 165.283Z" fill="#54AE90" transform="matrix(1.00046 0 0 1 1037 1107.4)"/><path d="M174.476 165.839C174.476 179.661 163.271 190.867 149.448 190.867 135.625 190.867 124.42 179.661 124.42 165.839 124.42 152.016 135.625 140.811 149.448 140.811 163.271 140.811 174.476 152.016 174.476 165.839Z" fill="#55AE90" transform="matrix(1.00046 0 0 1 1037 1107.4)"/><path d="M174.476 166.395C174.476 180.218 163.271 191.423 149.448 191.423 135.625 191.423 124.42 180.218 124.42 166.395 124.42 152.572 135.625 141.367 149.448 141.367 163.271 141.367 174.476 152.572 174.476 166.395Z" fill="#56AF91" transform="matrix(1.00046 0 0 1 1037 1107.4)"/><path d="M174.476 166.984C174.476 180.806 163.271 192.012 149.448 192.012 135.625 192.012 124.42 180.806 124.42 166.984 124.42 153.161 135.625 141.956 149.448 141.956 163.271 141.956 174.476 153.161 174.476 166.984Z" fill="#56AF91" transform="matrix(1.00046 0 0 1 1037 1107.4)"/><path d="M174.476 167.54C174.476 181.363 163.271 192.568 149.448 192.568 135.625 192.568 124.42 181.363 124.42 167.54 124.42 153.718 135.625 142.512 149.448 142.512 163.271 142.512 174.476 153.718 174.476 167.54Z" fill="#57B091" transform="matrix(1.00046 0 0 1 1037 1107.4)"/><path d="M174.476 168.096C174.476 181.919 163.271 193.124 149.448 193.124 135.625 193.124 124.42 181.919 124.42 168.096 124.42 154.274 135.625 143.068 149.448 143.068 163.271 143.068 174.476 154.274 174.476 168.096Z" fill="#58B092" transform="matrix(1.00046 0 0 1 1037 1107.4)"/><path d="M174.476 168.652C174.476 182.475 163.271 193.68 149.448 193.68 135.625 193.68 124.42 182.475 124.42 168.652 124.42 154.83 135.625 143.624 149.448 143.624 163.271 143.624 174.476 154.83 174.476 168.652Z" fill="#59B092" transform="matrix(1.00046 0 0 1 1037 1107.4)"/><path d="M174.476 169.241C174.476 183.064 163.271 194.269 149.448 194.269 135.625 194.269 124.42 183.064 124.42 169.241 124.42 155.419 135.625 144.213 149.448 144.213 163.271 144.213 174.476 155.419 174.476 169.241Z" fill="#5AB193" transform="matrix(1.00046 0 0 1 1037 1107.4)"/><path d="M174.476 169.798C174.476 183.62 163.271 194.826 149.448 194.826 135.625 194.826 124.42 183.62 124.42 169.798 124.42 155.975 135.625 144.77 149.448 144.77 163.271 144.77 174.476 155.975 174.476 169.798Z" fill="#5AB193" transform="matrix(1.00046 0 0 1 1037 1107.4)"/><path d="M174.476 170.354C174.476 184.176 163.271 195.382 149.448 195.382 135.625 195.382 124.42 184.176 124.42 170.354 124.42 156.531 135.625 145.326 149.448 145.326 163.271 145.326 174.476 156.531 174.476 170.354Z" fill="#5BB294" transform="matrix(1.00046 0 0 1 1037 1107.4)"/><path d="M174.476 170.91C174.476 184.732 163.271 195.938 149.448 195.938 135.625 195.938 124.42 184.732 124.42 170.91 124.42 157.087 135.625 145.882 149.448 145.882 163.271 145.882 174.476 157.087 174.476 170.91Z" fill="#5CB294" transform="matrix(1.00046 0 0 1 1037 1107.4)"/><path d="M174.476 171.499C174.476 185.321 163.271 196.527 149.448 196.527 135.625 196.527 124.42 185.321 124.42 171.499 124.42 157.676 135.625 146.471 149.448 146.471 163.271 146.471 174.476 157.676 174.476 171.499Z" fill="#5DB294" transform="matrix(1.00046 0 0 1 1037 1107.4)"/><path d="M174.476 172.055C174.476 185.878 163.271 197.083 149.448 197.083 135.625 197.083 124.42 185.878 124.42 172.055 124.42 158.232 135.625 147.027 149.448 147.027 163.271 147.027 174.476 158.232 174.476 172.055Z" fill="#5EB395" transform="matrix(1.00046 0 0 1 1037 1107.4)"/><path d="M174.476 172.611C174.476 186.434 163.271 197.639 149.448 197.639 135.625 197.639 124.42 186.434 124.42 172.611 124.42 158.789 135.625 147.583 149.448 147.583 163.271 147.583 174.476 158.789 174.476 172.611Z" fill="#5EB395" transform="matrix(1.00046 0 0 1 1037 1107.4)"/><path d="M174.476 173.2C174.476 187.023 163.271 198.228 149.448 198.228 135.625 198.228 124.42 187.023 124.42 173.2 124.42 159.377 135.625 148.172 149.448 148.172 163.271 148.172 174.476 159.377 174.476 173.2Z" fill="#5FB496" transform="matrix(1.00046 0 0 1 1037 1107.4)"/><path d="M174.476 173.756C174.476 187.579 163.271 198.784 149.448 198.784 135.625 198.784 124.42 187.579 124.42 173.756 124.42 159.934 135.625 148.728 149.448 148.728 163.271 148.728 174.476 159.934 174.476 173.756Z" fill="#60B496" transform="matrix(1.00046 0 0 1 1037 1107.4)"/><path d="M174.476 174.312C174.476 188.135 163.271 199.34 149.448 199.34 135.625 199.34 124.42 188.135 124.42 174.312 124.42 160.49 135.625 149.284 149.448 149.284 163.271 149.284 174.476 160.49 174.476 174.312Z" fill="#61B597" transform="matrix(1.00046 0 0 1 1037 1107.4)"/><path d="M174.476 174.869C174.476 188.691 163.271 199.897 149.448 199.897 135.625 199.897 124.42 188.691 124.42 174.869 124.42 161.046 135.625 149.841 149.448 149.841 163.271 149.841 174.476 161.046 174.476 174.869Z" fill="#62B597" transform="matrix(1.00046 0 0 1 1037 1107.4)"/><path d="M174.476 175.457C174.476 189.28 163.271 200.485 149.448 200.485 135.625 200.485 124.42 189.28 124.42 175.457 124.42 161.635 135.625 150.429 149.448 150.429 163.271 150.429 174.476 161.635 174.476 175.457Z" fill="#63B597" transform="matrix(1.00046 0 0 1 1037 1107.4)"/><path d="M174.476 176.014C174.476 189.836 163.271 201.042 149.448 201.042 135.625 201.042 124.42 189.836 124.42 176.014 124.42 162.191 135.625 150.986 149.448 150.986 163.271 150.986 174.476 162.191 174.476 176.014Z" fill="#63B698" transform="matrix(1.00046 0 0 1 1037 1107.4)"/><path d="M174.476 176.57C174.476 190.392 163.271 201.598 149.448 201.598 135.625 201.598 124.42 190.392 124.42 176.57 124.42 162.747 135.625 151.542 149.448 151.542 163.271 151.542 174.476 162.747 174.476 176.57Z" fill="#64B698" transform="matrix(1.00046 0 0 1 1037 1107.4)"/><path d="M174.476 177.126C174.476 190.949 163.271 202.154 149.448 202.154 135.625 202.154 124.42 190.949 124.42 177.126 124.42 163.303 135.625 152.098 149.448 152.098 163.271 152.098 174.476 163.303 174.476 177.126Z" fill="#65B799" transform="matrix(1.00046 0 0 1 1037 1107.4)"/><path d="M174.476 177.715C174.476 191.537 163.271 202.743 149.448 202.743 135.625 202.743 124.42 191.537 124.42 177.715 124.42 163.892 135.625 152.687 149.448 152.687 163.271 152.687 174.476 163.892 174.476 177.715Z" fill="#66B799" transform="matrix(1.00046 0 0 1 1037 1107.4)"/><path d="M174.476 178.271C174.476 192.094 163.271 203.299 149.448 203.299 135.625 203.299 124.42 192.094 124.42 178.271 124.42 164.448 135.625 153.243 149.448 153.243 163.271 153.243 174.476 164.448 174.476 178.271Z" fill="#67B79A" transform="matrix(1.00046 0 0 1 1037 1107.4)"/><path d="M174.476 178.827C174.476 192.65 163.271 203.855 149.448 203.855 135.625 203.855 124.42 192.65 124.42 178.827 124.42 165.005 135.625 153.799 149.448 153.799 163.271 153.799 174.476 165.005 174.476 178.827Z" fill="#68B89A" transform="matrix(1.00046 0 0 1 1037 1107.4)"/><path d="M174.476 179.416C174.476 193.239 163.271 204.444 149.448 204.444 135.625 204.444 124.42 193.239 124.42 179.416 124.42 165.594 135.625 154.388 149.448 154.388 163.271 154.388 174.476 165.594 174.476 179.416Z" fill="#68B89B" transform="matrix(1.00046 0 0 1 1037 1107.4)"/><path d="M174.476 179.972C174.476 193.795 163.271 205 149.448 205 135.625 205 124.42 193.795 124.42 179.972 124.42 166.15 135.625 154.944 149.448 154.944 163.271 154.944 174.476 166.15 174.476 179.972Z" fill="#69B99B" transform="matrix(1.00046 0 0 1 1037 1107.4)"/><path d="M174.476 180.528C174.476 194.351 163.271 205.556 149.448 205.556 135.625 205.556 124.42 194.351 124.42 180.528 124.42 166.706 135.625 155.501 149.448 155.501 163.271 155.501 174.476 166.706 174.476 180.528Z" fill="#6AB99C" transform="matrix(1.00046 0 0 1 1037 1107.4)"/><path d="M174.476 181.085C174.476 194.907 163.271 206.113 149.448 206.113 135.625 206.113 124.42 194.907 124.42 181.085 124.42 167.262 135.625 156.057 149.448 156.057 163.271 156.057 174.476 167.262 174.476 181.085Z" fill="#6BBA9C" transform="matrix(1.00046 0 0 1 1037 1107.4)"/><path d="M174.476 181.674C174.476 195.496 163.271 206.701 149.448 206.701 135.625 206.701 124.42 195.496 124.42 181.674 124.42 167.851 135.625 156.646 149.448 156.646 163.271 156.646 174.476 167.851 174.476 181.674Z" fill="#6CBA9C" transform="matrix(1.00046 0 0 1 1037 1107.4)"/><path d="M174.476 182.23C174.476 196.052 163.271 207.258 149.448 207.258 135.625 207.258 124.42 196.052 124.42 182.23 124.42 168.407 135.625 157.202 149.448 157.202 163.271 157.202 174.476 168.407 174.476 182.23Z" fill="#6DBA9D" transform="matrix(1.00046 0 0 1 1037 1107.4)"/><path d="M174.476 182.786C174.476 196.608 163.271 207.814 149.448 207.814 135.625 207.814 124.42 196.608 124.42 182.786 124.42 168.963 135.625 157.758 149.448 157.758 163.271 157.758 174.476 168.963 174.476 182.786Z" fill="#6EBB9D" transform="matrix(1.00046 0 0 1 1037 1107.4)"/><path d="M174.476 183.375C174.476 197.197 163.271 208.403 149.448 208.403 135.625 208.403 124.42 197.197 124.42 183.375 124.42 169.552 135.625 158.347 149.448 158.347 163.271 158.347 174.476 169.552 174.476 183.375Z" fill="#6EBB9E" transform="matrix(1.00046 0 0 1 1037 1107.4)"/><path d="M174.476 183.931C174.476 197.754 163.271 208.959 149.448 208.959 135.625 208.959 124.42 197.754 124.42 183.931 124.42 170.108 135.625 158.903 149.448 158.903 163.271 158.903 174.476 170.108 174.476 183.931Z" fill="#6FBC9E" transform="matrix(1.00046 0 0 1 1037 1107.4)"/><path d="M174.476 184.487C174.476 198.31 163.271 209.515 149.448 209.515 135.625 209.515 124.42 198.31 124.42 184.487 124.42 170.665 135.625 159.459 149.448 159.459 163.271 159.459 174.476 170.665 174.476 184.487Z" fill="#70BC9F" transform="matrix(1.00046 0 0 1 1037 1107.4)"/><path d="M174.476 185.043C174.476 198.866 163.271 210.071 149.448 210.071 135.625 210.071 124.42 198.866 124.42 185.043 124.42 171.221 135.625 160.015 149.448 160.015 163.271 160.015 174.476 171.221 174.476 185.043Z" fill="#71BC9F" transform="matrix(1.00046 0 0 1 1037 1107.4)"/><path d="M174.476 185.632C174.476 199.455 163.271 210.66 149.448 210.66 135.625 210.66 124.42 199.455 124.42 185.632 124.42 171.81 135.625 160.604 149.448 160.604 163.271 160.604 174.476 171.81 174.476 185.632Z" fill="#72BDA0" transform="matrix(1.00046 0 0 1 1037 1107.4)"/><path d="M174.476 186.188C174.476 200.011 163.271 211.216 149.448 211.216 135.625 211.216 124.42 200.011 124.42 186.188 124.42 172.366 135.625 161.16 149.448 161.16 163.271 161.16 174.476 172.366 174.476 186.188Z" fill="#73BDA0" transform="matrix(1.00046 0 0 1 1037 1107.4)"/><path d="M174.476 186.745C174.476 200.567 163.271 211.773 149.448 211.773 135.625 211.773 124.42 200.567 124.42 186.745 124.42 172.922 135.625 161.717 149.448 161.717 163.271 161.717 174.476 172.922 174.476 186.745Z" fill="#73BEA1" transform="matrix(1.00046 0 0 1 1037 1107.4)"/><path d="M174.476 187.301C174.476 201.123 163.271 212.329 149.448 212.329 135.625 212.329 124.42 201.123 124.42 187.301 124.42 173.478 135.625 162.273 149.448 162.273 163.271 162.273 174.476 173.478 174.476 187.301Z" fill="#74BEA1" transform="matrix(1.00046 0 0 1 1037 1107.4)"/><path d="M174.476 187.89C174.476 201.712 163.271 212.918 149.448 212.918 135.625 212.918 124.42 201.712 124.42 187.89 124.42 174.067 135.625 162.862 149.448 162.862 163.271 162.862 174.476 174.067 174.476 187.89Z" fill="#75BFA2" transform="matrix(1.00046 0 0 1 1037 1107.4)"/><path d="M174.476 188.446C174.476 202.268 163.271 213.474 149.448 213.474 135.625 213.474 124.42 202.268 124.42 188.446 124.42 174.623 135.625 163.418 149.448 163.418 163.271 163.418 174.476 174.623 174.476 188.446Z" fill="#76BFA2" transform="matrix(1.00046 0 0 1 1037 1107.4)"/><path d="M174.476 189.002C174.476 202.825 163.271 214.03 149.448 214.03 135.625 214.03 124.42 202.825 124.42 189.002 124.42 175.179 135.625 163.974 149.448 163.974 163.271 163.974 174.476 175.179 174.476 189.002Z" fill="#77BFA3" transform="matrix(1.00046 0 0 1 1037 1107.4)"/><path d="M174.476 189.591C174.476 203.413 163.271 214.619 149.448 214.619 135.625 214.619 124.42 203.413 124.42 189.591 124.42 175.768 135.625 164.563 149.448 164.563 163.271 164.563 174.476 175.768 174.476 189.591Z" fill="#78C0A3" transform="matrix(1.00046 0 0 1 1037 1107.4)"/><path d="M174.476 190.147C174.476 203.97 163.271 215.175 149.448 215.175 135.625 215.175 124.42 203.97 124.42 190.147 124.42 176.324 135.625 165.119 149.448 165.119 163.271 165.119 174.476 176.324 174.476 190.147Z" fill="#78C0A3" transform="matrix(1.00046 0 0 1 1037 1107.4)"/><path d="M174.476 190.703C174.476 204.526 163.271 215.731 149.448 215.731 135.625 215.731 124.42 204.526 124.42 190.703 124.42 176.881 135.625 165.675 149.448 165.675 163.271 165.675 174.476 176.881 174.476 190.703Z" fill="#79C1A4" transform="matrix(1.00046 0 0 1 1037 1107.4)"/><path d="M174.476 191.259C174.476 205.082 163.271 216.287 149.448 216.287 135.625 216.287 124.42 205.082 124.42 191.259 124.42 177.437 135.625 166.231 149.448 166.231 163.271 166.231 174.476 177.437 174.476 191.259Z" fill="#7AC1A4" transform="matrix(1.00046 0 0 1 1037 1107.4)"/><path d="M174.476 191.848C174.476 205.671 163.271 216.876 149.448 216.876 135.625 216.876 124.42 205.671 124.42 191.848 124.42 178.026 135.625 166.82 149.448 166.82 163.271 166.82 174.476 178.026 174.476 191.848Z" fill="#7BC1A5" transform="matrix(1.00046 0 0 1 1037 1107.4)"/><path d="M174.476 192.404C174.476 206.227 163.271 217.432 149.448 217.432 135.625 217.432 124.42 206.227 124.42 192.404 124.42 178.582 135.625 167.377 149.448 167.377 163.271 167.377 174.476 178.582 174.476 192.404Z" fill="#7CC2A5" transform="matrix(1.00046 0 0 1 1037 1107.4)"/><path d="M174.476 192.961C174.476 206.783 163.271 217.989 149.448 217.989 135.625 217.989 124.42 206.783 124.42 192.961 124.42 179.138 135.625 167.933 149.448 167.933 163.271 167.933 174.476 179.138 174.476 192.961Z" fill="#7DC2A6" transform="matrix(1.00046 0 0 1 1037 1107.4)"/><path d="M174.476 193.517C174.476 207.339 163.271 218.545 149.448 218.545 135.625 218.545 124.42 207.339 124.42 193.517 124.42 179.694 135.625 168.489 149.448 168.489 163.271 168.489 174.476 179.694 174.476 193.517Z" fill="#7EC3A6" transform="matrix(1.00046 0 0 1 1037 1107.4)"/><path d="M174.476 194.106C174.476 207.928 163.271 219.134 149.448 219.134 135.625 219.134 124.42 207.928 124.42 194.106 124.42 180.283 135.625 169.078 149.448 169.078 163.271 169.078 174.476 180.283 174.476 194.106Z" fill="#7EC3A7" transform="matrix(1.00046 0 0 1 1037 1107.4)"/><path d="M174.476 194.662C174.476 208.484 163.271 219.69 149.448 219.69 135.625 219.69 124.42 208.484 124.42 194.662 124.42 180.839 135.625 169.634 149.448 169.634 163.271 169.634 174.476 180.839 174.476 194.662Z" fill="#7FC4A7" transform="matrix(1.00046 0 0 1 1037 1107.4)"/><path d="M174.476 195.218C174.476 209.041 163.271 220.246 149.448 220.246 135.625 220.246 124.42 209.041 124.42 195.218 124.42 181.396 135.625 170.19 149.448 170.19 163.271 170.19 174.476 181.396 174.476 195.218Z" fill="#80C4A8" transform="matrix(1.00046 0 0 1 1037 1107.4)"/><path d="M174.476 195.807C174.476 209.63 163.271 220.835 149.448 220.835 135.625 220.835 124.42 209.63 124.42 195.807 124.42 181.984 135.625 170.779 149.448 170.779 163.271 170.779 174.476 181.984 174.476 195.807Z" fill="#81C4A8" transform="matrix(1.00046 0 0 1 1037 1107.4)"/><path d="M174.476 196.363C174.476 210.186 163.271 221.391 149.448 221.391 135.625 221.391 124.42 210.186 124.42 196.363 124.42 182.541 135.625 171.335 149.448 171.335 163.271 171.335 174.476 182.541 174.476 196.363Z" fill="#82C5A9" transform="matrix(1.00046 0 0 1 1037 1107.4)"/><path d="M174.476 196.919C174.476 210.742 163.271 221.947 149.448 221.947 135.625 221.947 124.42 210.742 124.42 196.919 124.42 183.097 135.625 171.891 149.448 171.891 163.271 171.891 174.476 183.097 174.476 196.919Z" fill="#83C5A9" transform="matrix(1.00046 0 0 1 1037 1107.4)"/><path d="M174.476 197.476C174.476 211.298 163.271 222.503 149.448 222.503 135.625 222.503 124.42 211.298 124.42 197.476 124.42 183.653 135.625 172.448 149.448 172.448 163.271 172.448 174.476 183.653 174.476 197.476Z" fill="#84C6AA" transform="matrix(1.00046 0 0 1 1037 1107.4)"/><path d="M174.476 198.064C174.476 211.887 163.271 223.092 149.448 223.092 135.625 223.092 124.42 211.887 124.42 198.064 124.42 184.242 135.625 173.036 149.448 173.036 163.271 173.036 174.476 184.242 174.476 198.064Z" fill="#84C6AA" transform="matrix(1.00046 0 0 1 1037 1107.4)"/><path d="M174.476 198.621C174.476 212.443 163.271 223.649 149.448 223.649 135.625 223.649 124.42 212.443 124.42 198.621 124.42 184.798 135.625 173.593 149.448 173.593 163.271 173.593 174.476 184.798 174.476 198.621Z" fill="#85C6AB" transform="matrix(1.00046 0 0 1 1037 1107.4)"/><path d="M174.476 199.177C174.476 212.999 163.271 224.205 149.448 224.205 135.625 224.205 124.42 212.999 124.42 199.177 124.42 185.354 135.625 174.149 149.448 174.149 163.271 174.149 174.476 185.354 174.476 199.177Z" fill="#86C7AB" transform="matrix(1.00046 0 0 1 1037 1107.4)"/><path d="M174.476 199.733C174.476 213.555 163.271 224.761 149.448 224.761 135.625 224.761 124.42 213.555 124.42 199.733 124.42 185.91 135.625 174.705 149.448 174.705 163.271 174.705 174.476 185.91 174.476 199.733Z" fill="#87C7AC" transform="matrix(1.00046 0 0 1 1037 1107.4)"/><path d="M174.476 200.322C174.476 214.144 163.271 225.35 149.448 225.35 135.625 225.35 124.42 214.144 124.42 200.322 124.42 186.499 135.625 175.294 149.448 175.294 163.271 175.294 174.476 186.499 174.476 200.322Z" fill="#88C8AC" transform="matrix(1.00046 0 0 1 1037 1107.4)"/><path d="M174.476 200.878C174.476 214.701 163.271 225.906 149.448 225.906 135.625 225.906 124.42 214.701 124.42 200.878 124.42 187.055 135.625 175.85 149.448 175.85 163.271 175.85 174.476 187.055 174.476 200.878Z" fill="#89C8AD" transform="matrix(1.00046 0 0 1 1037 1107.4)"/><path d="M174.476 201.434C174.476 215.257 163.271 226.462 149.448 226.462 135.625 226.462 124.42 215.257 124.42 201.434 124.42 187.612 135.625 176.406 149.448 176.406 163.271 176.406 174.476 187.612 174.476 201.434Z" fill="#8AC9AD" transform="matrix(1.00046 0 0 1 1037 1107.4)"/><path d="M174.476 202.023C174.476 215.846 163.271 227.051 149.448 227.051 135.625 227.051 124.42 215.846 124.42 202.023 124.42 188.201 135.625 176.995 149.448 176.995 163.271 176.995 174.476 188.201 174.476 202.023Z" fill="#8AC9AE" transform="matrix(1.00046 0 0 1 1037 1107.4)"/><path d="M174.476 202.579C174.476 216.402 163.271 227.607 149.448 227.607 135.625 227.607 124.42 216.402 124.42 202.579 124.42 188.757 135.625 177.551 149.448 177.551 163.271 177.551 174.476 188.757 174.476 202.579Z" fill="#8BC9AF" transform="matrix(1.00046 0 0 1 1037 1107.4)"/><path d="M174.476 203.135C174.476 216.958 163.271 228.163 149.448 228.163 135.625 228.163 124.42 216.958 124.42 203.135 124.42 189.313 135.625 178.107 149.448 178.107 163.271 178.107 174.476 189.313 174.476 203.135Z" fill="#8CCAAF" transform="matrix(1.00046 0 0 1 1037 1107.4)"/><path d="M174.476 203.692C174.476 217.514 163.271 228.72 149.448 228.72 135.625 228.72 124.42 217.514 124.42 203.692 124.42 189.869 135.625 178.664 149.448 178.664 163.271 178.664 174.476 189.869 174.476 203.692Z" fill="#8DCAB0" transform="matrix(1.00046 0 0 1 1037 1107.4)"/><path d="M174.476 204.28C174.476 218.103 163.271 229.308 149.448 229.308 135.625 229.308 124.42 218.103 124.42 204.28 124.42 190.458 135.625 179.253 149.448 179.253 163.271 179.253 174.476 190.458 174.476 204.28Z" fill="#8ECBB0" transform="matrix(1.00046 0 0 1 1037 1107.4)"/><path d="M174.476 204.837C174.476 218.659 163.271 229.865 149.448 229.865 135.625 229.865 124.42 218.659 124.42 204.837 124.42 191.014 135.625 179.809 149.448 179.809 163.271 179.809 174.476 191.014 174.476 204.837Z" fill="#8FCBB1" transform="matrix(1.00046 0 0 1 1037 1107.4)"/><path d="M174.476 205.393C174.476 219.215 163.271 230.421 149.448 230.421 135.625 230.421 124.42 219.215 124.42 205.393 124.42 191.57 135.625 180.365 149.448 180.365 163.271 180.365 174.476 191.57 174.476 205.393Z" fill="#90CBB1" transform="matrix(1.00046 0 0 1 1037 1107.4)"/><path d="M174.476 205.949C174.476 219.772 163.271 230.977 149.448 230.977 135.625 230.977 124.42 219.772 124.42 205.949 124.42 192.126 135.625 180.921 149.448 180.921 163.271 180.921 174.476 192.126 174.476 205.949Z" fill="#90CCB2" transform="matrix(1.00046 0 0 1 1037 1107.4)"/><path d="M174.476 206.538C174.476 220.36 163.271 231.566 149.448 231.566 135.625 231.566 124.42 220.36 124.42 206.538 124.42 192.715 135.625 181.51 149.448 181.51 163.271 181.51 174.476 192.715 174.476 206.538Z" fill="#91CCB2" transform="matrix(1.00046 0 0 1 1037 1107.4)"/><path d="M174.476 207.094C174.476 220.917 163.271 232.122 149.448 232.122 135.625 232.122 124.42 220.917 124.42 207.094 124.42 193.272 135.625 182.066 149.448 182.066 163.271 182.066 174.476 193.272 174.476 207.094Z" fill="#92CDB3" transform="matrix(1.00046 0 0 1 1037 1107.4)"/><path d="M174.476 207.65C174.476 221.473 163.271 232.678 149.448 232.678 135.625 232.678 124.42 221.473 124.42 207.65 124.42 193.828 135.625 182.622 149.448 182.622 163.271 182.622 174.476 193.828 174.476 207.65Z" fill="#93CDB3" transform="matrix(1.00046 0 0 1 1037 1107.4)"/><path d="M174.476 208.239C174.476 222.062 163.271 233.267 149.448 233.267 135.625 233.267 124.42 222.062 124.42 208.239 124.42 194.417 135.625 183.211 149.448 183.211 163.271 183.211 174.476 194.417 174.476 208.239Z" fill="#94CEB4" transform="matrix(1.00046 0 0 1 1037 1107.4)"/><path d="M174.476 208.795C174.476 222.618 163.271 233.823 149.448 233.823 135.625 233.823 124.42 222.618 124.42 208.795 124.42 194.973 135.625 183.767 149.448 183.767 163.271 183.767 174.476 194.973 174.476 208.795Z" fill="#95CEB4" transform="matrix(1.00046 0 0 1 1037 1107.4)"/><path d="M174.476 209.352C174.476 223.174 163.271 234.379 149.448 234.379 135.625 234.379 124.42 223.174 124.42 209.352 124.42 195.529 135.625 184.324 149.448 184.324 163.271 184.324 174.476 195.529 174.476 209.352Z" fill="#96CEB5" transform="matrix(1.00046 0 0 1 1037 1107.4)"/><path d="M174.476 209.908C174.476 223.73 163.271 234.936 149.448 234.936 135.625 234.936 124.42 223.73 124.42 209.908 124.42 196.085 135.625 184.88 149.448 184.88 163.271 184.88 174.476 196.085 174.476 209.908Z" fill="#96CFB5" transform="matrix(1.00046 0 0 1 1037 1107.4)"/><path d="M174.476 210.497C174.476 224.319 163.271 235.525 149.448 235.525 135.625 235.525 124.42 224.319 124.42 210.497 124.42 196.674 135.625 185.469 149.448 185.469 163.271 185.469 174.476 196.674 174.476 210.497Z" fill="#97CFB6" transform="matrix(1.00046 0 0 1 1037 1107.4)"/><path d="M174.476 211.053C174.476 224.875 163.271 236.081 149.448 236.081 135.625 236.081 124.42 224.875 124.42 211.053 124.42 197.23 135.625 186.025 149.448 186.025 163.271 186.025 174.476 197.23 174.476 211.053Z" fill="#98D0B7" transform="matrix(1.00046 0 0 1 1037 1107.4)"/><path d="M174.476 211.609C174.476 225.431 163.271 236.637 149.448 236.637 135.625 236.637 124.42 225.432 124.42 211.609 124.42 197.786 135.625 186.581 149.448 186.581 163.271 186.581 174.476 197.786 174.476 211.609Z" fill="#99D0B7" transform="matrix(1.00046 0 0 1 1037 1107.4)"/><path d="M174.476 212.165C174.476 225.988 163.271 237.193 149.448 237.193 135.625 237.193 124.42 225.988 124.42 212.165 124.42 198.343 135.625 187.137 149.448 187.137 163.271 187.137 174.476 198.343 174.476 212.165Z" fill="#9AD0B8" transform="matrix(1.00046 0 0 1 1037 1107.4)"/><path d="M174.476 212.754C174.476 226.577 163.271 237.782 149.448 237.782 135.625 237.782 124.42 226.577 124.42 212.754 124.42 198.931 135.625 187.726 149.448 187.726 163.271 187.726 174.476 198.931 174.476 212.754Z" fill="#9BD1B8" transform="matrix(1.00046 0 0 1 1037 1107.4)"/><path d="M174.476 213.31C174.476 227.133 163.271 238.338 149.448 238.338 135.625 238.338 124.42 227.133 124.42 213.31 124.42 199.488 135.625 188.282 149.448 188.282 163.271 188.282 174.476 199.488 174.476 213.31Z" fill="#9CD1B9" transform="matrix(1.00046 0 0 1 1037 1107.4)"/><path d="M174.476 213.866C174.476 227.689 163.271 238.894 149.448 238.894 135.625 238.894 124.42 227.689 124.42 213.866 124.42 200.044 135.625 188.838 149.448 188.838 163.271 188.838 174.476 200.044 174.476 213.866Z" fill="#9DD2B9" transform="matrix(1.00046 0 0 1 1037 1107.4)"/><path d="M174.476 214.455C174.476 228.278 163.271 239.483 149.448 239.483 135.625 239.483 124.42 228.278 124.42 214.455 124.42 200.633 135.625 189.427 149.448 189.427 163.271 189.427 174.476 200.633 174.476 214.455Z" fill="#9DD2BA" transform="matrix(1.00046 0 0 1 1037 1107.4)"/><path d="M174.476 215.011C174.476 228.834 163.271 240.039 149.448 240.039 135.625 240.039 124.42 228.834 124.42 215.011 124.42 201.189 135.625 189.983 149.448 189.983 163.271 189.983 174.476 201.189 174.476 215.011Z" fill="#9ED3BA" transform="matrix(1.00046 0 0 1 1037 1107.4)"/><path d="M174.476 215.568C174.476 229.39 163.271 240.596 149.448 240.596 135.625 240.596 124.42 229.39 124.42 215.568 124.42 201.745 135.625 190.54 149.448 190.54 163.271 190.54 174.476 201.745 174.476 215.568Z" fill="#9FD3BB" transform="matrix(1.00046 0 0 1 1037 1107.4)"/><path d="M174.476 216.124C174.476 229.946 163.271 241.152 149.448 241.152 135.625 241.152 124.42 229.946 124.42 216.124 124.42 202.301 135.625 191.096 149.448 191.096 163.271 191.096 174.476 202.301 174.476 216.124Z" fill="#A0D3BB" transform="matrix(1.00046 0 0 1 1037 1107.4)"/><path d="M174.476 216.713C174.476 230.535 163.271 241.741 149.448 241.741 135.625 241.741 124.42 230.535 124.42 216.713 124.42 202.89 135.625 191.685 149.448 191.685 163.271 191.685 174.476 202.89 174.476 216.713Z" fill="#A1D4BC" transform="matrix(1.00046 0 0 1 1037 1107.4)"/><path d="M174.476 217.269C174.476 231.091 163.271 242.297 149.448 242.297 135.625 242.297 124.42 231.091 124.42 217.269 124.42 203.446 135.625 192.241 149.448 192.241 163.271 192.241 174.476 203.446 174.476 217.269Z" fill="#A2D4BD" transform="matrix(1.00046 0 0 1 1037 1107.4)"/><path d="M174.476 217.825C174.476 231.648 163.271 242.853 149.448 242.853 135.625 242.853 124.42 231.648 124.42 217.825 124.42 204.002 135.625 192.797 149.448 192.797 163.271 192.797 174.476 204.002 174.476 217.825Z" fill="#A3D5BD" transform="matrix(1.00046 0 0 1 1037 1107.4)"/><path d="M174.476 218.381C174.476 232.204 163.271 243.409 149.448 243.409 135.625 243.409 124.42 232.204 124.42 218.381 124.42 204.559 135.625 193.353 149.448 193.353 163.271 193.353 174.476 204.559 174.476 218.381Z" fill="#A4D5BE" transform="matrix(1.00046 0 0 1 1037 1107.4)"/><path d="M174.476 218.97C174.476 232.793 163.271 243.998 149.448 243.998 135.625 243.998 124.42 232.793 124.42 218.97 124.42 205.148 135.625 193.942 149.448 193.942 163.271 193.942 174.476 205.148 174.476 218.97Z" fill="#A5D6BE" transform="matrix(1.00046 0 0 1 1037 1107.4)"/><path d="M174.476 219.526C174.476 233.349 163.271 244.554 149.448 244.554 135.625 244.554 124.42 233.349 124.42 219.526 124.42 205.704 135.625 194.498 149.448 194.498 163.271 194.498 174.476 205.704 174.476 219.526Z" fill="#A5D6BF" transform="matrix(1.00046 0 0 1 1037 1107.4)"/><path d="M174.476 220.082C174.476 233.905 163.271 245.11 149.448 245.11 135.625 245.11 124.42 233.905 124.42 220.082 124.42 206.26 135.625 195.054 149.448 195.054 163.271 195.054 174.476 206.26 174.476 220.082Z" fill="#A6D6BF" transform="matrix(1.00046 0 0 1 1037 1107.4)"/><path d="M174.476 220.671C174.476 234.494 163.271 245.699 149.448 245.699 135.625 245.699 124.42 234.494 124.42 220.671 124.42 206.849 135.625 195.643 149.448 195.643 163.271 195.643 174.476 206.849 174.476 220.671Z" fill="#A7D7C0" transform="matrix(1.00046 0 0 1 1037 1107.4)"/><path d="M174.476 221.228C174.476 235.05 163.271 246.255 149.448 246.255 135.625 246.255 124.42 235.05 124.42 221.228 124.42 207.405 135.625 196.2 149.448 196.2 163.271 196.2 174.476 207.405 174.476 221.228Z" fill="#A8D7C1" transform="matrix(1.00046 0 0 1 1037 1107.4)"/><path d="M174.476 221.784C174.476 235.606 163.271 246.812 149.448 246.812 135.625 246.812 124.42 235.606 124.42 221.784 124.42 207.961 135.625 196.756 149.448 196.756 163.271 196.756 174.476 207.961 174.476 221.784Z" fill="#A9D8C1" transform="matrix(1.00046 0 0 1 1037 1107.4)"/><path d="M174.476 222.34C174.476 236.162 163.271 247.368 149.448 247.368 135.625 247.368 124.42 236.162 124.42 222.34 124.42 208.517 135.625 197.312 149.448 197.312 163.271 197.312 174.476 208.517 174.476 222.34Z" fill="#AAD8C2" transform="matrix(1.00046 0 0 1 1037 1107.4)"/><path d="M174.476 222.929C174.476 236.751 163.271 247.957 149.448 247.957 135.625 247.957 124.42 236.751 124.42 222.929 124.42 209.106 135.625 197.901 149.448 197.901 163.271 197.901 174.476 209.106 174.476 222.929Z" fill="#ABD8C2" transform="matrix(1.00046 0 0 1 1037 1107.4)"/><path d="M174.476 223.485C174.476 237.307 163.271 248.513 149.448 248.513 135.625 248.513 124.42 237.308 124.42 223.485 124.42 209.662 135.625 198.457 149.448 198.457 163.271 198.457 174.476 209.662 174.476 223.485Z" fill="#ACD9C3" transform="matrix(1.00046 0 0 1 1037 1107.4)"/><path d="M174.476 224.041C174.476 237.864 163.271 249.069 149.448 249.069 135.625 249.069 124.42 237.864 124.42 224.041 124.42 210.219 135.625 199.013 149.448 199.013 163.271 199.013 174.476 210.219 174.476 224.041Z" fill="#ACD9C3" transform="matrix(1.00046 0 0 1 1037 1107.4)"/><path d="M174.476 224.597C174.476 238.42 163.271 249.625 149.448 249.625 135.625 249.625 124.42 238.42 124.42 224.597 124.42 210.775 135.625 199.569 149.448 199.569 163.271 199.569 174.476 210.775 174.476 224.597Z" fill="#ADDAC4" transform="matrix(1.00046 0 0 1 1037 1107.4)"/><path d="M174.476 225.186C174.476 239.009 163.271 250.214 149.448 250.214 135.625 250.214 124.42 239.009 124.42 225.186 124.42 211.364 135.625 200.158 149.448 200.158 163.271 200.158 174.476 211.364 174.476 225.186Z" fill="#AEDAC5" transform="matrix(1.00046 0 0 1 1037 1107.4)"/><path d="M174.476 225.742C174.476 239.565 163.271 250.77 149.448 250.77 135.625 250.77 124.42 239.565 124.42 225.742 124.42 211.92 135.625 200.714 149.448 200.714 163.271 200.714 174.476 211.92 174.476 225.742Z" fill="#AFDBC5" transform="matrix(1.00046 0 0 1 1037 1107.4)"/><path d="M174.476 226.299C174.476 240.121 163.271 251.327 149.448 251.327 135.625 251.327 124.42 240.121 124.42 226.299 124.42 212.476 135.625 201.271 149.448 201.271 163.271 201.271 174.476 212.476 174.476 226.299Z" fill="#B0DBC6" transform="matrix(1.00046 0 0 1 1037 1107.4)"/><path d="M174.476 226.887C174.476 240.71 163.271 251.915 149.448 251.915 135.625 251.915 124.42 240.71 124.42 226.887 124.42 213.065 135.625 201.859 149.448 201.859 163.271 201.859 174.476 213.065 174.476 226.887Z" fill="#B1DBC6" transform="matrix(1.00046 0 0 1 1037 1107.4)"/><path d="M174.476 227.444C174.476 241.266 163.271 252.472 149.448 252.472 135.625 252.472 124.42 241.266 124.42 227.444 124.42 213.621 135.625 202.416 149.448 202.416 163.271 202.416 174.476 213.621 174.476 227.444Z" fill="#B2DCC7" transform="matrix(1.00046 0 0 1 1037 1107.4)"/><path d="M174.476 228C174.476 241.822 163.271 253.028 149.448 253.028 135.625 253.028 124.42 241.822 124.42 228 124.42 214.177 135.625 202.972 149.448 202.972 163.271 202.972 174.476 214.177 174.476 228Z" fill="#B3DCC8" transform="matrix(1.00046 0 0 1 1037 1107.4)"/><path d="M174.476 228.556C174.476 242.379 163.271 253.584 149.448 253.584 135.625 253.584 124.42 242.379 124.42 228.556 124.42 214.733 135.625 203.528 149.448 203.528 163.271 203.528 174.476 214.733 174.476 228.556Z" fill="#B4DDC8" transform="matrix(1.00046 0 0 1 1037 1107.4)"/><path d="M174.476 229.145C174.476 242.967 163.271 254.173 149.448 254.173 135.625 254.173 124.42 242.967 124.42 229.145 124.42 215.322 135.625 204.117 149.448 204.117 163.271 204.117 174.476 215.322 174.476 229.145Z" fill="#B5DDC9" transform="matrix(1.00046 0 0 1 1037 1107.4)"/><path d="M174.476 229.701C174.476 243.524 163.271 254.729 149.448 254.729 135.625 254.729 124.42 243.524 124.42 229.701 124.42 215.878 135.625 204.673 149.448 204.673 163.271 204.673 174.476 215.878 174.476 229.701Z" fill="#B5DDC9" transform="matrix(1.00046 0 0 1 1037 1107.4)"/><path d="M174.476 230.257C174.476 244.08 163.271 255.285 149.448 255.285 135.625 255.285 124.42 244.08 124.42 230.257 124.42 216.435 135.625 205.229 149.448 205.229 163.271 205.229 174.476 216.435 174.476 230.257Z" fill="#B6DECA" transform="matrix(1.00046 0 0 1 1037 1107.4)"/><path d="M174.476 230.813C174.476 244.636 163.271 255.841 149.448 255.841 135.625 255.841 124.42 244.636 124.42 230.813 124.42 216.991 135.625 205.785 149.448 205.785 163.271 205.785 174.476 216.991 174.476 230.813Z" fill="#B7DECB" transform="matrix(1.00046 0 0 1 1037 1107.4)"/><path d="M174.476 231.402C174.476 245.225 163.271 256.43 149.448 256.43 135.625 256.43 124.42 245.225 124.42 231.402 124.42 217.58 135.625 206.374 149.448 206.374 163.271 206.374 174.476 217.58 174.476 231.402Z" fill="#B8DFCB" transform="matrix(1.00046 0 0 1 1037 1107.4)"/><path d="M174.476 231.958C174.476 245.781 163.271 256.986 149.448 256.986 135.625 256.986 124.42 245.781 124.42 231.958 124.42 218.136 135.625 206.931 149.448 206.931 163.271 206.931 174.476 218.136 174.476 231.958Z" fill="#B9DFCC" transform="matrix(1.00046 0 0 1 1037 1107.4)"/><path d="M174.476 232.515C174.476 246.337 163.271 257.543 149.448 257.543 135.625 257.543 124.42 246.337 124.42 232.515 124.42 218.692 135.625 207.487 149.448 207.487 163.271 207.487 174.476 218.692 174.476 232.515Z" fill="#BAE0CC" transform="matrix(1.00046 0 0 1 1037 1107.4)"/><path d="M174.476 233.104C174.476 246.926 163.271 258.132 149.448 258.132 135.625 258.132 124.42 246.926 124.42 233.104 124.42 219.281 135.625 208.076 149.448 208.076 163.271 208.076 174.476 219.281 174.476 233.104Z" fill="#BBE0CD" transform="matrix(1.00046 0 0 1 1037 1107.4)"/><path d="M174.476 233.66C174.476 247.482 163.271 258.688 149.448 258.688 135.625 258.688 124.42 247.482 124.42 233.66 124.42 219.837 135.625 208.632 149.448 208.632 163.271 208.632 174.476 219.837 174.476 233.66Z" fill="#BCE0CE" transform="matrix(1.00046 0 0 1 1037 1107.4)"/><path d="M174.476 234.216C174.476 248.038 163.271 259.244 149.448 259.244 135.625 259.244 124.42 248.038 124.42 234.216 124.42 220.393 135.625 209.188 149.448 209.188 163.271 209.188 174.476 220.393 174.476 234.216Z" fill="#BDE1CE" transform="matrix(1.00046 0 0 1 1037 1107.4)"/><path d="M174.476 234.772C174.476 248.595 163.271 259.8 149.448 259.8 135.625 259.8 124.42 248.595 124.42 234.772 124.42 220.95 135.625 209.744 149.448 209.744 163.271 209.744 174.476 220.949 174.476 234.772Z" fill="#BDE1CF" transform="matrix(1.00046 0 0 1 1037 1107.4)"/><path d="M174.476 235.361C174.476 249.184 163.271 260.389 149.448 260.389 135.625 260.389 124.42 249.184 124.42 235.361 124.42 221.538 135.625 210.333 149.448 210.333 163.271 210.333 174.476 221.538 174.476 235.361Z" fill="#BEE2CF" transform="matrix(1.00046 0 0 1 1037 1107.4)"/><path d="M174.476 235.917C174.476 249.74 163.271 260.945 149.448 260.945 135.625 260.945 124.42 249.74 124.42 235.917 124.42 222.095 135.625 210.889 149.448 210.889 163.271 210.889 174.476 222.095 174.476 235.917Z" fill="#BFE2D0" transform="matrix(1.00046 0 0 1 1037 1107.4)"/><path d="M174.476 236.473C174.476 250.296 163.271 261.501 149.448 261.501 135.625 261.501 124.42 250.296 124.42 236.473 124.42 222.651 135.625 211.445 149.448 211.445 163.271 211.445 174.476 222.651 174.476 236.473Z" fill="#C0E2D1" transform="matrix(1.00046 0 0 1 1037 1107.4)"/><path d="M174.476 237.029C174.476 250.852 163.271 262.057 149.448 262.057 135.625 262.057 124.42 250.852 124.42 237.029 124.42 223.207 135.625 212.002 149.448 212.002 163.271 212.002 174.476 223.207 174.476 237.029Z" fill="#C1E3D1" transform="matrix(1.00046 0 0 1 1037 1107.4)"/><path d="M174.476 237.618C174.476 251.441 163.271 262.646 149.448 262.646 135.625 262.646 124.42 251.441 124.42 237.618 124.42 223.796 135.625 212.59 149.448 212.59 163.271 212.59 174.476 223.796 174.476 237.618Z" fill="#C2E3D2" transform="matrix(1.00046 0 0 1 1037 1107.4)"/><path d="M174.476 238.175C174.476 251.997 163.271 263.203 149.448 263.203 135.625 263.203 124.42 251.997 124.42 238.175 124.42 224.352 135.625 213.147 149.448 213.147 163.271 213.147 174.476 224.352 174.476 238.175Z" fill="#C3E4D3" transform="matrix(1.00046 0 0 1 1037 1107.4)"/><path d="M174.476 238.731C174.476 252.553 163.271 263.759 149.448 263.759 135.625 263.759 124.42 252.553 124.42 238.731 124.42 224.908 135.625 213.703 149.448 213.703 163.271 213.703 174.476 224.908 174.476 238.731Z" fill="#C4E4D3" transform="matrix(1.00046 0 0 1 1037 1107.4)"/><path d="M174.476 239.32C174.476 253.142 163.271 264.348 149.448 264.348 135.625 264.348 124.42 253.142 124.42 239.32 124.42 225.497 135.625 214.292 149.448 214.292 163.271 214.292 174.476 225.497 174.476 239.32Z" fill="#C5E5D4" transform="matrix(1.00046 0 0 1 1037 1107.4)"/><path d="M174.476 239.876C174.476 253.698 163.271 264.904 149.448 264.904 135.625 264.904 124.42 253.698 124.42 239.876 124.42 226.053 135.625 214.848 149.448 214.848 163.271 214.848 174.476 226.053 174.476 239.876Z" fill="#C6E5D4" transform="matrix(1.00046 0 0 1 1037 1107.4)"/><path d="M174.476 240.432C174.476 254.255 163.271 265.46 149.448 265.46 135.625 265.46 124.42 254.255 124.42 240.432 124.42 226.609 135.625 215.404 149.448 215.404 163.271 215.404 174.476 226.609 174.476 240.432Z" fill="#C6E5D5" transform="matrix(1.00046 0 0 1 1037 1107.4)"/><path d="M174.476 240.988C174.476 254.811 163.271 266.016 149.448 266.016 135.625 266.016 124.42 254.811 124.42 240.988 124.42 227.166 135.625 215.96 149.448 215.96 163.271 215.96 174.476 227.166 174.476 240.988Z" fill="#C7E6D6" transform="matrix(1.00046 0 0 1 1037 1107.4)"/><path d="M174.476 241.577C174.476 255.4 163.271 266.605 149.448 266.605 135.625 266.605 124.42 255.4 124.42 241.577 124.42 227.755 135.625 216.549 149.448 216.549 163.271 216.549 174.476 227.754 174.476 241.577Z" fill="#C8E6D6" transform="matrix(1.00046 0 0 1 1037 1107.4)"/><path d="M174.476 242.133C174.476 255.956 163.271 267.161 149.448 267.161 135.625 267.161 124.42 255.956 124.42 242.133 124.42 228.311 135.625 217.105 149.448 217.105 163.271 217.105 174.476 228.311 174.476 242.133Z" fill="#C9E7D7" transform="matrix(1.00046 0 0 1 1037 1107.4)"/><path d="M174.476 242.689C174.476 256.512 163.271 267.717 149.448 267.717 135.625 267.717 124.42 256.512 124.42 242.689 124.42 228.867 135.625 217.661 149.448 217.661 163.271 217.661 174.476 228.867 174.476 242.689Z" fill="#CAE7D8" transform="matrix(1.00046 0 0 1 1037 1107.4)"/><path d="M174.476 243.246C174.476 257.068 163.271 268.274 149.448 268.274 135.625 268.274 124.42 257.068 124.42 243.246 124.42 229.423 135.625 218.218 149.448 218.218 163.271 218.218 174.476 229.423 174.476 243.246Z" fill="#CBE8D8" transform="matrix(1.00046 0 0 1 1037 1107.4)"/><path d="M174.476 243.834C174.476 257.657 163.271 268.862 149.448 268.862 135.625 268.862 124.42 257.657 124.42 243.834 124.42 230.012 135.625 218.807 149.448 218.807 163.271 218.807 174.476 230.012 174.476 243.834Z" fill="#CCE8D9" transform="matrix(1.00046 0 0 1 1037 1107.4)"/><path d="M174.476 244.391C174.476 258.213 163.271 269.419 149.448 269.419 135.625 269.419 124.42 258.213 124.42 244.391 124.42 230.568 135.625 219.363 149.448 219.363 163.271 219.363 174.476 230.568 174.476 244.391Z" fill="#CDE8DA" transform="matrix(1.00046 0 0 1 1037 1107.4)"/><path d="M174.476 244.947C174.476 258.769 163.271 269.975 149.448 269.975 135.625 269.975 124.42 258.769 124.42 244.947 124.42 231.124 135.625 219.919 149.448 219.919 163.271 219.919 174.476 231.124 174.476 244.947Z" fill="#CEE9DA" transform="matrix(1.00046 0 0 1 1037 1107.4)"/><path d="M174.476 245.536C174.476 259.358 163.271 270.564 149.448 270.564 135.625 270.564 124.42 259.358 124.42 245.536 124.42 231.713 135.625 220.508 149.448 220.508 163.271 220.508 174.476 231.713 174.476 245.536Z" fill="#CFE9DB" transform="matrix(1.00046 0 0 1 1037 1107.4)"/><path d="M174.476 246.092C174.476 259.914 163.271 271.12 149.448 271.12 135.625 271.12 124.42 259.914 124.42 246.092 124.42 232.269 135.625 221.064 149.448 221.064 163.271 221.064 174.476 232.269 174.476 246.092Z" fill="#D0EADC" transform="matrix(1.00046 0 0 1 1037 1107.4)"/><path d="M174.476 246.648C174.476 260.471 163.271 271.676 149.448 271.676 135.625 271.676 124.42 260.471 124.42 246.648 124.42 232.826 135.625 221.62 149.448 221.62 163.271 221.62 174.476 232.826 174.476 246.648Z" fill="#D0EADC" transform="matrix(1.00046 0 0 1 1037 1107.4)"/><path d="M174.476 247.204C174.476 261.027 163.271 272.232 149.448 272.232 135.625 272.232 124.42 261.027 124.42 247.204 124.42 233.382 135.625 222.176 149.448 222.176 163.271 222.176 174.476 233.382 174.476 247.204Z" fill="#D1EADD" transform="matrix(1.00046 0 0 1 1037 1107.4)"/><path d="M174.476 247.793C174.476 261.616 163.271 272.821 149.448 272.821 135.625 272.821 124.42 261.616 124.42 247.793 124.42 233.971 135.625 222.765 149.448 222.765 163.271 222.765 174.476 233.971 174.476 247.793Z" fill="#D2EBDD" transform="matrix(1.00046 0 0 1 1037 1107.4)"/><path d="M174.476 248.349C174.476 262.172 163.271 273.377 149.448 273.377 135.625 273.377 124.42 262.172 124.42 248.349 124.42 234.527 135.625 223.321 149.448 223.321 163.271 223.321 174.476 234.527 174.476 248.349Z" fill="#D3EBDE" transform="matrix(1.00046 0 0 1 1037 1107.4)"/><path d="M174.476 248.906C174.476 262.728 163.271 273.933 149.448 273.933 135.625 273.933 124.42 262.728 124.42 248.906 124.42 235.083 135.625 223.878 149.448 223.878 163.271 223.878 174.476 235.083 174.476 248.906Z" fill="#D4ECDF" transform="matrix(1.00046 0 0 1 1037 1107.4)"/><path d="M174.476 249.462C174.476 263.284 163.271 274.49 149.448 274.49 135.625 274.49 124.42 263.284 124.42 249.462 124.42 235.639 135.625 224.434 149.448 224.434 163.271 224.434 174.476 235.639 174.476 249.462Z" fill="#D5ECDF" transform="matrix(1.00046 0 0 1 1037 1107.4)"/><path d="M174.476 250.051C174.476 263.873 163.271 275.079 149.448 275.079 135.625 275.079 124.42 263.873 124.42 250.051 124.42 236.228 135.625 225.023 149.448 225.023 163.271 225.023 174.476 236.228 174.476 250.051Z" fill="#D6EDE0" transform="matrix(1.00046 0 0 1 1037 1107.4)"/><path d="M174.476 250.607C174.476 264.429 163.271 275.635 149.448 275.635 135.625 275.635 124.42 264.429 124.42 250.607 124.42 236.784 135.625 225.579 149.448 225.579 163.271 225.579 174.476 236.784 174.476 250.607Z" fill="#D7EDE1" transform="matrix(1.00046 0 0 1 1037 1107.4)"/><path d="M174.476 251.163C174.476 264.985 163.271 276.191 149.448 276.191 135.625 276.191 124.42 264.986 124.42 251.163 124.42 237.34 135.625 226.135 149.448 226.135 163.271 226.135 174.476 237.34 174.476 251.163Z" fill="#D8EDE1" transform="matrix(1.00046 0 0 1 1037 1107.4)"/><path d="M174.476 251.752C174.476 265.574 163.271 276.78 149.448 276.78 135.625 276.78 124.42 265.574 124.42 251.752 124.42 237.929 135.625 226.724 149.448 226.724 163.271 226.724 174.476 237.929 174.476 251.752Z" fill="#D9EEE2" transform="matrix(1.00046 0 0 1 1037 1107.4)"/><path d="M174.476 252.308C174.476 266.131 163.271 277.336 149.448 277.336 135.625 277.336 124.42 266.131 124.42 252.308 124.42 238.485 135.625 227.28 149.448 227.28 163.271 227.28 174.476 238.485 174.476 252.308Z" fill="#DAEEE3" transform="matrix(1.00046 0 0 1 1037 1107.4)"/><path d="M174.476 252.864C174.476 266.687 163.271 277.892 149.448 277.892 135.625 277.892 124.42 266.687 124.42 252.864 124.42 239.042 135.625 227.836 149.448 227.836 163.271 227.836 174.476 239.042 174.476 252.864Z" fill="#DBEFE3" transform="matrix(1.00046 0 0 1 1037 1107.4)"/><path d="M174.476 253.42C174.476 267.243 163.271 278.448 149.448 278.448 135.625 278.448 124.42 267.243 124.42 253.42 124.42 239.598 135.625 228.392 149.448 228.392 163.271 228.392 174.476 239.598 174.476 253.42Z" fill="#DCEFE4" transform="matrix(1.00046 0 0 1 1037 1107.4)"/><path d="M174.476 254.009C174.476 267.832 163.271 279.037 149.448 279.037 135.625 279.037 124.42 267.832 124.42 254.009 124.42 240.187 135.625 228.981 149.448 228.981 163.271 228.981 174.476 240.187 174.476 254.009Z" fill="#DCEFE5" transform="matrix(1.00046 0 0 1 1037 1107.4)"/><path d="M174.476 254.565C174.476 268.388 163.271 279.593 149.448 279.593 135.625 279.593 124.42 268.388 124.42 254.565 124.42 240.743 135.625 229.537 149.448 229.537 163.271 229.537 174.476 240.743 174.476 254.565Z" fill="#DDF0E5" transform="matrix(1.00046 0 0 1 1037 1107.4)"/><path d="M174.476 255.122C174.476 268.944 163.271 280.15 149.448 280.15 135.625 280.15 124.42 268.944 124.42 255.122 124.42 241.299 135.625 230.094 149.448 230.094 163.271 230.094 174.476 241.299 174.476 255.122Z" fill="#DEF0E6" transform="matrix(1.00046 0 0 1 1037 1107.4)"/><path d="M174.476 255.678C174.476 269.5 163.271 280.706 149.448 280.706 135.625 280.706 124.42 269.5 124.42 255.678 124.42 241.855 135.625 230.65 149.448 230.65 163.271 230.65 174.476 241.855 174.476 255.678Z" fill="#DFF1E7" transform="matrix(1.00046 0 0 1 1037 1107.4)"/><path d="M174.476 256.267C174.476 270.089 163.271 281.295 149.448 281.295 135.625 281.295 124.42 270.089 124.42 256.267 124.42 242.444 135.625 231.239 149.448 231.239 163.271 231.239 174.476 242.444 174.476 256.267Z" fill="#E0F1E7" transform="matrix(1.00046 0 0 1 1037 1107.4)"/><path d="M174.476 256.823C174.476 270.645 163.271 281.851 149.448 281.851 135.625 281.851 124.42 270.645 124.42 256.823 124.42 243 135.625 231.795 149.448 231.795 163.271 231.795 174.476 243 174.476 256.823Z" fill="#E1F2E8" transform="matrix(1.00046 0 0 1 1037 1107.4)"/><path d="M174.476 257.379C174.476 271.202 163.271 282.407 149.448 282.407 135.625 282.407 124.42 271.202 124.42 257.379 124.42 243.556 135.625 232.351 149.448 232.351 163.271 232.351 174.476 243.556 174.476 257.379Z" fill="#E2F2E9" transform="matrix(1.00046 0 0 1 1037 1107.4)"/><path d="M174.476 257.968C174.476 271.79 163.271 282.996 149.448 282.996 135.625 282.996 124.42 271.79 124.42 257.968 124.42 244.145 135.625 232.94 149.448 232.94 163.271 232.94 174.476 244.145 174.476 257.968Z" fill="#E3F2E9" transform="matrix(1.00046 0 0 1 1037 1107.4)"/><path d="M174.476 258.524C174.476 272.347 163.271 283.552 149.448 283.552 135.625 283.552 124.42 272.347 124.42 258.524 124.42 244.702 135.625 233.496 149.448 233.496 163.271 233.496 174.476 244.702 174.476 258.524Z" fill="#E4F3EA" transform="matrix(1.00046 0 0 1 1037 1107.4)"/><path d="M174.476 259.08C174.476 272.903 163.271 284.108 149.448 284.108 135.625 284.108 124.42 272.903 124.42 259.08 124.42 245.258 135.625 234.052 149.448 234.052 163.271 234.052 174.476 245.258 174.476 259.08Z" fill="#E5F3EB" transform="matrix(1.00046 0 0 1 1037 1107.4)"/><path d="M174.476 259.636C174.476 273.459 163.271 284.664 149.448 284.664 135.625 284.664 124.42 273.459 124.42 259.636 124.42 245.814 135.625 234.608 149.448 234.608 163.271 234.608 174.476 245.814 174.476 259.636Z" fill="#E6F4EC" transform="matrix(1.00046 0 0 1 1037 1107.4)"/><path d="M174.476 260.225C174.476 274.048 163.271 285.253 149.448 285.253 135.625 285.253 124.42 274.048 124.42 260.225 124.42 246.403 135.625 235.197 149.448 235.197 163.271 235.197 174.476 246.403 174.476 260.225Z" fill="#E7F4EC" transform="matrix(1.00046 0 0 1 1037 1107.4)"/><path d="M174.476 260.782C174.476 274.604 163.271 285.809 149.448 285.809 135.625 285.809 124.42 274.604 124.42 260.782 124.42 246.959 135.625 235.754 149.448 235.754 163.271 235.754 174.476 246.959 174.476 260.782Z" fill="#E8F5ED" transform="matrix(1.00046 0 0 1 1037 1107.4)"/><path d="M174.476 261.338C174.476 275.16 163.271 286.366 149.448 286.366 135.625 286.366 124.42 275.16 124.42 261.338 124.42 247.515 135.625 236.31 149.448 236.31 163.271 236.31 174.476 247.515 174.476 261.338Z" fill="#E9F5EE" transform="matrix(1.00046 0 0 1 1037 1107.4)"/><path d="M174.476 261.894C174.476 275.716 163.271 286.922 149.448 286.922 135.625 286.922 124.42 275.716 124.42 261.894 124.42 248.071 135.625 236.866 149.448 236.866 163.271 236.866 174.476 248.071 174.476 261.894Z" fill="#E9F5EE" transform="matrix(1.00046 0 0 1 1037 1107.4)"/><path d="M174.476 262.483C174.476 276.305 163.271 287.511 149.448 287.511 135.625 287.511 124.42 276.305 124.42 262.483 124.42 248.66 135.625 237.455 149.448 237.455 163.271 237.455 174.476 248.66 174.476 262.483Z" fill="#EAF6EF" transform="matrix(1.00046 0 0 1 1037 1107.4)"/><path d="M174.476 263.039C174.476 276.862 163.271 288.067 149.448 288.067 135.625 288.067 124.42 276.862 124.42 263.039 124.42 249.216 135.625 238.011 149.448 238.011 163.271 238.011 174.476 249.216 174.476 263.039Z" fill="#EBF6F0" transform="matrix(1.00046 0 0 1 1037 1107.4)"/><path d="M174.476 263.595C174.476 277.418 163.271 288.623 149.448 288.623 135.625 288.623 124.42 277.418 124.42 263.595 124.42 249.773 135.625 238.567 149.448 238.567 163.271 238.567 174.476 249.773 174.476 263.595Z" fill="#ECF7F0" transform="matrix(1.00046 0 0 1 1037 1107.4)"/><path d="M174.476 264.184C174.476 278.007 163.271 289.212 149.448 289.212 135.625 289.212 124.42 278.007 124.42 264.184 124.42 250.361 135.625 239.156 149.448 239.156 163.271 239.156 174.476 250.361 174.476 264.184Z" fill="#EDF7F1" transform="matrix(1.00046 0 0 1 1037 1107.4)"/><path d="M174.476 264.74C174.476 278.563 163.271 289.768 149.448 289.768 135.625 289.768 124.42 278.563 124.42 264.74 124.42 250.918 135.625 239.712 149.448 239.712 163.271 239.712 174.476 250.918 174.476 264.74Z" fill="#EEF7F2" transform="matrix(1.00046 0 0 1 1037 1107.4)"/><path d="M174.476 265.296C174.476 279.119 163.271 290.324 149.448 290.324 135.625 290.324 124.42 279.119 124.42 265.296 124.42 251.474 135.625 240.268 149.448 240.268 163.271 240.268 174.476 251.474 174.476 265.296Z" fill="#EFF8F3" transform="matrix(1.00046 0 0 1 1037 1107.4)"/><path d="M174.476 265.853C174.476 279.675 163.271 290.881 149.448 290.881 135.625 290.881 124.42 279.675 124.42 265.853 124.42 252.03 135.625 240.825 149.448 240.825 163.271 240.825 174.476 252.03 174.476 265.853Z" fill="#F0F8F3" transform="matrix(1.00046 0 0 1 1037 1107.4)"/><path d="M174.476 266.441C174.476 280.264 163.271 291.469 149.448 291.469 135.625 291.469 124.42 280.264 124.42 266.441 124.42 252.619 135.625 241.413 149.448 241.413 163.271 241.413 174.476 252.619 174.476 266.441Z" fill="#F1F9F4" transform="matrix(1.00046 0 0 1 1037 1107.4)"/><path d="M174.476 266.998C174.476 280.82 163.271 292.026 149.448 292.026 135.625 292.026 124.42 280.82 124.42 266.998 124.42 253.175 135.625 241.97 149.448 241.97 163.271 241.97 174.476 253.175 174.476 266.998Z" fill="#F2F9F5" transform="matrix(1.00046 0 0 1 1037 1107.4)"/><path d="M174.476 267.554C174.476 281.376 163.271 292.582 149.448 292.582 135.625 292.582 124.42 281.376 124.42 267.554 124.42 253.731 135.625 242.526 149.448 242.526 163.271 242.526 174.476 253.731 174.476 267.554Z" fill="#F3FAF5" transform="matrix(1.00046 0 0 1 1037 1107.4)"/><path d="M174.476 268.11C174.476 281.932 163.271 293.138 149.448 293.138 135.625 293.138 124.42 281.933 124.42 268.11 124.42 254.287 135.625 243.082 149.448 243.082 163.271 243.082 174.476 254.287 174.476 268.11Z" fill="#F4FAF6" transform="matrix(1.00046 0 0 1 1037 1107.4)"/><path d="M174.476 268.699C174.476 282.521 163.271 293.727 149.448 293.727 135.625 293.727 124.42 282.521 124.42 268.699 124.42 254.876 135.625 243.671 149.448 243.671 163.271 243.671 174.476 254.876 174.476 268.699Z" fill="#F5FAF7" transform="matrix(1.00046 0 0 1 1037 1107.4)"/><path d="M174.476 269.255C174.476 283.078 163.271 294.283 149.448 294.283 135.625 294.283 124.42 283.078 124.42 269.255 124.42 255.432 135.625 244.227 149.448 244.227 163.271 244.227 174.476 255.432 174.476 269.255Z" fill="#F6FBF8" transform="matrix(1.00046 0 0 1 1037 1107.4)"/><path d="M174.509 269.811C174.509 283.652 163.289 294.872 149.448 294.872 135.607 294.872 124.387 283.652 124.387 269.811 124.387 255.971 135.607 244.751 149.448 244.751 163.289 244.751 174.509 255.971 174.509 269.811Z" fill="#F7FBF8" transform="matrix(1.00046 0 0 1 1037 1107.4)"/><path d="M174.509 270.4C174.509 284.241 163.289 295.461 149.448 295.461 135.607 295.461 124.387 284.241 124.387 270.4 124.387 256.559 135.607 245.339 149.448 245.339 163.289 245.339 174.509 256.559 174.509 270.4Z" fill="#F7FCF9" transform="matrix(1.00046 0 0 1 1037 1107.4)"/><path d="M174.509 270.956C174.509 284.797 163.289 296.017 149.448 296.017 135.607 296.017 124.387 284.797 124.387 270.956 124.387 257.116 135.607 245.896 149.448 245.896 163.289 245.896 174.509 257.116 174.509 270.956Z" fill="#F8FCFA" transform="matrix(1.00046 0 0 1 1037 1107.4)"/><path d="M174.509 271.512C174.509 285.353 163.289 296.573 149.448 296.573 135.607 296.573 124.387 285.353 124.387 271.512 124.387 257.672 135.607 246.452 149.448 246.452 163.289 246.452 174.509 257.672 174.509 271.512Z" fill="#F9FCFB" transform="matrix(1.00046 0 0 1 1037 1107.4)"/><path d="M174.509 272.069C174.509 285.909 163.289 297.129 149.448 297.129 135.607 297.129 124.387 285.909 124.387 272.069 124.387 258.228 135.607 247.008 149.448 247.008 163.289 247.008 174.509 258.228 174.509 272.069Z" fill="#FAFDFB" transform="matrix(1.00046 0 0 1 1037 1107.4)"/><path d="M174.509 272.658C174.509 286.498 163.289 297.718 149.448 297.718 135.607 297.718 124.387 286.498 124.387 272.658 124.387 258.817 135.607 247.597 149.448 247.597 163.289 247.597 174.509 258.817 174.509 272.658Z" fill="#FBFDFC" transform="matrix(1.00046 0 0 1 1037 1107.4)"/><path d="M174.509 273.214C174.509 287.054 163.289 298.274 149.448 298.274 135.607 298.274 124.387 287.054 124.387 273.214 124.387 259.373 135.607 248.153 149.448 248.153 163.289 248.153 174.509 259.373 174.509 273.214Z" fill="#FCFEFD" transform="matrix(1.00046 0 0 1 1037 1107.4)"/><path d="M174.509 273.77C174.509 287.611 163.289 298.831 149.448 298.831 135.607 298.831 124.387 287.611 124.387 273.77 124.387 259.929 135.607 248.709 149.448 248.709 163.289 248.709 174.509 259.929 174.509 273.77Z" fill="#FDFEFE" transform="matrix(1.00046 0 0 1 1037 1107.4)"/><path d="M174.509 274.326C174.509 288.167 163.289 299.387 149.448 299.387 135.607 299.387 124.387 288.167 124.387 274.326 124.387 260.485 135.607 249.265 149.448 249.265 163.289 249.265 174.509 260.485 174.509 274.326Z" fill="#FEFFFE" transform="matrix(1.00046 0 0 1 1037 1107.4)"/><path d="M174.509 274.915C174.509 288.756 163.289 299.976 149.448 299.976 135.607 299.976 124.387 288.756 124.387 274.915 124.387 261.074 135.607 249.854 149.448 249.854 163.289 249.854 174.509 261.074 174.509 274.915Z" fill="#FFFFFF" transform="matrix(1.00046 0 0 1 1037 1107.4)"/><path d="M174.509 278.906C174.509 292.747 163.289 303.967 149.448 303.967 135.607 303.967 124.387 292.747 124.387 278.906 124.387 265.066 135.607 253.846 149.448 253.846 163.289 253.846 174.509 265.066 174.509 278.906Z" fill="#249579" transform="matrix(1.00046 0 0 1 1037 1107.4)"/></g></g></g><text font-family="Nirmala UI,Nirmala UI_MSFontService,sans-serif" font-weight="400" font-size="83" transform="matrix(1 0 0 1 1078.04 1572)">Daten<tspan font-size="83" x="-114.285" y="99">anfordern &amp;</tspan><tspan font-size="83" x="-146.667" y="198">herunterladen</tspan></text></g></svg>