<svg width="646" height="634" xmlns="http://www.w3.org/2000/svg" xmlns:xlink="http://www.w3.org/1999/xlink" xml:space="preserve" overflow="hidden"><defs><clipPath id="clip0"><rect x="2697" y="1106" width="646" height="634"/></clipPath><clipPath id="clip1"><rect x="2871" y="1105" width="299" height="313"/></clipPath><clipPath id="clip2"><rect x="2871" y="1105" width="299" height="313"/></clipPath><clipPath id="clip3"><rect x="2871" y="1105" width="299" height="313"/></clipPath></defs><g clip-path="url(#clip0)" transform="translate(-2697 -1106)"><g clip-path="url(#clip1)"><g clip-path="url(#clip2)"><g clip-path="url(#clip3)"><path d="M83.6749 181.475C83.6749 195.276 72.4873 206.463 58.6866 206.463 44.8859 206.463 33.6983 195.276 33.6983 181.475 33.6983 167.674 44.8859 156.487 58.6866 156.487 72.4873 156.487 83.6749 167.674 83.6749 181.475Z" fill="#249579" transform="matrix(1 0 0 1.0029 2871 1107.4)"/><path d="M85.9584 183.595C85.9584 197.396 74.7708 208.584 60.9701 208.584 47.1695 208.584 35.9818 197.396 35.9818 183.595 35.9818 169.795 47.1695 158.607 60.9701 158.607 74.7708 158.607 85.9584 169.795 85.9584 183.595Z" fill="#249579" transform="matrix(1 0 0 1.0029 2871 1107.4)"/><path d="M88.2093 185.716C88.2093 199.517 77.0217 210.704 63.221 210.704 49.4204 210.704 38.2327 199.517 38.2327 185.716 38.2327 171.915 49.4204 160.728 63.221 160.728 77.0217 160.728 88.2093 171.915 88.2093 185.716Z" fill="#26957A" transform="matrix(1 0 0 1.0029 2871 1107.4)"/><path d="M90.4602 187.804C90.4602 201.586 79.2872 212.759 65.5046 212.759 51.7219 212.759 40.5489 201.586 40.5489 187.804 40.5489 174.021 51.7219 162.848 65.5046 162.848 79.2872 162.848 90.4602 174.021 90.4602 187.804Z" fill="#26967A" transform="matrix(1 0 0 1.0029 2871 1107.4)"/><path d="M92.7111 189.924C92.7111 203.707 81.5381 214.88 67.7555 214.88 53.9728 214.88 42.7998 203.707 42.7998 189.924 42.7998 176.141 53.9728 164.968 67.7555 164.968 81.5381 164.968 92.7111 176.141 92.7111 189.924Z" fill="#27967A" transform="matrix(1 0 0 1.0029 2871 1107.4)"/><path d="M94.9947 192.044C94.9947 205.827 83.8216 217 70.039 217 56.2564 217 45.0833 205.827 45.0833 192.044 45.0833 178.262 56.2564 167.089 70.039 167.089 83.8216 167.089 94.9947 178.262 94.9947 192.044Z" fill="#28977B" transform="matrix(1 0 0 1.0029 2871 1107.4)"/><path d="M97.2456 194.165C97.2456 207.948 86.0725 219.121 72.2899 219.121 58.5073 219.121 47.3342 207.948 47.3342 194.165 47.3342 180.382 58.5073 169.209 72.2899 169.209 86.0725 169.209 97.2456 180.382 97.2456 194.165Z" fill="#29977B" transform="matrix(1 0 0 1.0029 2871 1107.4)"/><path d="M99.4965 196.253C99.4965 210.035 88.3234 221.208 74.5408 221.208 60.7582 221.208 49.5851 210.035 49.5851 196.253 49.5851 182.47 60.7582 171.297 74.5408 171.297 88.3234 171.297 99.4965 182.47 99.4965 196.253Z" fill="#29977B" transform="matrix(1 0 0 1.0029 2871 1107.4)"/><path d="M101.78 198.373C101.78 212.156 90.6069 223.329 76.8243 223.329 63.0417 223.329 51.8686 212.156 51.8686 198.373 51.8686 184.59 63.0417 173.417 76.8243 173.417 90.6069 173.417 101.78 184.59 101.78 198.373Z" fill="#2A987C" transform="matrix(1 0 0 1.0029 2871 1107.4)"/><path d="M104.031 200.494C104.031 214.276 92.8578 225.449 79.0752 225.449 65.2926 225.449 54.1195 214.276 54.1195 200.494 54.1195 186.711 65.2926 175.538 79.0752 175.538 92.8578 175.538 104.031 186.711 104.031 200.494Z" fill="#2B987C" transform="matrix(1 0 0 1.0029 2871 1107.4)"/><path d="M106.314 202.614C106.314 216.397 95.1414 227.57 81.3587 227.57 67.5761 227.57 56.4031 216.397 56.4031 202.614 56.4031 188.831 67.5761 177.658 81.3587 177.658 95.1414 177.658 106.314 188.831 106.314 202.614Z" fill="#2B997D" transform="matrix(1 0 0 1.0029 2871 1107.4)"/><path d="M108.565 204.702C108.565 218.484 97.3923 229.657 83.6096 229.657 69.827 229.657 58.654 218.484 58.654 204.702 58.654 190.919 69.827 179.746 83.6096 179.746 97.3923 179.746 108.565 190.919 108.565 204.702Z" fill="#2C997D" transform="matrix(1 0 0 1.0029 2871 1107.4)"/><path d="M110.849 206.822C110.849 220.605 99.6758 231.778 85.8932 231.778 72.1105 231.778 60.9375 220.605 60.9375 206.822 60.9375 193.04 72.1105 181.866 85.8932 181.866 99.6758 181.866 110.849 193.04 110.849 206.822Z" fill="#2D9A7D" transform="matrix(1 0 0 1.0029 2871 1107.4)"/><path d="M113.1 208.943C113.1 222.725 101.927 233.898 88.1441 233.898 74.3614 233.898 63.1884 222.725 63.1884 208.943 63.1884 195.16 74.3614 183.987 88.1441 183.987 101.927 183.987 113.1 195.16 113.1 208.943Z" fill="#2D9A7E" transform="matrix(1 0 0 1.0029 2871 1107.4)"/><path d="M115.383 211.063C115.383 224.846 104.21 236.019 90.4276 236.019 76.645 236.019 65.4719 224.846 65.4719 211.063 65.4719 197.28 76.645 186.107 90.4276 186.107 104.21 186.107 115.383 197.28 115.383 211.063Z" fill="#2E9A7E" transform="matrix(1 0 0 1.0029 2871 1107.4)"/><path d="M116.884 212.466C116.884 226.248 105.711 237.421 91.9282 237.421 78.1456 237.421 66.9725 226.248 66.9725 212.466 66.9725 198.683 78.1456 187.51 91.9282 187.51 105.711 187.51 116.884 198.683 116.884 212.466Z" fill="#2F9B7E" transform="matrix(1 0 0 1.0029 2871 1107.4)"/><path d="M117.765 213.444C117.765 227.227 106.592 238.4 92.809 238.4 79.0264 238.4 67.8533 227.227 67.8533 213.444 67.8533 199.662 79.0264 188.489 92.809 188.489 106.592 188.489 117.765 199.662 117.765 213.444Z" fill="#309B7F" transform="matrix(1 0 0 1.0029 2871 1107.4)"/><path d="M119.559 215.173C119.559 228.956 108.386 240.129 94.6032 240.129 80.8206 240.129 69.6475 228.956 69.6475 215.173 69.6475 201.391 80.8206 190.218 94.6032 190.218 108.386 190.218 119.559 201.391 119.559 215.173Z" fill="#309C7F" transform="matrix(1 0 0 1.0029 2871 1107.4)"/><path d="M122.071 217.326C122.071 231.109 110.898 242.282 97.1151 242.282 83.3324 242.282 72.1594 231.109 72.1594 217.326 72.1594 203.544 83.3324 192.371 97.1151 192.371 110.898 192.371 122.071 203.544 122.071 217.326Z" fill="#319C7F" transform="matrix(1 0 0 1.0029 2871 1107.4)"/><path d="M125.202 219.512C125.202 233.295 114.029 244.468 100.247 244.468 86.4641 244.468 75.2911 233.295 75.2911 219.512 75.2911 205.729 86.4641 194.556 100.247 194.556 114.029 194.556 125.202 205.729 125.202 219.512Z" fill="#329C80" transform="matrix(1 0 0 1.0029 2871 1107.4)"/><path d="M128.791 221.371C128.791 235.154 117.618 246.327 103.835 246.327 90.0525 246.327 78.8795 235.154 78.8795 221.371 78.8795 207.589 90.0525 196.416 103.835 196.416 117.618 196.416 128.791 207.589 128.791 221.371Z" fill="#339D80" transform="matrix(1 0 0 1.0029 2871 1107.4)"/><path d="M132.705 222.546C132.705 236.328 121.532 247.502 107.75 247.502 93.9671 247.502 82.7941 236.329 82.7941 222.546 82.7941 208.763 93.9671 197.59 107.75 197.59 121.532 197.59 132.705 208.763 132.705 222.546Z" fill="#349D80" transform="matrix(1 0 0 1.0029 2871 1107.4)"/><path d="M136.457 222.644C136.457 236.426 125.284 247.599 111.501 247.599 97.7186 247.599 86.5456 236.426 86.5456 222.644 86.5456 208.861 97.7186 197.688 111.501 197.688 125.284 197.688 136.457 208.861 136.457 222.644Z" fill="#349D80" transform="matrix(1 0 0 1.0029 2871 1107.4)"/><path d="M139.915 221.763C139.915 235.546 128.742 246.719 114.959 246.719 101.177 246.719 90.0035 235.546 90.0035 221.763 90.0035 207.98 101.177 196.807 114.959 196.807 128.742 196.807 139.915 207.98 139.915 221.763Z" fill="#359E81" transform="matrix(1 0 0 1.0029 2871 1107.4)"/><path d="M143.405 220.164C143.405 233.947 132.232 245.12 118.45 245.12 104.667 245.12 93.494 233.947 93.494 220.164 93.494 206.382 104.667 195.209 118.45 195.209 132.232 195.209 143.405 206.382 143.405 220.164Z" fill="#359E81" transform="matrix(1 0 0 1.0029 2871 1107.4)"/><path d="M146.798 218.044C146.798 231.827 135.625 243 121.842 243 108.06 243 96.8867 231.827 96.8867 218.044 96.8867 204.261 108.06 193.088 121.842 193.088 135.625 193.088 146.798 204.261 146.798 218.044Z" fill="#369E81" transform="matrix(1 0 0 1.0029 2871 1107.4)"/><path d="M149.995 215.597C149.995 229.38 138.822 240.553 125.039 240.553 111.257 240.553 100.084 229.38 100.084 215.597 100.084 201.815 111.257 190.642 125.039 190.642 138.822 190.642 149.995 201.815 149.995 215.597Z" fill="#379F82" transform="matrix(1 0 0 1.0029 2871 1107.4)"/><path d="M152.866 213.086C152.866 226.868 141.693 238.041 127.91 238.041 114.127 238.041 102.954 226.868 102.954 213.086 102.954 199.303 114.127 188.13 127.91 188.13 141.693 188.13 152.866 199.303 152.866 213.086Z" fill="#389F82" transform="matrix(1 0 0 1.0029 2871 1107.4)"/><path d="M155.345 210.704C155.345 224.487 144.172 235.66 130.389 235.66 116.607 235.66 105.434 224.487 105.434 210.704 105.434 196.921 116.607 185.748 130.389 185.748 144.172 185.748 155.345 196.921 155.345 210.704Z" fill="#39A083" transform="matrix(1 0 0 1.0029 2871 1107.4)"/><path d="M157.27 208.649C157.27 222.432 146.097 233.605 132.314 233.605 118.531 233.605 107.358 222.432 107.358 208.649 107.358 194.866 118.531 183.693 132.314 183.693 146.097 183.693 157.27 194.866 157.27 208.649Z" fill="#39A083" transform="matrix(1 0 0 1.0029 2871 1107.4)"/><path d="M158.607 207.181C158.607 220.964 147.434 232.137 133.651 232.137 119.869 232.137 108.696 220.964 108.696 207.181 108.696 193.398 119.869 182.225 133.651 182.225 147.434 182.225 158.607 193.398 158.607 207.181Z" fill="#3AA183" transform="matrix(1 0 0 1.0029 2871 1107.4)"/><path d="M159.194 206.496C159.194 220.279 148.021 231.452 134.239 231.452 120.456 231.452 109.283 220.279 109.283 206.496 109.283 192.713 120.456 181.54 134.239 181.54 148.021 181.54 159.194 192.713 159.194 206.496Z" fill="#3BA184" transform="matrix(1 0 0 1.0029 2871 1107.4)"/><path d="M160.923 204.8C160.923 218.582 149.75 229.755 135.968 229.755 122.185 229.755 111.012 218.582 111.012 204.8 111.012 191.017 122.185 179.844 135.968 179.844 149.75 179.844 160.923 191.017 160.923 204.8Z" fill="#3CA184" transform="matrix(1 0 0 1.0029 2871 1107.4)"/><path d="M163.142 202.614C163.142 216.397 151.969 227.57 138.186 227.57 124.403 227.57 113.23 216.397 113.23 202.614 113.23 188.831 124.403 177.658 138.186 177.658 151.969 177.658 163.142 188.831 163.142 202.614Z" fill="#3DA284" transform="matrix(1 0 0 1.0029 2871 1107.4)"/><path d="M165.36 200.461C165.36 214.244 154.187 225.417 140.404 225.417 126.622 225.417 115.448 214.244 115.448 200.461 115.448 186.678 126.622 175.505 140.404 175.505 154.187 175.505 165.36 186.678 165.36 200.461Z" fill="#3DA285" transform="matrix(1 0 0 1.0029 2871 1107.4)"/><path d="M167.578 198.275C167.578 212.058 156.405 223.231 142.622 223.231 128.84 223.231 117.667 212.058 117.667 198.275 117.667 184.493 128.84 173.32 142.622 173.32 156.405 173.32 167.578 184.493 167.578 198.275Z" fill="#3EA385" transform="matrix(1 0 0 1.0029 2871 1107.4)"/><path d="M169.796 196.122C169.796 209.905 158.623 221.078 144.841 221.078 131.058 221.078 119.885 209.905 119.885 196.122 119.885 182.34 131.058 171.167 144.841 171.167 158.623 171.167 169.796 182.34 169.796 196.122Z" fill="#3FA385" transform="matrix(1 0 0 1.0029 2871 1107.4)"/><path d="M172.015 193.969C172.015 207.752 160.842 218.925 147.059 218.925 133.276 218.925 122.103 207.752 122.103 193.969 122.103 180.187 133.276 169.013 147.059 169.013 160.842 169.013 172.015 180.187 172.015 193.969Z" fill="#40A386" transform="matrix(1 0 0 1.0029 2871 1107.4)"/><path d="M174.233 191.783C174.233 205.566 163.06 216.739 149.277 216.739 135.495 216.739 124.322 205.566 124.322 191.783 124.322 178.001 135.495 166.828 149.277 166.828 163.06 166.828 174.233 178.001 174.233 191.783Z" fill="#41A486" transform="matrix(1 0 0 1.0029 2871 1107.4)"/><path d="M176.451 189.63C176.451 203.413 165.278 214.586 151.496 214.586 137.713 214.586 126.54 203.413 126.54 189.63 126.54 175.848 137.713 164.675 151.496 164.675 165.278 164.675 176.451 175.848 176.451 189.63Z" fill="#41A487" transform="matrix(1 0 0 1.0029 2871 1107.4)"/><path d="M178.67 187.477C178.67 201.26 167.497 212.433 153.714 212.433 139.931 212.433 128.758 201.26 128.758 187.477 128.758 173.695 139.931 162.522 153.714 162.522 167.497 162.522 178.67 173.695 178.67 187.477Z" fill="#42A587" transform="matrix(1 0 0 1.0029 2871 1107.4)"/><path d="M180.888 185.292C180.888 199.074 169.715 210.247 155.932 210.247 142.15 210.247 130.976 199.074 130.976 185.292 130.976 171.509 142.15 160.336 155.932 160.336 169.715 160.336 180.888 171.509 180.888 185.292Z" fill="#43A587" transform="matrix(1 0 0 1.0029 2871 1107.4)"/><path d="M183.106 183.139C183.106 196.921 171.933 208.094 158.15 208.094 144.368 208.094 133.195 196.921 133.195 183.139 133.195 169.356 144.368 158.183 158.15 158.183 171.933 158.183 183.106 169.356 183.106 183.139Z" fill="#44A688" transform="matrix(1 0 0 1.0029 2871 1107.4)"/><path d="M185.292 180.953C185.292 194.736 174.119 205.909 160.336 205.909 146.553 205.909 135.38 194.736 135.38 180.953 135.38 167.17 146.553 155.997 160.336 155.997 174.119 155.997 185.292 167.17 185.292 180.953Z" fill="#44A688" transform="matrix(1 0 0 1.0029 2871 1107.4)"/><path d="M187.51 178.8C187.51 192.583 176.337 203.756 162.554 203.756 148.772 203.756 137.599 192.583 137.599 178.8 137.599 165.017 148.772 153.844 162.554 153.844 176.337 153.844 187.51 165.017 187.51 178.8Z" fill="#45A689" transform="matrix(1 0 0 1.0029 2871 1107.4)"/><path d="M189.761 176.647C189.761 190.448 178.573 201.635 164.773 201.635 150.972 201.635 139.784 190.448 139.784 176.647 139.784 162.846 150.972 151.659 164.773 151.659 178.573 151.659 189.761 162.846 189.761 176.647Z" fill="#46A789" transform="matrix(1 0 0 1.0029 2871 1107.4)"/><path d="M191.979 174.461C191.979 188.262 180.792 199.45 166.991 199.45 153.19 199.45 142.003 188.262 142.003 174.461 142.003 160.661 153.19 149.473 166.991 149.473 180.792 149.473 191.979 160.661 191.979 174.461Z" fill="#47A789" transform="matrix(1 0 0 1.0029 2871 1107.4)"/><path d="M194.198 172.308C194.198 186.109 183.01 197.297 169.209 197.297 155.409 197.297 144.221 186.109 144.221 172.308 144.221 158.508 155.409 147.32 169.209 147.32 183.01 147.32 194.198 158.508 194.198 172.308Z" fill="#48A88A" transform="matrix(1 0 0 1.0029 2871 1107.4)"/><path d="M194.524 171.982C194.524 185.783 183.336 196.97 169.535 196.97 155.735 196.97 144.547 185.783 144.547 171.982 144.547 158.181 155.735 146.994 169.535 146.994 183.336 146.994 194.524 158.181 194.524 171.982Z" fill="#48A88A" transform="matrix(1 0 0 1.0029 2871 1107.4)"/><path d="M194.883 171.656C194.883 185.457 183.695 196.644 169.894 196.644 156.094 196.644 144.906 185.456 144.906 171.656 144.906 157.855 156.094 146.668 169.894 146.668 183.695 146.668 194.883 157.855 194.883 171.656Z" fill="#49A88A" transform="matrix(1 0 0 1.0029 2871 1107.4)"/><path d="M195.209 171.33C195.209 185.13 184.021 196.318 170.22 196.318 156.42 196.318 145.232 185.13 145.232 171.33 145.232 157.529 156.42 146.341 170.22 146.341 184.021 146.341 195.209 157.529 195.209 171.33Z" fill="#4AA98B" transform="matrix(1 0 0 1.0029 2871 1107.4)"/><path d="M195.535 171.003C195.535 184.804 184.347 195.992 170.547 195.992 156.746 195.992 145.558 184.804 145.558 171.003 145.558 157.203 156.746 146.015 170.547 146.015 184.347 146.015 195.535 157.203 195.535 171.003Z" fill="#4BA98B" transform="matrix(1 0 0 1.0029 2871 1107.4)"/><path d="M195.894 170.677C195.894 184.478 184.706 195.665 170.906 195.665 157.105 195.665 145.917 184.478 145.917 170.677 145.917 156.877 157.105 145.689 170.906 145.689 184.706 145.689 195.894 156.877 195.894 170.677Z" fill="#4CAA8C" transform="matrix(1 0 0 1.0029 2871 1107.4)"/><path d="M196.22 170.351C196.22 184.152 185.032 195.339 171.232 195.339 157.431 195.339 146.243 184.152 146.243 170.351 146.243 156.55 157.431 145.363 171.232 145.363 185.032 145.363 196.22 156.55 196.22 170.351Z" fill="#4DAA8C" transform="matrix(1 0 0 1.0029 2871 1107.4)"/><path d="M196.546 170.025C196.546 183.825 185.359 195.013 171.558 195.013 157.757 195.013 146.57 183.825 146.57 170.025 146.57 156.224 157.757 145.036 171.558 145.036 185.359 145.036 196.546 156.224 196.546 170.025Z" fill="#4DAB8C" transform="matrix(1 0 0 1.0029 2871 1107.4)"/><path d="M196.872 169.699C196.872 183.499 185.685 194.687 171.884 194.687 158.084 194.687 146.896 183.499 146.896 169.699 146.896 155.898 158.084 144.71 171.884 144.71 185.685 144.71 196.872 155.898 196.872 169.699Z" fill="#4EAB8D" transform="matrix(1 0 0 1.0029 2871 1107.4)"/><path d="M197.231 169.372C197.231 183.173 186.044 194.361 172.243 194.361 158.442 194.361 147.255 183.173 147.255 169.372 147.255 155.572 158.442 144.384 172.243 144.384 186.044 144.384 197.231 155.572 197.231 169.372Z" fill="#4FAB8D" transform="matrix(1 0 0 1.0029 2871 1107.4)"/><path d="M197.525 169.046C197.525 182.829 186.352 194.002 172.569 194.002 158.787 194.002 147.614 182.829 147.614 169.046 147.614 155.263 158.787 144.09 172.569 144.09 186.352 144.09 197.525 155.263 197.525 169.046Z" fill="#50AC8E" transform="matrix(1 0 0 1.0029 2871 1107.4)"/><path d="M197.851 168.687C197.851 182.47 186.678 193.643 172.895 193.643 159.113 193.643 147.94 182.47 147.94 168.687 147.94 154.905 159.113 143.732 172.895 143.732 186.678 143.732 197.851 154.905 197.851 168.687Z" fill="#51AC8E" transform="matrix(1 0 0 1.0029 2871 1107.4)"/><path d="M198.21 168.361C198.21 182.144 187.037 193.317 173.254 193.317 159.472 193.317 148.299 182.144 148.299 168.361 148.299 154.578 159.472 143.405 173.254 143.405 187.037 143.405 198.21 154.578 198.21 168.361Z" fill="#52AD8E" transform="matrix(1 0 0 1.0029 2871 1107.4)"/><path d="M198.536 168.035C198.536 181.817 187.363 192.991 173.581 192.991 159.798 192.991 148.625 181.817 148.625 168.035 148.625 154.252 159.798 143.079 173.581 143.079 187.363 143.079 198.536 154.252 198.536 168.035Z" fill="#52AD8F" transform="matrix(1 0 0 1.0029 2871 1107.4)"/><path d="M198.862 167.709C198.862 181.491 187.689 192.664 173.907 192.664 160.124 192.664 148.951 181.491 148.951 167.709 148.951 153.926 160.124 142.753 173.907 142.753 187.689 142.753 198.862 153.926 198.862 167.709Z" fill="#53AD8F" transform="matrix(1 0 0 1.0029 2871 1107.4)"/><path d="M199.189 167.382C199.189 181.165 188.016 192.338 174.233 192.338 160.45 192.338 149.277 181.165 149.277 167.382 149.277 153.6 160.45 142.427 174.233 142.427 188.016 142.427 199.189 153.6 199.189 167.382Z" fill="#54AE90" transform="matrix(1 0 0 1.0029 2871 1107.4)"/><path d="M199.547 167.056C199.547 180.839 188.374 192.012 174.592 192.012 160.809 192.012 149.636 180.839 149.636 167.056 149.636 153.274 160.809 142.101 174.592 142.101 188.374 142.101 199.547 153.274 199.547 167.056Z" fill="#55AE90" transform="matrix(1 0 0 1.0029 2871 1107.4)"/><path d="M199.874 166.73C199.874 180.513 188.701 191.686 174.918 191.686 161.135 191.686 149.962 180.513 149.962 166.73 149.962 152.947 161.135 141.774 174.918 141.774 188.701 141.774 199.874 152.947 199.874 166.73Z" fill="#56AF91" transform="matrix(1 0 0 1.0029 2871 1107.4)"/><path d="M200.2 166.404C200.2 180.186 189.027 191.359 175.244 191.359 161.462 191.359 150.289 180.186 150.289 166.404 150.289 152.621 161.462 141.448 175.244 141.448 189.027 141.448 200.2 152.621 200.2 166.404Z" fill="#56AF91" transform="matrix(1 0 0 1.0029 2871 1107.4)"/><path d="M200.559 166.078C200.559 179.86 189.386 191.033 175.603 191.033 161.82 191.033 150.647 179.86 150.647 166.078 150.647 152.295 161.82 141.122 175.603 141.122 189.386 141.122 200.559 152.295 200.559 166.078Z" fill="#57B091" transform="matrix(1 0 0 1.0029 2871 1107.4)"/><path d="M200.885 165.751C200.885 179.534 189.712 190.707 175.929 190.707 162.147 190.707 150.974 179.534 150.974 165.751 150.974 151.969 162.147 140.796 175.929 140.796 189.712 140.796 200.885 151.969 200.885 165.751Z" fill="#58B092" transform="matrix(1 0 0 1.0029 2871 1107.4)"/><path d="M201.211 165.425C201.211 179.208 190.038 190.381 176.256 190.381 162.473 190.381 151.3 179.208 151.3 165.425 151.3 151.642 162.473 140.469 176.256 140.469 190.038 140.469 201.211 151.642 201.211 165.425Z" fill="#59B092" transform="matrix(1 0 0 1.0029 2871 1107.4)"/><path d="M201.537 165.099C201.537 178.882 190.364 190.055 176.582 190.055 162.799 190.055 151.626 178.882 151.626 165.099 151.626 151.316 162.799 140.143 176.582 140.143 190.364 140.143 201.537 151.316 201.537 165.099Z" fill="#5AB193" transform="matrix(1 0 0 1.0029 2871 1107.4)"/><path d="M201.896 164.773C201.896 178.555 190.723 189.728 176.941 189.728 163.158 189.728 151.985 178.555 151.985 164.773 151.985 150.99 163.158 139.817 176.941 139.817 190.723 139.817 201.896 150.99 201.896 164.773Z" fill="#5AB193" transform="matrix(1 0 0 1.0029 2871 1107.4)"/><path d="M202.222 164.446C202.222 178.229 191.049 189.402 177.267 189.402 163.484 189.402 152.311 178.229 152.311 164.446 152.311 150.664 163.484 139.491 177.267 139.491 191.049 139.491 202.222 150.664 202.222 164.446Z" fill="#5BB294" transform="matrix(1 0 0 1.0029 2871 1107.4)"/><path d="M202.549 164.12C202.549 177.903 191.376 189.076 177.593 189.076 163.81 189.076 152.637 177.903 152.637 164.12 152.637 150.338 163.81 139.165 177.593 139.165 191.376 139.165 202.549 150.338 202.549 164.12Z" fill="#5CB294" transform="matrix(1 0 0 1.0029 2871 1107.4)"/><path d="M202.908 163.794C202.908 177.577 191.734 188.75 177.952 188.75 164.169 188.75 152.996 177.577 152.996 163.794 152.996 150.011 164.169 138.838 177.952 138.838 191.734 138.838 202.908 150.011 202.908 163.794Z" fill="#5DB294" transform="matrix(1 0 0 1.0029 2871 1107.4)"/><path d="M203.234 163.468C203.234 177.25 192.061 188.423 178.278 188.423 164.495 188.423 153.322 177.25 153.322 163.468 153.322 149.685 164.495 138.512 178.278 138.512 192.061 138.512 203.234 149.685 203.234 163.468Z" fill="#5EB395" transform="matrix(1 0 0 1.0029 2871 1107.4)"/><path d="M203.56 163.142C203.56 176.924 192.387 188.097 178.604 188.097 164.822 188.097 153.649 176.924 153.649 163.142 153.649 149.359 164.822 138.186 178.604 138.186 192.387 138.186 203.56 149.359 203.56 163.142Z" fill="#5EB395" transform="matrix(1 0 0 1.0029 2871 1107.4)"/><path d="M203.886 162.815C203.886 176.598 192.713 187.771 178.931 187.771 165.148 187.771 153.975 176.598 153.975 162.815 153.975 149.033 165.148 137.86 178.931 137.86 192.713 137.86 203.886 149.033 203.886 162.815Z" fill="#5FB496" transform="matrix(1 0 0 1.0029 2871 1107.4)"/><path d="M204.245 162.489C204.245 176.272 193.072 187.445 179.289 187.445 165.507 187.445 154.334 176.272 154.334 162.489 154.334 148.706 165.507 137.533 179.289 137.533 193.072 137.533 204.245 148.706 204.245 162.489Z" fill="#60B496" transform="matrix(1 0 0 1.0029 2871 1107.4)"/><path d="M204.571 162.163C204.571 175.946 193.398 187.119 179.616 187.119 165.833 187.119 154.66 175.946 154.66 162.163 154.66 148.38 165.833 137.207 179.616 137.207 193.398 137.207 204.571 148.38 204.571 162.163Z" fill="#61B597" transform="matrix(1 0 0 1.0029 2871 1107.4)"/><path d="M204.897 161.804C204.897 175.587 193.724 186.76 179.942 186.76 166.159 186.76 154.986 175.587 154.986 161.804 154.986 148.021 166.159 136.848 179.942 136.848 193.724 136.848 204.897 148.021 204.897 161.804Z" fill="#62B597" transform="matrix(1 0 0 1.0029 2871 1107.4)"/><path d="M205.256 161.478C205.256 175.26 194.083 186.434 180.301 186.434 166.518 186.434 155.345 175.26 155.345 161.478 155.345 147.695 166.518 136.522 180.301 136.522 194.083 136.522 205.256 147.695 205.256 161.478Z" fill="#63B597" transform="matrix(1 0 0 1.0029 2871 1107.4)"/><path d="M205.583 161.152C205.583 174.934 194.409 186.107 180.627 186.107 166.844 186.107 155.671 174.934 155.671 161.152 155.671 147.369 166.844 136.196 180.627 136.196 194.409 136.196 205.583 147.369 205.583 161.152Z" fill="#63B698" transform="matrix(1 0 0 1.0029 2871 1107.4)"/><path d="M205.909 160.825C205.909 174.608 194.736 185.781 180.953 185.781 167.17 185.781 155.997 174.608 155.997 160.825 155.997 147.043 167.17 135.87 180.953 135.87 194.736 135.87 205.909 147.043 205.909 160.825Z" fill="#64B698" transform="matrix(1 0 0 1.0029 2871 1107.4)"/><path d="M206.235 160.499C206.235 174.282 195.062 185.455 181.279 185.455 167.497 185.455 156.324 174.282 156.324 160.499 156.324 146.717 167.497 135.544 181.279 135.544 195.062 135.544 206.235 146.717 206.235 160.499Z" fill="#65B799" transform="matrix(1 0 0 1.0029 2871 1107.4)"/><path d="M206.594 160.173C206.594 173.956 195.421 185.129 181.638 185.129 167.855 185.129 156.682 173.956 156.682 160.173 156.682 146.39 167.855 135.217 181.638 135.217 195.421 135.217 206.594 146.39 206.594 160.173Z" fill="#66B799" transform="matrix(1 0 0 1.0029 2871 1107.4)"/><path d="M206.92 159.847C206.92 173.629 195.747 184.802 181.964 184.802 168.182 184.802 157.009 173.629 157.009 159.847 157.009 146.064 168.182 134.891 181.964 134.891 195.747 134.891 206.92 146.064 206.92 159.847Z" fill="#67B79A" transform="matrix(1 0 0 1.0029 2871 1107.4)"/><path d="M207.246 159.521C207.246 173.303 196.073 184.476 182.291 184.476 168.508 184.476 157.335 173.303 157.335 159.521 157.335 145.738 168.508 134.565 182.291 134.565 196.073 134.565 207.246 145.738 207.246 159.521Z" fill="#68B89A" transform="matrix(1 0 0 1.0029 2871 1107.4)"/><path d="M207.572 159.194C207.572 172.977 196.399 184.15 182.617 184.15 168.834 184.15 157.661 172.977 157.661 159.194 157.661 145.412 168.834 134.239 182.617 134.239 196.399 134.239 207.572 145.412 207.572 159.194Z" fill="#68B89B" transform="matrix(1 0 0 1.0029 2871 1107.4)"/><path d="M207.931 158.868C207.931 172.651 196.758 183.824 182.976 183.824 169.193 183.824 158.02 172.651 158.02 158.868 158.02 145.085 169.193 133.912 182.976 133.912 196.758 133.912 207.931 145.085 207.931 158.868Z" fill="#69B99B" transform="matrix(1 0 0 1.0029 2871 1107.4)"/><path d="M208.258 158.542C208.258 172.325 197.084 183.498 183.302 183.498 169.519 183.498 158.346 172.325 158.346 158.542 158.346 144.759 169.519 133.586 183.302 133.586 197.084 133.586 208.258 144.759 208.258 158.542Z" fill="#6AB99C" transform="matrix(1 0 0 1.0029 2871 1107.4)"/><path d="M208.584 158.216C208.584 171.998 197.411 183.171 183.628 183.171 169.845 183.171 158.672 171.998 158.672 158.216 158.672 144.433 169.845 133.26 183.628 133.26 197.411 133.26 208.584 144.433 208.584 158.216Z" fill="#6BBA9C" transform="matrix(1 0 0 1.0029 2871 1107.4)"/><path d="M208.943 157.889C208.943 171.672 197.77 182.845 183.987 182.845 170.204 182.845 159.031 171.672 159.031 157.889 159.031 144.107 170.204 132.934 183.987 132.934 197.77 132.934 208.943 144.107 208.943 157.889Z" fill="#6CBA9C" transform="matrix(1 0 0 1.0029 2871 1107.4)"/><path d="M209.269 157.563C209.269 171.346 198.096 182.519 184.313 182.519 170.53 182.519 159.357 171.346 159.357 157.563 159.357 143.781 170.53 132.608 184.313 132.608 198.096 132.608 209.269 143.781 209.269 157.563Z" fill="#6DBA9D" transform="matrix(1 0 0 1.0029 2871 1107.4)"/><path d="M209.595 157.237C209.595 171.02 198.422 182.193 184.639 182.193 170.857 182.193 159.684 171.02 159.684 157.237 159.684 143.454 170.857 132.281 184.639 132.281 198.422 132.281 209.595 143.454 209.595 157.237Z" fill="#6EBB9D" transform="matrix(1 0 0 1.0029 2871 1107.4)"/><path d="M209.921 156.911C209.921 170.693 198.748 181.866 184.966 181.866 171.183 181.866 160.01 170.693 160.01 156.911 160.01 143.128 171.183 131.955 184.966 131.955 198.748 131.955 209.921 143.128 209.921 156.911Z" fill="#6EBB9E" transform="matrix(1 0 0 1.0029 2871 1107.4)"/><path d="M210.28 156.585C210.28 170.367 199.107 181.54 185.324 181.54 171.542 181.54 160.369 170.367 160.369 156.585 160.369 142.802 171.542 131.629 185.324 131.629 199.107 131.629 210.28 142.802 210.28 156.585Z" fill="#6FBC9E" transform="matrix(1 0 0 1.0029 2871 1107.4)"/><path d="M210.606 156.258C210.606 170.041 199.433 181.214 185.651 181.214 171.868 181.214 160.695 170.041 160.695 156.258 160.695 142.476 171.868 131.303 185.651 131.303 199.433 131.303 210.606 142.476 210.606 156.258Z" fill="#70BC9F" transform="matrix(1 0 0 1.0029 2871 1107.4)"/><path d="M210.932 155.932C210.932 169.715 199.759 180.888 185.977 180.888 172.194 180.888 161.021 169.715 161.021 155.932 161.021 142.15 172.194 130.976 185.977 130.976 199.759 130.976 210.932 142.15 210.932 155.932Z" fill="#71BC9F" transform="matrix(1 0 0 1.0029 2871 1107.4)"/><path d="M211.291 155.606C211.291 169.389 200.118 180.562 186.336 180.562 172.553 180.562 161.38 169.389 161.38 155.606 161.38 141.823 172.553 130.65 186.336 130.65 200.118 130.65 211.291 141.823 211.291 155.606Z" fill="#72BDA0" transform="matrix(1 0 0 1.0029 2871 1107.4)"/><path d="M211.618 155.28C211.618 169.062 200.445 180.235 186.662 180.235 172.879 180.235 161.706 169.062 161.706 155.28 161.706 141.497 172.879 130.324 186.662 130.324 200.445 130.324 211.618 141.497 211.618 155.28Z" fill="#73BDA0" transform="matrix(1 0 0 1.0029 2871 1107.4)"/><path d="M211.944 154.953C211.944 168.736 200.771 179.909 186.988 179.909 173.205 179.909 162.032 168.736 162.032 154.953 162.032 141.171 173.205 129.998 186.988 129.998 200.771 129.998 211.944 141.171 211.944 154.953Z" fill="#73BEA1" transform="matrix(1 0 0 1.0029 2871 1107.4)"/><path d="M212.27 154.595C212.27 168.377 201.097 179.55 187.314 179.55 173.532 179.55 162.359 168.377 162.359 154.595 162.359 140.812 173.532 129.639 187.314 129.639 201.097 129.639 212.27 140.812 212.27 154.595Z" fill="#74BEA1" transform="matrix(1 0 0 1.0029 2871 1107.4)"/><path d="M212.629 154.268C212.629 168.051 201.456 179.224 187.673 179.224 173.891 179.224 162.717 168.051 162.717 154.268 162.717 140.486 173.891 129.313 187.673 129.313 201.456 129.313 212.629 140.486 212.629 154.268Z" fill="#75BFA2" transform="matrix(1 0 0 1.0029 2871 1107.4)"/><path d="M212.955 153.942C212.955 167.725 201.782 178.898 187.999 178.898 174.217 178.898 163.044 167.725 163.044 153.942 163.044 140.16 174.217 128.987 187.999 128.987 201.782 128.987 212.955 140.16 212.955 153.942Z" fill="#76BFA2" transform="matrix(1 0 0 1.0029 2871 1107.4)"/><path d="M213.281 153.616C213.281 167.399 202.108 178.572 188.326 178.572 174.543 178.572 163.37 167.399 163.37 153.616 163.37 139.833 174.543 128.66 188.326 128.66 202.108 128.66 213.281 139.833 213.281 153.616Z" fill="#77BFA3" transform="matrix(1 0 0 1.0029 2871 1107.4)"/><path d="M213.64 153.29C213.64 167.072 202.467 178.245 188.684 178.245 174.902 178.245 163.729 167.072 163.729 153.29 163.729 139.507 174.902 128.334 188.684 128.334 202.467 128.334 213.64 139.507 213.64 153.29Z" fill="#78C0A3" transform="matrix(1 0 0 1.0029 2871 1107.4)"/><path d="M213.966 152.964C213.966 166.746 202.793 177.919 189.011 177.919 175.228 177.919 164.055 166.746 164.055 152.964 164.055 139.181 175.228 128.008 189.011 128.008 202.793 128.008 213.966 139.181 213.966 152.964Z" fill="#78C0A3" transform="matrix(1 0 0 1.0029 2871 1107.4)"/><path d="M214.293 152.637C214.293 166.42 203.12 177.593 189.337 177.593 175.554 177.593 164.381 166.42 164.381 152.637 164.381 138.855 175.554 127.682 189.337 127.682 203.12 127.682 214.293 138.855 214.293 152.637Z" fill="#79C1A4" transform="matrix(1 0 0 1.0029 2871 1107.4)"/><path d="M214.619 152.311C214.619 166.094 203.446 177.267 189.663 177.267 175.88 177.267 164.707 166.094 164.707 152.311 164.707 138.528 175.88 127.355 189.663 127.355 203.446 127.355 214.619 138.528 214.619 152.311Z" fill="#7AC1A4" transform="matrix(1 0 0 1.0029 2871 1107.4)"/><path d="M214.978 151.985C214.978 165.768 203.805 176.941 190.022 176.941 176.239 176.941 165.066 165.768 165.066 151.985 165.066 138.202 176.239 127.029 190.022 127.029 203.805 127.029 214.978 138.202 214.978 151.985Z" fill="#7BC1A5" transform="matrix(1 0 0 1.0029 2871 1107.4)"/><path d="M215.304 151.659C215.304 165.441 204.131 176.614 190.348 176.614 176.565 176.614 165.392 165.441 165.392 151.659 165.392 137.876 176.565 126.703 190.348 126.703 204.131 126.703 215.304 137.876 215.304 151.659Z" fill="#7CC2A5" transform="matrix(1 0 0 1.0029 2871 1107.4)"/><path d="M215.63 151.332C215.63 165.115 204.457 176.288 190.674 176.288 176.892 176.288 165.719 165.115 165.719 151.332 165.719 137.55 176.892 126.377 190.674 126.377 204.457 126.377 215.63 137.55 215.63 151.332Z" fill="#7DC2A6" transform="matrix(1 0 0 1.0029 2871 1107.4)"/><path d="M215.989 151.006C215.989 164.789 204.816 175.962 191.033 175.962 177.251 175.962 166.078 164.789 166.078 151.006 166.078 137.224 177.251 126.051 191.033 126.051 204.816 126.051 215.989 137.224 215.989 151.006Z" fill="#7EC3A6" transform="matrix(1 0 0 1.0029 2871 1107.4)"/><path d="M216.315 150.68C216.315 164.463 205.142 175.636 191.359 175.636 177.577 175.636 166.404 164.463 166.404 150.68 166.404 136.897 177.577 125.724 191.359 125.724 205.142 125.724 216.315 136.897 216.315 150.68Z" fill="#7EC3A7" transform="matrix(1 0 0 1.0029 2871 1107.4)"/><path d="M216.641 150.354C216.641 164.136 205.468 175.309 191.686 175.309 177.903 175.309 166.73 164.136 166.73 150.354 166.73 136.571 177.903 125.398 191.686 125.398 205.468 125.398 216.641 136.571 216.641 150.354Z" fill="#7FC4A7" transform="matrix(1 0 0 1.0029 2871 1107.4)"/><path d="M216.968 150.028C216.968 163.81 205.794 174.983 192.012 174.983 178.229 174.983 167.056 163.81 167.056 150.028 167.056 136.245 178.229 125.072 192.012 125.072 205.794 125.072 216.968 136.245 216.968 150.028Z" fill="#80C4A8" transform="matrix(1 0 0 1.0029 2871 1107.4)"/><path d="M217.326 149.701C217.326 163.484 206.153 174.657 192.371 174.657 178.588 174.657 167.415 163.484 167.415 149.701 167.415 135.919 178.588 124.746 192.371 124.746 206.153 124.746 217.326 135.919 217.326 149.701Z" fill="#81C4A8" transform="matrix(1 0 0 1.0029 2871 1107.4)"/><path d="M217.653 149.375C217.653 163.158 206.48 174.331 192.697 174.331 178.914 174.331 167.741 163.158 167.741 149.375 167.741 135.593 178.914 124.42 192.697 124.42 206.48 124.42 217.653 135.593 217.653 149.375Z" fill="#82C5A9" transform="matrix(1 0 0 1.0029 2871 1107.4)"/><path d="M217.979 149.049C217.979 162.832 206.806 174.005 193.023 174.005 179.24 174.005 168.067 162.832 168.067 149.049 168.067 135.266 179.24 124.093 193.023 124.093 206.806 124.093 217.979 135.266 217.979 149.049Z" fill="#83C5A9" transform="matrix(1 0 0 1.0029 2871 1107.4)"/><path d="M218.338 148.723C218.338 162.505 207.165 173.678 193.382 173.678 179.599 173.678 168.426 162.505 168.426 148.723 168.426 134.94 179.599 123.767 193.382 123.767 207.165 123.767 218.338 134.94 218.338 148.723Z" fill="#84C6AA" transform="matrix(1 0 0 1.0029 2871 1107.4)"/><path d="M218.664 148.397C218.664 162.179 207.491 173.352 193.708 173.352 179.926 173.352 168.753 162.179 168.753 148.397 168.753 134.614 179.926 123.441 193.708 123.441 207.491 123.441 218.664 134.614 218.664 148.397Z" fill="#84C6AA" transform="matrix(1 0 0 1.0029 2871 1107.4)"/><path d="M218.99 148.07C218.99 161.853 207.817 173.026 194.034 173.026 180.252 173.026 169.079 161.853 169.079 148.07 169.079 134.288 180.252 123.115 194.034 123.115 207.817 123.115 218.99 134.288 218.99 148.07Z" fill="#85C6AB" transform="matrix(1 0 0 1.0029 2871 1107.4)"/><path d="M219.316 147.711C219.316 161.494 208.143 172.667 194.361 172.667 180.578 172.667 169.405 161.494 169.405 147.711 169.405 133.929 180.578 122.756 194.361 122.756 208.143 122.756 219.316 133.929 219.316 147.711Z" fill="#86C7AB" transform="matrix(1 0 0 1.0029 2871 1107.4)"/><path d="M219.675 147.385C219.675 161.168 208.502 172.341 194.719 172.341 180.937 172.341 169.764 161.168 169.764 147.385 169.764 133.603 180.937 122.43 194.719 122.43 208.502 122.43 219.675 133.603 219.675 147.385Z" fill="#87C7AC" transform="matrix(1 0 0 1.0029 2871 1107.4)"/><path d="M220.001 147.059C220.001 160.842 208.828 172.015 195.046 172.015 181.263 172.015 170.09 160.842 170.09 147.059 170.09 133.276 181.263 122.103 195.046 122.103 208.828 122.103 220.001 133.276 220.001 147.059Z" fill="#88C8AC" transform="matrix(1 0 0 1.0029 2871 1107.4)"/><path d="M220.328 146.733C220.328 160.515 209.155 171.688 195.372 171.688 181.589 171.688 170.416 160.515 170.416 146.733 170.416 132.95 181.589 121.777 195.372 121.777 209.155 121.777 220.328 132.95 220.328 146.733Z" fill="#89C8AD" transform="matrix(1 0 0 1.0029 2871 1107.4)"/><path d="M220.686 146.407C220.686 160.189 209.513 171.362 195.731 171.362 181.948 171.362 170.775 160.189 170.775 146.407 170.775 132.624 181.948 121.451 195.731 121.451 209.513 121.451 220.686 132.624 220.686 146.407Z" fill="#8AC9AD" transform="matrix(1 0 0 1.0029 2871 1107.4)"/><path d="M221.013 146.08C221.013 159.863 209.84 171.036 196.057 171.036 182.274 171.036 171.101 159.863 171.101 146.08 171.101 132.298 182.274 121.125 196.057 121.125 209.84 121.125 221.013 132.298 221.013 146.08Z" fill="#8AC9AE" transform="matrix(1 0 0 1.0029 2871 1107.4)"/><path d="M221.339 145.754C221.339 159.537 210.166 170.71 196.383 170.71 182.601 170.71 171.427 159.537 171.427 145.754 171.427 131.972 182.601 120.798 196.383 120.798 210.166 120.798 221.339 131.972 221.339 145.754Z" fill="#8BC9AF" transform="matrix(1 0 0 1.0029 2871 1107.4)"/><path d="M221.665 145.428C221.665 159.211 210.492 170.384 196.709 170.384 182.927 170.384 171.754 159.211 171.754 145.428 171.754 131.645 182.927 120.472 196.709 120.472 210.492 120.472 221.665 131.645 221.665 145.428Z" fill="#8CCAAF" transform="matrix(1 0 0 1.0029 2871 1107.4)"/><path d="M222.024 145.102C222.024 158.884 210.851 170.057 197.068 170.057 183.286 170.057 172.113 158.884 172.113 145.102 172.113 131.319 183.286 120.146 197.068 120.146 210.851 120.146 222.024 131.319 222.024 145.102Z" fill="#8DCAB0" transform="matrix(1 0 0 1.0029 2871 1107.4)"/><path d="M222.35 144.775C222.35 158.558 211.177 169.731 197.394 169.731 183.612 169.731 172.439 158.558 172.439 144.775 172.439 130.993 183.612 119.82 197.394 119.82 211.177 119.82 222.35 130.993 222.35 144.775Z" fill="#8ECBB0" transform="matrix(1 0 0 1.0029 2871 1107.4)"/><path d="M222.676 144.449C222.676 158.232 211.503 169.405 197.721 169.405 183.938 169.405 172.765 158.232 172.765 144.449 172.765 130.667 183.938 119.494 197.721 119.494 211.503 119.494 222.676 130.667 222.676 144.449Z" fill="#8FCBB1" transform="matrix(1 0 0 1.0029 2871 1107.4)"/><path d="M223.035 144.123C223.035 157.906 211.862 169.079 198.08 169.079 184.297 169.079 173.124 157.906 173.124 144.123 173.124 130.34 184.297 119.167 198.08 119.167 211.862 119.167 223.035 130.34 223.035 144.123Z" fill="#90CBB1" transform="matrix(1 0 0 1.0029 2871 1107.4)"/><path d="M223.361 143.797C223.361 157.579 212.188 168.753 198.406 168.753 184.623 168.753 173.45 157.579 173.45 143.797 173.45 130.014 184.623 118.841 198.406 118.841 212.188 118.841 223.361 130.014 223.361 143.797Z" fill="#90CCB2" transform="matrix(1 0 0 1.0029 2871 1107.4)"/><path d="M223.688 143.471C223.688 157.253 212.515 168.426 198.732 168.426 184.949 168.426 173.776 157.253 173.776 143.471 173.776 129.688 184.949 118.515 198.732 118.515 212.515 118.515 223.688 129.688 223.688 143.471Z" fill="#91CCB2" transform="matrix(1 0 0 1.0029 2871 1107.4)"/><path d="M224.014 143.144C224.014 156.927 212.841 168.1 199.058 168.1 185.276 168.1 174.102 156.927 174.102 143.144 174.102 129.362 185.276 118.189 199.058 118.189 212.841 118.189 224.014 129.362 224.014 143.144Z" fill="#92CDB3" transform="matrix(1 0 0 1.0029 2871 1107.4)"/><path d="M224.373 142.818C224.373 156.601 213.2 167.774 199.417 167.774 185.634 167.774 174.461 156.601 174.461 142.818 174.461 129.036 185.634 117.863 199.417 117.863 213.2 117.863 224.373 129.036 224.373 142.818Z" fill="#93CDB3" transform="matrix(1 0 0 1.0029 2871 1107.4)"/><path d="M224.699 142.492C224.699 156.275 213.526 167.448 199.743 167.448 185.961 167.448 174.788 156.275 174.788 142.492 174.788 128.709 185.961 117.536 199.743 117.536 213.526 117.536 224.699 128.709 224.699 142.492Z" fill="#94CEB4" transform="matrix(1 0 0 1.0029 2871 1107.4)"/><path d="M225.025 142.166C225.025 155.948 213.852 167.121 200.069 167.121 186.287 167.121 175.114 155.948 175.114 142.166 175.114 128.383 186.287 117.21 200.069 117.21 213.852 117.21 225.025 128.383 225.025 142.166Z" fill="#95CEB4" transform="matrix(1 0 0 1.0029 2871 1107.4)"/><path d="M225.351 141.84C225.351 155.622 214.178 166.795 200.396 166.795 186.613 166.795 175.44 155.622 175.44 141.84 175.44 128.057 186.613 116.884 200.396 116.884 214.178 116.884 225.351 128.057 225.351 141.84Z" fill="#96CEB5" transform="matrix(1 0 0 1.0029 2871 1107.4)"/><path d="M225.71 141.513C225.71 155.296 214.537 166.469 200.754 166.469 186.972 166.469 175.799 155.296 175.799 141.513 175.799 127.731 186.972 116.558 200.754 116.558 214.537 116.558 225.71 127.731 225.71 141.513Z" fill="#96CFB5" transform="matrix(1 0 0 1.0029 2871 1107.4)"/><path d="M226.036 141.187C226.036 154.97 214.863 166.143 201.081 166.143 187.298 166.143 176.125 154.97 176.125 141.187 176.125 127.404 187.298 116.231 201.081 116.231 214.863 116.231 226.036 127.404 226.036 141.187Z" fill="#97CFB6" transform="matrix(1 0 0 1.0029 2871 1107.4)"/><path d="M226.363 140.828C226.363 154.611 215.19 165.784 201.407 165.784 187.624 165.784 176.451 154.611 176.451 140.828 176.451 127.046 187.624 115.873 201.407 115.873 215.19 115.873 226.363 127.046 226.363 140.828Z" fill="#98D0B7" transform="matrix(1 0 0 1.0029 2871 1107.4)"/><path d="M226.721 140.502C226.721 154.285 215.548 165.458 201.766 165.458 187.983 165.458 176.81 154.285 176.81 140.502 176.81 126.719 187.983 115.546 201.766 115.546 215.548 115.546 226.721 126.719 226.721 140.502Z" fill="#99D0B7" transform="matrix(1 0 0 1.0029 2871 1107.4)"/><path d="M227.048 140.176C227.048 153.958 215.875 165.132 202.092 165.132 188.309 165.132 177.136 153.958 177.136 140.176 177.136 126.393 188.309 115.22 202.092 115.22 215.875 115.22 227.048 126.393 227.048 140.176Z" fill="#9AD0B8" transform="matrix(1 0 0 1.0029 2871 1107.4)"/><path d="M227.374 139.85C227.374 153.632 216.201 164.805 202.418 164.805 188.636 164.805 177.463 153.632 177.463 139.85 177.463 126.067 188.636 114.894 202.418 114.894 216.201 114.894 227.374 126.067 227.374 139.85Z" fill="#9BD1B8" transform="matrix(1 0 0 1.0029 2871 1107.4)"/><path d="M227.7 139.523C227.7 153.306 216.527 164.479 202.744 164.479 188.962 164.479 177.789 153.306 177.789 139.523 177.789 125.741 188.962 114.568 202.744 114.568 216.527 114.568 227.7 125.741 227.7 139.523Z" fill="#9CD1B9" transform="matrix(1 0 0 1.0029 2871 1107.4)"/><path d="M228.059 139.197C228.059 152.98 216.886 164.153 203.103 164.153 189.321 164.153 178.148 152.98 178.148 139.197 178.148 125.415 189.321 114.241 203.103 114.241 216.886 114.241 228.059 125.415 228.059 139.197Z" fill="#9DD2B9" transform="matrix(1 0 0 1.0029 2871 1107.4)"/><path d="M228.385 138.871C228.385 152.654 217.212 163.827 203.429 163.827 189.647 163.827 178.474 152.654 178.474 138.871 178.474 125.088 189.647 113.915 203.429 113.915 217.212 113.915 228.385 125.088 228.385 138.871Z" fill="#9DD2BA" transform="matrix(1 0 0 1.0029 2871 1107.4)"/><path d="M228.711 138.545C228.711 152.327 217.538 163.5 203.756 163.5 189.973 163.5 178.8 152.327 178.8 138.545 178.8 124.762 189.973 113.589 203.756 113.589 217.538 113.589 228.711 124.762 228.711 138.545Z" fill="#9ED3BA" transform="matrix(1 0 0 1.0029 2871 1107.4)"/><path d="M229.07 138.219C229.07 152.001 217.897 163.174 204.115 163.174 190.332 163.174 179.159 152.001 179.159 138.219 179.159 124.436 190.332 113.263 204.115 113.263 217.897 113.263 229.07 124.436 229.07 138.219Z" fill="#9FD3BB" transform="matrix(1 0 0 1.0029 2871 1107.4)"/><path d="M229.396 137.892C229.396 151.675 218.223 162.848 204.441 162.848 190.658 162.848 179.485 151.675 179.485 137.892 179.485 124.11 190.658 112.937 204.441 112.937 218.223 112.937 229.396 124.11 229.396 137.892Z" fill="#A0D3BB" transform="matrix(1 0 0 1.0029 2871 1107.4)"/><path d="M229.723 137.566C229.723 151.349 218.55 162.522 204.767 162.522 190.984 162.522 179.811 151.349 179.811 137.566 179.811 123.783 190.984 112.61 204.767 112.61 218.55 112.61 229.723 123.783 229.723 137.566Z" fill="#A1D4BC" transform="matrix(1 0 0 1.0029 2871 1107.4)"/><path d="M230.049 137.24C230.049 151.023 218.876 162.196 205.093 162.196 191.311 162.196 180.137 151.023 180.137 137.24 180.137 123.457 191.311 112.284 205.093 112.284 218.876 112.284 230.049 123.457 230.049 137.24Z" fill="#A2D4BD" transform="matrix(1 0 0 1.0029 2871 1107.4)"/><path d="M230.408 136.914C230.408 150.696 219.235 161.869 205.452 161.869 191.669 161.869 180.496 150.696 180.496 136.914 180.496 123.131 191.669 111.958 205.452 111.958 219.235 111.958 230.408 123.131 230.408 136.914Z" fill="#A3D5BD" transform="matrix(1 0 0 1.0029 2871 1107.4)"/><path d="M230.734 136.587C230.734 150.37 219.561 161.543 205.778 161.543 191.996 161.543 180.823 150.37 180.823 136.587 180.823 122.805 191.996 111.632 205.778 111.632 219.561 111.632 230.734 122.805 230.734 136.587Z" fill="#A4D5BE" transform="matrix(1 0 0 1.0029 2871 1107.4)"/><path d="M231.06 136.261C231.06 150.044 219.887 161.217 206.104 161.217 192.322 161.217 181.149 150.044 181.149 136.261 181.149 122.479 192.322 111.306 206.104 111.306 219.887 111.306 231.06 122.479 231.06 136.261Z" fill="#A5D6BE" transform="matrix(1 0 0 1.0029 2871 1107.4)"/><path d="M231.419 135.935C231.419 149.718 220.246 160.891 206.463 160.891 192.681 160.891 181.508 149.718 181.508 135.935 181.508 122.152 192.681 110.979 206.463 110.979 220.246 110.979 231.419 122.152 231.419 135.935Z" fill="#A5D6BF" transform="matrix(1 0 0 1.0029 2871 1107.4)"/><path d="M231.745 135.609C231.745 149.391 220.572 160.564 206.79 160.564 193.007 160.564 181.834 149.391 181.834 135.609 181.834 121.826 193.007 110.653 206.79 110.653 220.572 110.653 231.745 121.826 231.745 135.609Z" fill="#A6D6BF" transform="matrix(1 0 0 1.0029 2871 1107.4)"/><path d="M232.071 135.283C232.071 149.065 220.898 160.238 207.116 160.238 193.333 160.238 182.16 149.065 182.16 135.283 182.16 121.5 193.333 110.327 207.116 110.327 220.898 110.327 232.071 121.5 232.071 135.283Z" fill="#A7D7C0" transform="matrix(1 0 0 1.0029 2871 1107.4)"/><path d="M232.398 134.956C232.398 148.739 221.225 159.912 207.442 159.912 193.659 159.912 182.486 148.739 182.486 134.956 182.486 121.174 193.659 110.001 207.442 110.001 221.225 110.001 232.398 121.174 232.398 134.956Z" fill="#A8D7C1" transform="matrix(1 0 0 1.0029 2871 1107.4)"/><path d="M232.756 134.63C232.756 148.413 221.583 159.586 207.801 159.586 194.018 159.586 182.845 148.413 182.845 134.63 182.845 120.847 194.018 109.674 207.801 109.674 221.583 109.674 232.756 120.847 232.756 134.63Z" fill="#A9D8C1" transform="matrix(1 0 0 1.0029 2871 1107.4)"/><path d="M233.083 134.304C233.083 148.087 221.91 159.26 208.127 159.26 194.344 159.26 183.171 148.087 183.171 134.304 183.171 120.521 194.344 109.348 208.127 109.348 221.91 109.348 233.083 120.521 233.083 134.304Z" fill="#AAD8C2" transform="matrix(1 0 0 1.0029 2871 1107.4)"/><path d="M233.409 133.945C233.409 147.728 222.236 158.901 208.453 158.901 194.671 158.901 183.498 147.728 183.498 133.945 183.498 120.162 194.671 108.989 208.453 108.989 222.236 108.989 233.409 120.162 233.409 133.945Z" fill="#ABD8C2" transform="matrix(1 0 0 1.0029 2871 1107.4)"/><path d="M233.768 133.619C233.768 147.401 222.595 158.575 208.812 158.575 195.029 158.575 183.856 147.401 183.856 133.619 183.856 119.836 195.029 108.663 208.812 108.663 222.595 108.663 233.768 119.836 233.768 133.619Z" fill="#ACD9C3" transform="matrix(1 0 0 1.0029 2871 1107.4)"/><path d="M234.094 133.293C234.094 147.075 222.921 158.248 209.138 158.248 195.356 158.248 184.183 147.075 184.183 133.293 184.183 119.51 195.356 108.337 209.138 108.337 222.921 108.337 234.094 119.51 234.094 133.293Z" fill="#ACD9C3" transform="matrix(1 0 0 1.0029 2871 1107.4)"/><path d="M234.42 132.966C234.42 146.749 223.247 157.922 209.465 157.922 195.682 157.922 184.509 146.749 184.509 132.966 184.509 119.184 195.682 108.011 209.465 108.011 223.247 108.011 234.42 119.184 234.42 132.966Z" fill="#ADDAC4" transform="matrix(1 0 0 1.0029 2871 1107.4)"/><path d="M234.746 132.64C234.746 146.423 223.573 157.596 209.791 157.596 196.008 157.596 184.835 146.423 184.835 132.64 184.835 118.858 196.008 107.685 209.791 107.685 223.573 107.685 234.746 118.858 234.746 132.64Z" fill="#AEDAC5" transform="matrix(1 0 0 1.0029 2871 1107.4)"/><path d="M235.105 132.314C235.105 146.097 223.932 157.27 210.15 157.27 196.367 157.27 185.194 146.097 185.194 132.314 185.194 118.531 196.367 107.358 210.15 107.358 223.932 107.358 235.105 118.531 235.105 132.314Z" fill="#AFDBC5" transform="matrix(1 0 0 1.0029 2871 1107.4)"/><path d="M235.431 131.988C235.431 145.77 224.258 156.943 210.476 156.943 196.693 156.943 185.52 145.77 185.52 131.988 185.52 118.205 196.693 107.032 210.476 107.032 224.258 107.032 235.431 118.205 235.431 131.988Z" fill="#B0DBC6" transform="matrix(1 0 0 1.0029 2871 1107.4)"/><path d="M235.758 131.662C235.758 145.444 224.585 156.617 210.802 156.617 197.019 156.617 185.846 145.444 185.846 131.662 185.846 117.879 197.019 106.706 210.802 106.706 224.585 106.706 235.758 117.879 235.758 131.662Z" fill="#B1DBC6" transform="matrix(1 0 0 1.0029 2871 1107.4)"/><path d="M236.117 131.335C236.117 145.118 224.943 156.291 211.161 156.291 197.378 156.291 186.205 145.118 186.205 131.335 186.205 117.553 197.378 106.38 211.161 106.38 224.943 106.38 236.117 117.553 236.117 131.335Z" fill="#B2DCC7" transform="matrix(1 0 0 1.0029 2871 1107.4)"/><path d="M236.443 131.009C236.443 144.792 225.27 155.965 211.487 155.965 197.704 155.965 186.531 144.792 186.531 131.009 186.531 117.226 197.704 106.053 211.487 106.053 225.27 106.053 236.443 117.226 236.443 131.009Z" fill="#B3DCC8" transform="matrix(1 0 0 1.0029 2871 1107.4)"/><path d="M236.769 130.683C236.769 144.466 225.596 155.639 211.813 155.639 198.031 155.639 186.858 144.466 186.858 130.683 186.858 116.9 198.031 105.727 211.813 105.727 225.596 105.727 236.769 116.9 236.769 130.683Z" fill="#B4DDC8" transform="matrix(1 0 0 1.0029 2871 1107.4)"/><path d="M237.095 130.357C237.095 144.139 225.922 155.312 212.139 155.312 198.357 155.312 187.184 144.139 187.184 130.357 187.184 116.574 198.357 105.401 212.139 105.401 225.922 105.401 237.095 116.574 237.095 130.357Z" fill="#B5DDC9" transform="matrix(1 0 0 1.0029 2871 1107.4)"/><path d="M237.454 130.03C237.454 143.813 226.281 154.986 212.498 154.986 198.716 154.986 187.543 143.813 187.543 130.03 187.543 116.248 198.716 105.075 212.498 105.075 226.281 105.075 237.454 116.248 237.454 130.03Z" fill="#B5DDC9" transform="matrix(1 0 0 1.0029 2871 1107.4)"/><path d="M237.78 129.704C237.78 143.487 226.607 154.66 212.825 154.66 199.042 154.66 187.869 143.487 187.869 129.704 187.869 115.922 199.042 104.749 212.825 104.749 226.607 104.749 237.78 115.922 237.78 129.704Z" fill="#B6DECA" transform="matrix(1 0 0 1.0029 2871 1107.4)"/><path d="M238.106 129.378C238.106 143.161 226.933 154.334 213.151 154.334 199.368 154.334 188.195 143.161 188.195 129.378 188.195 115.595 199.368 104.422 213.151 104.422 226.933 104.422 238.106 115.595 238.106 129.378Z" fill="#B7DECB" transform="matrix(1 0 0 1.0029 2871 1107.4)"/><path d="M238.465 129.052C238.465 142.834 227.292 154.007 213.51 154.007 199.727 154.007 188.554 142.834 188.554 129.052 188.554 115.269 199.727 104.096 213.51 104.096 227.292 104.096 238.465 115.269 238.465 129.052Z" fill="#B8DFCB" transform="matrix(1 0 0 1.0029 2871 1107.4)"/><path d="M238.791 128.726C238.791 142.508 227.618 153.681 213.836 153.681 200.053 153.681 188.88 142.508 188.88 128.726 188.88 114.943 200.053 103.77 213.836 103.77 227.618 103.77 238.791 114.943 238.791 128.726Z" fill="#B9DFCC" transform="matrix(1 0 0 1.0029 2871 1107.4)"/><path d="M239.118 128.399C239.118 142.182 227.945 153.355 214.162 153.355 200.379 153.355 189.206 142.182 189.206 128.399 189.206 114.617 200.379 103.444 214.162 103.444 227.945 103.444 239.118 114.617 239.118 128.399Z" fill="#BAE0CC" transform="matrix(1 0 0 1.0029 2871 1107.4)"/><path d="M239.444 128.073C239.444 141.856 228.271 153.029 214.488 153.029 200.706 153.029 189.533 141.856 189.533 128.073 189.533 114.29 200.706 103.117 214.488 103.117 228.271 103.117 239.444 114.29 239.444 128.073Z" fill="#BBE0CD" transform="matrix(1 0 0 1.0029 2871 1107.4)"/><path d="M239.803 127.747C239.803 141.53 228.63 152.703 214.847 152.703 201.064 152.703 189.891 141.53 189.891 127.747 189.891 113.964 201.064 102.791 214.847 102.791 228.63 102.791 239.803 113.964 239.803 127.747Z" fill="#BCE0CE" transform="matrix(1 0 0 1.0029 2871 1107.4)"/><path d="M240.129 127.421C240.129 141.203 228.956 152.376 215.173 152.376 201.391 152.376 190.218 141.203 190.218 127.421 190.218 113.638 201.391 102.465 215.173 102.465 228.956 102.465 240.129 113.638 240.129 127.421Z" fill="#BDE1CE" transform="matrix(1 0 0 1.0029 2871 1107.4)"/><path d="M240.455 127.094C240.455 140.877 229.282 152.05 215.5 152.05 201.717 152.05 190.544 140.877 190.544 127.094 190.544 113.312 201.717 102.139 215.5 102.139 229.282 102.139 240.455 113.312 240.455 127.094Z" fill="#BDE1CF" transform="matrix(1 0 0 1.0029 2871 1107.4)"/><path d="M240.814 126.736C240.814 140.518 229.641 151.691 215.858 151.691 202.076 151.691 190.903 140.518 190.903 126.736 190.903 112.953 202.076 101.78 215.858 101.78 229.641 101.78 240.814 112.953 240.814 126.736Z" fill="#BEE2CF" transform="matrix(1 0 0 1.0029 2871 1107.4)"/><path d="M241.14 126.409C241.14 140.192 229.967 151.365 216.185 151.365 202.402 151.365 191.229 140.192 191.229 126.409 191.229 112.627 202.402 101.454 216.185 101.454 229.967 101.454 241.14 112.627 241.14 126.409Z" fill="#BFE2D0" transform="matrix(1 0 0 1.0029 2871 1107.4)"/><path d="M241.466 126.083C241.466 139.866 230.293 151.039 216.511 151.039 202.728 151.039 191.555 139.866 191.555 126.083 191.555 112.301 202.728 101.128 216.511 101.128 230.293 101.128 241.466 112.301 241.466 126.083Z" fill="#C0E2D1" transform="matrix(1 0 0 1.0029 2871 1107.4)"/><path d="M241.793 125.757C241.793 139.54 230.62 150.713 216.837 150.713 203.054 150.713 191.881 139.54 191.881 125.757 191.881 111.974 203.054 100.801 216.837 100.801 230.62 100.801 241.793 111.974 241.793 125.757Z" fill="#C1E3D1" transform="matrix(1 0 0 1.0029 2871 1107.4)"/><path d="M242.152 125.431C242.152 139.213 230.979 150.386 217.196 150.386 203.413 150.386 192.24 139.213 192.24 125.431 192.24 111.648 203.413 100.475 217.196 100.475 230.979 100.475 242.152 111.648 242.152 125.431Z" fill="#C2E3D2" transform="matrix(1 0 0 1.0029 2871 1107.4)"/><path d="M242.478 125.105C242.478 138.887 231.305 150.06 217.522 150.06 203.739 150.06 192.566 138.887 192.566 125.105 192.566 111.322 203.739 100.149 217.522 100.149 231.305 100.149 242.478 111.322 242.478 125.105Z" fill="#C3E4D3" transform="matrix(1 0 0 1.0029 2871 1107.4)"/><path d="M242.804 124.778C242.804 138.561 231.631 149.734 217.848 149.734 204.066 149.734 192.893 138.561 192.893 124.778 192.893 110.996 204.066 99.8227 217.848 99.8227 231.631 99.8227 242.804 110.996 242.804 124.778Z" fill="#C4E4D3" transform="matrix(1 0 0 1.0029 2871 1107.4)"/><path d="M243.13 124.452C243.13 138.235 231.957 149.408 218.175 149.408 204.392 149.408 193.219 138.235 193.219 124.452 193.219 110.669 204.392 99.4965 218.175 99.4965 231.957 99.4965 243.13 110.669 243.13 124.452Z" fill="#C5E5D4" transform="matrix(1 0 0 1.0029 2871 1107.4)"/><path d="M243.489 124.126C243.489 137.909 232.316 149.082 218.533 149.082 204.751 149.082 193.578 137.909 193.578 124.126 193.578 110.343 204.751 99.1702 218.533 99.1702 232.316 99.1702 243.489 110.343 243.489 124.126Z" fill="#C6E5D4" transform="matrix(1 0 0 1.0029 2871 1107.4)"/><path d="M243.815 123.8C243.815 137.582 232.642 148.755 218.86 148.755 205.077 148.755 193.904 137.582 193.904 123.8 193.904 110.017 205.077 98.844 218.86 98.844 232.642 98.844 243.815 110.017 243.815 123.8Z" fill="#C6E5D5" transform="matrix(1 0 0 1.0029 2871 1107.4)"/><path d="M244.141 123.473C244.141 137.256 232.968 148.429 219.186 148.429 205.403 148.429 194.23 137.256 194.23 123.473 194.23 109.691 205.403 98.5178 219.186 98.5178 232.968 98.5178 244.141 109.691 244.141 123.473Z" fill="#C7E6D6" transform="matrix(1 0 0 1.0029 2871 1107.4)"/><path d="M244.5 123.147C244.5 136.93 233.327 148.103 219.545 148.103 205.762 148.103 194.589 136.93 194.589 123.147 194.589 109.365 205.762 98.1916 219.545 98.1916 233.327 98.1916 244.5 109.365 244.5 123.147Z" fill="#C8E6D6" transform="matrix(1 0 0 1.0029 2871 1107.4)"/><path d="M244.827 122.821C244.827 136.604 233.654 147.777 219.871 147.777 206.088 147.777 194.915 136.604 194.915 122.821 194.915 109.038 206.088 97.8654 219.871 97.8654 233.653 97.8654 244.827 109.038 244.827 122.821Z" fill="#C9E7D7" transform="matrix(1 0 0 1.0029 2871 1107.4)"/><path d="M245.153 122.495C245.153 136.277 233.98 147.45 220.197 147.45 206.414 147.45 195.241 136.277 195.241 122.495 195.241 108.712 206.414 97.5391 220.197 97.5391 233.98 97.5391 245.153 108.712 245.153 122.495Z" fill="#CAE7D8" transform="matrix(1 0 0 1.0029 2871 1107.4)"/><path d="M245.479 122.169C245.479 135.951 234.306 147.124 220.523 147.124 206.741 147.124 195.568 135.951 195.568 122.169 195.568 108.386 206.741 97.2129 220.523 97.2129 234.306 97.2129 245.479 108.386 245.479 122.169Z" fill="#CBE8D8" transform="matrix(1 0 0 1.0029 2871 1107.4)"/><path d="M245.838 121.842C245.838 135.625 234.665 146.798 220.882 146.798 207.099 146.798 195.926 135.625 195.926 121.842 195.926 108.06 207.099 96.8867 220.882 96.8867 234.665 96.8867 245.838 108.06 245.838 121.842Z" fill="#CCE8D9" transform="matrix(1 0 0 1.0029 2871 1107.4)"/><path d="M246.164 121.516C246.164 135.299 234.991 146.472 221.208 146.472 207.426 146.472 196.253 135.299 196.253 121.516 196.253 107.734 207.426 96.5605 221.208 96.5605 234.991 96.5605 246.164 107.734 246.164 121.516Z" fill="#CDE8DA" transform="matrix(1 0 0 1.0029 2871 1107.4)"/><path d="M246.49 121.19C246.49 134.973 235.317 146.146 221.535 146.146 207.752 146.146 196.579 134.973 196.579 121.19 196.579 107.407 207.752 96.2343 221.535 96.2343 235.317 96.2343 246.49 107.407 246.49 121.19Z" fill="#CEE9DA" transform="matrix(1 0 0 1.0029 2871 1107.4)"/><path d="M246.849 120.864C246.849 134.646 235.676 145.819 221.893 145.819 208.111 145.819 196.938 134.646 196.938 120.864 196.938 107.081 208.111 95.9081 221.893 95.9081 235.676 95.9081 246.849 107.081 246.849 120.864Z" fill="#CFE9DB" transform="matrix(1 0 0 1.0029 2871 1107.4)"/><path d="M247.175 120.538C247.175 134.32 236.002 145.493 222.22 145.493 208.437 145.493 197.264 134.32 197.264 120.538 197.264 106.755 208.437 95.5818 222.22 95.5818 236.002 95.5818 247.175 106.755 247.175 120.538Z" fill="#D0EADC" transform="matrix(1 0 0 1.0029 2871 1107.4)"/><path d="M247.502 120.211C247.502 133.994 236.329 145.167 222.546 145.167 208.763 145.167 197.59 133.994 197.59 120.211 197.59 106.429 208.763 95.2556 222.546 95.2556 236.328 95.2556 247.502 106.429 247.502 120.211Z" fill="#D0EADC" transform="matrix(1 0 0 1.0029 2871 1107.4)"/><path d="M247.828 119.852C247.828 133.635 236.655 144.808 222.872 144.808 209.089 144.808 197.916 133.635 197.916 119.852 197.916 106.07 209.089 94.8968 222.872 94.8968 236.655 94.8968 247.828 106.07 247.828 119.852Z" fill="#D1EADD" transform="matrix(1 0 0 1.0029 2871 1107.4)"/><path d="M248.187 119.526C248.187 133.309 237.014 144.482 223.231 144.482 209.448 144.482 198.275 133.309 198.275 119.526 198.275 105.744 209.448 94.5706 223.231 94.5706 237.014 94.5706 248.187 105.744 248.187 119.526Z" fill="#D2EBDD" transform="matrix(1 0 0 1.0029 2871 1107.4)"/><path d="M248.513 119.2C248.513 132.983 237.34 144.156 223.557 144.156 209.774 144.156 198.601 132.983 198.601 119.2 198.601 105.417 209.774 94.2444 223.557 94.2444 237.34 94.2444 248.513 105.417 248.513 119.2Z" fill="#D3EBDE" transform="matrix(1 0 0 1.0029 2871 1107.4)"/><path d="M248.839 118.874C248.839 132.656 237.666 143.829 223.883 143.829 210.101 143.829 198.928 132.656 198.928 118.874 198.928 105.091 210.101 93.9181 223.883 93.9181 237.666 93.9181 248.839 105.091 248.839 118.874Z" fill="#D4ECDF" transform="matrix(1 0 0 1.0029 2871 1107.4)"/><path d="M249.198 118.548C249.198 132.33 238.025 143.503 224.242 143.503 210.46 143.503 199.286 132.33 199.286 118.548 199.286 104.765 210.46 93.5919 224.242 93.5919 238.025 93.5919 249.198 104.765 249.198 118.548Z" fill="#D5ECDF" transform="matrix(1 0 0 1.0029 2871 1107.4)"/><path d="M249.524 118.221C249.524 132.004 238.351 143.177 224.568 143.177 210.786 143.177 199.613 132.004 199.613 118.221 199.613 104.439 210.786 93.2657 224.568 93.2657 238.351 93.2657 249.524 104.439 249.524 118.221Z" fill="#D6EDE0" transform="matrix(1 0 0 1.0029 2871 1107.4)"/><path d="M249.85 117.895C249.85 131.678 238.677 142.851 224.895 142.851 211.112 142.851 199.939 131.678 199.939 117.895 199.939 104.113 211.112 92.9395 224.895 92.9395 238.677 92.9395 249.85 104.113 249.85 117.895Z" fill="#D7EDE1" transform="matrix(1 0 0 1.0029 2871 1107.4)"/><path d="M250.177 117.569C250.177 131.352 239.003 142.525 225.221 142.525 211.438 142.525 200.265 131.352 200.265 117.569 200.265 103.786 211.438 92.6133 225.221 92.6133 239.003 92.6133 250.177 103.786 250.177 117.569Z" fill="#D8EDE1" transform="matrix(1 0 0 1.0029 2871 1107.4)"/><path d="M250.535 117.243C250.535 131.025 239.362 142.198 225.58 142.198 211.797 142.198 200.624 131.025 200.624 117.243 200.624 103.46 211.797 92.287 225.58 92.287 239.362 92.287 250.535 103.46 250.535 117.243Z" fill="#D9EEE2" transform="matrix(1 0 0 1.0029 2871 1107.4)"/><path d="M250.862 116.916C250.862 130.699 239.689 141.872 225.906 141.872 212.123 141.872 200.95 130.699 200.95 116.916 200.95 103.134 212.123 91.9608 225.906 91.9608 239.689 91.9608 250.862 103.134 250.862 116.916Z" fill="#DAEEE3" transform="matrix(1 0 0 1.0029 2871 1107.4)"/><path d="M251.188 116.59C251.188 130.373 240.015 141.546 226.232 141.546 212.449 141.546 201.276 130.373 201.276 116.59 201.276 102.808 212.449 91.6346 226.232 91.6346 240.015 91.6346 251.188 102.808 251.188 116.59Z" fill="#DBEFE3" transform="matrix(1 0 0 1.0029 2871 1107.4)"/><path d="M251.547 116.264C251.547 130.047 240.374 141.22 226.591 141.22 212.808 141.22 201.635 130.047 201.635 116.264 201.635 102.481 212.808 91.3084 226.591 91.3084 240.374 91.3084 251.547 102.481 251.547 116.264Z" fill="#DCEFE4" transform="matrix(1 0 0 1.0029 2871 1107.4)"/><path d="M251.873 115.938C251.873 129.72 240.7 140.894 226.917 140.894 213.135 140.894 201.961 129.72 201.961 115.938 201.961 102.155 213.135 90.9822 226.917 90.9822 240.7 90.9822 251.873 102.155 251.873 115.938Z" fill="#DCEFE5" transform="matrix(1 0 0 1.0029 2871 1107.4)"/><path d="M252.199 115.612C252.199 129.394 241.026 140.567 227.243 140.567 213.461 140.567 202.288 129.394 202.288 115.612 202.288 101.829 213.461 90.6559 227.243 90.6559 241.026 90.6559 252.199 101.829 252.199 115.612Z" fill="#DDF0E5" transform="matrix(1 0 0 1.0029 2871 1107.4)"/><path d="M252.525 115.285C252.525 129.068 241.352 140.241 227.57 140.241 213.787 140.241 202.614 129.068 202.614 115.285 202.614 101.503 213.787 90.3297 227.57 90.3297 241.352 90.3297 252.525 101.503 252.525 115.285Z" fill="#DEF0E6" transform="matrix(1 0 0 1.0029 2871 1107.4)"/><path d="M252.884 114.959C252.884 128.742 241.711 139.915 227.928 139.915 214.146 139.915 202.973 128.742 202.973 114.959 202.973 101.177 214.146 90.0035 227.928 90.0035 241.711 90.0035 252.884 101.177 252.884 114.959Z" fill="#DFF1E7" transform="matrix(1 0 0 1.0029 2871 1107.4)"/><path d="M253.21 114.633C253.21 128.416 242.037 139.589 228.255 139.589 214.472 139.589 203.299 128.416 203.299 114.633 203.299 100.85 214.472 89.6773 228.255 89.6773 242.037 89.6773 253.21 100.85 253.21 114.633Z" fill="#E0F1E7" transform="matrix(1 0 0 1.0029 2871 1107.4)"/><path d="M253.537 114.307C253.537 128.089 242.364 139.262 228.581 139.262 214.798 139.262 203.625 128.089 203.625 114.307 203.625 100.524 214.798 89.3511 228.581 89.3511 242.363 89.3511 253.537 100.524 253.537 114.307Z" fill="#E1F2E8" transform="matrix(1 0 0 1.0029 2871 1107.4)"/><path d="M253.895 113.981C253.895 127.763 242.722 138.936 228.94 138.936 215.157 138.936 203.984 127.763 203.984 113.981 203.984 100.198 215.157 89.0249 228.94 89.0249 242.722 89.0249 253.895 100.198 253.895 113.981Z" fill="#E2F2E9" transform="matrix(1 0 0 1.0029 2871 1107.4)"/><path d="M254.222 113.654C254.222 127.437 243.049 138.61 229.266 138.61 215.483 138.61 204.31 127.437 204.31 113.654 204.31 99.8717 215.483 88.6986 229.266 88.6986 243.049 88.6986 254.222 99.8717 254.222 113.654Z" fill="#E3F2E9" transform="matrix(1 0 0 1.0029 2871 1107.4)"/><path d="M254.548 113.328C254.548 127.111 243.375 138.284 229.592 138.284 215.81 138.284 204.636 127.111 204.636 113.328 204.636 99.5455 215.809 88.3724 229.592 88.3724 243.375 88.3724 254.548 99.5455 254.548 113.328Z" fill="#E4F3EA" transform="matrix(1 0 0 1.0029 2871 1107.4)"/><path d="M254.874 112.969C254.874 126.752 243.701 137.925 229.918 137.925 216.136 137.925 204.963 126.752 204.963 112.969 204.963 99.1866 216.136 88.0136 229.918 88.0136 243.701 88.0136 254.874 99.1866 254.874 112.969Z" fill="#E5F3EB" transform="matrix(1 0 0 1.0029 2871 1107.4)"/><path d="M255.233 112.643C255.233 126.426 244.06 137.599 230.277 137.599 216.495 137.599 205.322 126.426 205.322 112.643 205.322 98.8604 216.495 87.6874 230.277 87.6874 244.06 87.6874 255.233 98.8604 255.233 112.643Z" fill="#E6F4EC" transform="matrix(1 0 0 1.0029 2871 1107.4)"/><path d="M255.559 112.317C255.559 126.099 244.386 137.272 230.603 137.272 216.821 137.272 205.648 126.099 205.648 112.317 205.648 98.5342 216.821 87.3612 230.603 87.3612 244.386 87.3612 255.559 98.5342 255.559 112.317Z" fill="#E7F4EC" transform="matrix(1 0 0 1.0029 2871 1107.4)"/><path d="M255.885 111.991C255.885 125.773 244.712 136.946 230.93 136.946 217.147 136.946 205.974 125.773 205.974 111.991 205.974 98.208 217.147 87.0349 230.93 87.0349 244.712 87.0349 255.885 98.208 255.885 111.991Z" fill="#E8F5ED" transform="matrix(1 0 0 1.0029 2871 1107.4)"/><path d="M256.244 111.664C256.244 125.447 245.071 136.62 231.288 136.62 217.506 136.62 206.333 125.447 206.333 111.664 206.333 97.8818 217.506 86.7087 231.288 86.7087 245.071 86.7087 256.244 97.8818 256.244 111.664Z" fill="#E9F5EE" transform="matrix(1 0 0 1.0029 2871 1107.4)"/><path d="M256.57 111.338C256.57 125.121 245.397 136.294 231.615 136.294 217.832 136.294 206.659 125.121 206.659 111.338 206.659 97.5555 217.832 86.3825 231.615 86.3825 245.397 86.3825 256.57 97.5555 256.57 111.338Z" fill="#E9F5EE" transform="matrix(1 0 0 1.0029 2871 1107.4)"/><path d="M256.897 111.012C256.897 124.795 245.724 135.968 231.941 135.968 218.158 135.968 206.985 124.795 206.985 111.012 206.985 97.2293 218.158 86.0563 231.941 86.0563 245.724 86.0563 256.897 97.2293 256.897 111.012Z" fill="#EAF6EF" transform="matrix(1 0 0 1.0029 2871 1107.4)"/><path d="M257.223 110.686C257.223 124.468 246.05 135.641 232.267 135.641 218.484 135.641 207.311 124.468 207.311 110.686 207.311 96.9031 218.484 85.7301 232.267 85.7301 246.05 85.7301 257.223 96.9031 257.223 110.686Z" fill="#EBF6F0" transform="matrix(1 0 0 1.0029 2871 1107.4)"/><path d="M257.582 110.36C257.582 124.142 246.409 135.315 232.626 135.315 218.843 135.315 207.67 124.142 207.67 110.36 207.67 96.5769 218.843 85.4039 232.626 85.4039 246.409 85.4039 257.582 96.5769 257.582 110.36Z" fill="#ECF7F0" transform="matrix(1 0 0 1.0029 2871 1107.4)"/><path d="M257.908 110.033C257.908 123.816 246.735 134.989 232.952 134.989 219.17 134.989 207.997 123.816 207.997 110.033 207.997 96.2507 219.17 85.0776 232.952 85.0776 246.735 85.0776 257.908 96.2507 257.908 110.033Z" fill="#EDF7F1" transform="matrix(1 0 0 1.0029 2871 1107.4)"/><path d="M258.234 109.707C258.234 123.49 247.061 134.663 233.278 134.663 219.496 134.663 208.323 123.49 208.323 109.707 208.323 95.9244 219.496 84.7514 233.278 84.7514 247.061 84.7514 258.234 95.9244 258.234 109.707Z" fill="#EEF7F2" transform="matrix(1 0 0 1.0029 2871 1107.4)"/><path d="M258.56 109.381C258.56 123.163 247.387 134.337 233.605 134.337 219.822 134.337 208.649 123.163 208.649 109.381 208.649 95.5982 219.822 84.4252 233.605 84.4252 247.387 84.4252 258.56 95.5982 258.56 109.381Z" fill="#EFF8F3" transform="matrix(1 0 0 1.0029 2871 1107.4)"/><path d="M258.919 109.055C258.919 122.837 247.746 134.01 233.963 134.01 220.181 134.01 209.008 122.837 209.008 109.055 209.008 95.272 220.181 84.099 233.963 84.099 247.746 84.099 258.919 95.272 258.919 109.055Z" fill="#F0F8F3" transform="matrix(1 0 0 1.0029 2871 1107.4)"/><path d="M259.245 108.728C259.245 122.511 248.072 133.684 234.29 133.684 220.507 133.684 209.334 122.511 209.334 108.728 209.334 94.9458 220.507 83.7728 234.29 83.7728 248.072 83.7728 259.245 94.9458 259.245 108.728Z" fill="#F1F9F4" transform="matrix(1 0 0 1.0029 2871 1107.4)"/><path d="M259.572 108.402C259.572 122.185 248.399 133.358 234.616 133.358 220.833 133.358 209.66 122.185 209.66 108.402 209.66 94.6196 220.833 83.4465 234.616 83.4465 248.399 83.4465 259.572 94.6196 259.572 108.402Z" fill="#F2F9F5" transform="matrix(1 0 0 1.0029 2871 1107.4)"/><path d="M259.93 108.076C259.93 121.859 248.757 133.032 234.975 133.032 221.192 133.032 210.019 121.859 210.019 108.076 210.019 94.2934 221.192 83.1203 234.975 83.1203 248.757 83.1203 259.93 94.2934 259.93 108.076Z" fill="#F3FAF5" transform="matrix(1 0 0 1.0029 2871 1107.4)"/><path d="M260.257 107.75C260.257 121.532 249.084 132.705 235.301 132.705 221.518 132.705 210.345 121.532 210.345 107.75 210.345 93.9671 221.518 82.7941 235.301 82.7941 249.084 82.7941 260.257 93.9671 260.257 107.75Z" fill="#F4FAF6" transform="matrix(1 0 0 1.0029 2871 1107.4)"/><path d="M260.583 107.424C260.583 121.206 249.41 132.379 235.627 132.379 221.845 132.379 210.671 121.206 210.671 107.424 210.671 93.6409 221.845 82.4679 235.627 82.4679 249.41 82.4679 260.583 93.6409 260.583 107.424Z" fill="#F5FAF7" transform="matrix(1 0 0 1.0029 2871 1107.4)"/><path d="M260.909 107.097C260.909 120.88 249.736 132.053 235.953 132.053 222.171 132.053 210.998 120.88 210.998 107.097 210.998 93.3147 222.171 82.1417 235.953 82.1417 249.736 82.1417 260.909 93.3147 260.909 107.097Z" fill="#F6FBF8" transform="matrix(1 0 0 1.0029 2871 1107.4)"/><path d="M261.301 106.771C261.301 120.572 250.113 131.759 236.312 131.759 222.512 131.759 211.324 120.572 211.324 106.771 211.324 92.9705 222.512 81.7828 236.312 81.7828 250.113 81.7828 261.301 92.9705 261.301 106.771Z" fill="#F7FBF8" transform="matrix(1 0 0 1.0029 2871 1107.4)"/><path d="M261.627 106.445C261.627 120.246 250.439 131.433 236.638 131.433 222.838 131.433 211.65 120.246 211.65 106.445 211.65 92.6442 222.838 81.4566 236.638 81.4566 250.439 81.4566 261.627 92.6442 261.627 106.445Z" fill="#F7FCF9" transform="matrix(1 0 0 1.0029 2871 1107.4)"/><path d="M261.953 106.119C261.953 119.919 250.765 131.107 236.965 131.107 223.164 131.107 211.976 119.919 211.976 106.119 211.976 92.318 223.164 81.1304 236.965 81.1304 250.765 81.1304 261.953 92.318 261.953 106.119Z" fill="#F8FCFA" transform="matrix(1 0 0 1.0029 2871 1107.4)"/><path d="M262.312 105.76C262.312 119.56 251.124 130.748 237.324 130.748 223.523 130.748 212.335 119.56 212.335 105.76 212.335 91.9592 223.523 80.7715 237.324 80.7715 251.124 80.7715 262.312 91.9592 262.312 105.76Z" fill="#F9FCFB" transform="matrix(1 0 0 1.0029 2871 1107.4)"/><path d="M262.638 105.434C262.638 119.234 251.45 130.422 237.65 130.422 223.849 130.422 212.661 119.234 212.661 105.434 212.661 91.633 223.849 80.4453 237.65 80.4453 251.45 80.4453 262.638 91.633 262.638 105.434Z" fill="#FAFDFB" transform="matrix(1 0 0 1.0029 2871 1107.4)"/><path d="M262.964 105.107C262.964 118.908 251.777 130.096 237.976 130.096 224.175 130.096 212.988 118.908 212.988 105.107 212.988 91.3068 224.175 80.1191 237.976 80.1191 251.777 80.1191 262.964 91.3068 262.964 105.107Z" fill="#FBFDFC" transform="matrix(1 0 0 1.0029 2871 1107.4)"/><path d="M263.29 104.781C263.29 118.582 252.103 129.769 238.302 129.769 224.502 129.769 213.314 118.582 213.314 104.781 213.314 90.9805 224.501 79.7929 238.302 79.7929 252.103 79.7929 263.29 90.9805 263.29 104.781Z" fill="#FCFEFD" transform="matrix(1 0 0 1.0029 2871 1107.4)"/><path d="M263.649 104.455C263.649 118.256 252.462 129.443 238.661 129.443 224.86 129.443 213.673 118.256 213.673 104.455 213.673 90.6543 224.86 79.4667 238.661 79.4667 252.462 79.4667 263.649 90.6543 263.649 104.455Z" fill="#FDFEFE" transform="matrix(1 0 0 1.0029 2871 1107.4)"/><path d="M263.976 104.129C263.976 117.929 252.788 129.117 238.987 129.117 225.187 129.117 213.999 117.929 213.999 104.129 213.999 90.3281 225.187 79.1405 238.987 79.1405 252.788 79.1405 263.976 90.3281 263.976 104.129Z" fill="#FEFFFE" transform="matrix(1 0 0 1.0029 2871 1107.4)"/><path d="M264.302 103.803C264.302 117.603 253.114 128.791 239.313 128.791 225.513 128.791 214.325 117.603 214.325 103.803 214.325 90.0019 225.513 78.8142 239.313 78.8142 253.114 78.8142 264.302 90.0019 264.302 103.803Z" fill="#FFFFFF" transform="matrix(1 0 0 1.0029 2871 1107.4)"/><path d="M264.302 103.803C264.302 117.603 253.114 128.791 239.313 128.791 225.513 128.791 214.325 117.603 214.325 103.803 214.325 90.0019 225.513 78.8142 239.313 78.8142 253.114 78.8142 264.302 90.0019 264.302 103.803Z" fill="#249579" transform="matrix(1 0 0 1.0029 2871 1107.4)"/></g></g></g><text font-family="Nirmala UI,Nirmala UI_MSFontService,sans-serif" font-weight="400" font-size="83" transform="matrix(1 0 0 1 2911.5 1572)">Daten<tspan font-size="83" x="-46.9793" y="99">spenden</tspan></text></g></svg>