<?xml version="1.0" encoding="UTF-8" standalone="no"?><!DOCTYPE svg PUBLIC "-//W3C//DTD SVG 1.1//EN" "http://www.w3.org/Graphics/SVG/1.1/DTD/svg11.dtd"><svg width="100%" height="100%" viewBox="0 0 946 721" version="1.1" xmlns="http://www.w3.org/2000/svg" xmlns:xlink="http://www.w3.org/1999/xlink" xml:space="preserve" xmlns:serif="http://www.serif.com/" style="fill-rule:evenodd;clip-rule:evenodd;stroke-linejoin:round;stroke-miterlimit:2;"><g><g><g><g><path d="M346.063,363.607c-8.75,6.25 -7.083,20.416 4.167,32.083c10.833,11.667 27.5,15.417 37.083,8.333c9.583,-7.083 7.917,-22.5 -4.167,-32.916c-11.666,-10.834 -28.333,-13.75 -37.083,-7.5Z" style="fill:url(#_Linear1);fill-rule:nonzero;"/><path d="M382.313,372.357c11.667,10.833 13.75,25.833 4.167,32.916c-9.584,7.084 -26.25,3.334 -37.084,-8.333c-10.833,-11.667 -12.916,-25.417 -4.166,-32.083c8.75,-6.25 25.416,-3.334 37.083,7.5Z" style="fill:url(#_Linear2);fill-rule:nonzero;"/><path d="M381.48,373.607c11.666,10.833 13.333,25.833 3.75,32.916c-9.584,7.084 -26.25,3.334 -37.084,-8.333c-10.833,-11.667 -12.5,-25.417 -3.75,-32.083c8.75,-6.25 25,-3.334 37.084,7.5Z" style="fill:url(#_Linear3);fill-rule:nonzero;"/><path d="M380.23,374.857c11.666,10.833 13.333,25.833 3.75,32.916c-9.584,7.084 -26.25,2.917 -37.084,-8.75c-10.833,-11.666 -12.5,-25.416 -3.75,-32.083c8.75,-5.833 25.417,-2.5 37.084,7.917Z" style="fill:url(#_Linear4);fill-rule:nonzero;"/><path d="M379.396,376.523c11.667,10.834 13.334,25.834 3.75,32.917c-9.583,7.083 -26.25,2.917 -37.083,-8.75c-10.833,-11.667 -12.5,-25.833 -3.75,-32.083c8.75,-6.25 25.417,-2.917 37.083,7.916Z" style="fill:url(#_Linear5);fill-rule:nonzero;"/><path d="M378.563,377.773c11.667,10.834 13.333,25.834 3.75,32.917c-9.583,7.083 -26.25,2.917 -37.083,-8.75c-10.834,-11.667 -12.5,-25.833 -3.75,-32.083c8.75,-6.25 25.416,-2.917 37.083,7.916Z" style="fill:url(#_Linear6);fill-rule:nonzero;"/><path d="M377.73,379.023c11.666,10.834 13.333,25.834 3.75,32.917c-9.584,7.083 -26.25,2.917 -37.084,-8.75c-10.833,-11.667 -12.5,-25.833 -3.75,-32.083c8.75,-6.25 25.417,-2.917 37.084,7.916Z" style="fill:url(#_Linear7);fill-rule:nonzero;"/><path d="M376.48,380.69c11.666,10.833 13.333,25.833 3.333,32.917c-9.583,7.083 -26.25,2.916 -37.083,-9.167c-10.834,-11.667 -12.5,-25.833 -3.334,-32.083c9.167,-6.25 25.834,-2.917 37.084,8.333Z" style="fill:url(#_Linear8);fill-rule:nonzero;"/><path d="M375.646,381.94c11.667,10.833 12.917,25.833 3.334,32.917c-9.584,7.083 -26.25,2.5 -37.084,-9.167c-10.833,-11.667 -12.083,-25.833 -3.333,-32.083c9.167,-5.834 25.417,-2.917 37.083,8.333Z" style="fill:url(#_Linear9);fill-rule:nonzero;"/><path d="M374.813,383.19c11.667,10.833 12.917,26.25 3.333,32.917c-10,7.083 -26.25,2.5 -37.083,-9.167c-10.417,-12.083 -12.083,-25.833 -3.333,-32.083c8.75,-5.834 25.416,-2.5 37.083,8.333Z" style="fill:url(#_Linear10);fill-rule:nonzero;"/><path d="M373.563,384.44c11.667,10.833 12.917,26.25 3.333,33.333c-10,7.084 -26.25,2.5 -37.083,-9.583c-10.417,-12.083 -12.083,-25.833 -3.333,-32.083c9.166,-5.834 25.833,-2.5 37.083,8.333Z" style="fill:url(#_Linear11);fill-rule:nonzero;"/><path d="M372.73,386.107c11.666,10.833 12.916,26.25 2.916,33.333c-10,7.083 -26.666,2.5 -37.083,-9.583c-10.417,-12.084 -12.083,-25.834 -2.917,-32.084c9.167,-6.25 25.834,-2.916 37.084,8.334Z" style="fill:url(#_Linear12);fill-rule:nonzero;"/><path d="M371.896,387.357c11.25,11.25 12.917,26.25 2.917,33.333c-10,7.083 -26.667,2.5 -37.083,-9.583c-10.417,-12.084 -12.084,-25.834 -2.917,-32.084c9.167,-6.25 25.417,-2.916 37.083,8.334Z" style="fill:url(#_Linear13);fill-rule:nonzero;"/><path d="M371.063,388.607c11.25,11.25 12.917,26.25 2.917,33.333c-10,7.083 -26.667,2.5 -36.667,-9.583c-10.417,-12.084 -11.667,-25.834 -2.917,-32.084c8.334,-6.25 25,-2.916 36.667,8.334Z" style="fill:url(#_Linear14);fill-rule:nonzero;"/><path d="M369.813,389.857c11.25,11.25 12.5,26.25 2.917,33.333c-10,7.083 -26.667,2.083 -36.667,-10c-10.417,-12.083 -11.667,-25.833 -2.917,-32.083c8.75,-5.834 25.417,-2.5 36.667,8.75Z" style="fill:url(#_Linear15);fill-rule:nonzero;"/><path d="M368.98,391.107c11.25,11.25 12.5,26.25 2.5,33.333c-10,7.083 -26.667,2.083 -36.667,-10c-10.417,-12.083 -11.667,-25.833 -2.5,-32.083c8.75,-5.834 25.417,-2.084 36.667,8.75Z" style="fill:url(#_Linear16);fill-rule:nonzero;"/><path d="M368.146,392.773c11.25,11.25 12.5,26.25 2.5,33.334c-5,3.333 -11.666,4.166 -18.333,2.083c-6.667,-2.083 -13.333,-6.25 -18.333,-12.5c-10,-12.083 -11.667,-25.833 -2.5,-32.083c8.75,-5.834 25,-2.084 36.666,9.166Z" style="fill:url(#_Linear17);fill-rule:nonzero;"/><path d="M366.896,394.023c11.25,11.25 12.5,26.25 2.5,33.334c-5,3.333 -11.666,4.166 -18.333,2.083c-6.667,-2.083 -13.333,-6.25 -18.333,-12.5c-10,-12.5 -11.25,-25.833 -2.5,-32.083c8.75,-5.834 25.416,-2.084 36.666,9.166Z" style="fill:url(#_Linear18);fill-rule:nonzero;"/><path d="M366.063,395.273c11.25,11.25 12.5,26.25 2.083,33.334c-5,3.333 -11.666,4.166 -18.333,2.083c-6.667,-2.083 -13.333,-6.25 -18.333,-12.5c-10,-12.5 -11.25,-25.833 -2.5,-32.083c9.166,-5.834 25.833,-2.084 37.083,9.166Z" style="fill:url(#_Linear19);fill-rule:nonzero;"/><path d="M364.813,396.523c11.25,11.25 12.5,26.25 2.083,33.334c-5,3.333 -11.666,3.75 -18.333,2.083c-6.667,-2.083 -13.333,-6.667 -18.333,-12.5c-10,-12.5 -11.25,-26.25 -2.084,-31.667c9.167,-6.25 25.417,-2.5 36.667,8.75Z" style="fill:url(#_Linear20);fill-rule:nonzero;"/><path d="M363.98,397.773c11.25,11.25 12.083,26.667 2.083,33.334c-5,3.333 -11.667,3.75 -18.333,1.666c-6.667,-2.083 -12.917,-6.666 -17.917,-12.916c-10,-12.5 -11.25,-26.25 -2.083,-31.667c8.75,-5.417 25,-1.667 36.25,9.583Z" style="fill:url(#_Linear21);fill-rule:nonzero;"/><path d="M363.146,399.44c11.25,11.25 12.084,26.667 2.084,33.333c-5,3.334 -12.084,3.75 -18.334,1.667c-6.666,-2.083 -12.916,-6.667 -17.916,-12.917c-10,-12.5 -10.834,-26.25 -2.084,-31.666c8.334,-5.834 25,-2.084 36.25,9.583Z" style="fill:url(#_Linear22);fill-rule:nonzero;"/><path d="M361.896,400.69c11.25,11.25 12.084,26.667 1.667,33.333c-5,3.334 -12.083,3.75 -18.75,1.667c-6.667,-2.083 -12.917,-6.667 -17.917,-12.917c-9.583,-12.5 -10.833,-26.25 -1.666,-31.666c9.166,-5.834 25.833,-2.084 36.666,9.583Z" style="fill:url(#_Linear23);fill-rule:nonzero;"/><path d="M361.063,401.94c11.25,11.25 12.083,26.667 1.667,33.333c-5,3.334 -12.084,3.75 -18.75,1.667c-6.667,-2.083 -12.917,-6.667 -17.917,-12.917c-9.583,-12.5 -10.833,-26.25 -1.667,-31.666c9.167,-5.834 25.417,-2.084 36.667,9.583Z" style="fill:url(#_Linear24);fill-rule:nonzero;"/><path d="M359.813,403.19c11.25,11.25 12.083,26.667 1.25,33.333c-5,3.334 -12.083,3.75 -18.75,1.667c-6.667,-2.083 -12.917,-7.083 -17.917,-13.333c-9.583,-12.917 -10.416,-26.25 -1.666,-31.667c9.583,-5.417 26.25,-1.25 37.083,10Z" style="fill:url(#_Linear25);fill-rule:nonzero;"/><path d="M358.98,404.44c10.833,11.25 11.666,26.667 1.25,33.333c-5,3.334 -12.084,3.75 -18.75,1.667c-6.667,-2.083 -12.917,-7.083 -17.5,-13.333c-9.584,-12.917 -10.417,-26.25 -1.25,-31.667c8.75,-5.417 25,-1.25 36.25,10Z" style="fill:url(#_Linear26);fill-rule:nonzero;"/><path d="M357.73,405.69c10.833,11.667 11.666,26.667 1.25,33.75c-5.417,3.333 -12.084,3.75 -18.75,1.25c-6.667,-2.083 -12.917,-7.083 -17.5,-13.333c-9.167,-12.917 -10.417,-26.25 -1.25,-31.667c9.166,-5.417 25.416,-1.25 36.25,10Z" style="fill:url(#_Linear27);fill-rule:nonzero;"/><path d="M356.896,406.94c10.834,11.667 11.667,26.667 0.834,33.75c-5.417,3.333 -12.084,3.75 -18.75,1.25c-6.667,-2.083 -12.917,-7.083 -17.5,-13.75c-9.167,-12.917 -10,-26.25 -1.25,-31.667c9.166,-5 25.833,-0.833 36.666,10.417Z" style="fill:url(#_Linear28);fill-rule:nonzero;"/><path d="M356.063,408.607c10.833,11.666 11.667,27.083 0.833,33.75c-5.416,3.333 -12.083,3.75 -18.75,1.25c-6.666,-2.5 -12.916,-7.5 -17.5,-13.75c-9.166,-12.917 -10,-26.25 -0.833,-31.667c8.75,-5.417 25,-1.25 36.25,10.417Z" style="fill:url(#_Linear29);fill-rule:nonzero;"/><path d="M354.813,409.857c10.833,11.666 11.25,27.083 0.417,33.75c-5.417,3.333 -12.5,3.75 -18.75,1.25c-6.667,-2.5 -12.5,-7.5 -17.084,-14.167c-8.75,-13.333 -10,-26.25 -0.833,-31.667c9.167,-5 25.417,-0.833 36.25,10.834Z" style="fill:url(#_Linear30);fill-rule:nonzero;"/><path d="M353.98,411.107c10.833,11.666 11.25,27.083 0.416,33.75c-5.416,3.333 -12.5,3.333 -18.75,1.25c-6.666,-2.5 -12.5,-7.5 -17.083,-14.167c-8.75,-13.333 -9.583,-26.25 -0.833,-31.25c8.75,-5.417 25.416,-1.25 36.25,10.417Z" style="fill:url(#_Linear31);fill-rule:nonzero;"/><path d="M352.73,412.357c10.833,11.666 11.25,27.083 -0,33.75c-5.417,3.333 -12.5,3.333 -19.167,0.833c-6.667,-2.5 -12.5,-7.5 -17.083,-14.167c-8.75,-13.333 -9.584,-26.25 -0.417,-31.25c9.583,-5.416 25.833,-0.833 36.667,10.834Z" style="fill:url(#_Linear32);fill-rule:nonzero;"/><path d="M351.896,413.607c10.834,11.666 10.834,27.083 0,33.75c-5.416,3.333 -12.5,3.333 -19.166,0.833c-6.667,-2.5 -12.5,-7.917 -16.667,-14.583c-8.333,-13.334 -9.167,-26.25 -0.417,-31.25c9.167,-5 25.417,-0.417 36.25,11.25Z" style="fill:url(#_Linear33);fill-rule:nonzero;"/><path d="M350.646,414.857c10.834,11.666 10.834,27.083 -0.416,33.75c-5.417,3.333 -12.5,3.333 -19.167,0.833c-6.667,-2.5 -12.5,-7.917 -16.667,-14.583c-8.333,-13.75 -9.166,-26.25 0,-31.25c9.167,-5 25.417,-0.417 36.25,11.25Z" style="fill:url(#_Linear34);fill-rule:nonzero;"/><path d="M349.396,416.107c10.834,11.666 10.834,27.5 -0.416,33.75c-5.417,3.333 -12.917,3.333 -19.167,0.833c-6.667,-2.5 -12.083,-8.333 -16.25,-15c-7.917,-13.75 -8.75,-26.25 -0,-31.25c9.167,-4.583 25.417,0 35.833,11.667Z" style="fill:url(#_Linear35);fill-rule:nonzero;"/><path d="M348.563,417.357c10.417,11.666 10.833,27.5 -0.833,33.75c-5.834,3.333 -12.917,3.333 -19.167,0.416c-6.667,-2.916 -12.083,-8.333 -16.25,-15.416c-7.917,-13.75 -8.75,-26.25 0.417,-30.834c8.75,-4.166 25,0.417 35.833,12.084Z" style="fill:url(#_Linear36);fill-rule:nonzero;"/><path d="M347.313,418.607c10.417,12.083 10.417,27.5 -0.833,34.166c-5.834,3.334 -12.917,3.334 -19.584,0.417c-6.666,-2.917 -12.083,-8.333 -15.833,-15.417c-7.5,-14.166 -8.333,-26.25 0.417,-30.833c9.166,-4.583 25.416,0 35.833,11.667Z" style="fill:url(#_Linear37);fill-rule:nonzero;"/><path d="M346.48,419.857c10.416,12.083 10.416,27.5 -1.25,34.166c-5.834,3.334 -12.917,3.334 -19.584,0.417c-6.666,-2.917 -11.666,-8.75 -15.416,-15.833c-7.084,-14.167 -8.334,-26.25 0.833,-30.834c8.75,-4.583 25,0.417 35.417,12.084Z" style="fill:url(#_Linear38);fill-rule:nonzero;"/><path d="M345.23,421.107c5,5.833 7.916,12.916 7.5,19.166c-0.417,6.25 -3.334,11.667 -9.167,15c-12.083,6.667 -29.167,-0.833 -35,-16.25c-3.75,-7.083 -5.417,-13.75 -5.833,-18.75c-0,-5.416 2.083,-9.166 6.25,-11.666c9.583,-4.167 25.833,0.416 36.25,12.5Z" style="fill:url(#_Linear39);fill-rule:nonzero;"/><path d="M344.396,422.357c10.417,12.083 10,27.5 -2.083,34.166c-5.833,3.334 -13.333,2.917 -20,0c-7.5,-2.5 -11.25,-9.583 -14.583,-16.666c-1.667,-3.75 -2.917,-7.084 -4.167,-10c-0.833,-2.917 -1.25,-6.25 -1.25,-8.75c-0,-5.417 2.083,-9.167 6.25,-11.25c9.167,-4.167 25.417,0.416 35.833,12.5Z" style="fill:url(#_Linear40);fill-rule:nonzero;"/><path d="M343.146,423.607c10.417,12.083 10,27.916 -2.083,34.166c-2.917,1.667 -6.25,2.5 -10,2.5c-1.667,0 -3.333,-0.416 -5,-0.833c-1.667,-0.417 -3.75,-0.833 -5.417,-1.25c-7.083,-2.917 -10.833,-10 -13.333,-17.5c-1.25,-3.75 -2.5,-7.5 -3.75,-10.417c-1.667,-2.5 -1.667,-5.833 -1.667,-8.333c0,-5 2.084,-9.167 6.25,-11.25c8.334,-3.75 24.584,0.833 35,12.917Z" style="fill:url(#_Linear41);fill-rule:nonzero;"/><path d="M341.896,425.273c5,6.25 7.5,12.917 7.084,19.167c-0.417,6.25 -3.75,12.083 -10,15c-2.917,1.667 -6.667,2.5 -10,2.083l-5.417,0c-2.083,0 -3.75,-0.833 -5.417,-1.666c-6.666,-3.334 -10,-10.417 -12.5,-18.334c-1.25,-3.75 -2.083,-7.5 -2.916,-10.416c-0.417,-1.667 -0.834,-2.917 -1.667,-4.167c-0.417,-0.417 -0.417,-1.25 -0.417,-2.083l0,-2.084c0,-5 1.667,-8.75 6.25,-10.833c8.75,-4.167 25,0.833 35,13.333Z" style="fill:url(#_Linear42);fill-rule:nonzero;"/><path d="M341.063,426.107c10,12.083 9.583,27.916 -2.917,34.583c-1.666,0.833 -3.333,1.25 -5,1.667c-1.666,0.416 -3.333,0.416 -5.416,0.416c-4.584,0.834 -8.75,-0.416 -11.667,-2.083c-6.667,-3.75 -9.583,-10.833 -11.25,-18.75c-0.833,-4.167 -1.667,-7.5 -2.5,-10.833c-0.417,-1.667 -0.833,-2.917 -1.25,-4.167c-0.417,-0.833 -0.417,-1.25 -0.833,-1.667c-0,-0.416 -0.417,-0.416 -0.417,-0.833l-0,-0.833c-0,-5 1.667,-8.75 6.25,-10.834c8.333,-3.75 24.583,1.25 35,13.334Z" style="fill:url(#_Linear43);fill-rule:nonzero;"/><path d="M339.813,427.357c5,6.25 7.5,12.916 7.083,19.583c-0.416,6.25 -3.75,12.083 -10.416,15c-1.667,0.833 -3.334,1.25 -5,1.667c-0.834,-0 -1.667,0.416 -2.5,0.416c-1.25,0 -2.5,0.417 -3.334,0.417c-4.583,0.417 -8.333,-0.833 -11.25,-2.5c-6.25,-4.167 -8.75,-11.25 -10.416,-19.583c-1.25,-8.334 -2.5,-15 -4.167,-18.75l-0.417,-0.417l0,-0.833c0,-0.417 0,-1.25 0.417,-1.667c0.417,-1.25 0.417,-2.083 1.25,-2.917c0.833,-1.666 2.5,-3.333 4.583,-4.166c7.917,-3.334 24.167,1.666 34.167,13.75Z" style="fill:url(#_Linear44);fill-rule:nonzero;"/><path d="M338.563,428.607c5,6.25 7.5,13.333 6.667,19.583c-0.417,6.25 -4.167,12.083 -10.834,15c-1.666,0.833 -3.333,1.25 -5,1.667c-0.833,0.416 -2.5,0.833 -3.333,0.833c-1.25,0.417 -2.083,0.417 -3.333,0.417c-2.084,-0 -4.167,-0.417 -6.25,-0.834c-2.084,-0.416 -3.75,-1.25 -5,-2.5c-2.917,-2.083 -5,-5 -6.667,-8.75c-1.25,-3.333 -2.083,-7.5 -2.5,-11.666c-0.833,-8.334 -1.667,-15.417 -3.333,-19.167c-0,-0.417 -0.417,-0.833 -0.834,-1.25l-0.416,-0.417l-0,-0.833c0.416,-0.833 0.416,-2.083 1.25,-2.917c0.833,-1.666 2.5,-2.916 4.583,-3.75c8.75,-2.916 25,2.5 35,14.584Z" style="fill:url(#_Linear45);fill-rule:nonzero;"/><path d="M337.313,429.857c5,6.25 7.083,13.333 6.667,19.583c-0.417,6.25 -4.584,12.083 -11.25,15c-0.834,0.417 -1.667,0.833 -2.5,0.833l-0.834,0l-0.833,0.417c-0.833,0.417 -1.25,0.417 -1.667,0.833c-2.5,0.834 -4.583,0.834 -7.083,0.834c-4.167,-0 -7.917,-1.25 -10.833,-3.75c-2.917,-2.5 -4.584,-5.417 -5.834,-8.75c-1.25,-3.334 -1.666,-7.5 -2.083,-11.667c-0.417,-8.333 -0.833,-15.417 -2.5,-19.583c-0.417,-0.834 -0.417,-1.667 -1.25,-2.5c-0.417,-0 -0,-0.834 -0,-1.25c-0,-0.417 0.417,-0.834 0.417,-1.25c0.833,-1.667 2.5,-2.917 4.583,-3.75c9.167,-2.5 25.417,2.5 35,15Z" style="fill:url(#_Linear46);fill-rule:nonzero;"/><path d="M336.48,431.107c5,6.25 7.083,13.333 6.25,19.583c-0.834,6.25 -4.584,12.083 -11.667,15l-3.333,1.25c-1.25,0.417 -2.5,0.833 -3.75,1.25c-2.5,0.417 -4.584,0.833 -6.667,0.833c-2.083,0 -4.167,-0.833 -5.833,-1.25c-1.667,-0.833 -3.334,-1.666 -4.584,-2.916c-2.5,-2.5 -4.583,-5.834 -5.416,-9.167c-0.417,-1.667 -0.834,-3.75 -1.25,-5.417c-0.417,-2.083 -0.417,-4.166 -0.417,-6.25c-0,-8.333 -0,-15.416 -1.25,-19.583c-0.417,-0.833 -0.417,-1.667 -0.833,-2.5c-0,-0.417 -0.417,-0.417 -0.417,-0.833l-0,-0.417l0.417,-0.417c0.416,-0.833 1.25,-1.666 1.666,-2.083c0.834,-0.833 1.667,-1.25 2.917,-1.667c7.917,-3.333 24.167,2.084 34.167,14.584Z" style="fill:url(#_Linear47);fill-rule:nonzero;"/><path d="M335.23,432.357c5,6.25 7.083,13.333 6.25,19.583c-0.417,3.333 -1.667,6.25 -3.75,8.75c-0.834,1.25 -2.084,2.5 -3.75,3.75c-0.834,0.417 -1.25,0.833 -2.084,1.667c-0.833,0.416 -2.083,1.25 -2.916,1.666c-2.5,1.25 -5,2.084 -7.5,2.5c-2.5,0.417 -4.584,0.417 -6.667,0.417c-2.083,0 -4.167,-0.833 -5.833,-1.667c-1.667,-0.833 -3.334,-2.083 -4.584,-3.333c-2.5,-2.5 -4.166,-5.833 -5,-9.583c-0.416,-1.667 -0.833,-3.75 -0.833,-5.834l-0,-6.25c0.417,-8.333 0.833,-15.416 -0.417,-19.583c-0.416,-2.083 -0.833,-3.333 -1.666,-3.75c-0,-0.417 0.833,-1.25 1.666,-1.667c0.834,-0.416 1.667,-0.833 2.5,-1.25c8.75,-3.333 24.584,2.084 34.584,14.584Z" style="fill:url(#_Linear48);fill-rule:nonzero;"/><path d="M333.98,433.607c5,6.25 7.083,13.333 5.833,20c-0.417,3.333 -1.667,6.25 -3.75,8.75c-2.5,2.916 -4.167,4.583 -10,7.083c-10,4.583 -19.583,2.083 -24.167,-3.75c-5,-5.833 -5.416,-13.333 -4.583,-21.667c0.833,-8.333 1.667,-15.416 0.833,-19.583c-0.416,-2.083 -0.833,-3.333 -1.25,-4.167c0,0 -0.416,0 -0.416,-0.416c0.416,-0.417 0.416,-0.417 0.833,-0.834c0.833,-0.416 1.667,-0.833 2.5,-1.25c8.333,-2.083 24.583,3.334 34.167,15.834Z" style="fill:url(#_Linear49);fill-rule:nonzero;"/><path d="M332.73,434.857c4.583,6.25 6.666,13.333 5.833,20c-0.417,3.333 -1.667,6.25 -4.167,8.75c-1.25,1.25 -2.5,2.5 -3.75,3.75c-2.5,1.666 -4.583,2.916 -7.5,3.75c-2.5,0.833 -5,1.666 -7.5,1.666c-2.5,0.417 -4.583,0 -6.666,-0.416c-2.084,-0.417 -4.167,-1.25 -5.417,-2.5c-1.667,-0.834 -2.917,-2.5 -4.167,-3.75c-2.5,-2.917 -3.75,-6.667 -4.166,-10.417c-0.417,-2.083 -0.417,-3.75 -0,-5.833c-0,-2.084 0.416,-4.167 0.416,-6.25c1.25,-7.917 2.5,-15.417 1.667,-19.584c-0.417,-2.083 -0.833,-3.75 -0.833,-4.166l-0,-0.417l0.416,0c0.834,-0.417 1.667,-0.833 2.5,-1.25c7.917,-1.667 23.75,3.75 33.334,16.667Z" style="fill:url(#_Linear50);fill-rule:nonzero;"/><path d="M331.48,436.107c4.583,6.25 6.666,13.333 5.416,20c-0.833,3.333 -2.083,6.25 -4.166,8.75c-0.417,0.833 -1.25,1.25 -2.084,2.083c-0.416,0.417 -0.833,0.833 -1.25,1.25l-1.666,1.25c-2.084,1.667 -4.584,2.5 -7.084,3.333c-10.416,3.75 -19.583,-0.416 -23.333,-6.25c-2.083,-3.333 -3.333,-6.666 -3.333,-10.833c-0.417,-3.75 0.416,-7.917 1.25,-11.667c0.833,-4.166 1.666,-7.916 2.083,-10.833c0.417,-3.333 0.833,-6.25 0.833,-8.333c0,-2.084 -0.416,-3.75 -0.833,-4.167c-0,-0.833 -1.25,0 1.667,-0.833c7.083,-2.084 23.333,3.333 32.5,16.25Z" style="fill:url(#_Linear51);fill-rule:nonzero;"/><path d="M330.23,437.357c4.583,6.666 6.666,13.75 5.416,20c-0.833,3.333 -2.083,6.25 -4.583,9.166c-0.417,0.417 -1.667,1.667 -2.917,2.5c-1.25,0.834 -2.083,1.667 -3.333,2.084c-2.5,1.25 -4.583,2.5 -7.5,3.333c-5,1.667 -10,1.25 -14.167,-0.417c-2.083,-0.833 -3.75,-2.083 -5.416,-2.916c-1.667,-1.25 -2.917,-2.917 -3.75,-4.584c-2.084,-3.333 -2.917,-7.083 -2.917,-10.833c-0,-3.75 0.833,-7.917 1.667,-11.667c2.083,-7.916 4.166,-14.583 3.75,-18.75c-0,-2.083 -0.417,-3.75 -0.417,-4.166l-0,-0.417c0.417,0 -0.417,0.833 0.833,0.417c8.334,-2.5 24.167,3.333 33.334,16.25Z" style="fill:url(#_Linear52);fill-rule:nonzero;"/><path d="M329.396,438.607c4.584,6.666 6.25,13.75 5,20.416c-0.416,1.667 -0.833,3.334 -1.666,4.584c-0.417,0.833 -0.834,1.666 -1.25,2.083l-0.834,1.25l-1.666,1.25c-2.084,2.083 -4.167,3.333 -6.667,4.583c-2.083,1.25 -5,2.084 -7.5,2.917c-2.5,0.417 -5,0.833 -7.5,0.417c-2.5,-0.417 -4.583,-0.834 -6.667,-1.667c-0.833,-0.417 -2.083,-0.833 -2.916,-1.667c-0.834,-0.416 -1.667,-1.25 -2.5,-2.083c-1.25,-1.25 -2.5,-2.917 -3.334,-5c-1.666,-3.333 -2.5,-7.083 -2.083,-11.25c-0,-3.75 1.25,-7.5 2.5,-11.667c2.5,-7.5 4.583,-14.166 5,-18.333c0.417,-4.583 -0.833,-5.833 -0.417,-4.167c0.417,0.417 1.667,0 2.917,0c1.25,0 2.5,0.417 3.75,0.417c2.5,0.417 5.833,1.667 8.75,2.917c5.833,3.75 12.5,8.333 17.083,15Z" style="fill:url(#_Linear53);fill-rule:nonzero;"/><path d="M328.146,439.44c4.584,6.667 6.25,13.75 4.584,20.417c-0.417,1.666 -1.25,3.333 -2.084,4.583c-0.416,1.25 -2.916,3.75 -5,5.417c-2.083,1.666 -4.166,2.916 -6.666,4.166c-2.5,1.25 -5,2.084 -7.5,2.5c-1.25,0 -2.5,0.417 -3.75,0.417c-1.25,0 -2.5,-0.417 -3.75,-0.417c-2.5,-0.416 -4.584,-1.25 -6.25,-2.083c-3.75,-2.5 -6.667,-5.417 -8.334,-9.167c-3.333,-7.5 -1.666,-15 1.25,-22.916c2.917,-7.5 5.417,-13.75 5.834,-17.917c0.416,-4.583 -0.834,-5.833 -0,-4.167c-0,0 -0,0.417 0.416,0.834l1.667,-0c1.25,-0 2.5,0.416 3.75,0.833c2.5,0.417 5.417,1.667 8.75,3.333c6.25,2.917 12.5,7.917 17.083,14.167Z" style="fill:url(#_Linear54);fill-rule:nonzero;"/><path d="M326.896,440.69c4.584,6.667 6.25,13.75 4.167,20.417c-0.417,1.666 -0.833,2.916 -2.5,5c-1.667,2.083 -3.333,3.75 -5.417,5.416c-4.166,3.334 -9.166,5.417 -14.166,5.834c-2.5,-0 -5,-0 -7.5,-0.417c-1.25,-0.417 -2.084,-0.417 -3.334,-0.833c-1.25,-0.417 -2.083,-1.25 -2.916,-1.667c-3.75,-2.5 -6.25,-5.833 -7.5,-9.583c-1.25,-3.75 -1.667,-7.5 -0.834,-11.25c0.417,-3.75 2.084,-7.5 3.334,-11.25c3.333,-7.084 6.25,-13.334 6.666,-17.5c0.834,-4.167 -0.416,-5.834 0.417,-4.167l0.417,0.833c-0,0.417 -0,0.834 0.833,0.834c1.25,0.416 2.5,0.416 3.75,0.833c2.5,0.833 5.417,1.667 8.333,3.333c5.417,2.917 11.667,7.5 16.25,14.167Z" style="fill:url(#_Linear55);fill-rule:nonzero;"/><path d="M325.23,441.94c4.166,6.667 5.833,13.75 3.75,20.417c-0.417,0.833 -0.417,1.666 -1.25,2.5c-0.834,0.833 -1.667,2.083 -2.084,2.916c-1.666,1.667 -3.333,3.334 -5.416,5c-4.167,2.917 -9.167,5 -14.584,5c-2.5,0 -5,-0.416 -7.5,-0.833c-2.5,-0.833 -4.583,-2.083 -6.25,-3.333c-3.75,-2.5 -5.833,-6.25 -7.083,-10c-2.5,-7.917 -0,-15.417 3.75,-22.5c3.75,-7.084 6.667,-12.917 7.5,-17.084c0.833,-4.166 -0.417,-5.833 0.417,-4.166c-0,0.416 0.416,0.833 0.833,1.666c0.417,0.417 0.417,0.834 0.833,0.834c0.417,-0 1.25,0.416 1.667,0.416c2.5,0.834 5.417,2.084 8.333,3.75c6.667,3.75 12.917,8.75 17.084,15.417Z" style="fill:url(#_Linear56);fill-rule:nonzero;"/><path d="M323.98,443.19c4.166,6.667 5.833,13.75 3.333,20.833c-1.25,2.084 -2.5,4.167 -4.167,5.834c-1.666,1.666 -3.333,3.75 -5.833,5c-4.167,2.916 -9.583,4.166 -15,4.166c-5.417,0 -10,-2.5 -13.333,-5c-3.334,-2.916 -5.834,-6.666 -6.667,-10.416c-2.083,-7.917 0.833,-15.417 5,-22.084c4.167,-6.666 7.5,-12.5 8.75,-16.25c1.25,-4.166 -0,-5.833 0.833,-4.166c0.417,0.833 1.25,2.083 2.917,3.75c2.5,0.833 5.417,2.083 8.333,3.75c5.417,2.916 11.667,7.916 15.834,14.583Z" style="fill:url(#_Linear57);fill-rule:nonzero;"/><path d="M322.73,444.023c2.083,3.334 3.333,7.084 3.75,10.417c0.416,3.75 0.833,6.667 -2.084,11.25c-2.5,3.75 -5.833,7.5 -10.416,10c-4.584,2.5 -9.584,3.75 -15,3.333c-5.417,-0.833 -10,-2.916 -12.917,-6.25c-3.333,-2.916 -5.417,-7.083 -6.25,-10.833c-1.667,-7.917 1.667,-15 6.25,-21.667c4.583,-6.666 8.333,-12.083 9.583,-15.833c1.25,-4.167 0.417,-5.833 0.834,-4.167c0.416,0.834 1.25,2.084 2.5,3.75c0.416,0.417 0.416,0.834 1.25,1.25c0.833,0.417 1.25,0.834 2.083,0.834c1.25,0.833 2.917,1.25 4.167,2.083c6.25,4.167 12.083,9.167 16.25,15.833Z" style="fill:url(#_Linear58);fill-rule:nonzero;"/><path d="M321.48,445.273c2.083,3.334 3.333,7.084 3.75,10.417l-0,2.5c-0,0.833 -0,1.667 -0.417,2.917c-0.833,2.083 -1.667,4.166 -2.917,5.833c-2.5,3.75 -6.25,7.5 -10.833,9.583c-1.25,0.417 -2.5,1.25 -3.75,1.25c-1.25,0.417 -2.5,0.417 -3.75,0.834c-1.25,0.416 -2.5,0.416 -3.75,0.416c-1.25,0 -2.5,0 -3.75,-0.416c-10.833,-2.084 -17.083,-10.417 -18.333,-17.917c-1.25,-7.5 2.5,-15 7.083,-21.25c5,-6.25 8.75,-11.25 10.417,-15.417c1.666,-3.75 0.833,-5.833 1.25,-4.166c0.416,0.833 1.25,2.083 2.5,4.166c0.833,0.834 1.25,1.667 2.5,2.917c1.25,0.833 2.5,1.667 4.166,2.5c5.834,3.75 11.667,9.167 15.834,15.833Z" style="fill:url(#_Linear59);fill-rule:nonzero;"/><path d="M320.23,446.523c2.083,3.334 3.333,7.084 3.333,10.834c-0,1.666 -0.417,4.166 -1.25,5.833c-0.833,2.083 -1.667,3.75 -2.917,5.833c-2.5,3.75 -6.666,7.084 -11.25,9.167c-4.583,1.667 -10,2.5 -15.416,0.833c-5,-1.25 -9.584,-4.166 -12.5,-7.916c-2.917,-3.334 -4.584,-7.5 -5,-11.25c-0.417,-3.75 0.416,-7.5 2.083,-10.834c1.667,-3.333 3.75,-6.666 6.25,-9.583c5.417,-5.833 9.583,-10.833 11.25,-14.583c1.667,-3.75 0.833,-5.834 1.25,-3.75c0.417,1.666 2.917,5.833 7.917,10c6.25,3.333 12.083,8.333 16.25,15.416Z" style="fill:url(#_Linear60);fill-rule:nonzero;"/><path d="M318.563,447.357c1.667,3.75 3.333,7.083 2.917,11.25c-0.417,4.166 -2.084,7.916 -4.584,11.666c-2.916,3.75 -6.666,6.667 -11.666,8.334c-2.5,0.833 -5,1.25 -7.5,1.25c-2.5,-0 -5.417,-0.417 -7.917,-1.25c-5,-1.667 -9.167,-5 -12.083,-8.334c-2.5,-3.75 -4.167,-7.5 -4.584,-11.666c0,-7.5 4.167,-14.167 9.167,-20c1.25,-1.667 2.5,-2.917 4.167,-4.167c0.833,-0.417 1.25,-1.25 2.083,-1.667c0.417,-0.416 1.25,-1.25 1.667,-1.666c2.083,-2.5 3.75,-4.584 4.583,-6.25c2.083,-3.75 1.25,-5.417 1.667,-3.75c0.416,1.666 2.916,5.833 7.5,10.416c0.833,1.25 2.5,2.084 3.75,3.334c1.25,1.25 2.916,2.5 4.166,3.75c2.5,2.5 5,5.416 6.667,8.75Z" style="fill:url(#_Linear61);fill-rule:nonzero;"/><path d="M317.313,448.607c3.75,7.083 2.917,15.833 -3.333,22.916c-1.25,1.667 -3.334,3.334 -5.417,4.584c-2.083,1.25 -4.167,2.083 -6.667,2.916c-5,1.667 -10.416,0.834 -15.416,-0.833c-5,-2.083 -9.167,-5.417 -11.667,-9.167c-1.25,-2.083 -2.5,-3.75 -2.917,-5.833c-0.416,-0.833 -0.416,-2.083 -0.833,-2.917l-0,-2.5c0.417,-7.083 4.167,-14.166 9.583,-20c2.5,-2.916 5.417,-5.416 8.334,-7.5c2.5,-2.083 4.166,-4.166 5,-5.833c2.083,-3.333 1.666,-5.417 1.666,-3.75c0.417,1.667 2.5,6.25 6.667,10.833c5,5 11.667,10 15,17.084Z" style="fill:url(#_Linear62);fill-rule:nonzero;"/><path d="M315.646,449.857c1.667,3.75 2.084,7.5 1.25,11.666c-0.416,4.167 -2.5,7.917 -5.833,11.25c-3.333,3.334 -7.5,5.834 -12.5,6.667c-1.25,0.417 -2.5,0.417 -3.75,0.417c-1.25,-0 -2.5,-0 -3.75,-0.417c-1.25,0 -2.5,-0.417 -3.75,-0.833c-1.25,-0.417 -2.5,-0.834 -3.75,-1.667c-9.583,-4.583 -15.417,-14.583 -13.75,-20.833c0.833,-7.084 4.583,-13.75 10,-19.584c2.917,-2.916 5.417,-5.416 8.333,-7.083c1.25,-0.833 2.917,-1.667 3.75,-2.5c0.834,-0.833 1.667,-1.667 2.084,-2.5c2.5,-3.333 1.666,-5.417 2.083,-3.333c-0,1.666 2.083,6.25 6.25,11.25c4.167,4.583 10.417,10 13.333,17.5Z" style="fill:url(#_Linear63);fill-rule:nonzero;"/><path d="M313.98,450.69c1.25,3.75 1.666,7.917 0.833,11.667c-0.833,3.75 -2.917,7.916 -6.25,10.833c-3.333,2.917 -7.917,5.417 -12.917,5.833c-2.5,0.417 -5,0 -7.5,-0.416c-2.5,-0.417 -5,-1.25 -7.5,-2.917c-4.583,-2.5 -8.333,-6.667 -10.833,-10.417c-1.25,-2.083 -1.25,-3.75 -1.667,-5.416l0,-5.417c0.834,-7.083 5,-13.75 10.417,-19.583c2.917,-2.917 5.833,-5 8.333,-7.084c1.25,-0.833 2.917,-1.666 4.167,-2.5c0.417,-0.416 1.25,-0.833 1.667,-1.25c0.416,-0.416 0.833,-0.833 1.25,-1.25c2.5,-3.333 2.083,-5.416 2.083,-3.333c-0,2.083 1.667,6.667 5.417,11.667c4.166,6.25 10,12.083 12.5,19.583Z" style="fill:url(#_Linear64);fill-rule:nonzero;"/><path d="M312.313,451.94c1.25,3.75 1.25,7.917 0.417,11.667c-0.834,3.75 -3.334,7.916 -6.667,10.416c-6.667,5.834 -18.75,6.667 -27.917,0.834c-2.5,-1.25 -4.166,-3.334 -6.25,-5c-0.833,-0.834 -1.666,-1.667 -2.5,-2.917c-0.833,-0.833 -1.25,-2.083 -1.666,-2.917c-1.25,-3.333 -1.25,-6.666 -0.834,-10.416c1.25,-7.084 5,-13.75 10.834,-19.584c5.416,-5.833 11.666,-9.166 16.25,-10.833c2.916,-2.917 2.5,-5 2.5,-3.333c-0,1.666 1.25,6.666 5,12.083c3.333,6.25 8.333,12.083 10.833,20Z" style="fill:url(#_Linear65);fill-rule:nonzero;"/><path d="M310.646,452.773c2.084,7.917 -0.416,16.667 -7.916,21.667c-1.667,1.25 -3.75,2.5 -6.25,2.917c-2.084,0.416 -4.584,0.833 -7.084,0.833c-5,0 -10.416,-1.667 -14.583,-5c-2.083,-1.667 -4.167,-3.333 -5.833,-5c-1.667,-2.083 -2.5,-3.333 -2.917,-5c-0.833,-3.333 -1.25,-6.667 -0.417,-10.417c1.25,-7.083 5.417,-13.75 10.834,-19.166c5.833,-5.417 12.083,-8.75 16.666,-10.417c0.417,-0.417 1.25,-0.417 1.667,-0.833c0.417,-0.417 0.417,-0.417 0.833,-0.834c0.417,-0.416 0.834,-0.833 0.834,-1.25c0.416,-0.833 -0,-0.833 -0,0.417c-0,1.667 1.25,7.083 4.166,12.5c3.334,5.417 7.917,11.667 10,19.583Z" style="fill:url(#_Linear66);fill-rule:nonzero;"/><path d="M308.98,453.607c1.666,7.916 -1.25,16.666 -8.75,21.25c-3.75,2.5 -8.334,3.333 -13.334,2.916c-5,-0.416 -10,-2.5 -14.583,-5.833c-1.25,-0.833 -2.083,-1.667 -2.917,-2.5c-0.833,-0.833 -2.083,-2.083 -2.5,-2.5c-0.833,-1.667 -1.666,-3.333 -2.083,-5c-0.833,-3.333 -0.833,-6.667 -0.417,-10.417c1.25,-7.083 5.417,-13.75 11.25,-19.166c5.834,-5.417 12.084,-8.75 17.084,-10.417c1.25,-0.417 2.5,-0.417 3.333,-0.833c0.417,-0.417 0.833,-0.834 0.833,-1.25c0.417,-0.417 0,-0.834 0,0.416c-0.416,1.667 0.834,7.084 3.75,12.5c2.084,6.25 6.667,12.917 8.334,20.834Z" style="fill:url(#_Linear67);fill-rule:nonzero;"/><path d="M307.313,454.44c0.417,4.167 -0,7.917 -1.667,11.667c-0.833,1.666 -2.083,3.333 -3.333,5c-1.25,1.25 -3.333,2.916 -5,3.75c-2.083,0.833 -4.167,1.666 -6.25,2.083c-2.5,0.417 -4.583,0.417 -7.083,0c-2.5,-0.417 -5,-1.25 -7.5,-2.083c-2.5,-1.25 -4.584,-2.5 -7.084,-4.167c-0.833,-0.833 -2.083,-1.667 -2.916,-2.5c-0.417,-0.833 -1.25,-1.667 -1.667,-2.083c-0.833,-1.667 -1.667,-3.334 -2.083,-4.584c-0.834,-3.333 -0.834,-6.666 -0,-10c1.25,-7.083 5.416,-13.75 11.25,-19.166c5.833,-5.417 12.083,-8.75 17.083,-10c2.5,-0.834 5.417,-0.417 5,-1.667c0.417,-0.417 0.417,-0.833 -0,0.417c-0.417,1.666 0.417,7.083 2.917,12.916c2.916,5.417 7.083,12.5 8.333,20.417Z" style="fill:url(#_Linear68);fill-rule:nonzero;"/><path d="M305.23,455.273c0.416,4.167 -0.417,7.917 -2.084,11.667c-1.666,3.333 -5,6.667 -8.75,8.333c-2.083,0.834 -4.166,1.25 -6.666,1.667c-2.5,0 -4.584,0 -7.084,-0.417c-2.5,-0.416 -5,-1.25 -7.5,-2.5c-2.5,-1.25 -4.583,-2.5 -6.666,-4.583c-5.417,-5.417 -6.667,-12.5 -5,-19.167c1.666,-6.666 5.833,-13.333 11.666,-18.75c5.834,-5.416 12.084,-8.333 17.5,-9.583c1.25,-0.417 2.5,-0.417 3.75,-0.833l2.5,-0c0.417,-0.417 0.417,-0.834 0,0.416c-0.416,1.667 0,7.084 2.5,13.334c1.25,5 5.417,12.5 5.834,20.416Z" style="fill:url(#_Linear69);fill-rule:nonzero;"/><path d="M303.563,456.107c-0,4.166 -0.833,7.916 -2.917,11.25c-2.083,3.333 -5.416,5.833 -9.166,7.5c-0.834,0.416 -2.084,0.833 -3.334,0.833c-1.25,0 -2.083,0.417 -3.333,0.417c-2.5,-0 -4.583,-0.417 -7.083,-0.834c-2.5,-0.416 -5,-1.666 -7.084,-2.916c-1.25,-0.417 -2.5,-1.25 -3.333,-2.084l-0.833,-0.416l-1.25,-1.25c-10,-10.834 -4.584,-27.5 7.083,-37.917c5.833,-5.417 12.5,-8.333 17.5,-9.583c2.5,-0.417 5,-0.834 6.667,-0.417l0.416,0c0,0 0,0.417 -0.416,0.833c-0.417,1.667 -0.417,7.084 1.666,13.334c1.667,5.416 5,13.333 5.417,21.25Z" style="fill:url(#_Linear70);fill-rule:nonzero;"/><path d="M301.48,456.523c-0,4.167 -1.25,7.917 -3.334,11.25c-2.083,2.917 -5.416,5.417 -9.583,6.667c-4.167,1.25 -9.167,1.25 -13.75,-0.417c-2.5,-0.833 -5,-1.666 -7.083,-3.333l-1.667,-1.25l-1.25,-0.833c-0.833,-0.417 -1.25,-1.25 -2.083,-2.084c-5,-5.416 -5.834,-12.5 -4.167,-19.166c1.667,-6.667 5.833,-13.334 12.083,-18.75c5.834,-5.417 12.5,-8.334 17.5,-9.167c2.5,-0.417 5,-0.417 6.667,0c2.5,0.833 1.667,0 1.25,1.25c-0.833,1.667 -0.833,7.083 0.833,13.333c0.834,3.334 1.667,7.084 2.917,10.417c1.25,4.167 1.667,7.917 1.667,12.083Z" style="fill:url(#_Linear71);fill-rule:nonzero;"/><path d="M299.396,456.94c-0.416,7.917 -5.416,14.583 -14.166,16.667c-4.167,0.833 -9.167,0.416 -13.75,-1.25c-1.25,-0.417 -2.5,-0.834 -3.75,-1.667c-1.25,-0.417 -2.5,-1.25 -2.917,-1.667c-1.667,-0.833 -2.917,-2.083 -4.167,-3.333c-9.166,-10.833 -3.75,-27.5 8.334,-37.5c5.833,-5 12.5,-7.917 17.916,-9.167c2.5,-0.416 5,-0.416 7.084,0c0.833,0.417 1.666,0.834 2.5,1.25c0.416,0 -0,0.417 -0,0.834c-0.834,1.666 -1.25,6.666 -0,13.333c0.416,3.333 1.666,7.083 2.083,10.833c0.417,2.084 0.833,3.75 0.833,5.834c0.417,1.666 0.417,3.75 0,5.833Z" style="fill:url(#_Linear72);fill-rule:nonzero;"/><path d="M297.73,456.94c-0.417,3.75 -2.084,7.5 -4.584,10.417c-1.25,1.25 -2.916,2.5 -4.583,3.75c-1.667,0.833 -3.75,1.666 -5.833,2.083c-2.084,0.417 -4.584,0.417 -6.667,0c-2.5,-0.417 -4.583,-0.833 -7.083,-2.083c-1.25,-0.417 -2.5,-1.25 -3.334,-1.667c-0.833,-0.417 -1.666,-0.833 -2.5,-1.25c-1.25,-0.833 -2.916,-2.083 -3.75,-3.333c-9.166,-10.834 -3.333,-27.5 8.75,-37.5c6.25,-5 12.5,-7.917 17.917,-8.75c2.5,-0.417 5,-0.417 7.083,-0c0.834,0.416 1.667,0.416 2.5,1.25c0.417,-0 0.834,0.416 0.834,0.833l-0,0.417c-0.834,1.666 -1.667,6.666 -0.417,13.333c0.417,6.25 2.5,14.583 1.667,22.5Z" style="fill:url(#_Linear73);fill-rule:nonzero;"/><path d="M295.646,456.94c-1.666,7.917 -7.083,13.75 -15.833,14.583c-2.083,0.417 -4.583,0 -6.667,-0.416c-2.5,-0.417 -5,-1.25 -7.083,-2.084c-1.667,-0.833 -3.333,-1.666 -4.583,-2.5c-1.25,-0.833 -2.917,-2.083 -3.75,-3.333c-8.75,-10.833 -2.917,-27.083 9.166,-37.5c12.084,-10 26.25,-11.25 29.584,-5.417c-0.834,1.667 -1.667,6.667 -1.25,13.334c0.416,3.75 0.833,7.083 1.25,11.25c-0,2.083 0.416,4.166 0.416,5.833c-0.833,2.5 -0.833,4.167 -1.25,6.25Z" style="fill:url(#_Linear74);fill-rule:nonzero;"/><path d="M293.563,456.523c-1.667,7.5 -7.917,13.334 -16.667,13.75c-2.083,0 -4.583,0 -6.666,-0.416c-1.25,-0.417 -2.5,-0.417 -3.334,-0.834c-1.25,-0.416 -1.666,-0.416 -2.5,-0.833c-3.333,-1.25 -6.25,-3.333 -8.333,-5.833c-8.333,-10.834 -2.5,-27.084 9.583,-37.084c12.5,-10 25.834,-11.25 30,-4.583l0.417,0.833l-0,0.417l-0.417,0.833c-0.416,0.834 -0.416,1.667 -0.833,2.917c-0.417,2.083 -0.417,5.417 -0.417,8.75c0,3.75 0.417,7.5 0.417,11.25l-0,5.833c-0.417,1.25 -0.833,3.334 -1.25,5Z" style="fill:url(#_Linear75);fill-rule:nonzero;"/><path d="M291.896,456.107c-2.083,7.5 -8.333,12.916 -17.5,12.916c-2.083,0 -4.583,0 -6.666,-0.833c-2.084,-0.417 -3.75,-0.833 -5.417,-1.667c-3.333,-1.25 -5.833,-3.333 -7.917,-5.833c-8.333,-10.833 -2.5,-27.083 10,-37.083c12.5,-10 26.25,-10.834 30.417,-4.167c1.667,2.083 -0,2.917 -0.417,5.417c-0.416,2.083 -0.833,5 -0.833,8.333c-0.417,7.083 0.417,15.833 -1.667,22.917Z" style="fill:url(#_Linear76);fill-rule:nonzero;"/><path d="M289.813,455.69c-2.5,7.5 -9.167,12.083 -18.333,12.083c-5,-0.416 -7.917,-0.833 -11.25,-2.083c-2.917,-1.25 -5.834,-3.333 -7.917,-5.833c-7.917,-10.834 -2.083,-27.084 10.417,-37.084c6.25,-5 12.916,-7.5 18.333,-8.333c5.417,-0.417 10,0.833 12.083,4.583c0.417,0.834 0.834,2.084 1.25,2.917c0.417,0.833 0,0.833 -0.416,1.25c-0,0.417 -0.417,0.833 -0.417,1.667c-0.833,2.083 -1.25,5 -1.25,8.333c-0,6.667 0.417,15.417 -2.5,22.5Z" style="fill:url(#_Linear77);fill-rule:nonzero;"/><path d="M288.146,455.273c-1.666,3.75 -3.75,6.667 -7.083,8.334c-3.333,2.083 -7.083,2.916 -11.667,2.5l-2.916,-0c-0.834,-0 -1.667,-0 -2.5,-0.417c-1.667,-0.417 -3.334,-0.833 -5,-1.25c-2.917,-1.25 -5.417,-3.333 -7.5,-6.25c-7.5,-10.833 -1.667,-27.083 10.833,-36.667c12.5,-9.583 26.25,-10.416 30.833,-3.333c0.417,0.833 0.834,2.083 1.25,2.917c0,0.416 0.417,1.25 0.417,1.666c-0,0.834 -0.417,0.834 -0.417,1.667c-0.833,2.083 -1.25,5 -1.666,8.333c-1.667,6.667 -1.667,15.417 -4.584,22.5Z" style="fill:url(#_Linear78);fill-rule:nonzero;"/><path d="M286.063,454.44c-1.667,3.333 -4.167,6.25 -7.5,7.917c-1.667,0.833 -3.333,1.666 -5.417,2.083c-2.083,0.417 -4.166,0.417 -5.833,0.417c-7.083,0.416 -13.333,-2.5 -17.083,-7.917c-7.5,-10.833 -1.667,-27.083 10.833,-36.667c12.5,-9.583 26.25,-10.416 30.833,-2.916c1.25,2.083 1.667,4.166 1.667,7.083c-0.417,2.083 -1.667,5 -2.083,8.333c-1.25,6.25 -1.667,14.584 -5.417,21.667Z" style="fill:url(#_Linear79);fill-rule:nonzero;"/><path d="M284.396,453.607c-2.083,3.333 -4.583,5.833 -8.333,7.5c-1.667,0.833 -3.75,1.25 -5.833,1.666c-2.084,0.417 -3.75,0.834 -5.417,0.834c-7.083,0.416 -13.333,-2.5 -16.667,-7.917c-7.5,-10.833 -1.25,-27.083 11.25,-36.667c6.25,-5 12.917,-7.5 18.75,-7.916c5.417,-0.417 10,1.25 12.5,5.416c1.25,2.084 1.667,4.167 1.667,7.084c0.417,2.916 -1.25,5 -1.667,8.333c-1.666,6.667 -2.5,15 -6.25,21.667Z" style="fill:url(#_Linear80);fill-rule:nonzero;"/><path d="M282.73,452.773c-2.084,3.334 -5,5.834 -8.75,7.5c-0.834,0.417 -1.667,0.834 -2.917,0.834c-0.833,0.416 -1.667,0.416 -2.5,0.833c-1.667,0.417 -3.333,0.833 -5,0.833c-6.667,0.417 -12.917,-2.5 -16.667,-7.916c-7.083,-10.834 -1.25,-27.084 11.667,-36.667c12.917,-9.583 26.667,-10 31.25,-2.083c1.25,2.083 1.667,4.583 1.667,7.083l-0,4.167c-0,0.833 -0.417,1.666 -0.417,2.083c-0.417,0.833 -0.417,1.667 -0.833,2.083c-2.084,6.25 -3.334,14.584 -7.5,21.25Z" style="fill:url(#_Linear81);fill-rule:nonzero;"/><path d="M280.646,451.94c-2.5,3.333 -5.416,5.417 -8.75,7.083c-3.333,1.667 -6.666,2.5 -10,2.5c-6.666,0 -12.916,-2.5 -16.25,-7.916c-7.083,-10.834 -0.833,-27.084 11.667,-36.25c12.917,-9.584 26.667,-10 31.25,-1.667c4.583,7.5 -0,22.5 -7.917,36.25Z" style="fill:url(#_Linear82);fill-rule:nonzero;"/><path d="M278.98,450.69c-5.417,5.833 -12.084,9.167 -18.75,9.583c-6.667,0 -12.917,-2.916 -16.25,-7.916c-7.084,-10.834 -0.834,-26.667 12.083,-36.25c6.25,-4.584 12.917,-7.084 18.75,-7.5c5.833,-0.417 10,1.666 12.5,5.833c2.5,4.167 2.5,10 0.833,16.25c-0.833,3.333 -2.083,6.667 -3.333,10c-1.25,3.333 -3.333,7.083 -5.833,10Z" style="fill:url(#_Linear83);fill-rule:nonzero;"/><path d="M277.313,449.857c-5.417,5.833 -12.083,9.166 -18.75,9.166c-6.667,0 -12.5,-2.916 -15.833,-7.916c-6.667,-10.834 -0.417,-26.667 12.5,-36.25c12.916,-9.584 26.666,-9.584 31.25,-1.25c2.5,4.166 2.5,10 0.833,16.666c-1.667,6.25 -4.583,13.334 -10,19.584Z" style="fill:url(#_Linear84);fill-rule:nonzero;"/><path d="M276.063,449.023c-5.417,5.834 -12.083,9.167 -18.75,9.167c-6.667,0 -12.5,-2.917 -15.833,-8.333c-6.667,-10.834 -0.417,-26.667 12.5,-36.25c12.916,-9.167 26.666,-9.584 31.666,-1.25c2.5,4.166 2.5,10 0.834,16.666c-2.084,6.667 -5,13.75 -10.417,20Z" style="fill:url(#_Linear85);fill-rule:nonzero;"/><path d="M274.396,447.773c-5.416,5.834 -12.5,8.75 -18.75,8.75c-6.666,0 -12.5,-2.916 -15.416,-8.333c-6.667,-10.833 -0,-26.667 12.916,-35.833c12.917,-9.167 26.667,-9.167 31.667,-0.834c2.5,4.167 2.5,10 0.417,16.667c-2.084,6.667 -5.417,13.75 -10.834,19.583Z" style="fill:url(#_Linear86);fill-rule:nonzero;"/><path d="M273.146,446.94c-5.416,5.833 -12.5,8.75 -18.75,8.75c-6.25,0 -12.083,-2.917 -15.416,-8.333c-6.25,-10.834 -0,-26.667 12.916,-35.834c12.917,-9.166 27.084,-9.166 31.667,-0.416c2.5,4.166 2.5,10.416 0.417,16.666c-2.084,6.25 -5.417,13.334 -10.834,19.167Z" style="fill:url(#_Linear87);fill-rule:nonzero;"/><path d="M271.48,445.69c-11.25,11.667 -27.917,10.833 -34.167,0c-6.25,-10.833 -0,-26.667 12.917,-35.833c12.916,-9.167 27.083,-9.167 31.666,-0.417c2.5,4.583 2.084,10.417 0.417,17.083c-1.667,6.667 -5,13.75 -10.833,19.167Z" style="fill:url(#_Linear88);fill-rule:nonzero;"/><path d="M270.23,444.857c-11.25,11.25 -27.917,10.833 -34.167,-0c-6.25,-10.834 0.417,-26.667 13.333,-35.834c12.917,-9.166 27.084,-9.166 31.667,0c2.5,4.584 2.083,10.417 0.417,17.084c-2.084,6.25 -5.417,13.333 -11.25,18.75Z" style="fill:url(#_Linear89);fill-rule:nonzero;"/><path d="M268.98,443.607c-11.25,11.25 -27.917,10.416 -34.167,-0.417c-6.25,-10.833 0.417,-26.667 13.333,-35.833c12.917,-9.167 27.084,-8.75 31.667,-0c2.5,4.583 2.083,10.416 0.417,17.083c-1.667,7.083 -5.417,13.75 -11.25,19.167Z" style="fill:url(#_Linear90);fill-rule:nonzero;"/><path d="M267.73,442.773c-11.667,11.25 -27.917,10.417 -34.167,-0.416c-6.25,-10.834 0.417,-26.667 13.75,-35.834c12.917,-9.166 27.083,-8.75 31.667,0.417c2.5,4.583 2.083,10.417 -0,17.083c-1.667,6.25 -5.417,13.334 -11.25,18.75Z" style="fill:url(#_Linear91);fill-rule:nonzero;"/><path d="M266.063,441.523c-11.667,10.834 -27.917,10 -33.75,-0.833c-5.833,-10.833 0.833,-26.667 13.75,-35.417c13.333,-9.166 27.083,-8.75 31.667,0.417c2.5,4.583 2.083,10.833 -0,17.083c-1.667,6.667 -5.417,13.334 -11.667,18.75Z" style="fill:url(#_Linear92);fill-rule:nonzero;"/><path d="M264.813,440.69c-11.667,10.833 -27.917,10 -33.75,-0.833c-5.833,-10.834 0.833,-26.667 13.75,-35.417c13.333,-8.75 27.083,-8.333 32.083,0.417c2.5,4.583 2.084,10.833 0,17.083c-2.083,6.667 -6.25,13.333 -12.083,18.75Z" style="fill:url(#_Linear93);fill-rule:nonzero;"/><path d="M263.563,439.44c-12.083,10.833 -27.917,10 -33.75,-0.833c-5.833,-10.834 0.833,-26.667 14.167,-35.417c13.333,-8.75 27.083,-8.333 32.083,0.833c2.5,4.584 2.083,10.834 -0,17.084c-2.5,6.25 -6.667,13.333 -12.5,18.333Z" style="fill:url(#_Linear94);fill-rule:nonzero;"/><path d="M262.313,438.607c-12.083,10.416 -27.917,9.583 -33.75,-1.25c-5.833,-10.834 0.833,-26.667 14.167,-35.417c13.333,-8.75 27.083,-8.333 32.083,0.833c2.5,4.584 2.083,10.834 -0,17.084c-2.5,6.666 -6.667,13.333 -12.5,18.75Z" style="fill:url(#_Linear95);fill-rule:nonzero;"/><path d="M261.063,437.357c-12.083,10.416 -27.917,9.583 -33.75,-1.25c-5.833,-10.834 1.25,-26.667 14.167,-35.417c13.333,-8.75 27.5,-8.333 32.083,1.25c2.5,4.583 2.083,10.833 -0,17.083c-2.5,6.25 -6.667,13.334 -12.5,18.334Z" style="fill:url(#_Linear96);fill-rule:nonzero;"/><path d="M259.813,436.107c-12.083,10.416 -27.917,9.583 -33.75,-1.25c-5.833,-10.834 1.25,-26.667 14.583,-35.417c13.334,-8.75 27.5,-8.333 32.084,1.25c2.5,4.583 2.083,10.833 -0.417,17.5c-2.083,6.25 -6.667,12.917 -12.5,17.917Z" style="fill:url(#_Linear97);fill-rule:nonzero;"/><path d="M258.563,435.273c-12.083,10.417 -27.917,9.167 -33.75,-1.666c-5.833,-10.834 1.25,-26.667 14.583,-35.417c13.334,-8.75 27.5,-7.917 32.084,1.25c2.5,4.583 2.083,10.833 -0.417,17.5c-2.083,6.25 -6.25,12.917 -12.5,18.333Z" style="fill:url(#_Linear98);fill-rule:nonzero;"/><path d="M257.313,434.023c-12.083,10 -27.917,9.167 -33.75,-1.666c-5.417,-10.834 1.25,-26.25 14.583,-35c13.334,-8.75 27.5,-7.917 32.084,1.666c2.5,4.584 2.083,10.834 -0.417,17.5c-2.083,5.834 -6.25,12.5 -12.5,17.5Z" style="fill:url(#_Linear99);fill-rule:nonzero;"/><path d="M256.063,432.773c-12.5,10 -27.917,9.167 -33.333,-1.666c-5.417,-10.834 1.666,-26.25 15,-35c13.333,-8.75 27.5,-7.917 32.083,1.666c2.5,5 2.083,10.834 -0.417,17.5c-2.916,5.834 -7.083,12.5 -13.333,17.5Z" style="fill:url(#_Linear100);fill-rule:nonzero;"/><path d="M254.813,431.523c-12.5,10 -27.917,8.75 -33.333,-2.083c-5.417,-10.833 1.666,-26.25 15,-35c13.333,-8.75 27.5,-7.917 32.083,1.667c2.5,5 2.083,10.833 -0.417,17.5c-2.916,6.666 -7.083,12.916 -13.333,17.916Z" style="fill:url(#_Linear101);fill-rule:nonzero;"/><path d="M253.563,430.69c-12.5,10 -27.917,8.75 -33.333,-2.083c-5.417,-10.834 1.666,-26.25 15,-35c13.333,-8.75 27.5,-7.917 32.083,1.666c2.5,5 2.083,11.25 -0.417,17.5c-2.5,6.25 -7.083,12.917 -13.333,17.917Z" style="fill:url(#_Linear102);fill-rule:nonzero;"/><path d="M252.313,429.44c-12.5,10 -27.917,8.75 -33.333,-2.083c-5.417,-10.834 1.666,-26.25 15,-35c13.333,-8.75 27.5,-7.5 32.083,2.083c2.083,5 1.667,11.25 -0.417,17.5c-2.5,6.25 -7.083,12.5 -13.333,17.5Z" style="fill:url(#_Linear103);fill-rule:nonzero;"/><path d="M251.063,428.19c-12.5,9.583 -27.917,8.333 -33.333,-2.5c-5.417,-10.833 2.083,-26.25 15.416,-35c13.334,-8.333 27.5,-7.5 32.084,2.083c4.166,10 -1.667,25.834 -14.167,35.417Z" style="fill:url(#_Linear104);fill-rule:nonzero;"/><path d="M249.813,426.94c-12.5,9.583 -27.917,8.333 -33.333,-2.5c-5.417,-10.833 2.083,-26.25 15.416,-35c13.334,-8.333 27.5,-7.5 32.084,2.083c4.583,10 -1.667,25.834 -14.167,35.417Z" style="fill:url(#_Linear105);fill-rule:nonzero;"/><path d="M248.563,426.107c-12.5,9.583 -27.917,8.333 -33.333,-2.5c-5.417,-10.834 2.083,-26.25 15.416,-35c13.334,-8.334 27.5,-7.5 32.084,2.5c4.583,9.583 -1.25,25 -14.167,35Z" style="fill:url(#_Linear106);fill-rule:nonzero;"/><path d="M247.313,424.857c-12.5,9.583 -28.333,8.333 -33.333,-2.5c-5,-10.834 2.083,-26.25 15.416,-34.584c13.334,-8.333 27.5,-7.5 32.084,2.5c5,9.167 -1.25,25 -14.167,34.584Z" style="fill:url(#_Linear107);fill-rule:nonzero;"/><path d="M246.48,423.607c-12.917,9.583 -28.334,7.916 -33.334,-2.917c-5,-10.833 2.084,-26.25 15.834,-34.583c13.333,-8.334 27.5,-7.084 32.083,2.5c4.167,9.583 -2.083,25.416 -14.583,35Z" style="fill:url(#_Linear108);fill-rule:nonzero;"/><path d="M245.23,422.357c-12.917,9.583 -28.334,7.916 -33.334,-2.917c-5,-10.833 2.084,-26.25 15.834,-34.583c13.75,-8.334 27.5,-7.084 32.083,2.5c4.167,10 -2.083,25.416 -14.583,35Z" style="fill:url(#_Linear109);fill-rule:nonzero;"/><path d="M243.98,421.107c-12.917,9.583 -28.334,7.916 -33.334,-2.917c-5,-10.833 2.5,-26.25 15.834,-34.583c13.75,-8.334 27.916,-7.084 32.083,2.916c4.583,9.584 -1.667,25.417 -14.583,34.584Z" style="fill:url(#_Linear110);fill-rule:nonzero;"/><path d="M242.73,419.857c-12.917,9.166 -28.334,7.916 -33.334,-2.917c-5,-10.833 2.5,-26.25 15.834,-34.583c13.75,-8.334 27.916,-7.084 32.083,2.916c4.583,9.584 -1.667,25.417 -14.583,34.584Z" style="fill:url(#_Linear111);fill-rule:nonzero;"/><path d="M241.48,418.607c-12.917,9.166 -28.334,7.916 -33.334,-3.334c-5,-10.833 2.5,-26.25 16.25,-34.583c13.75,-8.333 27.917,-7.083 32.084,2.917c4.583,10.416 -2.084,25.833 -15,35Z" style="fill:url(#_Linear112);fill-rule:nonzero;"/><path d="M240.646,417.773c-12.916,9.167 -28.333,7.5 -33.333,-3.333c-5,-10.833 2.5,-26.25 16.25,-34.583c13.75,-8.334 27.917,-7.084 32.083,2.916c4.167,10 -2.083,25.417 -15,35Z" style="fill:url(#_Linear113);fill-rule:nonzero;"/><path d="M239.396,416.523c-12.916,9.167 -28.333,7.5 -33.333,-3.333c-5,-10.833 2.5,-26.25 16.25,-34.583c13.75,-8.334 27.917,-6.667 32.083,2.916c4.584,10 -2.083,25.834 -15,35Z" style="fill:url(#_Linear114);fill-rule:nonzero;"/><path d="M238.146,415.273c-12.916,9.167 -28.333,7.5 -32.916,-3.333c-5,-10.833 2.5,-26.25 16.25,-34.583c13.75,-8.334 27.916,-6.667 32.083,3.333c4.167,10 -2.5,25.417 -15.417,34.583Z" style="fill:url(#_Linear115);fill-rule:nonzero;"/><path d="M236.896,414.023c-12.916,9.167 -28.333,7.5 -32.916,-3.333c-5,-10.833 2.916,-26.25 16.25,-34.167c13.75,-7.916 27.916,-6.666 32.083,3.334c4.583,9.583 -2.083,25 -15.417,34.166Z" style="fill:url(#_Linear116);fill-rule:nonzero;"/><path d="M236.063,412.773c-12.917,9.167 -28.333,7.5 -32.917,-3.75c-5,-10.833 2.917,-26.25 16.667,-34.166c13.75,-7.917 27.917,-6.667 32.083,3.333c3.75,10 -2.916,25.417 -15.833,34.583Z" style="fill:url(#_Linear117);fill-rule:nonzero;"/><path d="M234.813,411.523c-13.333,9.167 -28.333,7.084 -32.917,-3.75c-5,-10.833 2.917,-26.25 16.667,-34.166c13.75,-7.917 27.917,-6.667 32.083,3.333c4.167,10 -2.916,25.417 -15.833,34.583Z" style="fill:url(#_Linear118);fill-rule:nonzero;"/><path d="M233.563,410.273c-13.333,9.167 -28.333,7.084 -32.917,-3.75c-5,-10.833 2.917,-26.25 16.667,-34.166c13.75,-7.917 27.917,-6.667 32.083,3.333c4.167,10.417 -2.5,25.833 -15.833,34.583Z" style="fill:url(#_Linear119);fill-rule:nonzero;"/><path d="M232.73,409.023c-13.334,8.75 -28.334,7.084 -32.917,-3.75c-4.583,-10.833 2.917,-26.25 16.667,-34.166c13.75,-7.917 27.916,-6.25 32.083,3.75c4.167,10 -2.917,25.416 -15.833,34.166Z" style="fill:url(#_Linear120);fill-rule:nonzero;"/><path d="M247.313,373.607c-4.167,-10 -18.333,-11.667 -32.083,-3.75c-13.75,7.916 -21.667,23.333 -17.084,34.166c4.584,10.834 20,12.917 32.917,3.75c13.75,-8.75 20.417,-24.166 16.25,-34.166Z" style="fill:url(#_Linear121);fill-rule:nonzero;"/></g><circle cx="220.646" cy="385.69" r="29.167" style="fill:#10e13e;"/><path d="M339.813,325.69l66.25,-10.833c7.083,-1.25 13.75,3.75 15,10.833l10.833,66.25c1.667,11.667 -11.25,19.583 -20.833,12.917l-77.083,-55.417c-9.167,-7.083 -5.834,-21.667 5.833,-23.75Z" style="fill:#10e13e;fill-rule:nonzero;"/><path d="M343.563,366.107l5.833,-8.75l3.334,3.333c-0,0 -2.917,2.083 -3.334,2.083c-0.416,0 -5.833,3.334 -5.833,3.334Z" style="fill:#10e13e;fill-rule:nonzero;"/><path d="M390.23,401.107l5.833,-8.334c-0,0 -4.583,-2.083 -4.583,-1.666c-0,-0 -0.834,3.75 -0.417,3.75c0.417,-0 -0.833,6.25 -0.833,6.25Z" style="fill:#10e13e;fill-rule:nonzero;"/></g><g><path d="M423.146,56.94c-36.25,-10.833 -71.666,-1.667 -97.5,24.167l-15.416,-14.167c-8.75,-7.917 -22.5,-1.667 -22.084,10l2.084,67.083c0.416,7.084 6.25,12.917 13.75,12.917l67.083,-2.083c11.667,-0.417 17.083,-14.584 8.75,-22.917l-11.25,-10.833c12.917,-12.084 27.083,-11.667 37.917,-8.334c22.916,7.084 46.25,32.917 44.166,67.084c-0.833,10.833 -5.833,31.25 -26.25,67.083c-2.083,3.75 -2.916,5.417 -3.75,6.667c-0.416,0.833 -1.25,1.666 -2.5,3.75l-0.416,0.416c-2.5,3.334 -4.167,7.5 -5,12.084c-2.917,15.833 7.5,31.25 23.333,34.166c12.5,2.084 24.167,-3.75 30.417,-13.75l0.416,-0.416c3.75,-5.834 4.584,-7.084 5.834,-9.584c0.416,-0.416 0.416,-1.25 2.083,-4.166c21.25,-37.084 32.5,-67.084 33.75,-92.5c4.167,-65 -40,-112.917 -85.417,-126.667Z" style="fill:#10e13e;fill-rule:nonzero;"/><path d="M268.98,107.357c-25.417,-43.334 -69.584,-61.667 -115.417,-47.917c-45.417,13.75 -89.167,61.667 -85.417,126.25c1.667,29.167 7.084,45.833 25.417,77.083c-0,0.417 13.75,22.917 27.5,42.917l-15,10c-10,6.25 -7.083,21.667 4.583,23.75l65.834,13.75c7.083,1.667 14.166,-2.917 15.416,-10l13.75,-65.833c2.5,-11.667 -10.416,-20 -20,-13.75l-15.416,10c-8.75,-12.5 -20,-29.584 -25.834,-40c-15.416,-26.667 -16.666,-33.75 -17.5,-51.25c-2.083,-34.167 21.25,-60 44.167,-67.084c13.75,-4.166 33.333,-3.75 48.333,21.25c4.167,7.917 11.25,13.75 20.417,15.417c15.833,2.917 31.25,-7.5 34.167,-23.333c0.833,-7.5 -0.834,-15 -5,-21.25Z" style="fill:#10e13e;fill-rule:nonzero;"/></g></g></g><g id="Ebene1"><path d="M506.482,389.085l11.594,-4.077l7.699,-6.3l5.932,-7.979l3.52,-8.165l2.502,-12.617l-0.278,-7.701l-2.316,-8.072l-5.374,-6.487l-9.83,-4.539l-24.394,-0l-14.006,65.937l24.951,-0Zm-2.69,-56.024l12.8,-0l6.122,2.783l3.154,3.897l1.577,5.381l0.278,6.402l-1.948,9.185l-3.154,6.401l-3.617,5.196l-4.823,3.989l-7.328,2.877l-12.8,-0l9.739,-46.111Z" style="fill:#ff9a1e;fill-rule:nonzero;"/><path d="M584.524,384.731l-2.689,-5.839l5.657,-26.44l-1.577,-6.124l-6.305,-5.281l-5.657,-1.575l-8.624,0l-7.047,1.853l-4.637,2.687l-4.266,3.428l5.472,7.149l3.152,-2.509l2.875,-1.672l3.246,-1.115l5.934,-0l3.895,1.022l2.689,2.137l0.371,1.858l-0.927,4.36l-0.835,-0.649l-5.285,-2.038l-6.492,-0l-9.736,2.501l-7.511,6.115l-3.153,6.96l-0.649,5.662l3.709,7.603l4.173,3.057l5.564,1.946l6.12,-0l9.087,-4.169l1.299,-1.39l2.782,6.023l9.365,-5.56Zm-28.839,-5.931l-1.484,-0.929l-1.576,-3.342l0.464,-2.228l1.205,-2.413l3.431,-2.692l5.379,-1.393l3.616,0l3.987,1.3l1.855,1.021l1.206,1.578l-0.557,2.599l-1.205,2.043l-3.895,3.342l-6.491,2.32l-2.597,0l-3.338,-1.206Z" style="fill:#ff9a1e;fill-rule:nonzero;"/><path d="M613.654,389.827l9.643,-2.131l-0.741,-9.638l-7.604,1.948l-1.947,0l-2.225,-1.113l-1.205,-2.227l5.377,-25.425l12.147,-0l2.133,-9.821l-12.147,0l3.616,-17.067l-10.292,0l-3.616,17.067l-8.345,0l-2.133,9.821l8.345,-0l-6.027,28.487l4.173,7.319l6.212,2.78l4.636,-0Z" style="fill:#ff9a1e;fill-rule:nonzero;"/><path d="M672.085,384.731l-2.689,-5.839l5.657,-26.44l-1.577,-6.124l-6.306,-5.281l-5.656,-1.575l-8.624,0l-7.048,1.853l-4.636,2.687l-4.266,3.428l5.471,7.149l3.153,-2.509l2.875,-1.672l3.245,-1.115l5.935,-0l3.895,1.022l2.689,2.137l0.371,1.858l-0.927,4.36l-0.835,-0.649l-5.286,-2.038l-6.491,-0l-9.737,2.501l-7.511,6.115l-3.153,6.96l-0.649,5.662l3.71,7.603l4.172,3.057l5.564,1.946l6.121,-0l9.087,-4.169l1.298,-1.39l2.782,6.023l9.366,-5.56Zm-28.839,-5.931l-1.484,-0.929l-1.576,-3.342l0.463,-2.228l1.206,-2.413l3.431,-2.692l5.378,-1.393l3.617,0l3.987,1.3l1.855,1.021l1.205,1.578l-0.556,2.599l-1.206,2.043l-3.894,3.342l-6.491,2.32l-2.597,0l-3.338,-1.206Z" style="fill:#ff9a1e;fill-rule:nonzero;"/><path d="M468.909,564.5l11.594,-4.076l7.699,-6.301l5.931,-7.979l3.521,-8.164l2.502,-12.618l-0.278,-7.701l-2.317,-8.071l-5.373,-6.487l-9.83,-4.54l-24.394,-0l-14.006,65.937l24.951,0Zm-2.69,-56.024l12.8,-0l6.122,2.784l3.154,3.896l1.576,5.381l0.279,6.402l-1.948,9.185l-3.154,6.402l-3.617,5.195l-4.824,3.99l-7.327,2.876l-12.8,-0l9.739,-46.111Z" style="fill:#ff9a1e;fill-rule:nonzero;"/><path d="M546.951,560.147l-2.689,-5.839l5.657,-26.441l-1.577,-6.124l-6.306,-5.28l-5.656,-1.575l-8.624,-0l-7.048,1.853l-4.636,2.686l-4.266,3.428l5.471,7.149l3.153,-2.508l2.875,-1.673l3.245,-1.115l5.935,0l3.895,1.022l2.689,2.137l0.371,1.859l-0.927,4.359l-0.835,-0.649l-5.286,-2.038l-6.491,0l-9.736,2.501l-7.512,6.115l-3.153,6.96l-0.649,5.663l3.71,7.602l4.173,3.057l5.563,1.946l6.121,0l9.087,-4.169l1.298,-1.39l2.782,6.023l9.366,-5.559Zm-28.839,-5.932l-1.484,-0.929l-1.576,-3.341l0.463,-2.228l1.206,-2.414l3.431,-2.692l5.378,-1.393l3.617,0l3.987,1.3l1.855,1.021l1.205,1.578l-0.556,2.6l-1.205,2.042l-3.895,3.342l-6.491,2.321l-2.597,-0l-3.338,-1.207Z" style="fill:#ff9a1e;fill-rule:nonzero;"/><path d="M566.624,579.526l42.38,-63.896l-11.592,-0l-19.104,29.491l-6.676,-29.491l-10.85,-0l9.922,40.99l-15.301,22.906l11.221,0Z" style="fill:#ff9a1e;fill-rule:nonzero;"/><path d="M623.016,565.242l7.418,-1.853l5.471,-3.335l4.173,-5.56l1.762,-8.351l-2.504,-6.125l-4.636,-3.433l-12.982,-2.876l-1.762,-1.021l-0.928,-1.67l0.649,-3.155l1.206,-1.485l1.113,-0.835l3.523,-0.928l5.472,0l4.172,1.392l4.266,3.433l6.769,-8.16l-5.656,-4.262l-6.862,-2.13l-8.161,-0l-5.934,1.482l-5.379,3.243l-4.173,5.744l-1.483,8.723l2.874,5.567l5.564,3.155l11.963,2.784l1.669,1.392l0.834,1.948l-0.556,2.691l-1.577,1.67l-2.132,1.299l-3.246,0.928l-5.378,0l-5.101,-1.484l-1.854,-1.578l-1.855,-2.598l-8.067,6.679l2.503,3.15l4.173,3.428l6.491,2.131l8.161,0Z" style="fill:#ff9a1e;fill-rule:nonzero;"/><path d="M487.663,476.751l11.594,-4.076l7.699,-6.301l5.932,-7.979l3.52,-8.164l2.502,-12.618l-0.278,-7.7l-2.316,-8.072l-5.374,-6.487l-9.83,-4.54l-24.394,0l-14.006,65.937l24.951,0Zm-2.69,-56.024l12.8,0l6.122,2.784l3.154,3.897l1.577,5.381l0.278,6.401l-1.948,9.185l-3.154,6.402l-3.617,5.196l-4.823,3.989l-7.328,2.876l-12.8,0l9.739,-46.111Z" style="fill:#ff9a1e;fill-rule:nonzero;"/><path d="M547.921,477.493l10.47,-4.354l6.485,-7.322l3.058,-7.98l2.316,-10.949l-0,-7.609l-3.891,-7.508l-8.339,-4.632l-9.821,0l-10.192,4.632l-6.499,6.951l-3.438,8.166l-1.951,10.764l-0,7.794l3.809,7.508l7.986,4.539l10.007,0Zm-10.285,-12.14l-1.668,-3.062l0.278,-5.938l1.761,-8.352l2.316,-5.474l3.058,-3.248l4.818,-2.32l6.393,0l4.077,2.32l1.482,3.341l0,5.381l-1.76,8.537l-2.409,5.66l-2.687,3.155l-5.374,2.413l-6.116,-0l-4.169,-2.413Z" style="fill:#ff9a1e;fill-rule:nonzero;"/><path d="M586.12,476.751l6.955,-32.835l2.875,-3.154l6.584,-3.803l4.914,0l3.988,1.485l1.205,2.504l-7.604,35.803l10.294,0l8.253,-39.049l-4.544,-7.876l-7.79,-2.687l-8.16,0l-7.233,3.707l0.649,-2.965l-10.293,0l-10.386,48.87l10.293,0Z" style="fill:#ff9a1e;fill-rule:nonzero;"/><path d="M671.817,472.398l-2.689,-5.839l5.657,-26.44l-1.577,-6.124l-6.306,-5.281l-5.656,-1.575l-8.624,0l-7.048,1.853l-4.636,2.687l-4.266,3.428l5.471,7.149l3.153,-2.509l2.875,-1.673l3.245,-1.115l5.935,0l3.895,1.023l2.689,2.137l0.371,1.858l-0.927,4.359l-0.835,-0.648l-5.286,-2.039l-6.491,0l-9.737,2.502l-7.511,6.114l-3.153,6.96l-0.649,5.663l3.71,7.603l4.172,3.057l5.564,1.945l6.121,0l9.087,-4.169l1.298,-1.389l2.782,6.022l9.366,-5.559Zm-28.839,-5.932l-1.484,-0.928l-1.576,-3.342l0.463,-2.228l1.206,-2.414l3.431,-2.692l5.378,-1.392l3.617,-0l3.987,1.299l1.855,1.022l1.205,1.578l-0.556,2.599l-1.206,2.042l-3.894,3.342l-6.491,2.321l-2.597,-0l-3.338,-1.207Z" style="fill:#ff9a1e;fill-rule:nonzero;"/><path d="M700.947,477.493l9.643,-2.13l-0.742,-9.639l-7.603,1.949l-1.947,-0l-2.225,-1.114l-1.206,-2.227l5.378,-25.425l12.147,0l2.132,-9.82l-12.146,-0l3.616,-17.067l-10.292,-0l-3.616,17.067l-8.345,-0l-2.133,9.82l8.345,0l-6.027,28.488l4.173,7.319l6.212,2.779l4.636,0Z" style="fill:#ff9a1e;fill-rule:nonzero;"/><path d="M743.517,420.264l2.875,-13.438l-13.444,-0l-2.874,13.438l13.443,-0Zm-13.351,56.487l10.384,-48.87l-10.291,0l-10.384,48.87l10.291,0Z" style="fill:#ff9a1e;fill-rule:nonzero;"/><path d="M770.347,477.493l10.47,-4.354l6.486,-7.322l3.057,-7.98l2.316,-10.949l0,-7.609l-3.891,-7.508l-8.338,-4.632l-9.822,0l-10.192,4.632l-6.499,6.951l-3.438,8.166l-1.951,10.764l0,7.794l3.81,7.508l7.986,4.539l10.006,0Zm-10.284,-12.14l-1.669,-3.062l0.279,-5.938l1.76,-8.352l2.317,-5.474l3.057,-3.248l4.818,-2.32l6.393,0l4.077,2.32l1.483,3.341l-0,5.381l-1.761,8.537l-2.409,5.66l-2.687,3.155l-5.374,2.413l-6.115,-0l-4.169,-2.413Z" style="fill:#ff9a1e;fill-rule:nonzero;"/><path d="M808.546,476.751l6.955,-32.835l2.875,-3.154l6.584,-3.803l4.915,0l3.987,1.485l1.206,2.504l-7.604,35.803l10.293,0l8.253,-39.049l-4.544,-7.876l-7.789,-2.687l-8.16,0l-7.234,3.707l0.65,-2.965l-10.294,0l-10.386,48.87l10.293,0Z" style="fill:#ff9a1e;fill-rule:nonzero;"/></g><defs><linearGradient id="_Linear1" x1="0" y1="0" x2="1" y2="0" gradientUnits="userSpaceOnUse" gradientTransform="matrix(128.789,-105.185,105.185,128.789,191.042,429.711)"><stop offset="0" style="stop-color:#fff;stop-opacity:1"/><stop offset="0.5" style="stop-color:#8cc999;stop-opacity:1"/><stop offset="1" style="stop-color:#10e13e;stop-opacity:1"/></linearGradient><linearGradient id="_Linear2" x1="0" y1="0" x2="1" y2="0" gradientUnits="userSpaceOnUse" gradientTransform="matrix(128.789,-105.185,105.185,128.789,191.042,429.711)"><stop offset="0" style="stop-color:#fff;stop-opacity:1"/><stop offset="0.5" style="stop-color:#8cc999;stop-opacity:1"/><stop offset="1" style="stop-color:#10e13e;stop-opacity:1"/></linearGradient><linearGradient id="_Linear3" x1="0" y1="0" x2="1" y2="0" gradientUnits="userSpaceOnUse" gradientTransform="matrix(128.789,-105.185,105.185,128.789,191.042,429.711)"><stop offset="0" style="stop-color:#fff;stop-opacity:1"/><stop offset="0.5" style="stop-color:#8cc999;stop-opacity:1"/><stop offset="1" style="stop-color:#10e13e;stop-opacity:1"/></linearGradient><linearGradient id="_Linear4" x1="0" y1="0" x2="1" y2="0" gradientUnits="userSpaceOnUse" gradientTransform="matrix(128.789,-105.185,105.185,128.789,191.042,429.711)"><stop offset="0" style="stop-color:#fff;stop-opacity:1"/><stop offset="0.5" style="stop-color:#8cc999;stop-opacity:1"/><stop offset="1" style="stop-color:#10e13e;stop-opacity:1"/></linearGradient><linearGradient id="_Linear5" x1="0" y1="0" x2="1" y2="0" gradientUnits="userSpaceOnUse" gradientTransform="matrix(128.789,-105.185,105.185,128.789,191.042,429.711)"><stop offset="0" style="stop-color:#fff;stop-opacity:1"/><stop offset="0.5" style="stop-color:#8cc999;stop-opacity:1"/><stop offset="1" style="stop-color:#10e13e;stop-opacity:1"/></linearGradient><linearGradient id="_Linear6" x1="0" y1="0" x2="1" y2="0" gradientUnits="userSpaceOnUse" gradientTransform="matrix(128.789,-105.185,105.185,128.789,191.042,429.711)"><stop offset="0" style="stop-color:#fff;stop-opacity:1"/><stop offset="0.5" style="stop-color:#8cc999;stop-opacity:1"/><stop offset="1" style="stop-color:#10e13e;stop-opacity:1"/></linearGradient><linearGradient id="_Linear7" x1="0" y1="0" x2="1" y2="0" gradientUnits="userSpaceOnUse" gradientTransform="matrix(128.789,-105.185,105.185,128.789,191.042,429.711)"><stop offset="0" style="stop-color:#fff;stop-opacity:1"/><stop offset="0.5" style="stop-color:#8cc999;stop-opacity:1"/><stop offset="1" style="stop-color:#10e13e;stop-opacity:1"/></linearGradient><linearGradient id="_Linear8" x1="0" y1="0" x2="1" y2="0" gradientUnits="userSpaceOnUse" gradientTransform="matrix(128.789,-105.185,105.185,128.789,191.042,429.711)"><stop offset="0" style="stop-color:#fff;stop-opacity:1"/><stop offset="0.5" style="stop-color:#8cc999;stop-opacity:1"/><stop offset="1" style="stop-color:#10e13e;stop-opacity:1"/></linearGradient><linearGradient id="_Linear9" x1="0" y1="0" x2="1" y2="0" gradientUnits="userSpaceOnUse" gradientTransform="matrix(128.789,-105.185,105.185,128.789,191.042,429.711)"><stop offset="0" style="stop-color:#fff;stop-opacity:1"/><stop offset="0.5" style="stop-color:#8cc999;stop-opacity:1"/><stop offset="1" style="stop-color:#10e13e;stop-opacity:1"/></linearGradient><linearGradient id="_Linear10" x1="0" y1="0" x2="1" y2="0" gradientUnits="userSpaceOnUse" gradientTransform="matrix(128.789,-105.185,105.185,128.789,191.042,429.711)"><stop offset="0" style="stop-color:#fff;stop-opacity:1"/><stop offset="0.5" style="stop-color:#8cc999;stop-opacity:1"/><stop offset="1" style="stop-color:#10e13e;stop-opacity:1"/></linearGradient><linearGradient id="_Linear11" x1="0" y1="0" x2="1" y2="0" gradientUnits="userSpaceOnUse" gradientTransform="matrix(128.789,-105.185,105.185,128.789,191.042,429.711)"><stop offset="0" style="stop-color:#fff;stop-opacity:1"/><stop offset="0.5" style="stop-color:#8cc999;stop-opacity:1"/><stop offset="1" style="stop-color:#10e13e;stop-opacity:1"/></linearGradient><linearGradient id="_Linear12" x1="0" y1="0" x2="1" y2="0" gradientUnits="userSpaceOnUse" gradientTransform="matrix(128.789,-105.185,105.185,128.789,191.042,429.711)"><stop offset="0" style="stop-color:#fff;stop-opacity:1"/><stop offset="0.5" style="stop-color:#8cc999;stop-opacity:1"/><stop offset="1" style="stop-color:#10e13e;stop-opacity:1"/></linearGradient><linearGradient id="_Linear13" x1="0" y1="0" x2="1" y2="0" gradientUnits="userSpaceOnUse" gradientTransform="matrix(128.789,-105.185,105.185,128.789,191.042,429.711)"><stop offset="0" style="stop-color:#fff;stop-opacity:1"/><stop offset="0.5" style="stop-color:#8cc999;stop-opacity:1"/><stop offset="1" style="stop-color:#10e13e;stop-opacity:1"/></linearGradient><linearGradient id="_Linear14" x1="0" y1="0" x2="1" y2="0" gradientUnits="userSpaceOnUse" gradientTransform="matrix(128.789,-105.185,105.185,128.789,191.042,429.711)"><stop offset="0" style="stop-color:#fff;stop-opacity:1"/><stop offset="0.5" style="stop-color:#8cc999;stop-opacity:1"/><stop offset="1" style="stop-color:#10e13e;stop-opacity:1"/></linearGradient><linearGradient id="_Linear15" x1="0" y1="0" x2="1" y2="0" gradientUnits="userSpaceOnUse" gradientTransform="matrix(128.789,-105.185,105.185,128.789,191.042,429.711)"><stop offset="0" style="stop-color:#fff;stop-opacity:1"/><stop offset="0.5" style="stop-color:#8cc999;stop-opacity:1"/><stop offset="1" style="stop-color:#10e13e;stop-opacity:1"/></linearGradient><linearGradient id="_Linear16" x1="0" y1="0" x2="1" y2="0" gradientUnits="userSpaceOnUse" gradientTransform="matrix(128.789,-105.185,105.185,128.789,191.042,429.711)"><stop offset="0" style="stop-color:#fff;stop-opacity:1"/><stop offset="0.5" style="stop-color:#8cc999;stop-opacity:1"/><stop offset="1" style="stop-color:#10e13e;stop-opacity:1"/></linearGradient><linearGradient id="_Linear17" x1="0" y1="0" x2="1" y2="0" gradientUnits="userSpaceOnUse" gradientTransform="matrix(128.789,-105.185,105.185,128.789,191.042,429.711)"><stop offset="0" style="stop-color:#fff;stop-opacity:1"/><stop offset="0.5" style="stop-color:#8cc999;stop-opacity:1"/><stop offset="1" style="stop-color:#10e13e;stop-opacity:1"/></linearGradient><linearGradient id="_Linear18" x1="0" y1="0" x2="1" y2="0" gradientUnits="userSpaceOnUse" gradientTransform="matrix(128.789,-105.185,105.185,128.789,191.042,429.711)"><stop offset="0" style="stop-color:#fff;stop-opacity:1"/><stop offset="0.5" style="stop-color:#8cc999;stop-opacity:1"/><stop offset="1" style="stop-color:#10e13e;stop-opacity:1"/></linearGradient><linearGradient id="_Linear19" x1="0" y1="0" x2="1" y2="0" gradientUnits="userSpaceOnUse" gradientTransform="matrix(128.789,-105.185,105.185,128.789,191.042,429.711)"><stop offset="0" style="stop-color:#fff;stop-opacity:1"/><stop offset="0.5" style="stop-color:#8cc999;stop-opacity:1"/><stop offset="1" style="stop-color:#10e13e;stop-opacity:1"/></linearGradient><linearGradient id="_Linear20" x1="0" y1="0" x2="1" y2="0" gradientUnits="userSpaceOnUse" gradientTransform="matrix(128.789,-105.185,105.185,128.789,191.042,429.711)"><stop offset="0" style="stop-color:#fff;stop-opacity:1"/><stop offset="0.5" style="stop-color:#8cc999;stop-opacity:1"/><stop offset="1" style="stop-color:#10e13e;stop-opacity:1"/></linearGradient><linearGradient id="_Linear21" x1="0" y1="0" x2="1" y2="0" gradientUnits="userSpaceOnUse" gradientTransform="matrix(128.789,-105.185,105.185,128.789,191.042,429.711)"><stop offset="0" style="stop-color:#fff;stop-opacity:1"/><stop offset="0.5" style="stop-color:#8cc999;stop-opacity:1"/><stop offset="1" style="stop-color:#10e13e;stop-opacity:1"/></linearGradient><linearGradient id="_Linear22" x1="0" y1="0" x2="1" y2="0" gradientUnits="userSpaceOnUse" gradientTransform="matrix(128.789,-105.185,105.185,128.789,191.042,429.711)"><stop offset="0" style="stop-color:#fff;stop-opacity:1"/><stop offset="0.5" style="stop-color:#8cc999;stop-opacity:1"/><stop offset="1" style="stop-color:#10e13e;stop-opacity:1"/></linearGradient><linearGradient id="_Linear23" x1="0" y1="0" x2="1" y2="0" gradientUnits="userSpaceOnUse" gradientTransform="matrix(128.789,-105.185,105.185,128.789,191.042,429.711)"><stop offset="0" style="stop-color:#fff;stop-opacity:1"/><stop offset="0.5" style="stop-color:#8cc999;stop-opacity:1"/><stop offset="1" style="stop-color:#10e13e;stop-opacity:1"/></linearGradient><linearGradient id="_Linear24" x1="0" y1="0" x2="1" y2="0" gradientUnits="userSpaceOnUse" gradientTransform="matrix(128.789,-105.185,105.185,128.789,191.042,429.711)"><stop offset="0" style="stop-color:#fff;stop-opacity:1"/><stop offset="0.5" style="stop-color:#8cc999;stop-opacity:1"/><stop offset="1" style="stop-color:#10e13e;stop-opacity:1"/></linearGradient><linearGradient id="_Linear25" x1="0" y1="0" x2="1" y2="0" gradientUnits="userSpaceOnUse" gradientTransform="matrix(128.789,-105.185,105.185,128.789,191.042,429.711)"><stop offset="0" style="stop-color:#fff;stop-opacity:1"/><stop offset="0.5" style="stop-color:#8cc999;stop-opacity:1"/><stop offset="1" style="stop-color:#10e13e;stop-opacity:1"/></linearGradient><linearGradient id="_Linear26" x1="0" y1="0" x2="1" y2="0" gradientUnits="userSpaceOnUse" gradientTransform="matrix(128.789,-105.185,105.185,128.789,191.042,429.711)"><stop offset="0" style="stop-color:#fff;stop-opacity:1"/><stop offset="0.5" style="stop-color:#8cc999;stop-opacity:1"/><stop offset="1" style="stop-color:#10e13e;stop-opacity:1"/></linearGradient><linearGradient id="_Linear27" x1="0" y1="0" x2="1" y2="0" gradientUnits="userSpaceOnUse" gradientTransform="matrix(128.789,-105.185,105.185,128.789,191.042,429.711)"><stop offset="0" style="stop-color:#fff;stop-opacity:1"/><stop offset="0.5" style="stop-color:#8cc999;stop-opacity:1"/><stop offset="1" style="stop-color:#10e13e;stop-opacity:1"/></linearGradient><linearGradient id="_Linear28" x1="0" y1="0" x2="1" y2="0" gradientUnits="userSpaceOnUse" gradientTransform="matrix(128.789,-105.185,105.185,128.789,191.042,429.711)"><stop offset="0" style="stop-color:#fff;stop-opacity:1"/><stop offset="0.5" style="stop-color:#8cc999;stop-opacity:1"/><stop offset="1" style="stop-color:#10e13e;stop-opacity:1"/></linearGradient><linearGradient id="_Linear29" x1="0" y1="0" x2="1" y2="0" gradientUnits="userSpaceOnUse" gradientTransform="matrix(128.789,-105.185,105.185,128.789,191.042,429.711)"><stop offset="0" style="stop-color:#fff;stop-opacity:1"/><stop offset="0.5" style="stop-color:#8cc999;stop-opacity:1"/><stop offset="1" style="stop-color:#10e13e;stop-opacity:1"/></linearGradient><linearGradient id="_Linear30" x1="0" y1="0" x2="1" y2="0" gradientUnits="userSpaceOnUse" gradientTransform="matrix(128.789,-105.185,105.185,128.789,191.042,429.711)"><stop offset="0" style="stop-color:#fff;stop-opacity:1"/><stop offset="0.5" style="stop-color:#8cc999;stop-opacity:1"/><stop offset="1" style="stop-color:#10e13e;stop-opacity:1"/></linearGradient><linearGradient id="_Linear31" x1="0" y1="0" x2="1" y2="0" gradientUnits="userSpaceOnUse" gradientTransform="matrix(128.789,-105.185,105.185,128.789,191.042,429.711)"><stop offset="0" style="stop-color:#fff;stop-opacity:1"/><stop offset="0.5" style="stop-color:#8cc999;stop-opacity:1"/><stop offset="1" style="stop-color:#10e13e;stop-opacity:1"/></linearGradient><linearGradient id="_Linear32" x1="0" y1="0" x2="1" y2="0" gradientUnits="userSpaceOnUse" gradientTransform="matrix(128.789,-105.185,105.185,128.789,191.042,429.711)"><stop offset="0" style="stop-color:#fff;stop-opacity:1"/><stop offset="0.5" style="stop-color:#8cc999;stop-opacity:1"/><stop offset="1" style="stop-color:#10e13e;stop-opacity:1"/></linearGradient><linearGradient id="_Linear33" x1="0" y1="0" x2="1" y2="0" gradientUnits="userSpaceOnUse" gradientTransform="matrix(128.789,-105.185,105.185,128.789,191.042,429.711)"><stop offset="0" style="stop-color:#fff;stop-opacity:1"/><stop offset="0.5" style="stop-color:#8cc999;stop-opacity:1"/><stop offset="1" style="stop-color:#10e13e;stop-opacity:1"/></linearGradient><linearGradient id="_Linear34" x1="0" y1="0" x2="1" y2="0" gradientUnits="userSpaceOnUse" gradientTransform="matrix(128.789,-105.185,105.185,128.789,191.042,429.711)"><stop offset="0" style="stop-color:#fff;stop-opacity:1"/><stop offset="0.5" style="stop-color:#8cc999;stop-opacity:1"/><stop offset="1" style="stop-color:#10e13e;stop-opacity:1"/></linearGradient><linearGradient id="_Linear35" x1="0" y1="0" x2="1" y2="0" gradientUnits="userSpaceOnUse" gradientTransform="matrix(128.789,-105.185,105.185,128.789,191.042,429.711)"><stop offset="0" style="stop-color:#fff;stop-opacity:1"/><stop offset="0.5" style="stop-color:#8cc999;stop-opacity:1"/><stop offset="1" style="stop-color:#10e13e;stop-opacity:1"/></linearGradient><linearGradient id="_Linear36" x1="0" y1="0" x2="1" y2="0" gradientUnits="userSpaceOnUse" gradientTransform="matrix(128.789,-105.185,105.185,128.789,191.042,429.711)"><stop offset="0" style="stop-color:#fff;stop-opacity:1"/><stop offset="0.5" style="stop-color:#8cc999;stop-opacity:1"/><stop offset="1" style="stop-color:#10e13e;stop-opacity:1"/></linearGradient><linearGradient id="_Linear37" x1="0" y1="0" x2="1" y2="0" gradientUnits="userSpaceOnUse" gradientTransform="matrix(128.789,-105.185,105.185,128.789,191.042,429.711)"><stop offset="0" style="stop-color:#fff;stop-opacity:1"/><stop offset="0.5" style="stop-color:#8cc999;stop-opacity:1"/><stop offset="1" style="stop-color:#10e13e;stop-opacity:1"/></linearGradient><linearGradient id="_Linear38" x1="0" y1="0" x2="1" y2="0" gradientUnits="userSpaceOnUse" gradientTransform="matrix(128.789,-105.185,105.185,128.789,191.042,429.711)"><stop offset="0" style="stop-color:#fff;stop-opacity:1"/><stop offset="0.5" style="stop-color:#8cc999;stop-opacity:1"/><stop offset="1" style="stop-color:#10e13e;stop-opacity:1"/></linearGradient><linearGradient id="_Linear39" x1="0" y1="0" x2="1" y2="0" gradientUnits="userSpaceOnUse" gradientTransform="matrix(128.789,-105.185,105.185,128.789,191.042,429.711)"><stop offset="0" style="stop-color:#fff;stop-opacity:1"/><stop offset="0.5" style="stop-color:#8cc999;stop-opacity:1"/><stop offset="1" style="stop-color:#10e13e;stop-opacity:1"/></linearGradient><linearGradient id="_Linear40" x1="0" y1="0" x2="1" y2="0" gradientUnits="userSpaceOnUse" gradientTransform="matrix(128.789,-105.185,105.185,128.789,191.042,429.711)"><stop offset="0" style="stop-color:#fff;stop-opacity:1"/><stop offset="0.5" style="stop-color:#8cc999;stop-opacity:1"/><stop offset="1" style="stop-color:#10e13e;stop-opacity:1"/></linearGradient><linearGradient id="_Linear41" x1="0" y1="0" x2="1" y2="0" gradientUnits="userSpaceOnUse" gradientTransform="matrix(128.789,-105.185,105.185,128.789,191.042,429.711)"><stop offset="0" style="stop-color:#fff;stop-opacity:1"/><stop offset="0.5" style="stop-color:#8cc999;stop-opacity:1"/><stop offset="1" style="stop-color:#10e13e;stop-opacity:1"/></linearGradient><linearGradient id="_Linear42" x1="0" y1="0" x2="1" y2="0" gradientUnits="userSpaceOnUse" gradientTransform="matrix(128.789,-105.185,105.185,128.789,191.042,429.711)"><stop offset="0" style="stop-color:#fff;stop-opacity:1"/><stop offset="0.5" style="stop-color:#8cc999;stop-opacity:1"/><stop offset="1" style="stop-color:#10e13e;stop-opacity:1"/></linearGradient><linearGradient id="_Linear43" x1="0" y1="0" x2="1" y2="0" gradientUnits="userSpaceOnUse" gradientTransform="matrix(128.789,-105.185,105.185,128.789,191.042,429.711)"><stop offset="0" style="stop-color:#fff;stop-opacity:1"/><stop offset="0.5" style="stop-color:#8cc999;stop-opacity:1"/><stop offset="1" style="stop-color:#10e13e;stop-opacity:1"/></linearGradient><linearGradient id="_Linear44" x1="0" y1="0" x2="1" y2="0" gradientUnits="userSpaceOnUse" gradientTransform="matrix(128.789,-105.185,105.185,128.789,191.042,429.711)"><stop offset="0" style="stop-color:#fff;stop-opacity:1"/><stop offset="0.5" style="stop-color:#8cc999;stop-opacity:1"/><stop offset="1" style="stop-color:#10e13e;stop-opacity:1"/></linearGradient><linearGradient id="_Linear45" x1="0" y1="0" x2="1" y2="0" gradientUnits="userSpaceOnUse" gradientTransform="matrix(128.789,-105.185,105.185,128.789,191.042,429.711)"><stop offset="0" style="stop-color:#fff;stop-opacity:1"/><stop offset="0.5" style="stop-color:#8cc999;stop-opacity:1"/><stop offset="1" style="stop-color:#10e13e;stop-opacity:1"/></linearGradient><linearGradient id="_Linear46" x1="0" y1="0" x2="1" y2="0" gradientUnits="userSpaceOnUse" gradientTransform="matrix(128.789,-105.185,105.185,128.789,191.042,429.711)"><stop offset="0" style="stop-color:#fff;stop-opacity:1"/><stop offset="0.5" style="stop-color:#8cc999;stop-opacity:1"/><stop offset="1" style="stop-color:#10e13e;stop-opacity:1"/></linearGradient><linearGradient id="_Linear47" x1="0" y1="0" x2="1" y2="0" gradientUnits="userSpaceOnUse" gradientTransform="matrix(128.789,-105.185,105.185,128.789,191.042,429.711)"><stop offset="0" style="stop-color:#fff;stop-opacity:1"/><stop offset="0.5" style="stop-color:#8cc999;stop-opacity:1"/><stop offset="1" style="stop-color:#10e13e;stop-opacity:1"/></linearGradient><linearGradient id="_Linear48" x1="0" y1="0" x2="1" y2="0" gradientUnits="userSpaceOnUse" gradientTransform="matrix(128.789,-105.185,105.185,128.789,191.042,429.711)"><stop offset="0" style="stop-color:#fff;stop-opacity:1"/><stop offset="0.5" style="stop-color:#8cc999;stop-opacity:1"/><stop offset="1" style="stop-color:#10e13e;stop-opacity:1"/></linearGradient><linearGradient id="_Linear49" x1="0" y1="0" x2="1" y2="0" gradientUnits="userSpaceOnUse" gradientTransform="matrix(128.789,-105.185,105.185,128.789,191.042,429.711)"><stop offset="0" style="stop-color:#fff;stop-opacity:1"/><stop offset="0.5" style="stop-color:#8cc999;stop-opacity:1"/><stop offset="1" style="stop-color:#10e13e;stop-opacity:1"/></linearGradient><linearGradient id="_Linear50" x1="0" y1="0" x2="1" y2="0" gradientUnits="userSpaceOnUse" gradientTransform="matrix(128.789,-105.185,105.185,128.789,191.042,429.711)"><stop offset="0" style="stop-color:#fff;stop-opacity:1"/><stop offset="0.5" style="stop-color:#8cc999;stop-opacity:1"/><stop offset="1" style="stop-color:#10e13e;stop-opacity:1"/></linearGradient><linearGradient id="_Linear51" x1="0" y1="0" x2="1" y2="0" gradientUnits="userSpaceOnUse" gradientTransform="matrix(128.789,-105.185,105.185,128.789,191.042,429.711)"><stop offset="0" style="stop-color:#fff;stop-opacity:1"/><stop offset="0.5" style="stop-color:#8cc999;stop-opacity:1"/><stop offset="1" style="stop-color:#10e13e;stop-opacity:1"/></linearGradient><linearGradient id="_Linear52" x1="0" y1="0" x2="1" y2="0" gradientUnits="userSpaceOnUse" gradientTransform="matrix(128.789,-105.185,105.185,128.789,191.042,429.711)"><stop offset="0" style="stop-color:#fff;stop-opacity:1"/><stop offset="0.5" style="stop-color:#8cc999;stop-opacity:1"/><stop offset="1" style="stop-color:#10e13e;stop-opacity:1"/></linearGradient><linearGradient id="_Linear53" x1="0" y1="0" x2="1" y2="0" gradientUnits="userSpaceOnUse" gradientTransform="matrix(128.789,-105.185,105.185,128.789,191.042,429.711)"><stop offset="0" style="stop-color:#fff;stop-opacity:1"/><stop offset="0.5" style="stop-color:#8cc999;stop-opacity:1"/><stop offset="1" style="stop-color:#10e13e;stop-opacity:1"/></linearGradient><linearGradient id="_Linear54" x1="0" y1="0" x2="1" y2="0" gradientUnits="userSpaceOnUse" gradientTransform="matrix(128.789,-105.185,105.185,128.789,191.042,429.711)"><stop offset="0" style="stop-color:#fff;stop-opacity:1"/><stop offset="0.5" style="stop-color:#8cc999;stop-opacity:1"/><stop offset="1" style="stop-color:#10e13e;stop-opacity:1"/></linearGradient><linearGradient id="_Linear55" x1="0" y1="0" x2="1" y2="0" gradientUnits="userSpaceOnUse" gradientTransform="matrix(128.789,-105.185,105.185,128.789,191.042,429.711)"><stop offset="0" style="stop-color:#fff;stop-opacity:1"/><stop offset="0.5" style="stop-color:#8cc999;stop-opacity:1"/><stop offset="1" style="stop-color:#10e13e;stop-opacity:1"/></linearGradient><linearGradient id="_Linear56" x1="0" y1="0" x2="1" y2="0" gradientUnits="userSpaceOnUse" gradientTransform="matrix(128.789,-105.185,105.185,128.789,191.042,429.711)"><stop offset="0" style="stop-color:#fff;stop-opacity:1"/><stop offset="0.5" style="stop-color:#8cc999;stop-opacity:1"/><stop offset="1" style="stop-color:#10e13e;stop-opacity:1"/></linearGradient><linearGradient id="_Linear57" x1="0" y1="0" x2="1" y2="0" gradientUnits="userSpaceOnUse" gradientTransform="matrix(128.789,-105.185,105.185,128.789,191.042,429.711)"><stop offset="0" style="stop-color:#fff;stop-opacity:1"/><stop offset="0.5" style="stop-color:#8cc999;stop-opacity:1"/><stop offset="1" style="stop-color:#10e13e;stop-opacity:1"/></linearGradient><linearGradient id="_Linear58" x1="0" y1="0" x2="1" y2="0" gradientUnits="userSpaceOnUse" gradientTransform="matrix(128.789,-105.185,105.185,128.789,191.042,429.711)"><stop offset="0" style="stop-color:#fff;stop-opacity:1"/><stop offset="0.5" style="stop-color:#8cc999;stop-opacity:1"/><stop offset="1" style="stop-color:#10e13e;stop-opacity:1"/></linearGradient><linearGradient id="_Linear59" x1="0" y1="0" x2="1" y2="0" gradientUnits="userSpaceOnUse" gradientTransform="matrix(128.789,-105.185,105.185,128.789,191.042,429.711)"><stop offset="0" style="stop-color:#fff;stop-opacity:1"/><stop offset="0.5" style="stop-color:#8cc999;stop-opacity:1"/><stop offset="1" style="stop-color:#10e13e;stop-opacity:1"/></linearGradient><linearGradient id="_Linear60" x1="0" y1="0" x2="1" y2="0" gradientUnits="userSpaceOnUse" gradientTransform="matrix(128.789,-105.185,105.185,128.789,191.042,429.711)"><stop offset="0" style="stop-color:#fff;stop-opacity:1"/><stop offset="0.5" style="stop-color:#8cc999;stop-opacity:1"/><stop offset="1" style="stop-color:#10e13e;stop-opacity:1"/></linearGradient><linearGradient id="_Linear61" x1="0" y1="0" x2="1" y2="0" gradientUnits="userSpaceOnUse" gradientTransform="matrix(128.789,-105.185,105.185,128.789,191.042,429.711)"><stop offset="0" style="stop-color:#fff;stop-opacity:1"/><stop offset="0.5" style="stop-color:#8cc999;stop-opacity:1"/><stop offset="1" style="stop-color:#10e13e;stop-opacity:1"/></linearGradient><linearGradient id="_Linear62" x1="0" y1="0" x2="1" y2="0" gradientUnits="userSpaceOnUse" gradientTransform="matrix(128.789,-105.185,105.185,128.789,191.042,429.711)"><stop offset="0" style="stop-color:#fff;stop-opacity:1"/><stop offset="0.5" style="stop-color:#8cc999;stop-opacity:1"/><stop offset="1" style="stop-color:#10e13e;stop-opacity:1"/></linearGradient><linearGradient id="_Linear63" x1="0" y1="0" x2="1" y2="0" gradientUnits="userSpaceOnUse" gradientTransform="matrix(128.789,-105.185,105.185,128.789,191.042,429.711)"><stop offset="0" style="stop-color:#fff;stop-opacity:1"/><stop offset="0.5" style="stop-color:#8cc999;stop-opacity:1"/><stop offset="1" style="stop-color:#10e13e;stop-opacity:1"/></linearGradient><linearGradient id="_Linear64" x1="0" y1="0" x2="1" y2="0" gradientUnits="userSpaceOnUse" gradientTransform="matrix(128.789,-105.185,105.185,128.789,191.042,429.711)"><stop offset="0" style="stop-color:#fff;stop-opacity:1"/><stop offset="0.5" style="stop-color:#8cc999;stop-opacity:1"/><stop offset="1" style="stop-color:#10e13e;stop-opacity:1"/></linearGradient><linearGradient id="_Linear65" x1="0" y1="0" x2="1" y2="0" gradientUnits="userSpaceOnUse" gradientTransform="matrix(128.789,-105.185,105.185,128.789,191.042,429.711)"><stop offset="0" style="stop-color:#fff;stop-opacity:1"/><stop offset="0.5" style="stop-color:#8cc999;stop-opacity:1"/><stop offset="1" style="stop-color:#10e13e;stop-opacity:1"/></linearGradient><linearGradient id="_Linear66" x1="0" y1="0" x2="1" y2="0" gradientUnits="userSpaceOnUse" gradientTransform="matrix(128.789,-105.185,105.185,128.789,191.042,429.711)"><stop offset="0" style="stop-color:#fff;stop-opacity:1"/><stop offset="0.5" style="stop-color:#8cc999;stop-opacity:1"/><stop offset="1" style="stop-color:#10e13e;stop-opacity:1"/></linearGradient><linearGradient id="_Linear67" x1="0" y1="0" x2="1" y2="0" gradientUnits="userSpaceOnUse" gradientTransform="matrix(128.789,-105.185,105.185,128.789,191.042,429.711)"><stop offset="0" style="stop-color:#fff;stop-opacity:1"/><stop offset="0.5" style="stop-color:#8cc999;stop-opacity:1"/><stop offset="1" style="stop-color:#10e13e;stop-opacity:1"/></linearGradient><linearGradient id="_Linear68" x1="0" y1="0" x2="1" y2="0" gradientUnits="userSpaceOnUse" gradientTransform="matrix(128.789,-105.185,105.185,128.789,191.042,429.711)"><stop offset="0" style="stop-color:#fff;stop-opacity:1"/><stop offset="0.5" style="stop-color:#8cc999;stop-opacity:1"/><stop offset="1" style="stop-color:#10e13e;stop-opacity:1"/></linearGradient><linearGradient id="_Linear69" x1="0" y1="0" x2="1" y2="0" gradientUnits="userSpaceOnUse" gradientTransform="matrix(128.789,-105.185,105.185,128.789,191.042,429.711)"><stop offset="0" style="stop-color:#fff;stop-opacity:1"/><stop offset="0.5" style="stop-color:#8cc999;stop-opacity:1"/><stop offset="1" style="stop-color:#10e13e;stop-opacity:1"/></linearGradient><linearGradient id="_Linear70" x1="0" y1="0" x2="1" y2="0" gradientUnits="userSpaceOnUse" gradientTransform="matrix(128.789,-105.185,105.185,128.789,191.042,429.711)"><stop offset="0" style="stop-color:#fff;stop-opacity:1"/><stop offset="0.5" style="stop-color:#8cc999;stop-opacity:1"/><stop offset="1" style="stop-color:#10e13e;stop-opacity:1"/></linearGradient><linearGradient id="_Linear71" x1="0" y1="0" x2="1" y2="0" gradientUnits="userSpaceOnUse" gradientTransform="matrix(128.789,-105.185,105.185,128.789,191.042,429.711)"><stop offset="0" style="stop-color:#fff;stop-opacity:1"/><stop offset="0.5" style="stop-color:#8cc999;stop-opacity:1"/><stop offset="1" style="stop-color:#10e13e;stop-opacity:1"/></linearGradient><linearGradient id="_Linear72" x1="0" y1="0" x2="1" y2="0" gradientUnits="userSpaceOnUse" gradientTransform="matrix(128.789,-105.185,105.185,128.789,191.042,429.711)"><stop offset="0" style="stop-color:#fff;stop-opacity:1"/><stop offset="0.5" style="stop-color:#8cc999;stop-opacity:1"/><stop offset="1" style="stop-color:#10e13e;stop-opacity:1"/></linearGradient><linearGradient id="_Linear73" x1="0" y1="0" x2="1" y2="0" gradientUnits="userSpaceOnUse" gradientTransform="matrix(128.789,-105.185,105.185,128.789,191.042,429.711)"><stop offset="0" style="stop-color:#fff;stop-opacity:1"/><stop offset="0.5" style="stop-color:#8cc999;stop-opacity:1"/><stop offset="1" style="stop-color:#10e13e;stop-opacity:1"/></linearGradient><linearGradient id="_Linear74" x1="0" y1="0" x2="1" y2="0" gradientUnits="userSpaceOnUse" gradientTransform="matrix(128.789,-105.185,105.185,128.789,191.042,429.711)"><stop offset="0" style="stop-color:#fff;stop-opacity:1"/><stop offset="0.5" style="stop-color:#8cc999;stop-opacity:1"/><stop offset="1" style="stop-color:#10e13e;stop-opacity:1"/></linearGradient><linearGradient id="_Linear75" x1="0" y1="0" x2="1" y2="0" gradientUnits="userSpaceOnUse" gradientTransform="matrix(128.789,-105.185,105.185,128.789,191.042,429.711)"><stop offset="0" style="stop-color:#fff;stop-opacity:1"/><stop offset="0.5" style="stop-color:#8cc999;stop-opacity:1"/><stop offset="1" style="stop-color:#10e13e;stop-opacity:1"/></linearGradient><linearGradient id="_Linear76" x1="0" y1="0" x2="1" y2="0" gradientUnits="userSpaceOnUse" gradientTransform="matrix(128.789,-105.185,105.185,128.789,191.042,429.711)"><stop offset="0" style="stop-color:#fff;stop-opacity:1"/><stop offset="0.5" style="stop-color:#8cc999;stop-opacity:1"/><stop offset="1" style="stop-color:#10e13e;stop-opacity:1"/></linearGradient><linearGradient id="_Linear77" x1="0" y1="0" x2="1" y2="0" gradientUnits="userSpaceOnUse" gradientTransform="matrix(128.789,-105.185,105.185,128.789,191.042,429.711)"><stop offset="0" style="stop-color:#fff;stop-opacity:1"/><stop offset="0.5" style="stop-color:#8cc999;stop-opacity:1"/><stop offset="1" style="stop-color:#10e13e;stop-opacity:1"/></linearGradient><linearGradient id="_Linear78" x1="0" y1="0" x2="1" y2="0" gradientUnits="userSpaceOnUse" gradientTransform="matrix(128.789,-105.185,105.185,128.789,191.042,429.711)"><stop offset="0" style="stop-color:#fff;stop-opacity:1"/><stop offset="0.5" style="stop-color:#8cc999;stop-opacity:1"/><stop offset="1" style="stop-color:#10e13e;stop-opacity:1"/></linearGradient><linearGradient id="_Linear79" x1="0" y1="0" x2="1" y2="0" gradientUnits="userSpaceOnUse" gradientTransform="matrix(128.789,-105.185,105.185,128.789,191.042,429.711)"><stop offset="0" style="stop-color:#fff;stop-opacity:1"/><stop offset="0.5" style="stop-color:#8cc999;stop-opacity:1"/><stop offset="1" style="stop-color:#10e13e;stop-opacity:1"/></linearGradient><linearGradient id="_Linear80" x1="0" y1="0" x2="1" y2="0" gradientUnits="userSpaceOnUse" gradientTransform="matrix(128.789,-105.185,105.185,128.789,191.042,429.711)"><stop offset="0" style="stop-color:#fff;stop-opacity:1"/><stop offset="0.5" style="stop-color:#8cc999;stop-opacity:1"/><stop offset="1" style="stop-color:#10e13e;stop-opacity:1"/></linearGradient><linearGradient id="_Linear81" x1="0" y1="0" x2="1" y2="0" gradientUnits="userSpaceOnUse" gradientTransform="matrix(128.789,-105.185,105.185,128.789,191.042,429.711)"><stop offset="0" style="stop-color:#fff;stop-opacity:1"/><stop offset="0.5" style="stop-color:#8cc999;stop-opacity:1"/><stop offset="1" style="stop-color:#10e13e;stop-opacity:1"/></linearGradient><linearGradient id="_Linear82" x1="0" y1="0" x2="1" y2="0" gradientUnits="userSpaceOnUse" gradientTransform="matrix(128.789,-105.185,105.185,128.789,191.042,429.711)"><stop offset="0" style="stop-color:#fff;stop-opacity:1"/><stop offset="0.5" style="stop-color:#8cc999;stop-opacity:1"/><stop offset="1" style="stop-color:#10e13e;stop-opacity:1"/></linearGradient><linearGradient id="_Linear83" x1="0" y1="0" x2="1" y2="0" gradientUnits="userSpaceOnUse" gradientTransform="matrix(128.789,-105.185,105.185,128.789,191.042,429.711)"><stop offset="0" style="stop-color:#fff;stop-opacity:1"/><stop offset="0.5" style="stop-color:#8cc999;stop-opacity:1"/><stop offset="1" style="stop-color:#10e13e;stop-opacity:1"/></linearGradient><linearGradient id="_Linear84" x1="0" y1="0" x2="1" y2="0" gradientUnits="userSpaceOnUse" gradientTransform="matrix(128.789,-105.185,105.185,128.789,191.042,429.711)"><stop offset="0" style="stop-color:#fff;stop-opacity:1"/><stop offset="0.5" style="stop-color:#8cc999;stop-opacity:1"/><stop offset="1" style="stop-color:#10e13e;stop-opacity:1"/></linearGradient><linearGradient id="_Linear85" x1="0" y1="0" x2="1" y2="0" gradientUnits="userSpaceOnUse" gradientTransform="matrix(128.789,-105.185,105.185,128.789,191.042,429.711)"><stop offset="0" style="stop-color:#fff;stop-opacity:1"/><stop offset="0.5" style="stop-color:#8cc999;stop-opacity:1"/><stop offset="1" style="stop-color:#10e13e;stop-opacity:1"/></linearGradient><linearGradient id="_Linear86" x1="0" y1="0" x2="1" y2="0" gradientUnits="userSpaceOnUse" gradientTransform="matrix(128.789,-105.185,105.185,128.789,191.042,429.711)"><stop offset="0" style="stop-color:#fff;stop-opacity:1"/><stop offset="0.5" style="stop-color:#8cc999;stop-opacity:1"/><stop offset="1" style="stop-color:#10e13e;stop-opacity:1"/></linearGradient><linearGradient id="_Linear87" x1="0" y1="0" x2="1" y2="0" gradientUnits="userSpaceOnUse" gradientTransform="matrix(128.789,-105.185,105.185,128.789,191.042,429.711)"><stop offset="0" style="stop-color:#fff;stop-opacity:1"/><stop offset="0.5" style="stop-color:#8cc999;stop-opacity:1"/><stop offset="1" style="stop-color:#10e13e;stop-opacity:1"/></linearGradient><linearGradient id="_Linear88" x1="0" y1="0" x2="1" y2="0" gradientUnits="userSpaceOnUse" gradientTransform="matrix(128.789,-105.185,105.185,128.789,191.042,429.711)"><stop offset="0" style="stop-color:#fff;stop-opacity:1"/><stop offset="0.5" style="stop-color:#8cc999;stop-opacity:1"/><stop offset="1" style="stop-color:#10e13e;stop-opacity:1"/></linearGradient><linearGradient id="_Linear89" x1="0" y1="0" x2="1" y2="0" gradientUnits="userSpaceOnUse" gradientTransform="matrix(128.789,-105.185,105.185,128.789,191.042,429.711)"><stop offset="0" style="stop-color:#fff;stop-opacity:1"/><stop offset="0.5" style="stop-color:#8cc999;stop-opacity:1"/><stop offset="1" style="stop-color:#10e13e;stop-opacity:1"/></linearGradient><linearGradient id="_Linear90" x1="0" y1="0" x2="1" y2="0" gradientUnits="userSpaceOnUse" gradientTransform="matrix(128.789,-105.185,105.185,128.789,191.042,429.711)"><stop offset="0" style="stop-color:#fff;stop-opacity:1"/><stop offset="0.5" style="stop-color:#8cc999;stop-opacity:1"/><stop offset="1" style="stop-color:#10e13e;stop-opacity:1"/></linearGradient><linearGradient id="_Linear91" x1="0" y1="0" x2="1" y2="0" gradientUnits="userSpaceOnUse" gradientTransform="matrix(128.789,-105.185,105.185,128.789,191.042,429.711)"><stop offset="0" style="stop-color:#fff;stop-opacity:1"/><stop offset="0.5" style="stop-color:#8cc999;stop-opacity:1"/><stop offset="1" style="stop-color:#10e13e;stop-opacity:1"/></linearGradient><linearGradient id="_Linear92" x1="0" y1="0" x2="1" y2="0" gradientUnits="userSpaceOnUse" gradientTransform="matrix(128.789,-105.185,105.185,128.789,191.042,429.711)"><stop offset="0" style="stop-color:#fff;stop-opacity:1"/><stop offset="0.5" style="stop-color:#8cc999;stop-opacity:1"/><stop offset="1" style="stop-color:#10e13e;stop-opacity:1"/></linearGradient><linearGradient id="_Linear93" x1="0" y1="0" x2="1" y2="0" gradientUnits="userSpaceOnUse" gradientTransform="matrix(128.789,-105.185,105.185,128.789,191.042,429.711)"><stop offset="0" style="stop-color:#fff;stop-opacity:1"/><stop offset="0.5" style="stop-color:#8cc999;stop-opacity:1"/><stop offset="1" style="stop-color:#10e13e;stop-opacity:1"/></linearGradient><linearGradient id="_Linear94" x1="0" y1="0" x2="1" y2="0" gradientUnits="userSpaceOnUse" gradientTransform="matrix(128.789,-105.185,105.185,128.789,191.042,429.711)"><stop offset="0" style="stop-color:#fff;stop-opacity:1"/><stop offset="0.5" style="stop-color:#8cc999;stop-opacity:1"/><stop offset="1" style="stop-color:#10e13e;stop-opacity:1"/></linearGradient><linearGradient id="_Linear95" x1="0" y1="0" x2="1" y2="0" gradientUnits="userSpaceOnUse" gradientTransform="matrix(128.789,-105.185,105.185,128.789,191.042,429.711)"><stop offset="0" style="stop-color:#fff;stop-opacity:1"/><stop offset="0.5" style="stop-color:#8cc999;stop-opacity:1"/><stop offset="1" style="stop-color:#10e13e;stop-opacity:1"/></linearGradient><linearGradient id="_Linear96" x1="0" y1="0" x2="1" y2="0" gradientUnits="userSpaceOnUse" gradientTransform="matrix(128.789,-105.185,105.185,128.789,191.042,429.711)"><stop offset="0" style="stop-color:#fff;stop-opacity:1"/><stop offset="0.5" style="stop-color:#8cc999;stop-opacity:1"/><stop offset="1" style="stop-color:#10e13e;stop-opacity:1"/></linearGradient><linearGradient id="_Linear97" x1="0" y1="0" x2="1" y2="0" gradientUnits="userSpaceOnUse" gradientTransform="matrix(128.789,-105.185,105.185,128.789,191.042,429.711)"><stop offset="0" style="stop-color:#fff;stop-opacity:1"/><stop offset="0.5" style="stop-color:#8cc999;stop-opacity:1"/><stop offset="1" style="stop-color:#10e13e;stop-opacity:1"/></linearGradient><linearGradient id="_Linear98" x1="0" y1="0" x2="1" y2="0" gradientUnits="userSpaceOnUse" gradientTransform="matrix(128.789,-105.185,105.185,128.789,191.042,429.711)"><stop offset="0" style="stop-color:#fff;stop-opacity:1"/><stop offset="0.5" style="stop-color:#8cc999;stop-opacity:1"/><stop offset="1" style="stop-color:#10e13e;stop-opacity:1"/></linearGradient><linearGradient id="_Linear99" x1="0" y1="0" x2="1" y2="0" gradientUnits="userSpaceOnUse" gradientTransform="matrix(128.789,-105.185,105.185,128.789,191.042,429.711)"><stop offset="0" style="stop-color:#fff;stop-opacity:1"/><stop offset="0.5" style="stop-color:#8cc999;stop-opacity:1"/><stop offset="1" style="stop-color:#10e13e;stop-opacity:1"/></linearGradient><linearGradient id="_Linear100" x1="0" y1="0" x2="1" y2="0" gradientUnits="userSpaceOnUse" gradientTransform="matrix(128.789,-105.185,105.185,128.789,191.042,429.711)"><stop offset="0" style="stop-color:#fff;stop-opacity:1"/><stop offset="0.5" style="stop-color:#8cc999;stop-opacity:1"/><stop offset="1" style="stop-color:#10e13e;stop-opacity:1"/></linearGradient><linearGradient id="_Linear101" x1="0" y1="0" x2="1" y2="0" gradientUnits="userSpaceOnUse" gradientTransform="matrix(128.789,-105.185,105.185,128.789,191.042,429.711)"><stop offset="0" style="stop-color:#fff;stop-opacity:1"/><stop offset="0.5" style="stop-color:#8cc999;stop-opacity:1"/><stop offset="1" style="stop-color:#10e13e;stop-opacity:1"/></linearGradient><linearGradient id="_Linear102" x1="0" y1="0" x2="1" y2="0" gradientUnits="userSpaceOnUse" gradientTransform="matrix(128.789,-105.185,105.185,128.789,191.042,429.711)"><stop offset="0" style="stop-color:#fff;stop-opacity:1"/><stop offset="0.5" style="stop-color:#8cc999;stop-opacity:1"/><stop offset="1" style="stop-color:#10e13e;stop-opacity:1"/></linearGradient><linearGradient id="_Linear103" x1="0" y1="0" x2="1" y2="0" gradientUnits="userSpaceOnUse" gradientTransform="matrix(128.789,-105.185,105.185,128.789,191.042,429.711)"><stop offset="0" style="stop-color:#fff;stop-opacity:1"/><stop offset="0.5" style="stop-color:#8cc999;stop-opacity:1"/><stop offset="1" style="stop-color:#10e13e;stop-opacity:1"/></linearGradient><linearGradient id="_Linear104" x1="0" y1="0" x2="1" y2="0" gradientUnits="userSpaceOnUse" gradientTransform="matrix(128.789,-105.185,105.185,128.789,191.042,429.711)"><stop offset="0" style="stop-color:#fff;stop-opacity:1"/><stop offset="0.5" style="stop-color:#8cc999;stop-opacity:1"/><stop offset="1" style="stop-color:#10e13e;stop-opacity:1"/></linearGradient><linearGradient id="_Linear105" x1="0" y1="0" x2="1" y2="0" gradientUnits="userSpaceOnUse" gradientTransform="matrix(128.789,-105.185,105.185,128.789,191.042,429.711)"><stop offset="0" style="stop-color:#fff;stop-opacity:1"/><stop offset="0.5" style="stop-color:#8cc999;stop-opacity:1"/><stop offset="1" style="stop-color:#10e13e;stop-opacity:1"/></linearGradient><linearGradient id="_Linear106" x1="0" y1="0" x2="1" y2="0" gradientUnits="userSpaceOnUse" gradientTransform="matrix(128.789,-105.185,105.185,128.789,191.042,429.711)"><stop offset="0" style="stop-color:#fff;stop-opacity:1"/><stop offset="0.5" style="stop-color:#8cc999;stop-opacity:1"/><stop offset="1" style="stop-color:#10e13e;stop-opacity:1"/></linearGradient><linearGradient id="_Linear107" x1="0" y1="0" x2="1" y2="0" gradientUnits="userSpaceOnUse" gradientTransform="matrix(128.789,-105.185,105.185,128.789,191.042,429.711)"><stop offset="0" style="stop-color:#fff;stop-opacity:1"/><stop offset="0.5" style="stop-color:#8cc999;stop-opacity:1"/><stop offset="1" style="stop-color:#10e13e;stop-opacity:1"/></linearGradient><linearGradient id="_Linear108" x1="0" y1="0" x2="1" y2="0" gradientUnits="userSpaceOnUse" gradientTransform="matrix(128.789,-105.185,105.185,128.789,191.042,429.711)"><stop offset="0" style="stop-color:#fff;stop-opacity:1"/><stop offset="0.5" style="stop-color:#8cc999;stop-opacity:1"/><stop offset="1" style="stop-color:#10e13e;stop-opacity:1"/></linearGradient><linearGradient id="_Linear109" x1="0" y1="0" x2="1" y2="0" gradientUnits="userSpaceOnUse" gradientTransform="matrix(128.789,-105.185,105.185,128.789,191.042,429.711)"><stop offset="0" style="stop-color:#fff;stop-opacity:1"/><stop offset="0.5" style="stop-color:#8cc999;stop-opacity:1"/><stop offset="1" style="stop-color:#10e13e;stop-opacity:1"/></linearGradient><linearGradient id="_Linear110" x1="0" y1="0" x2="1" y2="0" gradientUnits="userSpaceOnUse" gradientTransform="matrix(128.789,-105.185,105.185,128.789,191.042,429.711)"><stop offset="0" style="stop-color:#fff;stop-opacity:1"/><stop offset="0.5" style="stop-color:#8cc999;stop-opacity:1"/><stop offset="1" style="stop-color:#10e13e;stop-opacity:1"/></linearGradient><linearGradient id="_Linear111" x1="0" y1="0" x2="1" y2="0" gradientUnits="userSpaceOnUse" gradientTransform="matrix(128.789,-105.185,105.185,128.789,191.042,429.711)"><stop offset="0" style="stop-color:#fff;stop-opacity:1"/><stop offset="0.5" style="stop-color:#8cc999;stop-opacity:1"/><stop offset="1" style="stop-color:#10e13e;stop-opacity:1"/></linearGradient><linearGradient id="_Linear112" x1="0" y1="0" x2="1" y2="0" gradientUnits="userSpaceOnUse" gradientTransform="matrix(128.789,-105.185,105.185,128.789,191.042,429.711)"><stop offset="0" style="stop-color:#fff;stop-opacity:1"/><stop offset="0.5" style="stop-color:#8cc999;stop-opacity:1"/><stop offset="1" style="stop-color:#10e13e;stop-opacity:1"/></linearGradient><linearGradient id="_Linear113" x1="0" y1="0" x2="1" y2="0" gradientUnits="userSpaceOnUse" gradientTransform="matrix(128.789,-105.185,105.185,128.789,191.042,429.711)"><stop offset="0" style="stop-color:#fff;stop-opacity:1"/><stop offset="0.5" style="stop-color:#8cc999;stop-opacity:1"/><stop offset="1" style="stop-color:#10e13e;stop-opacity:1"/></linearGradient><linearGradient id="_Linear114" x1="0" y1="0" x2="1" y2="0" gradientUnits="userSpaceOnUse" gradientTransform="matrix(128.789,-105.185,105.185,128.789,191.042,429.711)"><stop offset="0" style="stop-color:#fff;stop-opacity:1"/><stop offset="0.5" style="stop-color:#8cc999;stop-opacity:1"/><stop offset="1" style="stop-color:#10e13e;stop-opacity:1"/></linearGradient><linearGradient id="_Linear115" x1="0" y1="0" x2="1" y2="0" gradientUnits="userSpaceOnUse" gradientTransform="matrix(128.789,-105.185,105.185,128.789,191.042,429.711)"><stop offset="0" style="stop-color:#fff;stop-opacity:1"/><stop offset="0.5" style="stop-color:#8cc999;stop-opacity:1"/><stop offset="1" style="stop-color:#10e13e;stop-opacity:1"/></linearGradient><linearGradient id="_Linear116" x1="0" y1="0" x2="1" y2="0" gradientUnits="userSpaceOnUse" gradientTransform="matrix(128.789,-105.185,105.185,128.789,191.042,429.711)"><stop offset="0" style="stop-color:#fff;stop-opacity:1"/><stop offset="0.5" style="stop-color:#8cc999;stop-opacity:1"/><stop offset="1" style="stop-color:#10e13e;stop-opacity:1"/></linearGradient><linearGradient id="_Linear117" x1="0" y1="0" x2="1" y2="0" gradientUnits="userSpaceOnUse" gradientTransform="matrix(128.789,-105.185,105.185,128.789,191.042,429.711)"><stop offset="0" style="stop-color:#fff;stop-opacity:1"/><stop offset="0.5" style="stop-color:#8cc999;stop-opacity:1"/><stop offset="1" style="stop-color:#10e13e;stop-opacity:1"/></linearGradient><linearGradient id="_Linear118" x1="0" y1="0" x2="1" y2="0" gradientUnits="userSpaceOnUse" gradientTransform="matrix(128.789,-105.185,105.185,128.789,191.042,429.711)"><stop offset="0" style="stop-color:#fff;stop-opacity:1"/><stop offset="0.5" style="stop-color:#8cc999;stop-opacity:1"/><stop offset="1" style="stop-color:#10e13e;stop-opacity:1"/></linearGradient><linearGradient id="_Linear119" x1="0" y1="0" x2="1" y2="0" gradientUnits="userSpaceOnUse" gradientTransform="matrix(128.789,-105.185,105.185,128.789,191.042,429.711)"><stop offset="0" style="stop-color:#fff;stop-opacity:1"/><stop offset="0.5" style="stop-color:#8cc999;stop-opacity:1"/><stop offset="1" style="stop-color:#10e13e;stop-opacity:1"/></linearGradient><linearGradient id="_Linear120" x1="0" y1="0" x2="1" y2="0" gradientUnits="userSpaceOnUse" gradientTransform="matrix(128.789,-105.185,105.185,128.789,191.042,429.711)"><stop offset="0" style="stop-color:#fff;stop-opacity:1"/><stop offset="0.5" style="stop-color:#8cc999;stop-opacity:1"/><stop offset="1" style="stop-color:#10e13e;stop-opacity:1"/></linearGradient><linearGradient id="_Linear121" x1="0" y1="0" x2="1" y2="0" gradientUnits="userSpaceOnUse" gradientTransform="matrix(128.789,-105.185,105.185,128.789,191.042,429.711)"><stop offset="0" style="stop-color:#fff;stop-opacity:1"/><stop offset="0.5" style="stop-color:#8cc999;stop-opacity:1"/><stop offset="1" style="stop-color:#10e13e;stop-opacity:1"/></linearGradient></defs></svg>